<svg width="135" height="23" viewBox="0 0 135 23" fill="none" xmlns="http://www.w3.org/2000/svg">
<g id="Group 23">
<g id="&#237;&#140;&#148;&#235;&#167;&#140;&#236;&#189;&#148;&#235;&#148;&#169;&#234;&#178;&#189;">
<path d="M41.1494 3.529H34.1404V7.22954H36.199L36.6156 4.21519H39.8995L39.4339 7.22954H41.1494V10.0478H29.3616V7.22954H30.832V3.529H29.3616V0.7107H41.1494V3.529ZM34.9246 17.5715V18.5027H47.3987V21.125H31.4692V14.9492H43.404V14.018H31.4692V11.3957H46.8595V17.5715H34.9246ZM48.4034 0V0.539151C47.8643 0.686193 47.4804 0.963938 47.2516 1.37239C47.0229 1.78084 46.8922 2.34449 46.8595 3.06336V3.97012H49.7758V6.78842H46.8595V10.2929H43.404V0H48.4034Z" fill="#3A3F57"/>
<path d="M51.6724 0.955769H62.48V12.9642H51.6724V0.955769ZM55.1279 3.99463V9.9253H59.0245V3.99463H55.1279ZM56.5493 14.6061V18.0861H69.3419V21.125H53.0448V14.6061H56.5493ZM70.4692 0V0.539151C69.9301 0.686193 69.5461 0.963938 69.3174 1.37239C69.0887 1.78084 68.958 2.34449 68.9253 3.06336V6.17574H71.8416V9.2146H68.9253V15.0963H65.4453V0H70.4692Z" fill="#3A3F57"/>
<path d="M91.068 0.955769V1.51943L89.6597 14.2639H86.2043L86.5833 10.3664H75.25V7.32757H86.8529L87.1224 3.96217H75.005V0.955769H91.068ZM93.9108 16.8472V17.3863C93.9108 17.3863 92.5875 17.7294 92.0973 18.1705C91.6235 18.5953 91.3866 19.1753 91.3866 19.9105H73.3385V16.8472H79.9174V13.0486H83.3974V16.8472H93.9108Z" fill="#3A3F57"/>
<path d="M94.967 0.955769H105.817V3.97012H98.4714V8.30784L106.069 7.74418V10.685L95.4816 11.5918H94.967V0.955769ZM104.77 12.5475C107.155 12.5475 109.067 12.9233 110.504 13.6749C111.958 14.4101 112.685 15.5047 112.685 16.9588C112.685 18.4292 111.958 19.532 110.504 20.2672C109.067 21.0024 107.155 21.37 104.77 21.37C102.368 21.37 100.448 21.0024 99.0106 20.2672C97.5729 19.532 96.854 18.4292 96.854 16.9588C96.854 15.5047 97.5729 14.4101 99.0106 13.6749C100.448 12.9233 102.368 12.5475 104.77 12.5475ZM104.77 18.5272C106.191 18.5272 107.286 18.4047 108.054 18.1596C108.838 17.8982 109.23 17.4979 109.23 16.9588C109.23 16.436 108.838 16.0439 108.054 15.7825C107.286 15.521 106.191 15.3903 104.77 15.3903C103.348 15.3903 102.246 15.521 101.461 15.7825C100.693 16.0439 100.309 16.436 100.309 16.9588C100.309 17.4979 100.693 17.8982 101.461 18.1596C102.246 18.4047 103.348 18.5272 104.77 18.5272ZM113.739 0V0.539151C113.2 0.686193 112.816 0.963938 112.587 1.37239C112.359 1.78084 112.228 2.34449 112.195 3.06336V11.8613H108.715V0H113.739Z" fill="#3A3F57"/>
<path d="M126.061 5.29349L125.571 7.40109H129.492V5.29349H126.061ZM126.037 12.5475C128.422 12.5475 130.333 12.9233 131.771 13.6749C133.225 14.4101 133.952 15.5047 133.952 16.9588C133.952 18.4292 133.225 19.532 131.771 20.2672C130.333 21.0024 128.422 21.37 126.037 21.37C123.635 21.37 121.715 21.0024 120.277 20.2672C118.84 19.532 118.121 18.4292 118.121 16.9588C118.121 15.5047 118.84 14.4101 120.277 13.6749C121.715 12.9233 123.635 12.5475 126.037 12.5475ZM126.037 18.5272C127.458 18.5272 128.553 18.4047 129.32 18.1596C130.105 17.8982 130.497 17.4979 130.497 16.9588C130.497 16.436 130.105 16.0439 129.32 15.7825C128.553 15.521 127.458 15.3903 126.037 15.3903C124.615 15.3903 123.512 15.521 122.728 15.7825C121.96 16.0439 121.576 16.436 121.576 16.9588C121.576 17.4979 121.96 17.8982 122.728 18.1596C123.512 18.4047 124.615 18.5272 126.037 18.5272ZM134.516 0V0.539151C133.977 0.686193 133.593 0.963938 133.364 1.37239C133.135 1.78084 133.005 2.34449 132.972 3.06336V11.6408H129.492V9.94981H125.032L124.762 11.1261H120.939L122.532 3.97012H115.499V0.931262H126.943V1.32337L126.625 2.74477H129.492V0H134.516Z" fill="#3A3F57"/>
</g>
<g id="Group 22">
<path id="Vector" d="M18.5129 15.4131H21.8789V13.4496C21.8789 12.6754 21.2506 12.0471 20.4764 12.0471H13.1834C12.4092 12.0471 11.7809 12.6754 11.7809 13.4496V20.7426C11.7809 21.5168 12.4092 22.1451 13.1834 22.1451H20.4764C21.2506 22.1451 21.8789 21.5168 21.8789 20.7426V18.7791H15.1469V15.4131H18.5129Z" fill="#00D287"/>
<path id="Vector_2" d="M10.098 3.63212V1.66862C10.098 0.894435 9.46971 0.266113 8.69553 0.266113H1.4025C0.628322 0.266113 0 0.894435 0 1.66862V3.63212H3.36601V6.99813H0V8.96164C0 9.73582 0.628322 10.3641 1.4025 10.3641H8.69553C9.46971 10.3641 10.098 9.73582 10.098 8.96164V6.99813H6.73202V3.63212H10.098Z" fill="#00D287"/>
<path id="Vector_3" d="M3.36589 17.0962H-0.00012207V20.4622H3.36589H6.7319V17.0962H3.36589Z" fill="url(#paint0_linear_1188_2406)"/>
<path id="Vector_4" d="M8.6954 12.0471H1.40238C0.6282 12.0471 -0.00012207 12.6754 -0.00012207 13.4496V15.4131H6.7319V22.1451H8.6954C9.46959 22.1451 10.0979 21.5168 10.0979 20.7426V13.4496C10.0979 12.6754 9.46959 12.0471 8.6954 12.0471Z" fill="#00D287"/>
<path id="Vector_5" d="M20.4764 0.266113H13.1834C12.4092 0.266113 11.7809 0.894435 11.7809 1.66862V8.96164C11.7809 9.73582 12.4092 10.3641 13.1834 10.3641H20.4764C21.2506 10.3641 21.8789 9.73582 21.8789 8.96164V3.63212C21.8789 1.66862 22.7204 0.827115 23.2814 0.827115V0.266113H20.4764ZM15.1469 6.99813V3.63212H18.5129V6.99813H15.1469Z" fill="#00D287"/>
</g>
</g>
<defs>
<linearGradient id="paint0_linear_1188_2406" x1="6.7323" y1="18.7793" x2="-0.000122055" y2="18.7793" gradientUnits="userSpaceOnUse">
<stop stop-color="#00B372"/>
<stop offset="1" stop-color="#00D287"/>
</linearGradient>
</defs>
</svg>
