<svg width="17" height="16" viewBox="0 0 17 16" fill="none" xmlns="http://www.w3.org/2000/svg">
<path d="M3.40396 13.6C3.22766 13.6 3.07989 13.5404 2.96063 13.4211C2.84137 13.3019 2.78174 13.1541 2.78174 12.9778V11.4689C2.78174 11.303 2.81285 11.1448 2.87507 10.9945C2.93729 10.8441 3.02544 10.7119 3.13952 10.5978L10.9951 2.7578C11.1195 2.64373 11.2569 2.55558 11.4073 2.49336C11.5577 2.43114 11.7158 2.40002 11.8817 2.40002C12.0477 2.40002 12.2084 2.43114 12.364 2.49336C12.5195 2.55558 12.6543 2.64891 12.7684 2.77336L13.624 3.64447C13.7484 3.75854 13.8391 3.89336 13.8962 4.04891C13.9532 4.20447 13.9817 4.36002 13.9817 4.51558C13.9817 4.68151 13.9532 4.83965 13.8962 4.99002C13.8391 5.14039 13.7484 5.2778 13.624 5.40225L5.78396 13.2422C5.66989 13.3563 5.53766 13.4445 5.38729 13.5067C5.23692 13.5689 5.07878 13.6 4.91285 13.6H3.40396ZM11.8662 5.38669L12.7373 4.51558L11.8662 3.64447L10.9951 4.51558L11.8662 5.38669Z" fill="#C0C0C8"/>
</svg>
