<svg width="20" height="20" viewBox="0 0 20 20" fill="none" xmlns="http://www.w3.org/2000/svg">
<path d="M8.88 11.44L7.16 9.72C7.01333 9.57333 6.82667 9.5 6.6 9.5C6.37333 9.5 6.18667 9.57333 6.04 9.72C5.89333 9.86667 5.82 10.0533 5.82 10.28C5.82 10.5067 5.89333 10.6933 6.04 10.84L8.32 13.12C8.48 13.28 8.66667 13.36 8.88 13.36C9.09333 13.36 9.28 13.28 9.44 13.12L13.96 8.6C14.1067 8.45333 14.18 8.26667 14.18 8.04C14.18 7.81333 14.1067 7.62667 13.96 7.48C13.8133 7.33333 13.6267 7.26 13.4 7.26C13.1733 7.26 12.9867 7.33333 12.84 7.48L8.88 11.44ZM10 18C8.89333 18 7.85333 17.79 6.88 17.37C5.90667 16.95 5.06 16.38 4.34 15.66C3.62 14.94 3.05 14.0933 2.63 13.12C2.21 12.1467 2 11.1067 2 10C2 8.89333 2.21 7.85333 2.63 6.88C3.05 5.90667 3.62 5.06 4.34 4.34C5.06 3.62 5.90667 3.05 6.88 2.63C7.85333 2.21 8.89333 2 10 2C11.1067 2 12.1467 2.21 13.12 2.63C14.0933 3.05 14.94 3.62 15.66 4.34C16.38 5.06 16.95 5.90667 17.37 6.88C17.79 7.85333 18 8.89333 18 10C18 11.1067 17.79 12.1467 17.37 13.12C16.95 14.0933 16.38 14.94 15.66 15.66C14.94 16.38 14.0933 16.95 13.12 17.37C12.1467 17.79 11.1067 18 10 18Z" fill="#00DF8F"/>
</svg>
