<svg width="20" height="20" viewBox="0 0 20 20" fill="none" xmlns="http://www.w3.org/2000/svg">
<path d="M10 11.12L12.32 13.44C12.4667 13.5867 12.6533 13.66 12.88 13.66C13.1067 13.66 13.2933 13.5867 13.44 13.44C13.5867 13.2933 13.66 13.1067 13.66 12.88C13.66 12.6533 13.5867 12.4667 13.44 12.32L11.12 10L13.44 7.68C13.5867 7.53333 13.66 7.34667 13.66 7.12C13.66 6.89333 13.5867 6.70667 13.44 6.56C13.2933 6.41333 13.1067 6.34 12.88 6.34C12.6533 6.34 12.4667 6.41333 12.32 6.56L10 8.88L7.68 6.56C7.53333 6.41333 7.34667 6.34 7.12 6.34C6.89333 6.34 6.70667 6.41333 6.56 6.56C6.41333 6.70667 6.34 6.89333 6.34 7.12C6.34 7.34667 6.41333 7.53333 6.56 7.68L8.88 10L6.56 12.32C6.41333 12.4667 6.34 12.6533 6.34 12.88C6.34 13.1067 6.41333 13.2933 6.56 13.44C6.70667 13.5867 6.89333 13.66 7.12 13.66C7.34667 13.66 7.53333 13.5867 7.68 13.44L10 11.12ZM10 18C8.89333 18 7.85333 17.79 6.88 17.37C5.90667 16.95 5.06 16.38 4.34 15.66C3.62 14.94 3.05 14.0933 2.63 13.12C2.21 12.1467 2 11.1067 2 10C2 8.89333 2.21 7.85333 2.63 6.88C3.05 5.90667 3.62 5.06 4.34 4.34C5.06 3.62 5.90667 3.05 6.88 2.63C7.85333 2.21 8.89333 2 10 2C11.1067 2 12.1467 2.21 13.12 2.63C14.0933 3.05 14.94 3.62 15.66 4.34C16.38 5.06 16.95 5.90667 17.37 6.88C17.79 7.85333 18 8.89333 18 10C18 11.1067 17.79 12.1467 17.37 13.12C16.95 14.0933 16.38 14.94 15.66 15.66C14.94 16.38 14.0933 16.95 13.12 17.37C12.1467 17.79 11.1067 18 10 18Z" fill="#FF3743"/>
</svg>
