<svg width="24" height="24" viewBox="0 0 24 24" fill="none" xmlns="http://www.w3.org/2000/svg">
<path d="M3.29372 20.7062C3.69101 21.0923 4.34937 21.0923 4.73531 20.7062L12 13.4404L19.2646 20.7062C19.6506 21.0923 20.3203 21.1036 20.7063 20.7062C21.0922 20.3088 21.0922 19.6618 20.7063 19.2758L13.4416 11.9986L20.7063 4.73275C21.0922 4.34675 21.1036 3.68828 20.7063 3.30229C20.309 2.90493 19.6506 2.90493 19.2646 3.30229L12 10.5681L4.73531 3.30229C4.34937 2.90493 3.67966 2.89358 3.29372 3.30229C2.90779 3.69964 2.90779 4.34675 3.29372 4.73275L10.5584 11.9986L3.29372 19.2758C2.90779 19.6618 2.89644 20.3202 3.29372 20.7062Z" fill="#C0C0C8"/>
</svg>
