<svg width="24" height="24" viewBox="0 0 24 24" fill="none" xmlns="http://www.w3.org/2000/svg">
<path d="M7 12.0052C7 12.2643 7.10226 12.5233 7.29652 12.6995L15.4049 20.7202C15.5787 20.8964 15.8037 21 16.0593 21C16.591 21 17 20.5958 17 20.057C17 19.7979 16.8977 19.5596 16.7342 19.3835L8.72802 11.4456L8.72802 12.5544L16.7342 4.61659C16.8977 4.45078 17 4.21244 17 3.94301C17 3.40415 16.591 3 16.0593 3C15.8037 3 15.5787 3.10363 15.3947 3.27979L7.29652 11.3005C7.10226 11.4974 7 11.7357 7 12.0052Z" fill="#C0C0C8"/>
</svg>
