<svg width="16" height="16" viewBox="0 0 16 16" fill="none" xmlns="http://www.w3.org/2000/svg">
<path d="M4 8.00421C4 8.21146 4.08181 8.4187 4.23722 8.55962L10.7239 14.9762C10.863 15.1172 11.0429 15.2 11.2474 15.2C11.6728 15.2 12 14.8767 12 14.4456C12 14.2384 11.9182 14.0477 11.7873 13.9068L5.38242 7.55655L5.38242 8.44361L11.7873 2.09332C11.9182 1.96067 12 1.77 12 1.55446C12 1.12337 11.6728 0.800049 11.2474 0.800049C11.0429 0.800049 10.863 0.88295 10.7157 1.02388L4.23722 7.44047C4.08181 7.59798 4 7.78864 4 8.00421Z" fill="#C0C0C8"/>
</svg>
