<svg fill="none" xmlns="http://www.w3.org/2000/svg">
<g clip-path="url(#clip0_920_3659)">
<path d="M6.99999 14C10.8294 14 14 10.8225 14 6.99999C14 3.17059 10.8225 0 6.99313 0C3.17059 0 0 3.17059 0 6.99999C0 10.8225 3.17744 14 6.99999 14ZM4.69411 9.88234C4.37843 9.88234 4.13137 9.62844 4.13137 9.31277C4.13137 9.16175 4.18627 9.01761 4.29607 8.91466L6.19705 7.00685L4.29607 5.10587C4.18627 4.99608 4.13137 4.85882 4.13137 4.70784C4.13137 4.38529 4.37843 4.14509 4.69411 4.14509C4.85196 4.14509 4.97549 4.19999 5.08529 4.30294L6.99999 6.21078L8.92844 4.29607C9.04509 4.17941 9.16863 4.13137 9.31958 4.13137C9.63526 4.13137 9.88923 4.37843 9.88923 4.69411C9.88923 4.85196 9.84116 4.97549 9.71762 5.09901L7.80981 7.00685L9.7108 8.90785C9.82746 9.0108 9.88234 9.15486 9.88234 9.31277C9.88234 9.62844 9.62844 9.88234 9.30588 9.88234C9.14804 9.88234 9.00391 9.82746 8.90096 9.71762L6.99999 7.80981L5.10587 9.71762C4.99608 9.82746 4.85196 9.88234 4.69411 9.88234Z" fill="#555968"/>
</g>
<defs>
<clipPath id="clip0_920_3659">
<rect width="14" height="14" fill="white"/>
</clipPath>
</defs>
</svg>
