<svg width="22" height="6" viewBox="0 0 22 6" fill="none" xmlns="http://www.w3.org/2000/svg">
<path d="M2.89341 5.25C4.15159 5.25 5.15368 4.24875 5.15368 3C5.15368 1.75125 4.15159 0.75 2.89341 0.75C1.66865 0.75 0.666565 1.75125 0.666565 3C0.666565 4.24875 1.66865 5.25 2.89341 5.25ZM11.1662 5.25C12.4021 5.25 13.393 4.24875 13.393 3C13.393 1.75125 12.4021 0.75 11.1662 0.75C9.94142 0.75 8.95046 1.75125 8.95046 3C8.95046 4.24875 9.94142 5.25 11.1662 5.25ZM19.4389 5.25C20.6748 5.25 21.6658 4.24875 21.6658 3C21.6658 1.75125 20.6748 0.75 19.4389 0.75C18.1807 0.75 17.1898 1.75125 17.1898 3C17.1898 4.24875 18.1807 5.25 19.4389 5.25Z" fill="#B4B5BD"/>
</svg>
