<svg width="20" height="20" viewBox="0 0 20 20" fill="none" xmlns="http://www.w3.org/2000/svg">
<path d="M2 8.47136C2 12.0395 4.93142 14.9427 8.5343 14.9427C9.95907 14.9427 11.261 14.4886 12.3337 13.7263L16.3624 17.7242C16.5507 17.9108 16.7964 18 17.0584 18C17.6151 18 18 17.5864 18 17.043C18 16.7835 17.9017 16.5484 17.7298 16.3781L13.7257 12.3883C14.5691 11.3016 15.0686 9.94728 15.0686 8.47136C15.0686 4.90319 12.1371 2 8.5343 2C4.93142 2 2 4.90319 2 8.47136ZM3.40021 8.47136C3.40021 5.66548 5.70113 3.38672 8.5343 3.38672C11.3675 3.38672 13.6684 5.66548 13.6684 8.47136C13.6684 11.2773 11.3675 13.556 8.5343 13.556C5.70113 13.556 3.40021 11.2773 3.40021 8.47136Z" fill="#00DF8F"/>
</svg>
