<svg width="24" height="24" viewBox="0 0 24 24" fill="none" xmlns="http://www.w3.org/2000/svg">
<g clip-path="url(#clip0_919_5894)">
<path fill-rule="evenodd" clip-rule="evenodd" d="M21.9776 18.6668C23.2962 16.6935 24 14.3734 24 12H21.6C21.6 17.3019 17.3019 21.6 12 21.6C6.69807 21.6 2.4 17.3019 2.4 12C2.4 6.69807 6.69807 2.4 12 2.4L12 0C9.62663 0 7.30655 0.703788 5.33316 2.02236C3.35977 3.34094 1.8217 5.21508 0.91345 7.4078C0.00519821 9.60051 -0.232442 12.0133 0.230581 14.3411C0.693603 16.6689 1.83649 18.807 3.51472 20.4853C5.19295 22.1635 7.33115 23.3064 9.65892 23.7694C11.9867 24.2324 14.3995 23.9948 16.5922 23.0866C18.7849 22.1783 20.6591 20.6402 21.9776 18.6668Z" fill="#00D287"/>
</g>
<defs>
<clipPath id="clip0_919_5894">
<rect width="24" height="24" fill="white"/>
</clipPath>
</defs>
</svg>
