<svg width="16" height="16" viewBox="0 0 16 16" fill="none" xmlns="http://www.w3.org/2000/svg">
<path d="M12 8.00421C12 8.21146 11.9182 8.4187 11.7628 8.55962L5.27607 14.9762C5.13702 15.1172 4.95706 15.2 4.75256 15.2C4.3272 15.2 4 14.8767 4 14.4456C4 14.2384 4.0818 14.0477 4.21268 13.9068L10.6176 7.55655L10.6176 8.44361L4.21268 2.09332C4.0818 1.96067 4 1.77 4 1.55446C4 1.12337 4.3272 0.800049 4.75256 0.800049C4.95706 0.800049 5.13702 0.88295 5.28425 1.02388L11.7628 7.44047C11.9182 7.59798 12 7.78864 12 8.00421Z" fill="#575761"/>
</svg>
