<svg width="20" height="20" viewBox="0 0 20 20" fill="none" xmlns="http://www.w3.org/2000/svg">
<path d="M9.14286 10.8571H2.85714C2.38376 10.8571 2 10.4734 2 10V10C2 9.52661 2.38376 9.14286 2.85714 9.14286H9.14286V2.85714C9.14286 2.38376 9.52661 2 10 2V2C10.4734 2 10.8571 2.38376 10.8571 2.85714V9.14286H17.1429C17.6162 9.14286 18 9.52661 18 10V10C18 10.4734 17.6162 10.8571 17.1429 10.8571H10.8571V17.1429C10.8571 17.6162 10.4734 18 10 18V18C9.52661 18 9.14286 17.6162 9.14286 17.1429V10.8571Z" fill="#00DF8F"/>
</svg>
