<svg width="24" height="24" viewBox="0 0 24 24" fill="none" xmlns="http://www.w3.org/2000/svg">
<path d="M2 10.0892C2 14.5494 5.66428 18.1784 10.1679 18.1784C11.9488 18.1784 13.5762 17.6108 14.9171 16.6579L19.9529 21.6553C20.1883 21.8885 20.4954 22 20.823 22C21.5189 22 22 21.483 22 20.8038C22 20.4794 21.8772 20.1855 21.6623 19.9727L16.6572 14.9853C17.7113 13.627 18.3357 11.9341 18.3357 10.0892C18.3357 5.62898 14.6714 2 10.1679 2C5.66428 2 2 5.62898 2 10.0892ZM3.75026 10.0892C3.75026 6.58185 6.62641 3.7334 10.1679 3.7334C13.7094 3.7334 16.5855 6.58185 16.5855 10.0892C16.5855 13.5966 13.7094 16.445 10.1679 16.445C6.62641 16.445 3.75026 13.5966 3.75026 10.0892Z" fill="#C0C0C8"/>
</svg>
