<svg width="20" height="20" viewBox="0 0 20 20" fill="none" xmlns="http://www.w3.org/2000/svg">
<path d="M5 10.0052C5 10.2643 5.10226 10.5233 5.29652 10.6995L13.4049 18.7202C13.5787 18.8964 13.8037 19 14.0593 19C14.591 19 15 18.5958 15 18.057C15 17.7979 14.8977 17.5596 14.7342 17.3835L6.72802 9.44562L6.72802 10.5544L14.7342 2.61659C14.8977 2.45078 15 2.21244 15 1.94301C15 1.40415 14.591 1 14.0593 1C13.8037 1 13.5787 1.10363 13.3947 1.27979L5.29652 9.30053C5.10226 9.49741 5 9.73574 5 10.0052Z" fill="#3A3F57"/>
</svg>
