<svg width="20" height="20" viewBox="0 0 20 20" fill="none" xmlns="http://www.w3.org/2000/svg">
<g clip-path="url(#clip0_919_5878)">
<path fill-rule="evenodd" clip-rule="evenodd" d="M18.3147 15.5557C19.4135 13.9112 20 11.9778 20 10H18C18 14.4183 14.4183 18 10 18C5.58173 18 2 14.4183 2 10C2 5.58172 5.58173 2 10 2L10 0C8.02219 0 6.08879 0.58649 4.4443 1.6853C2.79981 2.78412 1.51809 4.3459 0.761209 6.17317C0.00433254 8.00043 -0.193701 10.0111 0.192151 11.9509C0.578004 13.8907 1.53041 15.6725 2.92894 17.0711C4.32746 18.4696 6.10929 19.422 8.0491 19.8079C9.98891 20.1937 11.9996 19.9957 13.8268 19.2388C15.6541 18.4819 17.2159 17.2002 18.3147 15.5557Z" fill="#00DF8F"/>
</g>
<defs>
<clipPath id="clip0_919_5878">
<rect width="20" height="20" fill="white"/>
</clipPath>
</defs>
</svg>
