<svg width="28" height="28" viewBox="0 0 28 28" fill="none" xmlns="http://www.w3.org/2000/svg">
<path d="M6.12088 16C7.31919 16 8.27359 15.11 8.27359 14C8.27359 12.89 7.31919 12 6.12088 12C4.9544 12 4 12.89 4 14C4 15.11 4.9544 16 6.12088 16ZM14 16C15.1771 16 16.1209 15.11 16.1209 14C16.1209 12.89 15.1771 12 14 12C12.8335 12 11.8897 12.89 11.8897 14C11.8897 15.11 12.8335 16 14 16ZM21.879 16C23.0561 16 24 15.11 24 14C24 12.89 23.0561 12 21.879 12C20.6807 12 19.737 12.89 19.737 14C19.737 15.11 20.6807 16 21.879 16Z" fill="#575761"/>
</svg>
