<svg width="21" height="20" viewBox="0 0 21 20" fill="none" xmlns="http://www.w3.org/2000/svg">
<path d="M5.65951 18.5C5.14006 18.5 4.69538 18.315 4.32548 17.9451C3.95557 17.5752 3.77062 17.1306 3.77062 16.6111V4.33333C3.50302 4.33333 3.27872 4.24282 3.0977 4.06181C2.91668 3.88079 2.82617 3.65648 2.82617 3.38889C2.82617 3.1213 2.91668 2.89699 3.0977 2.71597C3.27872 2.53495 3.50302 2.44444 3.77062 2.44444H7.54839C7.54839 2.17685 7.6389 1.95255 7.81992 1.77153C8.00094 1.59051 8.22525 1.5 8.49284 1.5H12.2706C12.5382 1.5 12.7625 1.59051 12.9435 1.77153C13.1246 1.95255 13.2151 2.17685 13.2151 2.44444H16.9928C17.2604 2.44444 17.4847 2.53495 17.6658 2.71597C17.8468 2.89699 17.9373 3.1213 17.9373 3.38889C17.9373 3.65648 17.8468 3.88079 17.6658 4.06181C17.4847 4.24282 17.2604 4.33333 16.9928 4.33333V16.6111C16.9928 17.1306 16.8079 17.5752 16.438 17.9451C16.0681 18.315 15.6234 18.5 15.1039 18.5H5.65951ZM8.49284 14.7222C8.76043 14.7222 8.98474 14.6317 9.16576 14.4507C9.34677 14.2697 9.43728 14.0454 9.43728 13.7778V7.16667C9.43728 6.89907 9.34677 6.67477 9.16576 6.49375C8.98474 6.31273 8.76043 6.22222 8.49284 6.22222C8.22525 6.22222 8.00094 6.31273 7.81992 6.49375C7.6389 6.67477 7.54839 6.89907 7.54839 7.16667V13.7778C7.54839 14.0454 7.6389 14.2697 7.81992 14.4507C8.00094 14.6317 8.22525 14.7222 8.49284 14.7222ZM12.2706 14.7222C12.5382 14.7222 12.7625 14.6317 12.9435 14.4507C13.1246 14.2697 13.2151 14.0454 13.2151 13.7778V7.16667C13.2151 6.89907 13.1246 6.67477 12.9435 6.49375C12.7625 6.31273 12.5382 6.22222 12.2706 6.22222C12.003 6.22222 11.7787 6.31273 11.5977 6.49375C11.4167 6.67477 11.3262 6.89907 11.3262 7.16667V13.7778C11.3262 14.0454 11.4167 14.2697 11.5977 14.4507C11.7787 14.6317 12.003 14.7222 12.2706 14.7222Z" fill="#FF3743"/>
</svg>
