<svg width="24" height="24" viewBox="0 0 24 24" fill="none" xmlns="http://www.w3.org/2000/svg">
<path d="M10.9286 13.0714H3.07143C2.4797 13.0714 2 12.5917 2 12C2 11.4083 2.47969 10.9286 3.07143 10.9286H10.9286V3.07143C10.9286 2.4797 11.4083 2 12 2C12.5917 2 13.0714 2.47969 13.0714 3.07143V10.9286H20.9286C21.5203 10.9286 22 11.4083 22 12C22 12.5917 21.5203 13.0714 20.9286 13.0714H13.0714V20.9286C13.0714 21.5203 12.5917 22 12 22C11.4083 22 10.9286 21.5203 10.9286 20.9286V13.0714Z" fill="#00DF8F"/>
</svg>
