<svg width="118" height="119" viewBox="0 0 118 119" fill="none" xmlns="http://www.w3.org/2000/svg">
<g clip-path="url(#clip0_1_264)">
<path d="M95.3813 0.0256348H22.6187C10.1267 0.0256348 0 10.1524 0 22.6443V95.407C0 107.899 10.1267 118.026 22.6187 118.026H95.3813C107.873 118.026 118 107.899 118 95.407V22.6443C118 10.1524 107.873 0.0256348 95.3813 0.0256348Z" fill="#494949"/>
<path d="M15.837 93.7714L39.8719 57.7092L15.837 21.6669H33.8681L57.903 57.7291L33.8681 93.7913" fill="#C6C6C6"/>
<path d="M97.9743 72.7484L89.9561 60.721H118V72.7484" fill="#C6C6C6"/>
<path d="M85.947 54.7173L77.9287 42.6899H118V54.7173" fill="#C6C6C6"/>
<path d="M39.8718 93.7714L63.9066 57.7092L39.8718 21.647H57.9029L105.973 93.7714H87.9415L72.9222 71.2325L57.9029 93.7714" fill="white"/>
</g>
<defs>
<clipPath id="clip0_1_264">
<rect width="118" height="118" fill="white" transform="translate(0 0.0256348)"/>
</clipPath>
</defs>
</svg>
