<svg width="118" height="119" viewBox="0 0 118 119" fill="none" xmlns="http://www.w3.org/2000/svg">
<g clip-path="url(#clip0_1_148)">
<path d="M95.3813 0.86438H22.6187C10.1267 0.86438 0 10.9911 0 23.483V96.2457C0 108.738 10.1267 118.864 22.6187 118.864H95.3813C107.873 118.864 118 108.738 118 96.2457V23.483C118 10.9911 107.873 0.86438 95.3813 0.86438Z" fill="black"/>
<path d="M56.3871 50.2704C49.2265 39.4198 43.2428 30.4242 43.0832 30.2447C42.5048 29.6264 42.1457 29.5267 39.9517 29.5267C38.0967 29.5267 37.9172 29.5466 37.4784 29.766C37.2191 29.9056 36.8601 30.2048 36.6805 30.4242L36.3415 30.8431L36.3016 52.4645V74.0659L36.501 74.5446C36.6606 74.8637 36.9 75.123 37.2191 75.3225L37.7177 75.6416H39.5727C41.2083 75.6416 41.5075 75.6017 41.8465 75.4422C42.3053 75.2028 42.5047 74.9834 42.8039 74.4648C43.0034 74.1058 43.0034 73.4675 43.0433 57.9496C43.0632 49.0737 43.1031 41.8134 43.143 41.8333C43.1829 41.8333 48.1893 49.1734 54.2728 58.169L65.3229 74.5047L74.139 86.4124C77.2705 90.6409 80.0629 94.3908 81.6586 96.525C82.3168 97.4026 83.5335 97.6619 84.4709 97.1034C84.4709 97.1034 84.4909 97.1034 84.5108 97.0835C85.5879 96.4452 85.9469 95.049 85.2488 93.9919L78.1281 83.2011C73.3212 75.9209 63.5477 61.121 56.3871 50.2704Z" fill="#EFEFEF"/>
<path d="M75.9341 28.2501C75.5751 28.0506 75.2958 28.0307 73.7002 28.0307C72.0048 28.0307 71.8452 28.0506 71.4064 28.2701C70.8878 28.5493 70.5088 29.028 70.3492 29.6264C70.2894 29.8657 70.2495 34.9918 70.2495 44.0872V58.169L73.6802 63.4147L77.091 68.6605L77.1308 49.293C77.1508 35.7897 77.1309 29.8059 77.0511 29.5266C76.8915 29.0081 76.4726 28.5094 75.954 28.2501H75.9341Z" fill="#EFEFEF"/>
</g>
<defs>
<clipPath id="clip0_1_148">
<rect width="118" height="118" fill="white" transform="translate(0 0.86438)"/>
</clipPath>
</defs>
</svg>
