<svg width="118" height="119" viewBox="0 0 118 119" fill="none" xmlns="http://www.w3.org/2000/svg">
<g clip-path="url(#clip0_1_48)">
<path d="M95.3813 0.582642H22.6187C10.1267 0.582642 0 10.7094 0 23.2013V95.964C0 108.456 10.1267 118.583 22.6187 118.583H95.3813C107.873 118.583 118 108.456 118 95.964V23.2013C118 10.7094 107.873 0.582642 95.3813 0.582642Z" fill="#F47421"/>
<path d="M59 87.9856C74.6866 87.9856 87.403 75.2692 87.403 59.5827C87.403 43.8961 74.6866 31.1797 59 31.1797C43.3135 31.1797 30.597 43.8961 30.597 59.5827C30.597 75.2692 43.3135 87.9856 59 87.9856Z" stroke="white" stroke-width="8.55"/>
<path d="M19.188 70.5529C25.2467 70.5529 30.1582 65.6414 30.1582 59.5827C30.1582 53.524 25.2467 48.6124 19.188 48.6124C13.1293 48.6124 8.21771 53.524 8.21771 59.5827C8.21771 65.6414 13.1293 70.5529 19.188 70.5529Z" fill="#F47421"/>
<path d="M81.12 59.5826H94.1247H81.12Z" fill="black"/>
<path d="M81.12 59.5826H94.1247" stroke="#F47421" stroke-width="3.24"/>
<path d="M19.1879 67.4015C23.5061 67.4015 27.0067 63.9009 27.0067 59.5827C27.0067 55.2645 23.5061 51.7639 19.1879 51.7639C14.8697 51.7639 11.3691 55.2645 11.3691 59.5827C11.3691 63.9009 14.8697 67.4015 19.1879 67.4015Z" fill="white"/>
<path d="M78.906 36.0864C84.9647 36.0864 89.8763 31.1748 89.8763 25.1161C89.8763 19.0574 84.9647 14.1459 78.906 14.1459C72.8473 14.1459 67.9358 19.0574 67.9358 25.1161C67.9358 31.1748 72.8473 36.0864 78.906 36.0864Z" fill="#F47421"/>
<path d="M47.95 78.7507L41.4476 90.0202L47.95 78.7507Z" fill="black"/>
<path d="M47.95 78.7507L41.4476 90.0202" stroke="#F47421" stroke-width="3.24"/>
<path d="M78.9061 32.935C83.2243 32.935 86.7249 29.4344 86.7249 25.1162C86.7249 20.798 83.2243 17.2974 78.9061 17.2974C74.5879 17.2974 71.0873 20.798 71.0873 25.1162C71.0873 29.4344 74.5879 32.935 78.9061 32.935Z" fill="white"/>
<path d="M78.906 105.039C84.9647 105.039 89.8763 100.128 89.8763 94.0691C89.8763 88.0104 84.9647 83.0989 78.906 83.0989C72.8473 83.0989 67.9358 88.0104 67.9358 94.0691C67.9358 100.128 72.8473 105.039 78.906 105.039Z" fill="#F47421"/>
<path d="M47.95 40.4346L41.4476 29.1652L47.95 40.4346Z" fill="black"/>
<path d="M47.95 40.4346L41.4476 29.1652" stroke="#F47421" stroke-width="3.24"/>
<path d="M78.9061 101.888C83.2243 101.888 86.7249 98.3874 86.7249 94.0692C86.7249 89.751 83.2243 86.2504 78.9061 86.2504C74.5879 86.2504 71.0873 89.751 71.0873 94.0692C71.0873 98.3874 74.5879 101.888 78.9061 101.888Z" fill="white"/>
</g>
<defs>
<clipPath id="clip0_1_48">
<rect width="118" height="118" fill="white" transform="translate(0 0.582642)"/>
</clipPath>
</defs>
</svg>
