<svg width="118" height="119" viewBox="0 0 118 119" fill="none" xmlns="http://www.w3.org/2000/svg">
<g clip-path="url(#clip0_1_190)">
<path d="M95.3813 0.0256348H22.6187C10.1267 0.0256348 0 10.1524 0 22.6443V95.407C0 107.899 10.1267 118.026 22.6187 118.026H95.3813C107.873 118.026 118 107.899 118 95.407V22.6443C118 10.1524 107.873 0.0256348 95.3813 0.0256348Z" fill="#292C31"/>
<path d="M32.0531 59.0855C32.0531 44.3056 44.0406 32.2981 58.8404 32.2981C68.7336 32.2981 77.3702 37.6636 82.0176 45.6419L98.094 36.3272C97.5754 35.4695 96.8573 34.7315 95.9598 34.2329L62.0118 14.646C60.1569 13.5689 57.8631 13.5689 55.9882 14.646L22.0602 34.2329C20.2052 35.3099 19.0483 37.2846 19.0483 39.4388V78.6125C19.0483 79.6896 19.3475 80.7467 19.8661 81.6443L35.6433 72.4891C33.3496 68.5398 32.0331 63.9523 32.0331 59.0655L32.0531 59.0855Z" fill="#649AD2"/>
<path d="M58.8205 85.8529C48.9273 85.8529 40.2907 80.4874 35.6433 72.5091L19.8661 81.6643C20.3847 82.5419 21.1227 83.2998 22.0602 83.8384L55.9882 103.425C57.8431 104.502 60.1369 104.502 62.0118 103.425L95.9398 83.8384C96.8773 83.2998 97.6352 82.502 98.1738 81.6044L82.0774 72.3894C77.4699 80.4476 68.7735 85.8728 58.8205 85.8728V85.8529Z" fill="#004482"/>
<path d="M70.429 52.3637L81.9976 45.6419L70.429 52.3637Z" fill="black"/>
<path d="M70.4689 65.7474C68.1552 69.7765 63.807 72.5091 58.8205 72.5091C53.834 72.5091 49.5457 69.8164 47.212 65.8272C46.0551 63.8526 45.3969 61.5588 45.3969 59.1054C45.3969 51.7055 51.4006 45.6818 58.8205 45.6818C63.787 45.6818 68.0954 48.3745 70.429 52.3637L81.9977 45.6619C77.3702 37.6835 68.7137 32.3181 58.8205 32.3181C44.0406 32.3181 32.0331 44.3056 32.0331 59.1054C32.0331 63.9922 33.3496 68.5797 35.6434 72.529C40.2708 80.5074 48.9273 85.8728 58.8205 85.8728C68.7137 85.8728 77.45 80.4475 82.0774 72.3894L70.4689 65.7474Z" fill="white"/>
<path d="M70.429 52.3637C68.1153 48.3745 63.787 45.6818 58.8205 45.6818C51.4205 45.6818 45.3969 51.6855 45.3969 59.1054C45.3969 61.5588 46.0551 63.8526 47.212 65.8272L58.8205 59.1054L70.429 52.3837V52.3637Z" fill="#649AD2"/>
<path d="M98.074 36.3272L81.9976 45.6419L70.429 52.3437L58.8205 59.0655L70.4689 65.7274L82.0774 72.3694L98.1738 81.5844C98.6724 80.6869 98.9517 79.6696 98.9517 78.6125V39.4387C98.9517 38.3218 98.6325 37.2447 98.074 36.3272Z" fill="#116DAA"/>
<path d="M70.429 52.3637L58.8205 59.0855L70.429 52.3637Z" fill="black"/>
<path d="M58.8205 72.4891C63.807 72.4891 68.1552 69.7765 70.4689 65.7275L58.8205 59.0655L47.212 65.7873C49.5257 69.7765 53.854 72.4692 58.8205 72.4692V72.4891Z" fill="#004482"/>
<path d="M85.907 57.5895H82.9151V54.5976H79.9632V57.5895H76.9513V60.5615H79.9632V63.5534H82.9151V60.5615H85.907V57.5895Z" fill="white"/>
<path d="M97.0368 57.5895H94.045V54.5976H91.093V57.5895H88.1011V60.5615H91.093V63.5534H94.045V60.5615H97.0368V57.5895Z" fill="white"/>
</g>
<defs>
<clipPath id="clip0_1_190">
<rect width="118" height="118" fill="white" transform="translate(0 0.0256348)"/>
</clipPath>
</defs>
</svg>
