<svg width="118" height="119" viewBox="0 0 118 119" fill="none" xmlns="http://www.w3.org/2000/svg">
<g clip-path="url(#clip0_1_361)">
<path d="M95.3813 0.0933838H22.6187C10.1267 0.0933838 0 10.2201 0 22.712V95.4747C0 107.967 10.1267 118.093 22.6187 118.093H95.3813C107.873 118.093 118 107.967 118 95.4747V22.712C118 10.2201 107.873 0.0933838 95.3813 0.0933838Z" fill="#292C31"/>
<path d="M41.8665 36.9733L42.405 36.9334L85.3087 34.3604C86.2262 34.3604 85.4682 33.4429 85.1491 33.3033L78.0284 28.1373C76.6721 27.0801 74.857 25.8634 71.3665 26.1626L29.8391 29.1944C28.3232 29.354 28.024 30.1119 28.6224 30.7103L34.5463 35.4175C36.88 37.3124 37.7975 37.2525 41.9064 36.9733H41.8665Z" fill="white"/>
<path d="M88.7792 39.5065L39.5128 42.3987C37.6978 42.5583 37.0994 43.4558 37.0994 45.4305V90.6678C37.0994 93.1012 38.3161 93.9988 41.0287 93.8591L88.1809 91.1265C90.9135 90.967 91.2126 89.3115 91.2126 87.3368V42.3987C91.2126 40.424 90.4547 39.3669 88.7792 39.5065ZM82.2569 50.7361L79.9831 51.1948V84.5843C78.0085 85.6414 76.1934 86.2597 74.6775 86.2597C72.2441 86.2597 71.6457 85.5018 69.8306 83.228L54.9709 59.8514V82.47L59.6782 83.5272C59.6782 83.5272 59.6782 86.2597 55.8884 86.2597L45.4368 86.8581C45.1376 86.2398 45.4368 84.7239 46.4939 84.4247L49.2265 83.6668V53.7679L45.4368 53.4687C45.1376 52.0924 45.8955 50.1377 48.0098 49.9781L59.2194 49.2202L74.6775 72.896V51.9528L70.7282 51.494C70.429 49.8186 71.6457 48.6019 73.1417 48.4622L83.6133 47.8439C83.9124 49.2002 83.6133 50.5765 82.237 50.7361H82.2569Z" fill="white"/>
<path d="M83.6332 47.8639L73.1616 48.4822C71.6457 48.6218 70.429 49.8385 70.7481 51.514L74.6974 51.9727V72.9159L59.2393 49.2402L48.0297 49.9981C45.9155 50.1577 45.1575 52.1323 45.4567 53.4886L49.2464 53.7878V83.6867L46.5138 84.4447C45.4567 84.7439 45.1575 86.2598 45.4567 86.8781L55.9084 86.2797C59.6981 86.2797 59.6981 83.5471 59.6981 83.5471L54.9909 82.49V59.8713L69.8506 83.2479C71.6656 85.5218 72.264 86.2797 74.6974 86.2797C76.2133 86.2797 78.0284 85.6813 80.003 84.6043V51.2148L82.2769 50.756C83.6531 50.5965 83.9523 49.2402 83.6531 47.8639H83.6332Z" fill="black"/>
<path d="M93.6859 34.141L79.5443 24.1681C76.2133 21.7347 74.8371 21.4355 69.5314 21.8942L26.3286 25.0856C22.8381 25.3848 21.6214 27.6586 21.6214 30.3912V77.7627C21.6214 79.8969 22.3793 81.712 24.1944 84.1454L34.3469 97.3496C36.0223 99.4838 37.5382 99.9226 40.7096 99.783L90.8935 96.7512C95.142 96.452 96.3587 94.4774 96.3587 91.1265V37.831C96.3587 36.0957 95.6805 35.617 93.666 34.141H93.6859ZM34.5264 35.4175L28.6024 30.7103C28.0041 30.092 28.3032 29.334 29.8191 29.1944L71.3465 26.1626C74.8371 25.8635 76.6521 27.0802 78.0085 28.1373L85.1291 33.3033C85.4283 33.4628 86.1863 34.3604 85.2887 34.3604L42.3851 36.9334L41.8465 36.9733C37.7576 37.2526 36.8202 37.3124 34.4865 35.4175H34.5264ZM91.2126 87.3368C91.2126 89.3114 90.9135 90.9868 88.1809 91.1265L41.0287 93.8591C38.2961 94.0186 37.0994 93.1011 37.0994 90.6677V45.4304C37.0994 43.4557 37.6978 42.5382 39.5128 42.3986L88.7792 39.5065C90.4547 39.3469 91.2126 40.424 91.2126 42.3986V87.3368Z" fill="black"/>
</g>
<defs>
<clipPath id="clip0_1_361">
<rect width="118" height="118" fill="white" transform="translate(0 0.0933838)"/>
</clipPath>
</defs>
</svg>
