<svg width="118" height="119" viewBox="0 0 118 119" fill="none" xmlns="http://www.w3.org/2000/svg">
<g clip-path="url(#clip0_1_337)">
<path d="M95.3813 0.0933838H22.6187C10.1267 0.0933838 0 10.2201 0 22.712V95.4747C0 107.967 10.1267 118.093 22.6187 118.093H95.3813C107.873 118.093 118 107.967 118 95.4747V22.712C118 10.2201 107.873 0.0933838 95.3813 0.0933838Z" fill="#019639"/>
<path d="M58.8404 18.9622H59.0199C59.9773 19.4209 60.9148 19.9196 61.8124 20.478C72.1842 26.4419 82.5561 32.4057 92.9479 38.3895C93.7657 38.8283 94.2444 39.7258 94.1447 40.6434C94.1247 53.2292 94.1447 65.8151 94.1447 78.381C94.0051 78.9794 93.646 79.498 93.1274 79.8371C82.0974 86.1998 71.0673 92.5426 60.0172 98.8854C59.4787 99.3043 58.7208 99.3442 58.1423 98.9852C47.0923 92.6423 36.0622 86.2996 25.0321 79.9568C24.2941 79.6177 23.8553 78.8597 23.8952 78.0419V40.3043C23.8354 39.5064 24.2742 38.7286 25.0122 38.3895C35.384 32.4256 45.736 26.4618 56.1078 20.498C57.0254 19.9794 57.9429 19.4209 58.9003 18.9622" fill="white"/>
<path d="M38.2562 43.4358V74.5714C38.2363 75.7283 38.6751 76.8652 39.4729 77.683C41.0487 79.2388 43.522 79.4981 45.3769 78.2814C46.6136 77.4436 47.3316 76.0674 47.3316 74.5714C47.3316 67.0518 47.3316 59.5521 47.3316 52.0325C54.1731 60.2303 61.0345 68.4281 67.9158 76.6059C69.8506 78.5805 72.6629 79.4183 75.3756 78.8398C77.3103 78.4609 78.7664 76.8652 78.9658 74.9105C78.9658 64.3192 78.9658 53.7279 78.9658 43.1367C78.7464 40.6434 76.5524 38.7885 74.0592 39.0079C71.8651 39.2073 70.1298 40.9426 69.9303 43.1367C69.9303 50.7759 69.8905 58.3953 69.9303 66.0146C63.2086 58.0761 56.5666 50.0778 49.8648 42.1194C48.0696 39.8057 45.1575 38.6688 42.2654 39.1076C40.0514 39.3469 38.336 41.182 38.2363 43.4159L38.2562 43.4358Z" fill="#019639"/>
</g>
<defs>
<clipPath id="clip0_1_337">
<rect width="118" height="118" fill="white" transform="translate(0 0.0933838)"/>
</clipPath>
</defs>
</svg>
