<svg width="118" height="119" viewBox="0 0 118 119" fill="none" xmlns="http://www.w3.org/2000/svg">
<g clip-path="url(#clip0_1_90)">
<path d="M95.3813 0.582642H22.6187C10.1267 0.582642 0 10.7094 0 23.2013V95.964C0 108.456 10.1267 118.583 22.6187 118.583H95.3813C107.873 118.583 118 108.456 118 95.964V23.2013C118 10.7094 107.873 0.582642 95.3813 0.582642Z" fill="#E3E3E3"/>
<path d="M56.2275 17.5168C50.1241 18.2747 45.6562 23.6801 46.095 29.8433C45.9554 41.2723 47.2519 45.3613 42.1258 51.9035C36.9997 58.4458 33.8682 63.2727 32.6315 67.94C31.8736 70.8721 31.4747 73.8839 31.4747 76.9157C31.4747 76.9157 31.335 78.0726 32.6315 76.9157C33.9081 75.7588 37.5183 76.2575 39.3134 79.4887C41.1085 82.72 44.4395 87.7064 44.4395 87.7064L46.115 90.0202L48.4287 89.3619C48.4287 89.3619 50.7424 87.8261 48.4287 84.4752C47.1322 82.5604 45.5365 80.865 43.6816 79.4887C43.6816 79.4887 38.1964 76.6763 37.2789 73.465C36.3814 67.94 37.8773 62.2953 41.3878 57.9471C44.0007 54.8755 40.6897 60.3606 39.8519 62.435C39.0142 64.5093 36.5609 70.0344 39.8519 74.5022C40.8093 63.0134 45.9753 60.4404 49.2265 44.6033C47.6907 43.7656 47.1322 41.8308 47.9899 40.295C48.3688 39.5969 49.0071 39.0783 49.7651 38.819C48.4686 37.1435 47.9699 34.9894 48.4686 32.915C49.2265 30.4218 50.144 30.1625 51.1214 30.0627C52.0987 29.963 54.5321 31.06 54.2329 35.867C55.3898 35.7274 56.5467 35.7274 57.6836 35.867C57.6836 35.867 56.786 31.3792 60.117 29.8433C61.972 28.9458 64.2059 29.604 65.263 31.3792C66.4797 33.7727 66.2803 36.625 64.7444 38.819C66.2404 39.4972 66.8986 41.2524 66.2404 42.7483C66.1606 42.9478 66.0409 43.1473 65.9013 43.3068L68.7336 51.9035C68.7336 51.9035 72.4436 59.2237 74.2387 63.3126C75.3158 65.726 76.0538 68.2791 76.4327 70.8721H78.4872C78.4872 70.8721 81.3793 63.4921 73.8797 55.8927C73.3611 55.3143 74.0991 55.2544 74.2387 55.3941C74.3983 55.5337 81.9578 62.435 80.1427 71.5303C81.5788 72.5475 86.1265 73.3653 85.2688 78.2122C86.9841 78.4914 87.4628 78.2122 87.4628 78.2122C88.6197 73.2456 88.2208 68.0398 86.306 63.3325C84.1917 58.2264 81.14 53.579 77.3104 49.6097C74.4381 46.5181 72.8824 42.4093 72.9422 38.2007C72.9422 30.2622 72.1643 26.6121 70.8479 23.5604C69.4118 20.0698 65.8415 18.0154 62.5304 17.5367C60.4361 17.3373 58.3418 17.3373 56.2674 17.5567L56.2275 17.5168Z" fill="black"/>
<path d="M34.666 78.9302C31.714 79.4289 32.0531 81.0844 30.8164 82.1814C29.5798 83.2784 28.403 83.1588 27.0666 83.9566C25.7302 84.7544 25.0321 85.9512 25.6305 88.7237C26.0494 90.439 25.8699 92.2541 25.092 93.8298C24.693 95.0665 25.2316 97.0611 27.8844 97.1408C30.3776 97.1408 32.8709 97.4999 35.2644 98.1581C39.3932 99.1155 41.9662 101.728 44.7187 99.4546C46.2745 98.3974 47.1521 96.5824 47.0125 94.7074C46.5538 92.7727 45.5365 91.0374 44.1004 89.6811C42.2255 87.9059 40.7296 85.7916 39.7123 83.4181C38.8546 81.7825 37.6379 78.4116 34.666 78.9103V78.9302Z" fill="#F0B800"/>
<path d="M90.9932 90.2394C90.6342 87.427 89.7566 88.0254 88.7394 86.8287C87.7421 85.6319 88.3803 84.136 87.6623 82.8594C86.9442 81.5829 86.8844 80.3463 84.2515 80.805C81.6386 81.2638 79.5243 85.1732 75.615 82.5602C74.2786 81.5231 73.401 78.7107 73.2214 81.2039C73.2214 84.116 72.8425 87.0281 72.1444 89.8604C71.1072 93.71 69.3719 95.9639 71.4064 98.6366C72.3438 100.133 74.0193 101.01 75.7945 100.95C77.6295 100.591 79.3249 99.6938 80.6413 98.3773C82.3567 96.6819 84.4111 95.3456 86.665 94.468C88.2208 93.73 91.3323 93.0518 90.9733 90.2594L90.9932 90.2394Z" fill="#F0B800"/>
<path d="M78.527 72.5674C78.527 72.5674 73.361 71.5302 74.0791 75.9382C74.7971 80.3463 76.5524 81.184 76.5524 81.184C77.8289 82.1414 79.5642 82.1414 80.8408 81.184C82.1771 80.3862 83.334 79.3091 84.2515 78.0326C84.2515 78.0326 85.6078 75.7787 82.4963 74.1631C81.2796 73.3852 79.9432 72.8466 78.547 72.5474L78.527 72.5674Z" fill="black"/>
<path d="M48.0696 92.0146C48.0696 92.0146 55.1504 97.799 61.7924 95.0464C64.3255 94.1489 66.7789 93.0319 69.1525 91.7155C69.1525 91.7155 67.3374 97.8987 68.215 99.1353C69.0926 100.372 63.2086 98.4771 58.4614 98.6766C53.7143 98.876 53.7343 99.614 49.2265 99.8534C51.2211 97.2205 48.0497 92.0146 48.0497 92.0146H48.0696Z" fill="black"/>
<path d="M51.7796 32.7754C52.6771 32.7754 53.3952 33.9921 53.3952 35.508C53.3952 35.8471 53.3553 36.1861 53.2755 36.5053C52.6771 37.1635 51.9392 37.6621 51.1014 37.9813C50.4432 37.343 50.1041 36.4255 50.164 35.508C50.164 34.012 50.882 32.7754 51.7796 32.7754Z" fill="black"/>
<path d="M61.6927 32.536C63.1288 32.6756 64.166 33.9522 64.0463 35.3883C64.0064 36.4255 63.5676 37.3829 62.8496 38.1209C62.5105 38.4201 60.7353 37.6222 59.8577 37.1635C59.5784 36.605 59.4588 35.9867 59.5186 35.3883C59.5186 33.8125 60.3962 32.536 61.6927 32.536Z" fill="black"/>
<path d="M53.3952 38.1806C52.2383 38.8787 51.1214 39.6566 50.0842 40.5342C49.3063 41.1126 49.1467 42.2097 49.7052 42.9876C49.8049 43.1272 49.9246 43.2469 50.0842 43.3665C51.2809 44.5234 52.5774 45.5805 53.9537 46.518C55.1305 47.5153 56.8259 47.6549 58.1224 46.8371C59.9574 46.0193 63.1487 44.2242 63.1487 44.2242C63.1487 44.2242 66.5994 41.4318 63.1487 39.876C59.6981 38.3202 60.3763 38.4399 58.1224 37.5822C56.5666 36.7844 54.6917 37.0237 53.3952 38.2005V38.1806Z" fill="#F0B800"/>
</g>
<defs>
<clipPath id="clip0_1_90">
<rect width="118" height="118" fill="white" transform="translate(0 0.582642)"/>
</clipPath>
</defs>
</svg>
