<svg width="118" height="119" viewBox="0 0 118 119" fill="none" xmlns="http://www.w3.org/2000/svg">
<g clip-path="url(#clip0_1_289)">
<path d="M95.3813 0.0256348H22.6187C10.1267 0.0256348 0 10.1524 0 22.6443V95.407C0 107.899 10.1267 118.026 22.6187 118.026H95.3813C107.873 118.026 118 107.899 118 95.407V22.6443C118 10.1524 107.873 0.0256348 95.3813 0.0256348Z" fill="#292C31"/>
<path d="M70.429 52.3637L81.9976 45.6419L70.429 52.3637Z" fill="black"/>
<path d="M70.429 52.3637L58.8205 59.0855L70.429 52.3637Z" fill="black"/>
<path d="M81.499 19.8319L72.2241 35.9482L65.5622 47.5368L58.8803 59.1653L72.284 59.1054L85.6477 59.0456L104.177 58.9658C104.177 57.9486 103.898 56.9114 103.38 55.9939L83.7927 22.0659C83.2343 21.1085 82.4364 20.3306 81.479 19.812L81.499 19.8319Z" fill="#164289"/>
<path d="M85.6677 59.0456L72.3039 59.1054L58.9003 59.1653L52.2184 70.7937L45.5565 82.3823L36.4611 98.1994C37.3587 98.718 38.3759 98.9972 39.4331 98.9972H78.6068C80.761 98.9972 82.7356 97.8404 83.8127 95.9854L103.4 62.0574C103.938 61.12 104.217 60.0628 104.197 59.0057L85.6677 59.0855V59.0456Z" fill="#3F5FC4"/>
<path d="M78.5869 19.074H39.4131C37.259 19.074 35.2843 20.2308 34.2073 22.0858L14.6204 56.0138C13.5433 57.8688 13.5433 60.1626 14.6204 62.0375L34.2073 95.9655C34.7458 96.9029 35.5237 97.6609 36.4412 98.1795L45.5365 82.3623L52.1985 70.7738L58.8803 59.1453L65.5622 47.5168L72.2242 35.9283L81.499 19.812C80.6214 19.3333 79.6241 19.054 78.5869 19.054V19.074Z" fill="#284BA3"/>
<path d="M42.0459 65.5679H33.2099L31.2752 70.0358H26.6477L36.0622 48.7535H39.4131L48.5683 70.0358H43.9608L42.026 65.5679H42.0459ZM40.7894 62.197L37.6778 54.5378L34.5662 62.197H40.8093H40.7894Z" fill="white"/>
<path d="M60.2367 53.6004C58.9601 51.9448 57.4442 51.7853 56.6663 51.7853C54.3726 51.7853 53.6346 53.1815 53.6346 54.2785C53.6346 54.7971 53.7941 55.2758 54.3327 55.7146C54.8513 56.1933 55.5893 56.4526 56.9655 56.9313C58.6809 57.5097 60.2766 58.0882 61.3935 59.0655C62.3709 59.9232 63.2684 61.3593 63.2684 63.5334C63.2684 67.6822 60.1768 70.5145 55.6491 70.5145C51.6001 70.5145 49.2465 68.121 48.0896 66.5054L50.882 63.9323C51.9392 66.0067 53.9337 66.7646 55.4895 66.7646C57.4243 66.7646 58.8803 65.6078 58.8803 63.8326C58.8803 63.0747 58.621 62.4563 58.0227 61.9178C57.2049 61.1798 55.8884 60.7609 54.6319 60.362C53.475 59.983 52.0987 59.4644 50.9818 58.507C50.2637 57.9087 49.2465 56.7119 49.2465 54.5578C49.2465 51.4262 51.4206 48.3147 56.2674 48.3147C57.6437 48.3147 60.2367 48.574 62.4706 50.8079L60.2367 53.6402V53.6004Z" fill="white"/>
<path d="M68.6538 48.7535H71.7454L77.5696 62.2768L83.6531 48.7535H86.7448L90.4148 70.0358H86.0865L84.1119 56.9313L78.2279 70.0358H76.7917L71.167 56.9313L68.9331 70.0358H64.6048L68.6738 48.7535H68.6538Z" fill="white"/>
</g>
<defs>
<clipPath id="clip0_1_289">
<rect width="118" height="118" fill="white" transform="translate(0 0.0256348)"/>
</clipPath>
</defs>
</svg>
