<svg width="118" height="119" viewBox="0 0 118 119" fill="none" xmlns="http://www.w3.org/2000/svg">
<g clip-path="url(#clip0_921_19471)">
<circle cx="59" cy="59" r="59" fill="#326CE5"/>
<path d="M58.739 22.0379C58.0845 22.0753 57.4487 22.2249 56.8503 22.5054L31.1389 34.7908C29.7925 35.4266 28.8202 36.6607 28.4836 38.1006L22.1445 65.7007C21.8453 66.9909 22.0884 68.3373 22.8177 69.4405C22.9112 69.5714 23.0047 69.7023 23.0982 69.8332L40.8999 91.9544C41.8348 93.1138 43.256 93.7869 44.7519 93.7869H73.287C74.7829 93.7869 76.204 93.1138 77.139 91.9544L94.922 69.8332C95.857 68.6739 96.2122 67.1592 95.8757 65.7007L89.5179 38.1006C89.1813 36.6607 88.209 35.4453 86.8626 34.7908L61.1512 22.5054C60.4032 22.1501 59.5804 21.9818 58.7764 22.0379H58.739Z" fill="white"/>
<path d="M59.0008 31.4247C58.1594 31.4247 57.4675 32.1914 57.4675 33.1264V33.1638C57.4675 33.2947 57.4675 33.4443 57.4675 33.5565C57.4862 34.0987 57.5984 34.5101 57.6732 35.015C57.8041 36.0809 57.9163 36.9784 57.8415 37.8012C57.7854 38.1191 57.5423 38.3996 57.3366 38.6053L57.2992 39.2597C56.3829 39.3345 55.448 39.4841 54.513 39.6898C50.5114 40.6061 47.0707 42.663 44.4528 45.4305C44.2845 45.3183 43.9853 45.0939 43.8919 45.0378C43.6114 45.0752 43.3309 45.1687 42.9756 44.9443C42.2837 44.4768 41.6666 43.841 40.9 43.0744C40.5447 42.7004 40.3016 42.3638 39.8902 41.9898C39.7967 41.915 39.6471 41.8028 39.5536 41.7093C39.2357 41.4475 38.8431 41.3166 38.4878 41.2979C38.0203 41.2979 37.5528 41.4662 37.2536 41.8402C36.73 42.5134 36.8983 43.5232 37.6276 44.1028C37.6276 44.1028 37.6276 44.1028 37.6463 44.1028C37.7398 44.1776 37.8707 44.2898 37.9642 44.3646C38.3943 44.6825 38.8057 44.8508 39.2357 45.1126C40.152 45.6736 40.9187 46.1598 41.517 46.7207C41.7601 46.9638 41.7975 47.4126 41.8349 47.5996L42.3211 48.0484C39.6845 52.0313 38.4504 56.9305 39.1796 61.9232L38.5439 62.1102C38.3756 62.3346 38.1325 62.6712 37.8894 62.7834C37.104 63.0265 36.2065 63.12 35.1219 63.2322C34.617 63.2696 34.1869 63.2322 33.6447 63.3444C33.5325 63.3631 33.3642 63.4005 33.2333 63.4379C33.2333 63.4379 33.2333 63.4379 33.2146 63.4379C32.2983 63.6622 31.7186 64.485 31.9056 65.3078C32.0926 66.1306 32.9715 66.6354 33.8878 66.4297C33.8878 66.4297 33.8878 66.4297 33.9065 66.4297C33.9065 66.4297 33.9252 66.4297 33.9439 66.4297C34.0747 66.411 34.2243 66.3736 34.3365 66.3362C34.8601 66.1866 35.2528 65.9809 35.7203 65.8127C36.73 65.4387 37.5902 65.1395 38.3943 65.0273C38.7309 65.0086 39.1048 65.233 39.2731 65.3452L39.9463 65.233C41.4983 70.02 44.7333 73.8907 48.8284 76.3216L48.548 76.9948C48.6415 77.2566 48.7537 77.6119 48.6789 77.8737C48.3797 78.6403 47.8748 79.4631 47.2951 80.3794C47.0146 80.8095 46.7154 81.1273 46.4723 81.6135C46.4162 81.7257 46.3415 81.9127 46.2667 82.0249C45.874 82.8664 46.1545 83.8387 46.9211 84.2127C47.6878 84.5867 48.6415 84.194 49.0528 83.3526C49.1089 83.2404 49.2024 83.0721 49.2398 82.9599C49.4642 82.455 49.539 82.0249 49.6886 81.5574C50.1 80.529 50.3244 79.4631 50.8854 78.7899C51.035 78.6029 51.2968 78.5281 51.5398 78.472L51.8951 77.8363C55.4667 79.2013 59.4683 79.5753 63.4513 78.659C64.3675 78.4534 65.2464 78.1916 66.0878 77.855C66.1813 78.0233 66.3683 78.3599 66.4244 78.4534C66.6862 78.5468 66.9667 78.5842 67.2098 78.9208C67.6212 79.6314 67.9204 80.4916 68.257 81.5013C68.4066 81.9875 68.4814 82.4176 68.7057 82.9038C68.7618 83.016 68.8366 83.1843 68.8927 83.2965C69.3041 84.1379 70.2578 84.5306 71.0244 84.1753C71.7911 83.8013 72.0716 82.829 71.6789 81.9875C71.6228 81.8566 71.548 81.6883 71.4732 81.5761C71.2114 81.0899 70.931 80.7721 70.6505 80.342C70.0708 79.4257 69.5846 78.6777 69.2854 77.8924C69.1545 77.4997 69.3041 77.2379 69.3976 76.9761C69.3415 76.9013 69.2106 76.5273 69.1358 76.359C73.3993 73.8533 76.5407 69.833 77.9993 65.1956C78.205 65.233 78.5415 65.2891 78.6537 65.3078C78.8781 65.1582 79.1025 64.9525 79.5139 64.9899C80.3367 65.1021 81.1781 65.42 82.1879 65.7753C82.6554 65.9623 83.0481 66.1679 83.5716 66.2988C83.6838 66.3362 83.8334 66.3549 83.9643 66.3923C83.9643 66.3923 83.983 66.3923 84.0017 66.3923C84.0017 66.3923 84.0017 66.3923 84.0204 66.3923C84.9367 66.598 85.8156 66.0932 86.0025 65.2704C86.1895 64.4476 85.6099 63.6061 84.6936 63.4005C84.5627 63.3631 84.3757 63.3257 84.2448 63.2883C83.7025 63.1948 83.2725 63.2135 82.7676 63.1761C81.683 63.0639 80.8042 62.9704 80.0001 62.7273C79.6822 62.5964 79.4391 62.2224 79.3269 62.0541L78.7098 61.8671C79.0277 59.5297 78.9529 57.1175 78.392 54.6866C77.831 52.237 76.8399 49.9931 75.5123 48.0297C75.6806 47.8801 75.9798 47.6183 76.0546 47.5435C76.0732 47.263 76.0545 46.9825 76.335 46.6646C76.9334 46.1037 77.7001 45.6175 78.6163 45.0565C79.0464 44.7947 79.4578 44.6264 79.8879 44.3085C79.9814 44.2337 80.131 44.1215 80.2245 44.028C80.9538 43.4484 81.1407 42.4199 80.5985 41.7654C80.0562 41.111 79.0464 41.0362 78.2985 41.6345C78.1863 41.7093 78.0554 41.8215 77.9619 41.915C77.5505 42.2703 77.2887 42.6256 76.9521 42.9996C76.1854 43.7662 75.5684 44.4207 74.8765 44.8695C74.5773 45.0378 74.1472 44.9817 73.9415 44.963L73.3619 45.3744C70.0334 41.8776 65.4895 39.6337 60.5903 39.2036C60.5903 38.9979 60.5529 38.624 60.5529 38.5118C60.3472 38.3248 60.1041 38.1565 60.048 37.7451C59.9732 36.9223 60.0854 36.0248 60.2163 34.9589C60.2911 34.454 60.4033 34.0426 60.422 33.5004C60.422 33.3695 60.422 33.2012 60.422 33.0703C60.422 32.1353 59.7301 31.3687 58.8886 31.3687L59.0008 31.4247ZM57.0748 43.3549L56.626 51.4329H56.5886C56.5512 52.1622 55.9716 52.7419 55.2423 52.7419C54.9431 52.7419 54.6626 52.6484 54.4382 52.4801L47.8187 47.7866C49.8569 45.7858 52.4561 44.3085 55.448 43.6354C55.9903 43.5045 56.5512 43.411 57.0935 43.3549H57.0748ZM60.9269 43.3549C64.4236 43.785 67.6586 45.3744 70.1456 47.8053L63.5635 52.4614H63.5448C62.9651 52.8728 62.1423 52.7793 61.6748 52.1996C61.4878 51.9752 61.3943 51.6947 61.3756 51.4142L60.9269 43.3549ZM45.3878 50.8159L51.4276 56.2199V56.2573C51.9699 56.7248 52.0447 57.5476 51.5959 58.1273C51.4089 58.3517 51.1659 58.52 50.8854 58.5948L43.1439 60.8574C42.7512 57.2484 43.5927 53.7516 45.3878 50.8159ZM72.5578 50.8159C73.4554 52.2744 74.1285 53.9012 74.5399 55.659C74.9326 57.398 75.0448 59.137 74.8765 60.82L67.0976 58.5761V58.5387C66.387 58.3517 65.957 57.6411 66.1252 56.9305C66.2 56.6313 66.3496 56.3882 66.5553 56.2013L72.5578 50.7972V50.8159ZM57.7667 56.6313H60.235L61.7683 58.5574L61.2073 60.9509L58.9821 62.0167L56.7569 60.9509L56.196 58.5574L57.7293 56.6313H57.7667ZM65.6952 63.2135C65.8074 63.2135 65.9009 63.2135 66.0131 63.2322L74.035 64.5785C72.857 67.8696 70.6131 70.7306 67.6212 72.6379L64.5171 65.1208C64.2366 64.4476 64.5171 63.6622 65.1716 63.3444C65.3399 63.2696 65.5082 63.2135 65.6952 63.2135ZM52.2317 63.2509C52.8488 63.2509 53.3911 63.6809 53.5407 64.298C53.6155 64.5972 53.5781 64.8777 53.4659 65.1395V65.1769L50.4179 72.6192C47.5382 70.768 45.2569 68.0005 44.0227 64.6159L51.9699 63.2696C51.9699 63.2696 52.1569 63.2696 52.2317 63.2696V63.2509ZM58.9447 66.5045C59.1504 66.5045 59.3748 66.5419 59.5805 66.6354C59.8423 66.7663 60.0667 66.972 60.1976 67.2151H60.235L64.1431 74.2834C63.6383 74.4517 63.1147 74.6013 62.5724 74.7135C59.5805 75.3867 56.5886 75.181 53.8959 74.2647L57.8041 67.1964C58.0472 66.7663 58.4773 66.5045 58.9447 66.4858V66.5045Z" fill="#326CE5" stroke="#326CE5" stroke-width="0.25"/>
</g>
<defs>
<clipPath id="clip0_921_19471">
<rect width="118" height="118" fill="white" transform="translate(0 0.296875)"/>
</clipPath>
</defs>
</svg>
