<svg width="118" height="119" viewBox="0 0 118 119" fill="none" xmlns="http://www.w3.org/2000/svg">
<g clip-path="url(#clip0_921_18488)">
<circle cx="59" cy="59.1978" r="59" fill="black"/>
<path d="M17 68.7559H43.7275V82.1396H57.0713V57.9253H30.3837L57.0713 31.1978H43.7275L17 57.9253V68.7559Z" fill="white"/>
<path d="M62.8157 44.5815L76.1794 31.1978H62.8157V44.5815Z" fill="white"/>
<path d="M76.1794 44.5815L62.8157 57.9253V71.289H76.1794V57.9253L89.5631 44.5815V31.1978H76.1794V44.5815Z" fill="white"/>
<path d="M89.5631 57.9253L76.1794 71.2891H89.5631V57.9253Z" fill="white"/>
<path d="M67.1242 84.0343C66.9247 83.7351 66.5258 83.3961 65.9075 83.3961C65.5085 83.3961 65.2492 83.5157 65.1096 83.6554C64.9301 83.8149 64.8104 84.0343 64.8104 84.2936C64.8104 84.5529 64.9102 84.7324 65.1296 84.8721C65.2692 84.9718 65.4686 85.0516 65.8476 85.2111L66.3662 85.4306C66.6654 85.5502 67.0045 85.7497 67.3037 86.0688C67.6427 86.4278 67.7624 86.7869 67.7624 87.2855C67.7624 88.1033 67.4433 88.8812 66.9646 89.3399C66.3463 89.9383 65.5285 90.058 64.9102 90.058C64.3317 90.058 63.853 89.9383 63.3544 89.6192C62.9754 89.3798 62.6363 88.9809 62.397 88.6219L63.4741 87.7044C63.5937 87.9238 63.7932 88.223 64.0126 88.4025C64.3118 88.6618 64.6309 88.7216 64.97 88.7216C65.2692 88.7216 65.6681 88.6817 65.9473 88.3427C66.1069 88.1631 66.2266 87.9238 66.2266 87.5648C66.2266 87.2855 66.1269 87.0861 65.8875 86.8667C65.6282 86.6672 65.4088 86.6074 65.1096 86.4877L64.6708 86.3082C64.1921 86.1087 63.9328 85.9292 63.7533 85.7497C63.3544 85.3707 63.2945 84.892 63.2945 84.513C63.2945 83.9147 63.4741 83.3562 63.9328 82.8775C64.5511 82.2592 65.3091 82.1594 65.9872 82.1594C66.4659 82.1594 67.3037 82.2392 68.0217 83.037L67.1242 84.0543V84.0343Z" fill="white"/>
<path d="M73.6863 83.5757H70.9736L70.7742 85.2711H73.3871L73.2275 86.5476H70.6146L70.3553 88.602H73.0679L72.9084 89.8786H68.7197L69.6572 82.3191H73.8458L73.6863 83.5956V83.5757Z" fill="white"/>
<path d="M81.585 83.117C82.1435 83.6555 82.5823 84.5132 82.5823 85.6302C82.5823 86.8269 82.1235 88.0237 81.3656 88.8016C80.7672 89.4199 79.7499 90.0382 78.2141 90.0382C76.6783 90.0382 75.8804 89.4399 75.4416 88.9811C74.8233 88.3428 74.4443 87.4253 74.4443 86.4879C74.4443 85.2512 74.9629 84.0744 75.7408 83.3364C76.5387 82.5984 77.7155 82.1396 78.9521 82.1396C80.0292 82.1396 80.9666 82.5386 81.565 83.117H81.585ZM80.1489 87.9439C80.6874 87.4054 81.0464 86.5876 81.0464 85.7299C81.0464 85.0517 80.7871 84.4933 80.4481 84.1342C80.1289 83.7952 79.5505 83.476 78.7327 83.476C77.9149 83.476 77.2767 83.7952 76.8578 84.1941C76.2794 84.7326 75.9802 85.5304 75.9802 86.3482C75.9802 87.166 76.2794 87.6846 76.5785 87.9838C76.9775 88.4226 77.5958 88.6819 78.2939 88.6819C79.0518 88.6819 79.6901 88.3827 80.1489 87.9439Z" fill="white"/>
<path d="M85.8533 82.3191L85.3347 86.4878C85.3148 86.7072 85.2549 87.1859 85.2549 87.3255C85.2549 87.7643 85.4345 88.1433 85.6339 88.3427C85.8932 88.5821 86.2921 88.7018 86.6711 88.7018C87.1099 88.7018 87.4689 88.5821 87.7282 88.3826C88.2668 87.9837 88.3466 87.3255 88.4263 86.5875L88.9649 82.3191H90.4409L89.9023 86.7471C89.7827 87.6247 89.6829 88.5622 89.0048 89.2403C88.2867 89.9584 87.3094 90.0382 86.6711 90.0382C85.973 90.0382 85.0555 89.9185 84.4372 89.2802C83.9385 88.7616 83.8188 88.1433 83.8188 87.5449C83.8188 87.2457 83.8787 86.5077 83.9186 86.2684L84.3973 82.3191H85.8733H85.8533Z" fill="white"/>
<path d="M93.6322 82.3191L92.8543 88.602H95.188L95.0284 89.8786H91.2188L92.1562 82.3191H93.6322Z" fill="white"/>
</g>
<defs>
<clipPath id="clip0_921_18488">
<rect width="118" height="118" fill="white" transform="translate(0 0.197754)"/>
</clipPath>
</defs>
</svg>
