<svg width="118" height="119" viewBox="0 0 118 119" fill="none" xmlns="http://www.w3.org/2000/svg">
<g clip-path="url(#clip0_921_19904)">
<circle cx="59" cy="59.0933" r="59" fill="#F7F7FA"/>
<path d="M62.6485 62.0935L62.6485 43.5441C62.6485 41.4976 60.9883 39.8232 58.9592 39.8232C56.93 39.8232 55.2698 41.4976 55.2698 43.5441L55.2698 62.0935C55.2698 64.14 56.93 65.8144 58.9592 65.8144C60.9883 65.8144 62.6485 64.14 62.6485 62.0935Z" fill="#00977F"/>
<path d="M40.7872 77.9352C39.95 77.9352 39.1128 77.6562 38.4244 77.0794L20.3597 62.1216C19.5039 61.4146 19.0201 60.3728 19.0201 59.2565C19.0201 58.1403 19.5225 57.0984 20.3597 56.3915L38.7407 41.1731C40.3221 39.8522 42.6662 40.0755 43.9871 41.6569C45.308 43.2382 45.0848 45.5824 43.5034 46.9033L28.5828 59.2565L43.1871 71.3493C44.7685 72.6516 44.9917 74.9958 43.6708 76.5957C42.9267 77.4887 41.8662 77.9352 40.8058 77.9352H40.7872Z" fill="#00D287"/>
<path d="M76.8981 77.9352C75.819 77.9352 74.7586 77.4701 74.033 76.5957C72.7121 75.0144 72.9354 72.6702 74.5167 71.3493L89.4374 58.9961L74.833 46.9033C73.2516 45.601 73.0284 43.2568 74.3493 41.6569C75.6516 40.0755 77.9957 39.8522 79.5957 41.1731L97.6605 56.131C98.5163 56.838 99 57.8798 99 58.9961C99 60.1123 98.4977 61.1542 97.6605 61.8611L79.2794 77.0794C78.5911 77.6562 77.7353 77.9352 76.9167 77.9352H76.8981Z" fill="#00D287"/>
<path d="M56.2379 72.0574C55.4379 72.8388 55.0472 73.769 55.0472 74.8294C55.0472 75.8899 55.4379 76.8015 56.2379 77.6015C57.0379 78.4014 57.9495 78.7921 59.01 78.7921C60.0704 78.7921 60.982 78.4014 61.782 77.6015C62.582 76.8015 62.9727 75.8899 62.9727 74.8294C62.9727 73.769 62.582 72.8574 61.782 72.0574C60.982 71.2574 60.0704 70.8667 59.01 70.8667C57.9495 70.8667 57.0379 71.2574 56.2379 72.0574Z" fill="#00977F"/>
</g>
<defs>
<clipPath id="clip0_921_19904">
<rect width="118" height="118" fill="white" transform="translate(0 0.0932617)"/>
</clipPath>
</defs>
</svg>
