<svg width="118" height="119" viewBox="0 0 118 119" fill="none" xmlns="http://www.w3.org/2000/svg">
<g clip-path="url(#clip0_1_258)">
<path d="M95.3813 0.0256348H22.6187C10.1267 0.0256348 0 10.1524 0 22.6443V95.407C0 107.899 10.1267 118.026 22.6187 118.026H95.3813C107.873 118.026 118 107.899 118 95.407V22.6443C118 10.1524 107.873 0.0256348 95.3813 0.0256348Z" fill="#292C31"/>
<path d="M25.5815 92.3244L58.9733 58.9139L92.1592 92.3244H25.5815Z" fill="url(#paint0_linear_1_258)"/>
<path d="M25.5815 25.7468H58.9733L25.5815 61.7964V25.7468Z" fill="url(#paint1_linear_1_258)"/>
<path d="M58.9733 25.7468L25.5815 60.9167V92.3244L58.9733 58.914L92.1592 25.7468H58.9733Z" fill="url(#paint2_linear_1_258)"/>
</g>
<defs>
<linearGradient id="paint0_linear_1_258" x1="43.3069" y1="107.879" x2="74.752" y2="76.4334" gradientUnits="userSpaceOnUse">
<stop offset="0.1" stop-color="#0095D5"/>
<stop offset="0.3" stop-color="#238AD9"/>
<stop offset="0.62" stop-color="#557BDE"/>
<stop offset="0.86" stop-color="#7472E2"/>
<stop offset="1" stop-color="#806EE3"/>
</linearGradient>
<linearGradient id="paint1_linear_1_258" x1="30.2422" y1="39.111" x2="48.5103" y2="20.8429" gradientUnits="userSpaceOnUse">
<stop offset="0.12" stop-color="#0095D5"/>
<stop offset="0.42" stop-color="#3C83DC"/>
<stop offset="0.7" stop-color="#6D74E1"/>
<stop offset="0.83" stop-color="#806EE3"/>
</linearGradient>
<linearGradient id="paint2_linear_1_258" x1="14.3699" y1="86.9525" x2="76.3243" y2="24.9981" gradientUnits="userSpaceOnUse">
<stop offset="0.11" stop-color="#C757BC"/>
<stop offset="0.21" stop-color="#D0609A"/>
<stop offset="0.43" stop-color="#E1725C"/>
<stop offset="0.6" stop-color="#EE7E2F"/>
<stop offset="0.74" stop-color="#F58613"/>
<stop offset="0.82" stop-color="#F88909"/>
</linearGradient>
<clipPath id="clip0_1_258">
<rect width="118" height="118" fill="white" transform="translate(0 0.0256348)"/>
</clipPath>
</defs>
</svg>
