<svg width="118" height="119" viewBox="0 0 118 119" fill="none" xmlns="http://www.w3.org/2000/svg">
<g clip-path="url(#clip0_921_19536)">
<circle cx="60" cy="59" r="59" fill="#292C30"/>
<path d="M43.6206 37.6962L44.104 37.6604L82.6125 35.351C83.436 35.351 82.7557 34.5274 82.4692 34.4021L76.078 29.7653C74.8606 28.8165 73.2315 27.7245 70.0985 27.993L32.8253 30.7142C31.4647 30.8574 31.1962 31.5377 31.7333 32.0748L37.0503 36.2998C39.1449 38.0005 39.9685 37.9468 43.6564 37.6962H43.6206Z" fill="white"/>
<path d="M85.7276 39.97L41.5081 42.5659C39.879 42.7091 39.3419 43.5147 39.3419 45.2871V85.8902C39.3419 88.0743 40.434 88.8799 42.8687 88.7546L85.1905 86.3019C87.6432 86.1587 87.9117 84.6728 87.9117 82.9005V42.5659C87.9117 40.7935 87.2314 39.8447 85.7276 39.97ZM79.8734 50.0492L77.8325 50.4609V80.4299C76.0602 81.3787 74.431 81.9337 73.0704 81.9337C70.8863 81.9337 70.3492 81.2534 68.7201 79.2125L55.3827 58.2307V78.5322L59.6077 79.4811C59.6077 79.4811 59.6077 81.9337 56.2062 81.9337L46.8252 82.4708C46.5567 81.9158 46.8252 80.5552 47.774 80.2867L50.2267 79.6064V52.7704L46.8252 52.5018C46.5567 51.2665 47.237 49.5121 49.1346 49.3689L59.1959 48.6886L73.0704 69.939V51.1412L69.5257 50.7295C69.2572 49.2256 70.3492 48.1336 71.6919 48.0083L81.0908 47.4533C81.3593 48.6707 81.0908 49.9059 79.8555 50.0492H79.8734Z" fill="white"/>
<path d="M81.1087 47.4712L71.7098 48.0262C70.3492 48.1515 69.2571 49.2435 69.5436 50.7474L73.0883 51.1591V69.9569L59.2138 48.7065L49.1525 49.3868C47.2548 49.53 46.5745 51.3023 46.8431 52.5197L50.2446 52.7883V79.6243L47.7919 80.3046C46.8431 80.5731 46.5745 81.9337 46.8431 82.4887L56.224 81.9516C59.6255 81.9516 59.6255 79.499 59.6255 79.499L55.4005 78.5501V58.2486L68.738 79.2304C70.3671 81.2713 70.9042 81.9516 73.0883 81.9516C74.4489 81.9516 76.078 81.4145 77.8504 80.4478V50.4788L79.8913 50.0671C81.1266 49.9238 81.3951 48.7065 81.1266 47.4712H81.1087Z" fill="black"/>
<path d="M90.1316 35.1542L77.4386 26.2029C74.4489 24.0188 73.2136 23.7502 68.4515 24.162L29.6745 27.0264C26.5415 27.2949 25.4495 29.3358 25.4495 31.7885V74.3072C25.4495 76.2228 26.1298 77.8519 27.7589 80.036L36.8713 91.8875C38.3751 93.8031 39.7357 94.197 42.5823 94.0717L87.6252 91.3505C91.4385 91.0819 92.5305 89.3096 92.5305 86.3019V38.4662C92.5305 36.9086 91.9218 36.479 90.1137 35.1542H90.1316ZM37.0324 36.3L31.7154 32.0749C31.1783 31.52 31.4468 30.8397 32.8074 30.7143L70.0807 27.9931C73.2136 27.7246 74.8428 28.8167 76.0601 29.7655L82.4514 34.4023C82.7199 34.5455 83.4002 35.3511 82.5946 35.3511L44.0861 37.6606L43.6027 37.6964C39.9327 37.947 39.0913 38.0007 36.9966 36.3H37.0324ZM87.9117 82.9004C87.9117 84.6728 87.6431 86.1766 85.1905 86.3019L42.8687 88.7546C40.416 88.8978 39.3419 88.0743 39.3419 85.8902V45.2871C39.3419 43.5147 39.879 42.6912 41.5081 42.5659L85.7275 39.97C87.2314 39.8268 87.9117 40.7935 87.9117 42.5659V82.9004Z" fill="black"/>
</g>
<defs>
<clipPath id="clip0_921_19536">
<rect width="118" height="118" fill="white" transform="translate(0 0.296875)"/>
</clipPath>
</defs>
</svg>
