<svg width="118" height="119" viewBox="0 0 118 119" fill="none" xmlns="http://www.w3.org/2000/svg">
<g clip-path="url(#clip0_1_143)">
<path d="M95.3813 0.86438H22.6187C10.1267 0.86438 0 10.9911 0 23.483V96.2457C0 108.738 10.1267 118.864 22.6187 118.864H95.3813C107.873 118.864 118 108.738 118 96.2457V23.483C118 10.9911 107.873 0.86438 95.3813 0.86438Z" fill="#292C31"/>
<path d="M89.3576 33.6155L84.5307 87.7288C84.3512 89.7832 82.8952 91.5185 80.9205 92.077L60.2965 97.8015C59.4188 98.0408 58.5013 98.0408 57.6437 97.8015L37.0994 92.097C35.1048 91.5385 33.6687 89.8032 33.4892 87.7487L28.6622 33.6155C28.403 30.7034 30.6967 28.2102 33.6088 28.2102H84.431C87.3431 28.2102 89.6369 30.7034 89.3776 33.6155H89.3576Z" fill="#264DE4"/>
<path d="M59 41.0753H58.98H39.6325L40.3506 48.7944H58.98H59H69.8506L69.1525 56.693H59H58.98H41.0287L41.7268 64.412H58.98H59H68.4942L67.5967 74.4249L58.98 76.7585H58.9601L50.3634 74.4448L49.8249 68.2815H45.6362H42.0659L43.143 80.4087L58.9601 84.7968L59 84.7768L74.7971 80.4087L74.9168 79.0922L76.7319 58.7673L76.9314 56.693L78.3276 41.0753H59Z" fill="white"/>
</g>
<defs>
<clipPath id="clip0_1_143">
<rect width="118" height="118" fill="white" transform="translate(0 0.86438)"/>
</clipPath>
</defs>
</svg>
