<svg width="118" height="119" viewBox="0 0 118 119" fill="none" xmlns="http://www.w3.org/2000/svg">
<g clip-path="url(#clip0_921_18576)">
<circle cx="59" cy="59.687" r="59" fill="#F7F7FA"/>
<path d="M56.4409 22.8635C51.0773 23.5296 47.151 28.2797 47.5366 33.6959C47.4139 43.7395 48.5533 47.3328 44.0486 53.082C39.5438 58.8312 36.7919 63.073 35.7052 67.1746C35.0391 69.7512 34.6885 72.398 34.6885 75.0622C34.6885 75.0622 34.5659 76.0789 35.7052 75.0622C36.827 74.0456 39.9996 74.4838 41.5771 77.3234C43.1546 80.1629 46.0818 84.5449 46.0818 84.5449L47.5542 86.5782L49.5874 85.9998C49.5874 85.9998 51.6207 84.6501 49.5874 81.7054C48.4481 80.0227 47.0459 78.5328 45.4157 77.3234C45.4157 77.3234 40.5955 74.8519 39.7892 72.0299C39.0005 67.1746 40.3151 62.2141 43.4 58.393C45.6962 55.6937 42.7865 60.5139 42.0503 62.3368C41.3142 64.1597 39.1582 69.015 42.0503 72.9413C42.8917 62.8451 47.4315 60.584 50.2886 46.6667C48.9389 45.9305 48.4481 44.2303 49.2018 42.8806C49.5348 42.2671 50.0957 41.8114 50.7618 41.5835C49.6225 40.1112 49.1843 38.2181 49.6225 36.3952C50.2886 34.2042 51.0948 33.9763 51.9537 33.8887C52.8126 33.8011 54.951 34.7651 54.6881 38.9894C55.7047 38.8667 56.7214 38.8667 57.7205 38.9894C57.7205 38.9894 56.9317 35.0456 59.8589 33.6959C61.489 32.9071 63.4522 33.4856 64.3812 35.0456C65.4504 37.1489 65.2751 39.6555 63.9254 41.5835C65.24 42.1795 65.8185 43.722 65.24 45.0366C65.1699 45.2119 65.0648 45.3871 64.9421 45.5274L67.431 53.082C67.431 53.082 70.6913 59.5148 72.2688 63.1081C73.2153 65.229 73.8639 67.4726 74.1969 69.7512H76.0023C76.0023 69.7512 78.5439 63.2658 71.9533 56.5876C71.4976 56.0793 72.1461 56.0267 72.2688 56.1494C72.409 56.2721 79.0522 62.3368 77.4571 70.3296C78.7191 71.2236 82.7155 71.9422 81.9618 76.2015C83.4693 76.4469 83.8899 76.2015 83.8899 76.2015C84.9066 71.8371 84.556 67.2622 82.8733 63.1256C81.0153 58.6384 78.3335 54.5543 74.9681 51.0662C72.4441 48.3494 71.0769 44.7386 71.1295 41.0402C71.1295 34.064 70.4459 30.8563 69.289 28.1745C68.027 25.1071 64.8895 23.3017 61.9798 22.8811C60.1394 22.7058 58.2989 22.7058 56.476 22.8986L56.4409 22.8635Z" fill="black"/>
<path d="M37.4931 76.8325C34.8989 77.2707 35.1969 78.7256 34.1101 79.6896C33.0234 80.6537 31.9892 80.5485 30.8149 81.2496C29.6405 81.9507 29.027 83.0024 29.5528 85.4388C29.9209 86.9463 29.7632 88.5413 29.0796 89.926C28.729 91.0128 29.2023 92.7656 31.5335 92.8357C33.7245 92.8357 35.9155 93.1512 38.0189 93.7296C41.6472 94.571 43.9084 96.8672 46.3272 94.869C47.6944 93.94 48.4657 92.3449 48.343 90.6973C47.9398 88.997 47.0459 87.4721 45.7839 86.2802C44.1362 84.7202 42.8216 82.8622 41.9277 80.7764C41.174 79.3391 40.1048 76.3768 37.4931 76.815V76.8325Z" fill="#F0B800"/>
<path d="M86.9924 86.7708C86.6769 84.2994 85.9056 84.8252 85.0117 83.7735C84.1353 82.7218 84.6962 81.4072 84.0652 80.2854C83.4342 79.1636 83.3816 78.0769 81.0679 78.48C78.7717 78.8832 76.9137 82.3187 73.4782 80.0225C72.3038 79.1111 71.5326 76.6396 71.3748 78.8306C71.3748 81.3897 71.0418 83.9488 70.4283 86.4378C69.5169 89.8207 67.9919 91.8014 69.7798 94.1502C70.6036 95.4648 72.076 96.236 73.636 96.1834C75.2486 95.8679 76.7384 95.0792 77.8953 93.9223C79.4027 92.4324 81.2081 91.258 83.1888 90.4868C84.556 89.8383 87.2904 89.2423 86.9749 86.7884L86.9924 86.7708Z" fill="#F0B800"/>
<path d="M76.0373 71.241C76.0373 71.241 71.4975 70.3296 72.1285 74.2033C72.7595 78.077 74.302 78.8132 74.302 78.8132C75.4238 79.6545 76.9488 79.6545 78.0706 78.8132C79.2449 78.1121 80.2616 77.1655 81.0679 76.0437C81.0679 76.0437 82.2598 74.0631 79.5254 72.6433C78.4562 71.9597 77.2818 71.4864 76.0548 71.2235L76.0373 71.241Z" fill="black"/>
<path d="M49.2719 88.3308C49.2719 88.3308 55.4944 93.4139 61.3313 90.9951C63.5573 90.2063 65.7133 89.2247 67.7991 88.0679C67.7991 88.0679 66.2041 93.5016 66.9753 94.5883C67.7465 95.6751 62.5758 94.0099 58.4041 94.1852C54.2324 94.3605 54.2499 95.009 50.2886 95.2193C52.0414 92.9056 49.2544 88.3308 49.2544 88.3308H49.2719Z" fill="black"/>
<path d="M52.5322 36.2725C53.3209 36.2725 53.9519 37.3417 53.9519 38.6738C53.9519 38.9718 53.9169 39.2698 53.8468 39.5502C53.3209 40.1286 52.6724 40.5668 51.9362 40.8473C51.3578 40.2864 51.0598 39.4801 51.1124 38.6738C51.1124 37.3592 51.7434 36.2725 52.5322 36.2725Z" fill="black"/>
<path d="M61.2436 36.0623C62.5056 36.185 63.4171 37.3068 63.3119 38.5688C63.2769 39.4802 62.8913 40.3216 62.2602 40.9701C61.9623 41.233 60.4023 40.5319 59.631 40.1288C59.3856 39.638 59.2805 39.0946 59.3331 38.5688C59.3331 37.1841 60.1043 36.0623 61.2436 36.0623Z" fill="black"/>
<path d="M53.952 41.0226C52.9353 41.6361 51.9538 42.3197 51.0423 43.0909C50.3587 43.5993 50.2185 44.5633 50.7093 45.2469C50.7969 45.3696 50.9021 45.4748 51.0423 45.5799C52.094 46.5966 53.2333 47.5256 54.4428 48.3494C55.4769 49.2258 56.9668 49.3485 58.1061 48.6298C59.7187 47.9112 62.5232 46.3336 62.5232 46.3336C62.5232 46.3336 65.5556 43.8797 62.5232 42.5125C59.4908 41.1453 60.0868 41.2505 58.1061 40.4968C56.7389 39.7957 55.0913 40.006 53.952 41.0402V41.0226Z" fill="#F0B800"/>
</g>
<defs>
<clipPath id="clip0_921_18576">
<rect width="118" height="118" fill="white" transform="translate(0 0.687012)"/>
</clipPath>
</defs>
</svg>
