<svg width="118" height="119" viewBox="0 0 118 119" fill="none" xmlns="http://www.w3.org/2000/svg">
<g clip-path="url(#clip0_921_18854)">
<circle cx="59" cy="59.771" r="59" fill="#2396ED"/>
<path d="M90.6142 43.0166C87.1636 43.0166 83.7129 44.2134 81.9178 46.2079C80.1227 48.2025 78.9858 50.7955 77.071 57.0785C75.1561 63.3614 72.9422 69.6643 72.9422 69.6643C72.9422 69.6643 71.5858 66.3733 70.3492 59.9706C69.7309 56.7394 68.0554 49.499 65.1234 46.3077C62.8894 43.8743 60.835 43.6748 58.5811 43.6748H42.744C37.6379 43.6748 34.7856 45.7093 31.0557 50.6758C26.4283 56.8391 20.7437 68.0886 18.6095 76.5457H25.8299C31.8336 76.5457 34.4665 74.5511 35.5835 73.4341C36.9198 72.1177 37.7775 71.3398 39.2535 66.9317C40.7096 62.5237 41.5273 57.6968 41.5273 57.6968C41.5273 57.6968 43.1829 54.9044 47.9699 49.858C47.9699 49.858 49.3461 55.3232 50.3434 59.3722C51.3407 63.4213 52.6372 69.0261 54.7515 71.8185C56.8658 74.591 58.3816 75.688 61.0943 75.688H76.7319C80.0628 75.688 83.3739 73.3344 85.2488 71.2002C86.7447 69.4848 91.9107 63.0024 102.961 43.0365H90.6142V43.0166Z" fill="white"/>
</g>
<defs>
<clipPath id="clip0_921_18854">
<rect width="118" height="118" fill="white" transform="translate(0 0.770996)"/>
</clipPath>
</defs>
</svg>
