<svg width="118" height="119" viewBox="0 0 118 119" fill="none" xmlns="http://www.w3.org/2000/svg">
<g clip-path="url(#clip0_1_239)">
<path d="M95.3813 0.0256348H22.6187C10.1267 0.0256348 0 10.1524 0 22.6443V95.407C0 107.899 10.1267 118.026 22.6187 118.026H95.3813C107.873 118.026 118 107.899 118 95.407V22.6443C118 10.1524 107.873 0.0256348 95.3813 0.0256348Z" fill="#F7DF1E"/>
<path d="M79.265 92.2156C81.6386 96.1051 84.7302 98.9574 90.1954 98.9574C94.7829 98.9574 97.7349 96.6636 97.7349 93.4922C97.7349 89.6825 94.7231 88.3461 89.6568 86.1321L86.8844 84.9354C78.8861 81.5246 73.5605 77.2562 73.5605 68.2207C73.5605 59.9033 79.9033 53.5804 89.7965 53.5804C96.8374 53.5804 101.924 56.0338 105.574 62.4563L96.9371 68.0013C95.0422 64.5906 92.9878 63.2542 89.7965 63.2542C86.6051 63.2542 84.4909 65.3086 84.4909 68.0013C84.4909 71.3323 86.5453 72.6686 91.3124 74.743L94.0848 75.9398C103.499 79.9888 108.825 84.0977 108.825 93.3526C108.825 103.345 100.986 108.811 90.4547 108.811C79.9232 108.811 73.5007 103.904 70.2495 97.4614L79.265 92.2356V92.2156ZM40.0913 93.173C41.8266 96.2647 43.4222 98.8776 47.2319 98.8776C51.0416 98.8776 53.1758 97.4614 53.1758 91.9165V54.2187H64.2657V92.076C64.2657 103.565 57.524 108.791 47.7106 108.791C38.8347 108.791 33.6886 104.203 31.0757 98.6582L40.1112 93.193L40.0913 93.173Z" fill="black"/>
</g>
<defs>
<clipPath id="clip0_1_239">
<rect width="118" height="118" fill="white" transform="translate(0 0.0256348)"/>
</clipPath>
</defs>
</svg>
