<svg width="118" height="119" viewBox="0 0 118 119" fill="none" xmlns="http://www.w3.org/2000/svg">
<g clip-path="url(#clip0_921_19617)">
<circle cx="59" cy="59" r="59" fill="#08A6ED"/>
<path d="M23.5362 67.3569H94.0786C97.0107 67.3569 99.272 69.7333 99.272 72.5504C99.272 75.3675 96.8957 77.7438 94.0786 77.7438H23.5362C20.6041 77.7438 18.3427 75.3675 18.3427 72.5504C18.2278 69.7333 20.6041 67.3569 23.5362 67.3569Z" fill="white"/>
<path d="M23.689 68.3721H94.1003C96.3501 68.3721 98.2567 70.1735 98.2567 72.5498V72.6648C98.2567 74.9261 96.4645 76.8425 94.1003 76.8425H23.689C21.4392 76.8425 19.5326 75.0411 19.5326 72.6648V72.4348C19.647 70.1735 21.4392 68.3721 23.689 68.3721Z" fill="white"/>
<path d="M56.5554 25.2896L91.817 86.3267C93.2927 88.818 92.3728 91.9801 89.9006 93.4557C87.4093 94.9313 84.2473 94.0114 82.7717 91.5393L47.51 30.5022C46.0344 28.0108 46.9543 24.8488 49.4264 23.3732C51.9177 21.8976 55.0798 22.8174 56.5554 25.2896Z" fill="white"/>
<path d="M55.635 25.7509L91.0116 87.018C92.1423 88.9344 91.4716 91.5407 89.536 92.6714L89.306 92.7864C87.6294 93.7435 84.7834 93.2463 83.6527 91.3108L48.2952 29.9287C47.1645 28.0123 47.7467 25.4216 49.6823 24.2909L49.8858 24.1603C51.9172 23.0297 54.5235 23.7004 55.6542 25.7509H55.635Z" fill="white"/>
<path d="M49.1965 67.3554C59.0276 50.3953 70.3344 30.7331 70.3344 30.7331C71.81 28.2418 70.8901 25.0798 68.418 23.6041C65.9267 22.1285 62.7646 23.0484 61.289 25.5205C61.289 25.5205 47.491 49.4946 37.1041 67.3362H49.1965V67.3554ZM43.0832 77.7614C38.3306 85.9061 35.0536 91.7702 35.0536 91.7702C33.5779 94.2616 30.4159 95.1623 27.9246 93.6866C25.4333 92.211 24.5326 89.049 26.0082 86.5576C26.0082 86.5576 27.9246 83.0507 30.9908 77.8572C34.8428 77.7422 41.8376 77.7422 43.0832 77.7422V77.7614Z" fill="white"/>
<path d="M47.9507 67.3565C57.8968 50.1664 69.4335 30.1593 69.4335 30.1593C70.5642 28.2429 69.9514 25.6468 68.0158 24.5162L67.8429 24.3909C65.9265 23.2603 63.3202 23.931 62.1895 25.8666C62.1895 25.8666 48.6215 49.3807 38.2155 67.3565H47.9316H47.9507ZM41.9524 77.7625C37.4297 85.6772 34.1527 91.3306 34.1527 91.3306C33.022 93.247 30.5242 94.0632 28.4929 92.9325L28.2694 92.8062C26.353 91.6755 25.6631 89.1842 26.7938 87.1528C26.7938 87.1528 28.9401 83.4159 32.2171 77.7625H41.9333H41.9524Z" fill="white"/>
<path d="M47.4433 99.7777C47.2261 100.212 46.8585 100.73 46.9421 101.532C47.0089 104.523 51.8881 107.28 54.7287 107.28C56.7004 107.28 57.352 106.478 58.0706 105.024C58.8058 103.571 48.2454 98.0399 47.4433 99.7777Z" fill="url(#paint0_radial_921_19617)"/>
<path d="M80.9959 37.8517C80.9959 37.8517 88.4817 39.673 89.0666 40.1743C89.6514 40.6756 88.1141 43.5997 87.8301 44.0342C85.4239 46.9416 77.9381 63.0161 77.9381 63.0161L71.0204 59.0894C71.0204 59.0894 77.2029 47.5933 79.3918 43.5162C80.7787 40.7591 80.9959 37.835 80.9959 37.835V37.8517Z" fill="url(#paint1_linear_921_19617)"/>
<path d="M98.3073 34.0745C99.6106 35.0269 101.365 34.8097 102.752 34.5758C103.704 34.4254 102.251 35.8123 100.647 39.0205C99.0425 42.2287 99.1261 42.4459 98.8921 42.2287C98.6582 42.0115 91.4732 37.9344 91.6904 37.5667C91.9744 37.1991 93.1441 29.2789 93.7289 29.4961C95.8343 29.9974 96.2019 32.5539 98.3073 34.0745Z" fill="url(#paint2_linear_921_19617)"/>
<path d="M87.112 43.0156C87.6133 42.2136 89.9526 37.2676 93.6621 37.2676C95.3331 37.2676 98.5413 41.4951 98.8253 42.0632C99.0425 42.5645 98.324 44.603 97.9564 43.6673C97.522 42.5812 95.7007 40.2419 93.7289 40.2419C91.7572 40.2419 89.067 42.4976 88.4153 43.2997C87.7637 44.0349 86.594 43.801 87.112 43.0156Z" fill="url(#paint3_linear_921_19617)"/>
<path d="M86.9611 42.7316C87.3288 42.1468 88.9997 39.6069 89.8018 38.8049C90.6038 38.0028 92.6424 35.8974 94.3801 35.5967C96.1346 35.3126 97.9393 38.8717 97.3711 39.5902C96.9367 40.0915 96.2015 39.5234 95.3326 38.7882C94.4637 38.1365 93.8789 36.8165 91.1051 38.9386C90.1527 39.6738 89.2169 40.2419 87.028 43.3833C86.4432 44.1853 86.5935 43.3164 86.9611 42.7316Z" fill="url(#paint4_linear_921_19617)"/>
<path d="M77.9389 63.9699C78.2229 63.3851 78.5905 62.5162 77.7885 61.8645C76.9196 61.2128 72.8425 59.0239 72.1073 58.8735C71.3721 58.7231 70.8039 58.8735 70.5032 59.3748C70.2191 59.8761 47.8786 98.1574 47.4442 99.2435C47.0097 100.33 46.9429 101.132 47.5945 101.349C48.2462 101.566 55.7487 105.125 56.4673 105.927C57.2025 106.729 57.5534 105.86 57.8541 105.426C59.241 103.672 77.5713 64.538 77.9389 63.9532V63.9699Z" fill="url(#paint5_linear_921_19617)"/>
<path d="M87.4627 42.581C87.8303 42.0798 88.6992 40.6093 89.7853 39.306C90.5205 38.4371 94.4473 36.5489 95.3161 33.4911C95.8174 31.8202 95.0321 30.1492 93.9293 29.414C90.2198 27.1582 83.82 23.5991 74.4293 23.5991C68.0965 23.5991 65.4062 25.7045 65.4062 25.7045H68.6145L79.7429 30.0657L81.1298 35.8806C81.1298 35.8806 81.2802 37.8523 80.6286 40.108C80.1941 41.9294 80.0437 43.0155 79.392 44.8368C79.8933 45.054 81.063 44.252 82.383 44.6196C83.5527 44.9037 84.2712 46.5078 85.0733 45.572C86.4601 43.7507 86.8946 43.3831 87.4794 42.581H87.4627Z" fill="url(#paint6_linear_921_19617)"/>
<path d="M80.9126 38.0697C80.3277 32.6892 79.0244 27.5929 65.3394 27.6597C66.2082 26.7908 68.3303 25.9052 68.3303 25.9052L65.3394 25.688C65.3394 25.688 65.7738 25.3204 66.6427 25.2535C74.6465 24.6019 81.7814 26.2728 81.2634 36.6828C81.1966 38.3538 81.0462 39.089 80.8958 38.0697H80.9126Z" fill="url(#paint7_linear_921_19617)"/>
<path d="M65.3561 27.6588C66.3085 27.2911 67.6118 27.0739 70.0848 27.2243C73.1427 27.3747 77.0025 28.5276 78.5899 29.9814C79.392 30.7166 79.3252 30.1317 78.4396 29.1793C76.1838 26.5559 72.7583 25.9711 68.3303 25.9043C67.8291 25.8374 66.1414 26.7732 65.3394 27.6588H65.3561Z" fill="url(#paint8_linear_921_19617)"/>
<path d="M102.886 34.5781L106.88 36.6167C106.88 36.6167 105.359 38.6552 104.123 40.9778C102.819 43.4508 101.934 46.1411 101.934 46.1411L98.0739 43.8184C98.0739 43.8184 99.0263 41.1951 100.396 38.6552C101.483 36.5498 102.869 34.5781 102.869 34.5781H102.886Z" fill="url(#paint9_linear_921_19617)"/>
<path d="M106.897 36.6152C107.181 36.7656 106.245 39.0214 104.858 41.6281C103.471 44.2347 102.168 46.29 101.951 46.1396C101.666 45.9892 102.602 43.7335 103.989 41.1268C105.292 38.5034 106.612 36.4649 106.897 36.6152Z" fill="#BFC0D0"/>
</g>
<defs>
<radialGradient id="paint0_radial_921_19617" cx="0" cy="0" r="1" gradientUnits="userSpaceOnUse" gradientTransform="translate(53.2693 100.997) rotate(26.12) scale(5.73134 5.73134)">
<stop offset="0.42" stop-color="#0C0C12"/>
<stop offset="1" stop-color="#3D4651"/>
</radialGradient>
<linearGradient id="paint1_linear_921_19617" x1="74.5407" y1="50.7263" x2="79.1324" y2="53.2128" gradientUnits="userSpaceOnUse">
<stop stop-color="#344351"/>
<stop offset="0.1" stop-color="#9697A0"/>
<stop offset="0.18" stop-color="#8B8C95"/>
<stop offset="0.35" stop-color="#787A83"/>
<stop offset="0.47" stop-color="#71747D"/>
<stop offset="0.59" stop-color="#777982"/>
<stop offset="0.75" stop-color="#87898F"/>
<stop offset="0.8" stop-color="#8E8F94"/>
<stop offset="0.85" stop-color="#3D3B42"/>
<stop offset="0.9" stop-color="#606E84"/>
</linearGradient>
<linearGradient id="paint2_linear_921_19617" x1="99.5037" y1="38.2752" x2="91.8725" y2="28.42" gradientUnits="userSpaceOnUse">
<stop offset="0.27" stop-color="#262B33"/>
<stop offset="0.45" stop-color="#74747E"/>
<stop offset="0.54" stop-color="#B0B0BC"/>
<stop offset="0.73" stop-color="#74747E"/>
</linearGradient>
<linearGradient id="paint3_linear_921_19617" x1="91.163" y1="42.9622" x2="102.89" y2="41.8595" gradientUnits="userSpaceOnUse">
<stop offset="0.14" stop-color="#606E84"/>
<stop offset="0.4" stop-color="#9899A5"/>
<stop offset="0.73" stop-color="#475768"/>
<stop offset="0.92" stop-color="#262B33"/>
</linearGradient>
<linearGradient id="paint4_linear_921_19617" x1="95.4935" y1="44.6171" x2="94.8434" y2="40.7154" gradientUnits="userSpaceOnUse">
<stop stop-color="#101215" stop-opacity="0.1"/>
<stop offset="0.46" stop-color="#101215" stop-opacity="0.7"/>
<stop offset="0.7" stop-color="#474951"/>
<stop offset="0.91" stop-color="#7B7D88"/>
</linearGradient>
<linearGradient id="paint5_linear_921_19617" x1="58.1096" y1="78.3133" x2="64.9385" y2="82.7979" gradientUnits="userSpaceOnUse">
<stop offset="0.11" stop-color="#2C3952"/>
<stop offset="0.37" stop-color="#3D414E"/>
<stop offset="0.55" stop-color="#474A54"/>
<stop offset="0.75" stop-color="#4E5057"/>
<stop offset="0.89" stop-color="#323945"/>
<stop offset="1" stop-color="#143052"/>
</linearGradient>
<linearGradient id="paint6_linear_921_19617" x1="71.7725" y1="40.9616" x2="77.78" y2="28.7965" gradientUnits="userSpaceOnUse">
<stop offset="0.12" stop-color="#6D7078" stop-opacity="0"/>
<stop offset="0.2" stop-color="#6D7078" stop-opacity="0.7"/>
<stop offset="0.34" stop-color="#35363A"/>
<stop offset="0.37" stop-color="#1D1F22"/>
<stop offset="0.4" stop-color="#101215"/>
<stop offset="0.5" stop-color="#16171A"/>
<stop offset="0.56" stop-color="#292A2E"/>
<stop offset="0.69" stop-color="#4B4D51"/>
<stop offset="0.81" stop-color="#63666B"/>
<stop offset="0.92" stop-color="#72757B"/>
<stop offset="1" stop-color="#777A80"/>
</linearGradient>
<linearGradient id="paint7_linear_921_19617" x1="60.9508" y1="32.582" x2="77.6368" y2="32.582" gradientUnits="userSpaceOnUse">
<stop stop-color="#4A4D56"/>
<stop offset="1" stop-color="#29292D"/>
</linearGradient>
<linearGradient id="paint8_linear_921_19617" x1="63.9667" y1="29.7795" x2="77.6723" y2="29.7795" gradientUnits="userSpaceOnUse">
<stop stop-color="#767880"/>
<stop offset="0.41" stop-color="#0C0A0B"/>
</linearGradient>
<linearGradient id="paint9_linear_921_19617" x1="102.122" y1="44.9243" x2="107.045" y2="36.897" gradientUnits="userSpaceOnUse">
<stop stop-color="#858997"/>
<stop offset="0.23" stop-color="#244668"/>
<stop offset="0.28" stop-color="#1A3249"/>
<stop offset="0.4" stop-color="#040506"/>
<stop offset="0.46" stop-color="#313236"/>
<stop offset="0.55" stop-color="#65656E"/>
<stop offset="0.61" stop-color="#868691"/>
<stop offset="0.64" stop-color="#92929E"/>
</linearGradient>
<clipPath id="clip0_921_19617">
<rect width="118" height="118" fill="white" transform="translate(0 0.296875)"/>
</clipPath>
</defs>
</svg>
