<svg width="118" height="119" viewBox="0 0 118 119" fill="none" xmlns="http://www.w3.org/2000/svg">
<g clip-path="url(#clip0_921_19436)">
<circle cx="59" cy="59" r="59" fill="#77BC1F"/>
<path d="M59 98.2137C57.9229 98.2137 56.9057 97.9345 55.9682 97.4159L46.3942 91.7313C44.9581 90.9334 45.6762 90.6542 46.115 90.5146C48.0697 89.8564 48.4287 89.7167 50.4432 88.5599C50.6626 88.4203 50.9419 88.4801 51.1613 88.6397L58.5014 93.0278C58.7806 93.1674 59.1596 93.1674 59.359 93.0278L88.1011 76.3929C88.3803 76.2533 88.5399 75.9541 88.5399 75.595V42.3851C88.5399 42.0261 88.4003 41.7269 88.1011 41.5873L59.359 25.0122C59.0798 24.8726 58.7008 24.8726 58.5014 25.0122L29.7593 41.5873C29.4801 41.7269 29.3205 42.0859 29.3205 42.3851V75.595C29.3205 75.8743 29.4601 76.2533 29.7593 76.3929L37.618 80.9405C41.8665 83.0947 44.5392 80.5815 44.5392 78.0683V45.2773C44.5392 44.8384 44.8983 44.4196 45.3969 44.4196H49.067C49.5058 44.4196 49.9246 44.7786 49.9246 45.2773V78.0683C49.9246 83.7529 46.833 87.0839 41.4277 87.0839C39.7722 87.0839 38.4757 87.0839 34.8056 85.2887L27.2461 80.9605C25.3712 79.8834 24.2144 77.8689 24.2144 75.6948V42.4848C24.2144 40.3307 25.3712 38.2962 27.2461 37.2191L55.9882 20.5842C57.7833 19.567 60.2367 19.567 62.0318 20.5842L90.7739 37.2191C92.6488 38.2962 93.8056 40.3107 93.8056 42.4848V75.6948C93.8056 77.8489 92.6488 79.8834 90.7739 80.9605L62.0318 97.5954C61.0943 98.0342 60.0173 98.2536 59 98.2536V98.2137ZM67.856 75.3756C55.2502 75.3756 52.6572 69.6113 52.6572 64.7046C52.6572 64.2658 53.0162 63.8469 53.5149 63.8469H57.2647C57.7035 63.8469 58.0626 64.1261 58.0626 64.5649C58.641 68.3746 60.2965 70.2495 67.9358 70.2495C73.9794 70.2495 76.5724 68.8733 76.5724 65.642C76.5724 63.7671 75.8543 62.3908 66.4199 61.4534C58.5612 60.6555 53.6745 58.9402 53.6745 52.6572C53.6745 46.8131 58.5812 43.3624 66.7789 43.3624C75.9939 43.3624 80.5416 46.5338 81.12 53.4551C81.12 53.6745 81.0403 53.8939 80.9006 54.1133C80.761 54.2529 80.5416 54.3925 80.3222 54.3925H76.5724C76.2133 54.3925 75.8543 54.1133 75.7745 53.7343C74.9169 49.7651 72.6829 48.4686 66.759 48.4686C60.1369 48.4686 59.3391 50.7823 59.3391 52.4977C59.3391 54.592 60.2766 55.2303 69.2123 56.3871C78.0683 57.544 82.257 59.1995 82.257 65.4027C82.1772 71.7455 76.9912 75.3557 67.856 75.3557V75.3756Z" fill="white"/>
</g>
<defs>
<clipPath id="clip0_921_19436">
<rect width="118" height="118" fill="white" transform="translate(0 0.296875)"/>
</clipPath>
</defs>
</svg>
