<svg width="118" height="119" viewBox="0 0 118 119" fill="none" xmlns="http://www.w3.org/2000/svg">
<g clip-path="url(#clip0_921_19160)">
<circle cx="59" cy="59.8394" r="59" fill="#2396ED"/>
<path fill-rule="evenodd" clip-rule="evenodd" d="M72.0419 86.9134V98.4421C73.9169 99.3995 76.1308 100.118 78.7039 100.596C81.2769 101.075 83.9696 101.314 86.8019 101.314C89.6342 101.314 92.1873 101.055 94.6805 100.517C97.1738 99.978 99.3479 99.1203 101.223 97.9036C103.098 96.6869 104.574 95.1112 105.671 93.1365C106.768 91.1619 107.306 88.7484 107.306 85.8762C107.306 83.7819 106.987 81.9469 106.369 80.3711C105.751 78.7954 104.833 77.3992 103.656 76.1625C102.479 74.9458 101.063 73.8289 99.4277 72.8715C97.7921 71.9141 95.9172 70.9766 93.8628 70.1189C92.3469 69.5006 90.9906 68.8823 89.7938 68.3039C88.597 67.7055 87.5599 67.1071 86.7221 66.5087C85.8844 65.8904 85.2262 65.2521 84.7674 64.554C84.3087 63.8759 84.0893 63.098 84.0893 62.2204C84.0893 61.4225 84.2887 60.7045 84.7076 60.0662C85.1265 59.4279 85.6849 58.8894 86.4429 58.4306C87.1809 57.9719 88.0984 57.6129 89.1755 57.3735C90.2525 57.1142 91.4693 56.9945 92.7857 56.9945C93.7431 56.9945 94.7603 57.0743 95.8374 57.2139C96.9145 57.3536 97.9916 57.573 99.0686 57.8721C100.146 58.1713 101.203 58.5503 102.22 59.0091C103.237 59.4678 104.195 59.9864 105.052 60.6047V49.814C103.297 49.1358 101.382 48.6372 99.308 48.3181C97.2336 47.9989 94.8401 47.8394 92.1474 47.8394C89.4547 47.8394 86.8019 48.1385 84.3486 48.717C81.8952 49.2954 79.7411 50.2329 77.8661 51.4695C76.0112 52.7261 74.5352 54.3218 73.4381 56.2565C72.3611 58.1913 71.8225 60.505 71.8225 63.1977C71.8225 66.6284 72.8198 69.5604 74.7945 71.9939C76.7691 74.4273 79.7809 76.4817 83.83 78.1571C85.4256 78.8154 86.9016 79.4337 88.258 80.0719C89.6143 80.7102 90.811 81.3485 91.8083 82.0266C92.8056 82.7048 93.6035 83.4229 94.1619 84.2207C94.7404 85.0185 95.0196 85.9161 95.0196 86.9333C95.0196 87.6713 94.8401 88.3694 94.4811 89.0077C94.1221 89.646 93.5636 90.2045 92.8455 90.6632C92.1275 91.122 91.19 91.5009 90.1129 91.7602C89.0159 92.0195 87.7394 92.1592 86.2634 92.1592C83.7701 92.1592 81.2769 91.7204 78.8235 90.8427C76.3702 89.9651 74.0964 88.6487 72.002 86.8934L72.0419 86.9134ZM52.6545 58.4905H67.4544V49.0162H26.2062V58.4905H40.9263V100.656H52.6545V58.4905Z" fill="white"/>
</g>
<defs>
<clipPath id="clip0_921_19160">
<rect width="118" height="118" fill="white" transform="translate(0 0.839355)"/>
</clipPath>
</defs>
</svg>
