<svg width="118" height="119" viewBox="0 0 118 119" fill="none" xmlns="http://www.w3.org/2000/svg">
<g clip-path="url(#clip0_921_19133)">
<circle cx="59" cy="59.8394" r="59" fill="#292C30"/>
<path d="M87.9619 34.9467L83.357 86.5704C83.1858 88.5303 81.7967 90.1857 79.9129 90.7185L60.2377 96.1796C59.4005 96.408 58.5252 96.408 57.7069 96.1796L38.1078 90.7376C36.205 90.2048 34.835 88.5493 34.6637 86.5894L30.0589 34.9467C29.8115 32.1686 31.9998 29.79 34.7779 29.79H83.2619C86.04 29.79 88.2283 32.1686 87.9809 34.9467H87.9619Z" fill="#E44D26"/>
<path d="M59.0008 49.4274H76.7542L77.4392 42.0635H59.0008H58.9628H40.5054L42.5224 64.3075H58.9628V64.3265H68.0583L67.202 73.8977L58.9818 76.105L50.7616 73.8977L50.2478 68.018H42.8458L43.8924 79.5682L59.0008 83.7924V83.7544L74.0522 79.5682L76.0882 56.9626H59.0008H58.9628H49.2774L48.5924 49.4274H58.9628H59.0008Z" fill="white"/>
</g>
<defs>
<clipPath id="clip0_921_19133">
<rect width="118" height="118" fill="white" transform="translate(0 0.907227)"/>
</clipPath>
</defs>
</svg>
