<svg width="118" height="119" viewBox="0 0 118 119" fill="none" xmlns="http://www.w3.org/2000/svg">
<g clip-path="url(#clip0_1_234)">
<path d="M95.3813 0.0256348H22.6187C10.1267 0.0256348 0 10.1524 0 22.6443V95.407C0 107.899 10.1267 118.026 22.6187 118.026H95.3813C107.873 118.026 118 107.899 118 95.407V22.6443C118 10.1524 107.873 0.0256348 95.3813 0.0256348Z" fill="#292C31"/>
<path d="M89.3576 32.7768L84.5307 86.8901C84.3512 88.9445 82.8951 90.6798 80.9205 91.2383L60.2964 96.9628C59.4188 97.2021 58.5013 97.2021 57.6436 96.9628L37.0993 91.2582C35.1048 90.6998 33.6686 88.9645 33.4891 86.91L28.6622 32.7768C28.4029 29.8647 30.6967 27.3715 33.6088 27.3715H84.431C87.3431 27.3715 89.6369 29.8647 89.3776 32.7768H89.3576Z" fill="#E44D26"/>
<path d="M59 47.9557H77.6095L78.3276 40.2366H59H58.9601H39.6125L41.7268 63.5534H58.9601V63.5733H68.4942L67.5967 73.6061L58.98 75.9198L50.3634 73.6061L49.8249 67.4428H42.0659L43.1629 79.55L59 83.978V83.9381L74.7772 79.55L76.9114 55.8542H59H58.9601H48.8076L48.0896 47.9557H58.9601H59Z" fill="white"/>
</g>
<defs>
<clipPath id="clip0_1_234">
<rect width="118" height="118" fill="white" transform="translate(0 0.0256348)"/>
</clipPath>
</defs>
</svg>
