<svg width="117" height="119" viewBox="0 0 117 119" fill="none" xmlns="http://www.w3.org/2000/svg">
<g clip-path="url(#clip0_1_101)">
<path d="M94.573 0.582642H22.427C10.0409 0.582642 0 10.7094 0 23.2013V95.964C0 108.456 10.0409 118.583 22.427 118.583H94.573C106.959 118.583 117 108.456 117 95.964V23.2013C117 10.7094 106.959 0.582642 94.573 0.582642Z" fill="#2BA977"/>
<path d="M77.9011 49.2307L84.5066 37.702C84.8824 37.0637 84.645 36.226 84.0122 35.8669C83.3793 35.488 82.5487 35.7074 82.1927 36.3656L75.5081 48.034C70.4057 45.6803 64.6704 44.3838 58.5 44.3838C52.3296 44.3838 46.5745 45.7003 41.4919 48.034L34.8073 36.3656C34.4315 35.7273 33.6207 35.5079 32.9878 35.8669C32.355 36.2459 32.1374 37.0637 32.4934 37.702L39.0989 49.2307C27.7272 55.4538 20.0142 67.0624 18.7485 80.6655H98.2911C97.0254 67.0624 89.3124 55.4538 77.9209 49.2307H77.9011ZM40.2262 69.396C38.3869 69.396 36.8839 67.8801 36.8839 66.0252C36.8839 64.1702 38.3869 62.6543 40.2262 62.6543C42.0654 62.6543 43.5685 64.1702 43.5685 66.0252C43.5685 67.8801 42.0852 69.396 40.2262 69.396ZM76.7343 69.396C74.895 69.396 73.392 67.8801 73.392 66.0252C73.392 64.1702 74.895 62.6543 76.7343 62.6543C78.5735 62.6543 80.0766 64.1702 80.0766 66.0252C80.0766 67.8801 78.5933 69.396 76.7343 69.396Z" fill="white"/>
</g>
<defs>
<clipPath id="clip0_1_101">
<rect width="117" height="118" fill="white" transform="translate(0 0.582642)"/>
</clipPath>
</defs>
</svg>
