<svg width="118" height="119" viewBox="0 0 118 119" fill="none" xmlns="http://www.w3.org/2000/svg">
<g clip-path="url(#clip0_1_5)">
<path d="M95.3813 0.421021H22.6187C10.1267 0.421021 0 10.5477 0 23.0397V95.8024C0 108.294 10.1267 118.421 22.6187 118.421H95.3813C107.873 118.421 118 108.294 118 95.8024V23.0397C118 10.5477 107.873 0.421021 95.3813 0.421021Z" fill="black"/>
<path d="M19.0284 69.9327H45.7559V83.3164H59.0997V59.102H32.4121L59.0997 32.3745H45.7559L19.0284 59.102V69.9327Z" fill="white"/>
<path d="M64.8441 45.7582L78.2079 32.3745H64.8441V45.7582Z" fill="white"/>
<path d="M78.2079 45.7582L64.8441 59.102V72.4658H78.2079V59.102L91.5916 45.7582V32.3745H78.2079V45.7582Z" fill="white"/>
<path d="M91.5916 59.1018L78.2079 72.4656H91.5916V59.1018Z" fill="white"/>
<path d="M69.1525 85.2111C68.953 84.9119 68.5541 84.5728 67.9358 84.5728C67.5369 84.5728 67.2776 84.6925 67.1379 84.8321C66.9584 84.9917 66.8387 85.2111 66.8387 85.4704C66.8387 85.7297 66.9385 85.9092 67.1579 86.0488C67.2975 86.1486 67.497 86.2283 67.8759 86.3879L68.3945 86.6073C68.6937 86.727 69.0328 86.9264 69.332 87.2456C69.6711 87.6046 69.7907 87.9636 69.7907 88.4623C69.7907 89.2801 69.4716 90.058 68.9929 90.5167C68.3746 91.1151 67.5568 91.2348 66.9385 91.2348C66.3601 91.2348 65.8813 91.1151 65.3827 90.796C65.0037 90.5566 64.6646 90.1577 64.4253 89.7987L65.5024 88.8811C65.622 89.1005 65.8215 89.3997 66.0409 89.5793C66.3401 89.8386 66.6592 89.8984 66.9983 89.8984C67.2975 89.8984 67.6964 89.8585 67.9757 89.5194C68.1352 89.3399 68.2549 89.1005 68.2549 88.7415C68.2549 88.4623 68.1552 88.2628 67.9158 88.0434C67.6565 87.844 67.4371 87.7841 67.1379 87.6644L66.6991 87.4849C66.2204 87.2855 65.9611 87.106 65.7816 86.9264C65.3827 86.5475 65.3229 86.0688 65.3229 85.6898C65.3229 85.0914 65.5024 84.5329 65.9611 84.0542C66.5795 83.4359 67.3374 83.3362 68.0156 83.3362C68.4943 83.3362 69.332 83.416 70.05 84.2138L69.1525 85.231V85.2111Z" fill="white"/>
<path d="M75.7147 84.7524H73.0021L72.8026 86.4478H75.4155L75.2559 87.7244H72.643L72.3837 89.7788H75.0964L74.9368 91.0553H70.7482L71.6856 83.4958H75.8743L75.7147 84.7724V84.7524Z" fill="white"/>
<path d="M83.6132 84.2935C84.1717 84.832 84.6105 85.6897 84.6105 86.8067C84.6105 88.0035 84.1518 89.2002 83.3938 89.9781C82.7955 90.5964 81.7782 91.2147 80.2424 91.2147C78.7065 91.2147 77.9087 90.6164 77.4699 90.1576C76.8516 89.5193 76.4726 88.6018 76.4726 87.6644C76.4726 86.4277 76.9912 85.2509 77.7691 84.5129C78.5669 83.7749 79.7437 83.3162 80.9804 83.3162C82.0574 83.3162 82.9949 83.7151 83.5933 84.2935H83.6132ZM82.1771 89.1204C82.7157 88.5819 83.0747 87.7641 83.0747 86.9064C83.0747 86.2283 82.8154 85.6698 82.4763 85.3108C82.1572 84.9717 81.5788 84.6525 80.761 84.6525C79.9432 84.6525 79.3049 84.9717 78.886 85.3706C78.3076 85.9091 78.0084 86.707 78.0084 87.5247C78.0084 88.3425 78.3076 88.8611 78.6068 89.1603C79.0057 89.5991 79.624 89.8584 80.3222 89.8584C81.0801 89.8584 81.7184 89.5592 82.1771 89.1204Z" fill="white"/>
<path d="M87.8817 83.4958L87.3631 87.6645C87.3431 87.8839 87.2833 88.3626 87.2833 88.5023C87.2833 88.9411 87.4628 89.32 87.6622 89.5195C87.9215 89.7589 88.3205 89.8785 88.6994 89.8785C89.1382 89.8785 89.4973 89.7589 89.7566 89.5594C90.2951 89.1605 90.3749 88.5023 90.4547 87.7643L90.9932 83.4958H92.4692L91.9307 87.9238C91.811 88.8015 91.7113 89.7389 91.0331 90.4171C90.315 91.1351 89.3377 91.2149 88.6994 91.2149C88.0013 91.2149 87.0838 91.0952 86.4655 90.457C85.9668 89.9384 85.8472 89.3201 85.8472 88.7217C85.8472 88.4225 85.907 87.6845 85.9469 87.4451L86.4256 83.4958H87.9016H87.8817Z" fill="white"/>
<path d="M95.6606 83.4958L94.8827 89.7788H97.2164L97.0568 91.0553H93.2471L94.1846 83.4958H95.6606Z" fill="white"/>
</g>
<defs>
<clipPath id="clip0_1_5">
<rect width="118" height="118" fill="white" transform="translate(0 0.421021)"/>
</clipPath>
</defs>
</svg>
