<svg width="118" height="119" viewBox="0 0 118 119" fill="none" xmlns="http://www.w3.org/2000/svg">
<g clip-path="url(#clip0_1_455)">
<path d="M95.3813 0.0933838H22.6187C10.1267 0.0933838 0 10.2201 0 22.712V95.4747C0 107.967 10.1267 118.093 22.6187 118.093H95.3813C107.873 118.093 118 107.967 118 95.4747V22.712C118 10.2201 107.873 0.0933838 95.3813 0.0933838Z" fill="#EFEFEF"/>
<path d="M58.2221 66.3736H46.4939L38.9145 58.7942C39.4929 57.5376 39.7921 56.1613 39.7921 54.7851C39.7921 52.232 38.7948 49.8584 36.9997 48.0633C35.2045 46.2682 32.811 45.2709 30.2779 45.2709C27.7448 45.2709 25.3513 46.2682 23.5561 48.0633C19.8462 51.7732 19.8462 57.8168 23.5561 61.5268C26.3685 64.3391 30.6968 65.0771 34.287 63.4216L42.8239 71.9585C43.4422 72.5768 44.26 72.9159 45.1376 72.9159H58.2221C60.0372 72.9159 61.4933 71.4399 61.4933 69.6448C61.4933 67.8496 60.0173 66.3736 58.2221 66.3736ZM32.3922 56.8993C31.2353 58.0562 29.3404 58.0562 28.1836 56.8993C27.0666 55.7824 27.0666 53.8277 28.1836 52.6907C29.3006 51.5738 31.2752 51.5738 32.3922 52.6907C33.5091 53.8077 33.5091 55.7824 32.3922 56.8993Z" fill="#60F1A1"/>
<path d="M94.424 56.6799C91.6116 53.8676 87.2833 53.1296 83.6931 54.7851L75.1562 46.2482C74.5379 45.6299 73.7002 45.2908 72.8425 45.2908H59.758C57.9429 45.2908 56.4868 46.7668 56.4868 48.5619C56.4868 50.3571 57.9628 51.8331 59.758 51.8331H71.4862L79.0656 59.4125C78.4872 60.6691 78.188 62.0454 78.188 63.4216C78.188 65.9747 79.1853 68.3483 80.9804 70.1434C82.7755 71.9385 85.1691 72.9358 87.7022 72.9358C90.2353 72.9358 92.6288 71.9385 94.424 70.1434C98.1339 66.4335 98.1339 60.3899 94.424 56.6799ZM89.7965 65.516C88.6795 66.6329 86.7248 66.6329 85.5879 65.516C84.4709 64.399 84.4709 62.4244 85.5879 61.3074C86.1663 60.729 86.9243 60.4298 87.6822 60.4298C88.4402 60.4298 89.1981 60.709 89.7766 61.3074C90.8935 62.4244 90.8935 64.399 89.7766 65.516H89.7965Z" fill="#00D287"/>
<path d="M70.0301 23.6694C66.3201 19.9595 60.2765 19.9595 56.5666 23.6694C53.7542 26.4818 53.0162 30.8101 54.6717 34.4003L46.1349 42.9372C45.5166 43.5555 45.1775 44.3733 45.1775 45.2509V58.3354C45.1775 60.1305 46.6535 61.6065 48.4486 61.6065C50.2437 61.6065 51.7197 60.1305 51.7197 58.3354V46.6072L59.2992 39.0278C60.5558 39.6062 61.932 39.9054 63.3083 39.9054C65.8614 39.9054 68.2349 38.9081 70.0301 37.113C71.8252 35.3178 72.8225 32.9243 72.8225 30.3912C72.8225 27.8581 71.8252 25.4645 70.0301 23.6694ZM66.2802 30.3912C66.2802 31.189 65.9811 31.927 65.4026 32.4855C64.2857 33.6025 62.331 33.6025 61.194 32.4855C60.0372 31.3286 60.0372 29.4338 61.194 28.2769C62.311 27.16 64.2857 27.16 65.4026 28.2769C65.9611 28.8354 66.2802 29.5734 66.2802 30.3712V30.3912Z" fill="#00977F"/>
<path d="M69.5514 56.6001C67.7363 56.6001 66.2802 58.0761 66.2802 59.8712V71.5994L58.7008 79.1789C57.4442 78.6005 56.0679 78.3013 54.6917 78.3013C52.1386 78.3013 49.765 79.2986 47.9699 81.0937C46.1748 82.8888 45.1775 85.2823 45.1775 87.8155C45.1775 90.3486 46.1748 92.7421 47.9699 94.5372C49.765 96.3324 52.1585 97.3297 54.6917 97.3297C57.2248 97.3297 59.6183 96.3324 61.4134 94.5372C64.2258 91.7249 64.9638 87.3966 63.3083 83.8063L71.8452 75.2695C72.4635 74.6512 72.8026 73.8334 72.8026 72.9558V59.8712C72.8026 58.0761 71.3266 56.6001 69.5314 56.6001H69.5514ZM56.8059 89.9098C55.689 91.0267 53.7143 91.0267 52.5974 89.9098C52.0389 89.3513 51.7197 88.6133 51.7197 87.8155C51.7197 87.0176 52.0189 86.2796 52.5974 85.7211C53.1558 85.1627 53.9337 84.8834 54.6917 84.8834C55.4496 84.8834 56.2275 85.1627 56.786 85.7211C57.9429 86.878 57.9429 88.7729 56.786 89.9297L56.8059 89.9098Z" fill="#00D287"/>
</g>
<defs>
<clipPath id="clip0_1_455">
<rect width="118" height="118" fill="white" transform="translate(0 0.0933838)"/>
</clipPath>
</defs>
</svg>
