<svg width="118" height="119" viewBox="0 0 118 119" fill="none" xmlns="http://www.w3.org/2000/svg">
<g clip-path="url(#clip0_1_427)">
<path d="M95.3813 0.0933838H22.6187C10.1267 0.0933838 0 10.2201 0 22.712V95.4747C0 107.967 10.1267 118.093 22.6187 118.093H95.3813C107.873 118.093 118 107.967 118 95.4747V22.712C118 10.2201 107.873 0.0933838 95.3813 0.0933838Z" fill="#EFEFEF"/>
<path d="M59 21.0934C38.0386 21.0934 21 38.132 21 59.0934C21 80.0548 38.0386 97.0934 59 97.0934C79.9614 97.0934 97 80.0548 97 59.0934C97 38.132 79.9614 21.0934 59 21.0934ZM46.9343 59.0934C46.9343 55.2894 47.2513 51.7232 47.7664 48.4146H55.3942V70.1288H47.8259C47.2711 66.7409 46.9343 63.036 46.9343 59.0934ZM62.6058 29.9891C64.9041 32.0694 67.0636 35.9922 68.6288 41.2029H62.6058V29.9891ZM55.3942 29.9891V41.2029H49.3712C50.9364 35.9922 53.0959 32.0694 55.3942 29.9891ZM55.3942 77.3405V88.1977C53.1554 86.1768 51.0553 82.3728 49.4901 77.3405H55.3942ZM62.6058 88.1977V77.3405H68.5099C66.9645 82.3728 64.8446 86.157 62.6058 88.1977ZM62.6058 70.1288V48.4146H70.2336C70.7487 51.7232 71.0657 55.2894 71.0657 59.0934C71.0657 62.8973 70.7289 66.7211 70.1741 70.1288H62.6058ZM77.5641 48.4146H87.8467C89.0751 51.743 89.7883 55.329 89.7883 59.0934C89.7883 62.8577 89.0354 66.7013 87.708 70.1288H77.5245C78.0198 66.6617 78.2972 62.9766 78.2972 59.0934C78.2972 55.2102 78.0396 51.7826 77.5641 48.4146ZM84.0031 41.2029H76.1575C75.2065 37.5376 73.9583 34.2488 72.4922 31.4552C77.0886 33.7138 81.0511 37.0621 84.0229 41.2029H84.0031ZM45.5276 31.4552C44.0417 34.2488 42.8133 37.5376 41.8624 41.2029H34.0167C36.9885 37.0621 40.9312 33.7138 45.5474 31.4552H45.5276ZM30.1731 48.4146H40.4557C39.9802 51.7826 39.7226 55.3489 39.7226 59.0934C39.7226 62.8379 40 66.6617 40.4953 70.1288H30.3118C28.9844 66.7013 28.2315 62.9964 28.2315 59.0934C28.2315 55.1904 28.9447 51.743 30.1731 48.4146ZM34.2742 77.3405H41.9416C42.8728 80.8671 44.1011 84.0173 45.5276 86.7315C41.0501 84.5522 37.2065 81.303 34.2742 77.3405ZM72.4922 86.7315C73.9187 84.0173 75.147 80.8671 76.0782 77.3405H83.7456C80.8133 81.303 76.9499 84.5324 72.4922 86.7315Z" fill="url(#paint0_linear_1_427)"/>
</g>
<defs>
<linearGradient id="paint0_linear_1_427" x1="59" y1="21.0934" x2="59" y2="97.0934" gradientUnits="userSpaceOnUse">
<stop stop-color="#00977F"/>
<stop offset="1" stop-color="#60F1A1"/>
</linearGradient>
<clipPath id="clip0_1_427">
<rect width="118" height="118" fill="white" transform="translate(0 0.0933838)"/>
</clipPath>
</defs>
</svg>
