<svg width="118" height="119" viewBox="0 0 118 119" fill="none" xmlns="http://www.w3.org/2000/svg">
<g clip-path="url(#clip0_1_125)">
<path d="M95.3813 0.86438H22.6187C10.1267 0.86438 0 10.9911 0 23.483V96.2457C0 108.738 10.1267 118.864 22.6187 118.864H95.3813C107.873 118.864 118 108.738 118 96.2457V23.483C118 10.9911 107.873 0.86438 95.3813 0.86438Z" fill="#292C31"/>
<path d="M67.5169 30.0053L59 44.7653L50.4831 30.0053C49.9047 29.008 48.8475 28.4097 47.7106 28.4097H22.3793C20.4844 28.4097 19.3076 30.4641 20.2451 32.0997L56.8658 95.5476C57.8032 97.1832 60.1768 97.1832 61.1342 95.5476L97.7549 32.0997C98.6924 30.4641 97.5155 28.4097 95.6207 28.4097H70.2894C69.1525 28.4097 68.0953 29.028 67.5169 30.0053Z" fill="#41B883"/>
<path d="M67.5568 29.9256L59 44.7653L50.4432 29.9256C49.9047 28.9881 48.8874 28.4097 47.8103 28.4097H34.4865L59.0199 70.8945L83.5534 28.4097H70.2295C69.1325 28.4097 68.1352 28.9881 67.5967 29.9256H67.5568Z" fill="#34495E"/>
</g>
<defs>
<clipPath id="clip0_1_125">
<rect width="118" height="118" fill="white" transform="translate(0 0.86438)"/>
</clipPath>
</defs>
</svg>
