<svg width="118" height="119" viewBox="0 0 118 119" fill="none" xmlns="http://www.w3.org/2000/svg">
<g clip-path="url(#clip0_921_18914)">
<circle cx="59" cy="58.771" r="59" fill="#292C30"/>
<path d="M59.0021 65.5311C62.7355 65.5311 65.762 62.5046 65.762 58.7712C65.762 55.0377 62.7355 52.0112 59.0021 52.0112C55.2687 52.0112 52.2422 55.0377 52.2422 58.7712C52.2422 62.5046 55.2687 65.5311 59.0021 65.5311Z" fill="#61DAFB"/>
<path d="M96.9822 58.771C96.9822 53.452 90.7381 48.8446 81.0252 46.0694C83.4623 36.2675 82.6084 28.547 78.001 25.8964C74.1585 23.6727 68.5905 25.256 62.3287 30.3615C61.2257 31.251 60.1228 32.265 59.0199 33.3501C57.9169 32.2827 56.814 31.2688 55.7111 30.3615C49.4493 25.2738 43.8812 23.6905 40.0387 25.8964C36.1963 28.1201 34.7909 33.7237 36.0539 41.6933C36.2852 43.0986 36.6054 44.5751 36.979 46.0694C27.2838 48.8623 21.0398 53.452 21.0398 58.771C21.0398 64.09 27.2838 68.6796 36.979 71.4725C36.6054 72.9668 36.2674 74.4433 36.0539 75.8487C34.7731 83.8182 36.1963 89.4397 40.0387 91.6455C41.1772 92.3037 42.4581 92.6239 43.8634 92.6239C47.2256 92.6239 51.2993 90.7738 55.7111 87.1804C56.814 86.291 57.9169 85.277 59.0199 84.1918C60.1228 85.2592 61.2257 86.2732 62.3287 87.1804C66.7404 90.7738 70.8142 92.6239 74.1763 92.6239C75.5817 92.6239 76.8625 92.3037 78.001 91.6455C81.8435 89.4219 83.2489 83.8182 81.9858 75.8487C81.7546 74.4433 81.4344 72.9668 81.0608 71.4725C90.7559 68.6796 97 64.09 97 58.771H96.9822ZM64.41 32.9054C68.1991 29.8278 71.5969 28.1912 74.123 28.1912C74.9591 28.1912 75.7062 28.3691 76.3466 28.7427C79.3352 30.4682 79.9578 36.7301 77.8409 45.2333C74.7278 44.5218 71.3478 43.9881 67.7366 43.6501C65.6731 40.7326 63.5206 38.0465 61.3147 35.6805C62.3465 34.6843 63.3783 33.7415 64.41 32.9054ZM69.6045 64.8727C68.4304 66.9007 67.2029 68.8575 65.9399 70.7253C63.734 70.8855 61.4214 70.9922 59.0199 70.9922C56.6183 70.9922 54.3235 70.9032 52.1176 70.7253C50.8546 68.8575 49.6271 66.9184 48.4531 64.8727C47.279 62.8447 46.1938 60.7989 45.2154 58.771C46.1938 56.743 47.279 54.6972 48.4531 52.6692C49.6271 50.6413 50.8546 48.6844 52.1176 46.8166C54.3235 46.6565 56.6361 46.5497 59.0199 46.5497C61.4036 46.5497 63.7162 46.6387 65.9399 46.8166C67.2029 48.6844 68.4304 50.6413 69.6045 52.6692C70.7786 54.6972 71.8459 56.743 72.8243 58.771C71.8637 60.7634 70.7964 62.8091 69.6045 64.8905V64.8727ZM74.5855 62.649C75.5105 64.8549 76.3111 67.0074 76.9693 69.1243C74.8523 69.6046 72.5931 70.0138 70.156 70.3162C70.9387 69.0887 71.7214 67.8257 72.4686 66.5449C73.2157 65.2463 73.9095 63.9476 74.5855 62.6668V62.649ZM59.0377 79.4777C57.5434 77.8588 56.0669 76.0799 54.6259 74.1765C56.0669 74.2476 57.5434 74.2832 59.0377 74.2832C60.532 74.2832 62.0085 74.2476 63.4494 74.1765C62.0085 76.0799 60.532 77.8588 59.0377 79.4777ZM47.9016 70.2984C45.4822 69.996 43.2052 69.5868 41.0883 69.1065C41.7465 67.0074 42.547 64.8371 43.4721 62.6312C44.1481 63.9298 44.8418 65.2285 45.589 66.5093C46.3361 67.8079 47.1011 69.0532 47.9016 70.2806V70.2984ZM43.4721 54.8929C42.547 52.687 41.7465 50.5345 41.0883 48.4176C43.2052 47.9373 45.4645 47.5281 47.9016 47.2257C47.1189 48.4532 46.3361 49.7162 45.589 50.997C44.8418 52.2957 44.1481 53.5765 43.4721 54.8751V54.8929ZM59.0199 38.0465C60.5142 39.6653 61.9907 41.4442 63.4316 43.3477C61.9907 43.2765 60.5142 43.2409 59.0199 43.2409C57.5256 43.2409 56.0491 43.2765 54.6081 43.3477C56.0491 41.4442 57.5256 39.6653 59.0199 38.0465ZM72.4508 50.997C71.7036 49.6984 70.9387 48.4532 70.1382 47.2257C72.5575 47.5281 74.8167 47.9373 76.9337 48.4176C76.2933 50.4812 75.5105 52.6515 74.5677 54.8929C73.8917 53.5943 73.1979 52.2957 72.4508 50.997ZM39.3094 41.1596C38.2776 34.7199 39.1493 30.2014 41.6753 28.7427C42.3158 28.3691 43.0629 28.1912 43.899 28.1912C46.4251 28.1912 49.8228 29.81 53.6297 32.9054C54.6615 33.7415 55.6933 34.6843 56.7251 35.6805C54.5192 38.0643 52.3667 40.7326 50.3031 43.6501C46.6919 43.9881 43.2942 44.5218 40.181 45.2333C39.8253 43.8458 39.5228 42.476 39.3094 41.1596ZM24.3486 58.7532C24.3486 55.3021 29.4541 51.6375 37.8862 49.2181C38.8468 52.3135 40.0921 55.4977 41.5864 58.7532C40.0921 61.9908 38.8468 65.1929 37.8862 68.2882C29.4541 65.8867 24.3486 62.2043 24.3486 58.7532ZM53.6297 84.6188C48.5776 88.7281 44.2192 90.2402 41.6931 88.7815C39.1493 87.3227 38.2954 82.7865 39.3272 76.3468C39.5406 75.0303 39.8431 73.6606 40.1988 72.273C43.312 72.9846 46.7097 73.5183 50.3209 73.8563C52.3845 76.7737 54.537 79.4599 56.7429 81.8259C55.7111 82.8221 54.6793 83.7649 53.6475 84.601L53.6297 84.6188ZM78.7304 76.3468C79.7622 82.7865 78.8905 87.3049 76.3644 88.7815C73.8383 90.2402 69.48 88.7281 64.4278 84.6188C63.396 83.7827 62.3643 82.8398 61.3325 81.8436C63.5384 79.4599 65.6909 76.7915 67.7544 73.8741C71.3656 73.5361 74.7634 73.0024 77.8765 72.2908C78.2323 73.6784 78.5347 75.0481 78.7482 76.3645L78.7304 76.3468ZM80.1713 68.2882C79.2107 65.1929 77.9655 62.0086 76.4712 58.7532C77.9832 55.4622 79.2107 52.2601 80.1535 49.2181C88.5856 51.6197 93.6912 55.3021 93.6912 58.7532C93.6912 62.2043 88.5856 65.8689 80.1535 68.2882H80.1713Z" fill="#61DAFB"/>
</g>
<defs>
<clipPath id="clip0_921_18914">
<rect width="118" height="118" fill="white" transform="translate(0 0.0678711)"/>
</clipPath>
</defs>
</svg>
