<svg width="118" height="119" viewBox="0 0 118 119" fill="none" xmlns="http://www.w3.org/2000/svg">
<g clip-path="url(#clip0_921_19732)">
<circle cx="59" cy="59.0933" r="59" fill="#F7F7FA"/>
<path d="M59 25.0933C40.1345 25.0933 24.7996 40.3383 24.7996 59.0933C24.7996 77.8482 40.1345 93.0933 59 93.0933C77.8655 93.0933 93.2004 77.8482 93.2004 59.0933C93.2004 40.3383 77.8655 25.0933 59 25.0933ZM48.1407 59.0933C48.1407 55.6897 48.426 52.4989 48.8897 49.5385H55.7547V68.9671H48.9431C48.4439 65.9358 48.1407 62.6209 48.1407 59.0933ZM62.2453 33.0526C64.3137 34.9139 66.2573 38.4238 67.666 43.086H62.2453V33.0526ZM55.7547 33.0526V43.086H50.334C51.7427 38.4238 53.6863 34.9139 55.7547 33.0526ZM55.7547 75.4196V85.1339C53.7398 83.3258 51.8497 79.9222 50.441 75.4196H55.7547ZM62.2453 85.1339V75.4196H67.559C66.1682 79.9222 64.2602 83.3081 62.2453 85.1339ZM62.2453 68.9671V49.5385H69.1104C69.574 52.4989 69.8593 55.6897 69.8593 59.0933C69.8593 62.4968 69.5561 65.9181 69.0569 68.9671H62.2453ZM75.7079 49.5385H84.9624C86.0679 52.5166 86.7099 55.7252 86.7099 59.0933C86.7099 62.4614 86.0323 65.9004 84.8376 68.9671H75.6723C76.1181 65.8649 76.3677 62.5677 76.3677 59.0933C76.3677 55.6188 76.1359 52.5521 75.7079 49.5385ZM81.5031 43.086H74.4419C73.586 39.8065 72.4626 36.8639 71.1431 34.3644C75.28 36.3852 78.8462 39.3811 81.5209 43.086H81.5031ZM46.8747 34.3644C45.5374 36.8639 44.4318 39.8065 43.5759 43.086H36.5147C39.1894 39.3811 42.7379 36.3852 46.8925 34.3644H46.8747ZM33.0555 49.5385H42.3099C41.882 52.5521 41.6501 55.7429 41.6501 59.0933C41.6501 62.4436 41.8998 65.8649 42.3456 68.9671H33.1803C31.9856 65.9004 31.308 62.5854 31.308 59.0933C31.308 55.6011 31.9499 52.5166 33.0555 49.5385ZM36.7465 75.4196H43.6472C44.4853 78.575 45.5909 81.3936 46.8747 83.8221C42.8448 81.8722 39.3856 78.965 36.7465 75.4196ZM71.1431 83.8221C72.427 81.3936 73.5325 78.575 74.3706 75.4196H81.2713C78.6323 78.965 75.1552 81.8545 71.1431 83.8221Z" fill="url(#paint0_linear_921_19732)"/>
</g>
<defs>
<linearGradient id="paint0_linear_921_19732" x1="59" y1="25.0933" x2="59" y2="93.0933" gradientUnits="userSpaceOnUse">
<stop stop-color="#00977F"/>
<stop offset="1" stop-color="#60F1A1"/>
</linearGradient>
<clipPath id="clip0_921_19732">
<rect width="118" height="118" fill="white" transform="translate(0 0.0932617)"/>
</clipPath>
</defs>
</svg>
