<svg width="118" height="119" viewBox="0 0 118 119" fill="none" xmlns="http://www.w3.org/2000/svg">
<g clip-path="url(#clip0_921_19716)">
<circle cx="59" cy="59.0933" r="59" fill="#F7F7FA"/>
<path d="M34.0443 58.8207C32.504 60.3611 32.504 62.8706 34.0443 64.4283C35.5846 65.9686 38.0942 65.9686 39.6519 64.4283C50.3305 53.7497 67.6897 53.7497 78.3683 64.4283C79.1471 65.2071 80.1509 65.5879 81.1721 65.5879C82.1932 65.5879 83.197 65.1898 83.9758 64.4283C85.5162 62.8879 85.5162 60.3784 83.9758 58.8207C70.2165 45.0441 47.8209 45.0441 34.0616 58.8207H34.0443Z" fill="#00D287"/>
<path d="M44.7574 69.5338C43.2171 71.0742 43.2171 73.5837 44.7574 75.1414C46.2978 76.6817 48.8073 76.6817 50.365 75.1414C55.1245 70.3646 62.8955 70.3646 67.655 75.1414C68.4338 75.9202 69.4376 76.301 70.4588 76.301C71.4799 76.301 72.4837 75.9029 73.2626 75.1414C74.8029 73.601 74.8029 71.0915 73.2626 69.5511C65.4223 61.6763 52.6323 61.6763 44.7747 69.5511L44.7574 69.5338Z" fill="#00D287"/>
<path d="M59.0014 89.0394C61.9167 89.0394 64.2801 86.676 64.2801 83.7607C64.2801 80.8453 61.9167 78.4819 59.0014 78.4819C56.086 78.4819 53.7227 80.8453 53.7227 83.7607C53.7227 86.676 56.086 89.0394 59.0014 89.0394Z" fill="#60F1A1"/>
<path d="M94.8275 47.9518C75.0799 28.2042 42.9402 28.2042 23.1753 47.9518C21.6349 49.4922 21.6349 52.0017 23.1753 53.5594C24.7156 55.0997 27.2252 55.0997 28.7828 53.5594C45.4325 36.8925 72.553 36.8925 89.2372 53.5594C90.0161 54.3382 91.0199 54.719 92.041 54.719C93.0621 54.719 94.066 54.3209 94.8448 53.5594C96.3851 52.019 96.3851 49.5095 94.8448 47.9518H94.8275Z" fill="#00977F"/>
</g>
<defs>
<clipPath id="clip0_921_19716">
<rect width="118" height="118" fill="white" transform="translate(0 0.0932617)"/>
</clipPath>
</defs>
</svg>
