<svg width="118" height="119" viewBox="0 0 118 119" fill="none" xmlns="http://www.w3.org/2000/svg">
<g clip-path="url(#clip0_921_19664)">
<circle cx="59" cy="59.0933" r="59" fill="#F7F7FA"/>
<path fill-rule="evenodd" clip-rule="evenodd" d="M75.6332 76.6066C76.256 77.2294 77.0804 77.5408 77.9047 77.5408V77.5042C78.729 77.5042 79.5534 77.1928 80.1762 76.57C84.8657 71.8988 87.4303 65.6888 87.4303 59.0575C87.4303 52.4262 84.8474 46.2163 80.1762 41.5451C78.9305 40.2994 76.8972 40.2994 75.6332 41.5451C74.3876 42.7907 74.3876 44.8241 75.6332 46.0881C79.0954 49.5502 81.0005 54.1665 81.0005 59.0758C81.0005 63.9852 79.0954 68.6014 75.6332 72.0636C75.0287 72.6864 74.699 73.4741 74.699 74.3351C74.699 75.1961 75.0287 76.0021 75.6332 76.6066Z" fill="#00D287"/>
<path fill-rule="evenodd" clip-rule="evenodd" d="M37.8056 76.6066C38.4284 77.2294 39.2528 77.5408 40.0771 77.5408V77.5775C40.9014 77.5775 41.7258 77.266 42.3486 76.6432C43.5943 75.3976 43.5943 73.3642 42.3486 72.1002C38.8864 68.6381 36.9813 64.0218 36.9813 59.1125C36.9813 54.2031 38.8864 49.5869 42.3486 46.1247C42.9531 45.5018 43.2828 44.7142 43.2828 43.8532C43.2828 42.9922 42.9531 42.1862 42.3486 41.5817C41.1029 40.336 39.0696 40.336 37.8056 41.5817C33.1344 46.2529 30.5515 52.4629 30.5515 59.0941C30.5515 65.7071 33.1344 71.9354 37.8056 76.6066Z" fill="#00D287"/>
<path d="M87.6684 34.1076C86.4227 32.8619 84.3894 32.8619 83.1254 34.1076C81.8797 35.3532 81.8797 37.3866 83.1254 38.6506C88.5843 44.1095 91.5885 51.3636 91.5885 59.1123C91.5885 66.861 88.5843 74.1151 83.1254 79.574C82.5209 80.1785 82.1912 80.9845 82.1912 81.8455C82.1912 82.7064 82.5209 83.5124 83.1254 84.117C83.7482 84.7398 84.5726 85.0512 85.3969 85.0512C86.2212 85.0512 87.0456 84.7398 87.6684 84.117C101.444 70.3232 101.444 47.9014 87.6684 34.1259V34.1076Z" fill="#00977F"/>
<path d="M35.8088 36.361C35.8088 35.5 35.4791 34.7123 34.8746 34.0895C33.6289 32.8439 31.5956 32.8439 30.3316 34.0895C16.5561 47.8833 16.5561 70.3051 30.3316 84.0806C30.9544 84.7034 31.7788 85.0148 32.6031 85.0148C33.4274 85.0148 34.2518 84.7034 34.8746 84.0806C36.1202 82.8349 36.1202 80.8016 34.8746 79.5376C29.4157 74.0787 26.4115 66.8246 26.4115 59.0759C26.4115 51.3272 29.4157 44.0731 34.8746 38.6142C35.4791 38.0097 35.8088 37.2036 35.8088 36.3427V36.361Z" fill="#00977F"/>
<path d="M58.9999 66.0413C62.5504 66.0413 65.4287 63.1384 65.4287 59.5575C65.4287 55.9766 62.5504 53.0737 58.9999 53.0737C55.4493 53.0737 52.571 55.9766 52.571 59.5575C52.571 63.1384 55.4493 66.0413 58.9999 66.0413Z" fill="#60F1A1"/>
</g>
<defs>
<clipPath id="clip0_921_19664">
<rect width="118" height="118" fill="white" transform="translate(0 0.0932617)"/>
</clipPath>
</defs>
</svg>
