<svg width="118" height="119" viewBox="0 0 118 119" fill="none" xmlns="http://www.w3.org/2000/svg">
<g clip-path="url(#clip0_1_439)">
<path d="M95.3813 0.0933838H22.6187C10.1267 0.0933838 0 10.2201 0 22.712V95.4747C0 107.967 10.1267 118.093 22.6187 118.093H95.3813C107.873 118.093 118 107.967 118 95.4747V22.712C118 10.2201 107.873 0.0933838 95.3813 0.0933838Z" fill="#EFEFEF"/>
<path d="M37.4612 51.0352V49.1603C37.4612 46.6271 38.1792 44.6525 39.6153 43.2164C41.0514 41.8002 43.046 41.0822 45.639 41.0822C48.2319 41.0822 50.2066 41.8002 51.6427 43.2164C53.0788 44.6525 53.7968 46.6271 53.7968 49.1603V51.0352C53.7968 53.5484 53.0788 55.523 51.6626 56.9192C50.2465 58.3354 48.2319 59.0335 45.6589 59.0335C43.0859 59.0335 41.0714 58.3155 39.6353 56.8993C38.1992 55.4831 37.4811 53.5284 37.4811 51.0153L37.4612 51.0352ZM42.6072 49.1204V51.0153C42.6072 52.2918 42.8665 53.2691 43.405 53.9872C43.9236 54.6853 44.6616 55.0443 45.619 55.0443C46.5764 55.0443 47.2945 54.6853 47.833 53.9872C48.3516 53.2891 48.6309 52.2918 48.6309 51.0153V49.1204C48.6309 47.8438 48.3716 46.8665 47.833 46.1484C47.2945 45.4304 46.5764 45.0913 45.619 45.0913C44.6616 45.0913 43.9236 45.4503 43.405 46.1484C42.8864 46.8466 42.6072 47.8438 42.6072 49.1204Z" fill="#00977F"/>
<path d="M54.8539 55.1241C54.8539 54.5457 55.0534 54.067 55.4323 53.688C55.8113 53.309 56.2701 53.1096 56.8086 53.1096C57.4469 53.1096 58.145 53.3689 58.9029 53.9074C60.0797 54.7651 61.2366 55.1839 62.3536 55.1839C63.9692 55.1839 64.767 54.7052 64.767 53.7478C64.767 53.3689 64.5676 53.0497 64.1886 52.8104C63.7897 52.571 63.1514 52.3516 62.2538 52.1921L60.0199 51.7532C58.3444 51.4341 57.0879 50.8557 56.2701 50.018C55.4523 49.1802 55.0334 48.0832 55.0334 46.687C55.0334 44.9517 55.6717 43.5954 56.9482 42.5781C58.2248 41.5808 59.9601 41.0822 62.1541 41.0822C63.3908 41.0822 64.5277 41.2418 65.5848 41.5808C66.6419 41.9199 67.4797 42.3587 68.0781 42.9372C68.8161 43.5954 69.1751 44.3134 69.1751 45.0714C69.1751 45.59 68.9956 46.0288 68.6365 46.3479C68.2775 46.687 67.7988 46.8466 67.2204 46.8466C66.6419 46.8466 65.9837 46.6072 65.3056 46.0886C64.787 45.6897 64.2883 45.3905 63.7897 45.211C63.311 45.0315 62.7724 44.9317 62.214 44.9317C61.5757 44.9317 61.077 45.0514 60.718 45.2908C60.339 45.5301 60.1595 45.8493 60.1595 46.2681C60.1595 47.1058 60.9374 47.6643 62.5131 47.9236L64.8069 48.3226C68.1578 48.901 69.8333 50.5365 69.8333 53.2292C69.8333 54.9845 69.1352 56.4006 67.739 57.4578C66.3428 58.5149 64.4678 59.0534 62.1342 59.0534C60.8377 59.0534 59.6409 58.8739 58.5439 58.5349C57.4469 58.1958 56.5892 57.7171 55.9509 57.1386C55.2528 56.4804 54.8938 55.8023 54.8938 55.1241H54.8539Z" fill="#00977F"/>
<path d="M62.7326 96.2726H45.0206C43.3651 96.2726 42.0287 94.9362 42.0287 93.2807V79.9568C42.0287 78.3013 43.3651 76.9649 45.0206 76.9649H62.7326C64.3881 76.9649 65.7245 78.3013 65.7245 79.9568V93.2807C65.7245 94.9362 64.3881 96.2726 62.7326 96.2726ZM48.0125 90.2888H59.7407V82.9487H48.0125V90.2888Z" fill="#00977F"/>
<path d="M82.1599 82.9288H25.5734C20.8462 82.9288 17.0166 79.0792 17.0166 74.372V36.4747C17.0166 31.7476 20.8662 27.9179 25.5734 27.9179H82.1799C86.9071 27.9179 90.7367 31.7675 90.7367 36.4747V74.372C90.7367 79.0991 86.8871 82.9288 82.1799 82.9288H82.1599ZM25.5734 33.8818C24.1572 33.8818 23.0004 35.0386 23.0004 36.4548V74.352C23.0004 75.7682 24.1572 76.925 25.5734 76.925H82.1799C83.596 76.925 84.7529 75.7682 84.7529 74.352V36.4548C84.7529 35.0386 83.596 33.8818 82.1799 33.8818H25.5734Z" fill="#00D287"/>
<path d="M87.7448 71.061H19.9885C18.333 71.061 16.9966 69.7246 16.9966 68.0691C16.9966 66.4136 18.333 65.0772 19.9885 65.0772H87.7248C89.3803 65.0772 90.7167 66.4136 90.7167 68.0691C90.7167 69.7246 89.3803 71.061 87.7248 71.061H87.7448Z" fill="#00D287"/>
<path d="M98.4756 56.7198H79.9858C77.4852 56.7198 75.4581 58.747 75.4581 61.2476V88.8128C75.4581 91.3134 77.4852 93.3405 79.9858 93.3405H98.4756C100.976 93.3405 103.003 91.3134 103.003 88.8128V61.2476C103.003 58.747 100.976 56.7198 98.4756 56.7198Z" fill="#EFEFEF"/>
<path fill-rule="evenodd" clip-rule="evenodd" d="M79.9858 59.2412C78.8458 59.2412 77.9581 60.1597 77.9581 61.2476V88.8128C77.9581 89.9007 78.8458 90.8192 79.9858 90.8192H98.4756C99.6156 90.8192 100.503 89.9007 100.503 88.8128V61.2476C100.503 60.1597 99.6156 59.2412 98.4756 59.2412H79.9858ZM72.9581 61.2476C72.9581 57.3343 76.1246 54.1985 79.9858 54.1985H98.4756C102.337 54.1985 105.503 57.3343 105.503 61.2476V88.8128C105.503 92.7261 102.337 95.8619 98.4756 95.8619H79.9858C76.1246 95.8619 72.9581 92.7261 72.9581 88.8128V61.2476Z" fill="#60F1A1"/>
<path d="M94.666 75.1897C94.666 75.1897 94.666 75.09 94.666 75.0302C94.666 74.9703 94.666 74.9304 94.666 74.8706L95.8228 74.0329C96.2417 73.7337 96.3614 73.1752 96.1021 72.7364L94.7059 70.2631C94.5264 69.9439 94.1873 69.7644 93.8282 69.7644C93.6886 69.7644 93.549 69.7844 93.4094 69.8642L92.1727 70.4426C92.1727 70.4426 92.0531 70.3628 91.9733 70.3229C91.9134 70.283 91.8536 70.2631 91.7938 70.2232L91.5744 68.8669C91.4946 68.3882 91.0757 68.0291 90.597 68.0291H87.8245C87.3259 68.0291 86.907 68.3882 86.8472 68.8669L86.6278 70.2232C86.6278 70.2232 86.4882 70.283 86.4283 70.3229C86.3685 70.3628 86.3086 70.3828 86.2687 70.4226L85.0121 69.8442C84.8725 69.7844 84.7329 69.7445 84.5933 69.7445C84.2542 69.7445 83.9151 69.924 83.7157 70.2431L82.3195 72.7164C82.0602 73.1552 82.1798 73.7137 82.5987 74.0129L83.7755 74.8706C83.7755 74.8706 83.7755 74.9703 83.7755 75.0102C83.7755 75.0501 83.7755 75.1099 83.7755 75.1498L82.5987 76.0075C82.1998 76.3067 82.0801 76.8652 82.3195 77.304L83.7157 79.7773C83.8952 80.0964 84.2343 80.2759 84.5933 80.2759C84.7329 80.2759 84.8725 80.256 85.0121 80.1762L86.2687 79.5978C86.2687 79.5978 86.3685 79.6576 86.4283 79.6975C86.4882 79.7374 86.5679 79.7773 86.6278 79.7972L86.8472 81.1735C86.927 81.6522 87.3458 82.0112 87.8245 82.0112H90.597C91.0957 82.0112 91.5145 81.6522 91.5744 81.1735L91.7938 79.8172C91.7938 79.8172 91.9533 79.7374 92.0331 79.6776C92.073 79.6576 92.1328 79.6177 92.1727 79.5978L93.4293 80.1762C93.5689 80.236 93.7086 80.2759 93.8482 80.2759C94.1873 80.2759 94.5264 80.0964 94.7258 79.7773L96.122 77.304C96.3813 76.8652 96.2417 76.3067 95.8428 76.0075L94.666 75.1698V75.1897ZM89.2008 74.9703L89.2806 75.0501L89.2207 75.09H89.2008V74.9703ZM87.4057 71.9385C87.7048 71.759 88.024 71.6394 88.3631 71.5795C88.024 71.6593 87.7048 71.779 87.4057 71.9385ZM86.6078 77.4636C86.8472 77.7029 87.1264 77.9024 87.4057 78.0819C87.1065 77.9024 86.8472 77.7029 86.6078 77.4636ZM91.5145 78.8797C91.714 78.76 91.9134 78.6204 92.073 78.5007C91.9134 78.6404 91.7339 78.76 91.5145 78.8797ZM93.6088 75.6684C93.6288 75.5687 93.6487 75.469 93.6487 75.3493C93.6487 75.2296 93.6487 75.1299 93.6487 75.0302C93.6487 74.9304 93.6487 74.8307 93.6487 74.711C93.6487 74.5913 93.6487 74.4916 93.6088 74.3919C93.6288 74.4916 93.6487 74.5913 93.6487 74.711C93.6487 74.8307 93.6487 74.9304 93.6487 75.0302C93.6487 75.1299 93.6487 75.2296 93.6487 75.3493C93.6487 75.469 93.6487 75.5687 93.6088 75.6684Z" fill="#00977F"/>
<path d="M89.2208 77.2441C90.4435 77.2441 91.4348 76.2529 91.4348 75.0301C91.4348 73.8074 90.4435 72.8161 89.2208 72.8161C87.998 72.8161 87.0068 73.8074 87.0068 75.0301C87.0068 76.2529 87.998 77.2441 89.2208 77.2441Z" fill="#EFEFEF"/>
</g>
<defs>
<clipPath id="clip0_1_439">
<rect width="118" height="118" fill="white" transform="translate(0 0.0933838)"/>
</clipPath>
</defs>
</svg>
