<svg width="118" height="119" viewBox="0 0 118 119" fill="none" xmlns="http://www.w3.org/2000/svg">
<g clip-path="url(#clip0_1_172)">
<path d="M95.3813 0.86438H22.6187C10.1267 0.86438 0 10.9911 0 23.483V96.2457C0 108.738 10.1267 118.864 22.6187 118.864H95.3813C107.873 118.864 118 108.738 118 96.2457V23.483C118 10.9911 107.873 0.86438 95.3813 0.86438Z" fill="#222C37"/>
<path d="M47.8103 36.9465C37.219 35.0118 28.8617 37.0463 25.5108 42.8106C23.0176 47.1189 23.7356 52.8434 27.2461 58.9469C27.5253 59.4655 28.1836 59.6649 28.7221 59.3857C29.2407 59.1064 29.4401 58.4482 29.1609 57.9097C29.1609 57.9097 29.1609 57.8897 29.141 57.8698C25.9895 52.3647 25.3712 47.4381 27.4057 43.9076C30.1781 39.1007 37.6379 37.3056 47.4314 39.0807C48.0297 39.1805 48.5882 38.7815 48.6879 38.1832C48.7877 37.6047 48.4087 37.0463 47.8303 36.9465H47.8103ZM32.7512 66.3867C37.0395 71.0939 42.5845 75.502 48.9273 79.172C64.2856 88.028 80.6213 90.4016 88.6795 84.9164C89.1781 84.5774 89.3178 83.9191 88.9986 83.4205C88.6595 82.9218 88.0013 82.7822 87.5027 83.1014C87.5027 83.1014 87.4827 83.1014 87.4628 83.1213C80.2623 88.028 64.7245 85.7941 50.0243 77.2971C43.881 73.7467 38.4956 69.4783 34.3668 64.9306C33.9679 64.4918 33.2698 64.4519 32.8309 64.8509C32.3921 65.2498 32.3522 65.9479 32.7512 66.3867Z" fill="#9FEAF9"/>
<path d="M86.1264 65.0503C93.0477 56.8725 95.4811 48.6349 92.1501 42.8705C89.6968 38.622 84.5308 36.3881 77.6494 36.3083C77.0511 36.3083 76.5724 36.787 76.5724 37.4053C76.5724 37.9837 77.0511 38.4824 77.6295 38.4824C83.8127 38.5622 88.2806 40.4969 90.2951 43.9675C93.0676 48.7545 90.8935 56.0946 84.4909 63.6741C84.092 64.1328 84.1518 64.811 84.6105 65.2099C85.0693 65.6088 85.7475 65.549 86.1464 65.0902L86.1264 65.0503ZM68.3147 37.3056C62.0517 38.642 55.3699 41.2748 48.9672 44.9648C33.1102 54.12 22.7782 67.6034 24.2143 77.3969C24.2941 77.9952 24.8327 78.4141 25.431 78.3343C26.0294 78.2545 26.4483 77.716 26.3685 77.1176C26.3685 77.1176 26.3685 77.1176 26.3685 77.0977C25.092 68.4013 34.8854 55.6159 50.0642 46.8597C56.2874 43.2694 62.7299 40.7363 68.7735 39.4398C69.3519 39.3201 69.7509 38.7616 69.6312 38.1633C69.5115 37.5649 68.953 37.1859 68.3546 37.3056C68.3546 37.3056 68.3347 37.3056 68.3147 37.3056Z" fill="#9FEAF9"/>
<path d="M42.6244 84.1984C46.2546 94.311 52.1785 100.554 58.8404 100.554C63.7072 100.554 68.1951 97.243 71.7056 91.3989C72.0247 90.8803 71.8651 90.2221 71.3465 89.9029C70.8279 89.5838 70.1697 89.7434 69.8506 90.262C69.8506 90.262 69.8506 90.262 69.8506 90.2819C66.6991 95.5277 62.8296 98.38 58.8404 98.38C53.2955 98.38 48.0098 92.815 44.6589 83.4804C44.4594 82.9019 43.8611 82.6027 43.2826 82.8022C42.7042 83.0017 42.405 83.6 42.6045 84.1785C42.6045 84.1785 42.6045 84.1984 42.6045 84.2184L42.6244 84.1984ZM75.7147 82.2238C77.5896 76.2201 78.6068 69.3188 78.6068 62.0983C78.6068 44.1071 72.3039 28.6092 63.3482 24.6399C62.7897 24.4006 62.1515 24.6599 61.9321 25.2184C61.7127 25.7569 61.9321 26.3752 62.4706 26.6146C70.4689 30.1649 76.4327 44.885 76.4327 62.0983C76.4327 69.0994 75.4554 75.7812 73.6403 81.5656C73.4608 82.144 73.76 82.7424 74.3384 82.9418C74.9169 83.1413 75.5152 82.8221 75.7147 82.2437C75.7147 82.2437 75.7147 82.2437 75.7147 82.2238ZM96.1592 81.1666C96.1592 78.2944 93.8256 75.9807 90.9733 75.9807C88.121 75.9807 85.7874 78.3144 85.7874 81.1666C85.7874 84.0189 88.121 86.3526 90.9733 86.3526C93.8256 86.3526 96.1592 84.0189 96.1592 81.1666ZM93.9851 81.1666C93.9851 82.8421 92.6288 84.1984 90.9534 84.1984C89.2779 84.1984 87.9216 82.8421 87.9216 81.1666C87.9216 79.4912 89.2779 78.1349 90.9534 78.1349C92.6288 78.1349 93.9851 79.4912 93.9851 81.1666ZM26.6278 86.3526C29.5 86.3526 31.8137 84.0189 31.8137 81.1666C31.8137 78.3144 29.4801 75.9807 26.6278 75.9807C23.7755 75.9807 21.4419 78.3144 21.4419 81.1666C21.4419 84.0189 23.7755 86.3526 26.6278 86.3526ZM26.6278 84.1785C24.9523 84.1785 23.596 82.8221 23.596 81.1467C23.596 79.4712 24.9523 78.1149 26.6278 78.1149C28.3033 78.1149 29.6596 79.4712 29.6596 81.1467C29.6596 82.8221 28.3033 84.1785 26.6278 84.1785Z" fill="#9FEAF9"/>
<path d="M58.8404 29.9256C61.7127 29.9256 64.0264 27.5919 64.0264 24.7396C64.0264 21.8874 61.6927 19.5537 58.8404 19.5537C55.9882 19.5537 53.6545 21.8874 53.6545 24.7396C53.6545 27.5919 55.9882 29.9256 58.8404 29.9256ZM58.8404 27.7515C57.165 27.7515 55.8087 26.3952 55.8087 24.7197C55.8087 23.0442 57.165 21.6879 58.8404 21.6879C60.5159 21.6879 61.8722 23.0442 61.8722 24.7197C61.8722 26.3952 60.5159 27.7515 58.8404 27.7515ZM59.6383 65.7684C57.6038 66.2072 55.6092 64.9107 55.1704 62.8962C54.7316 60.8617 56.0281 58.8671 58.0426 58.4283C60.0771 57.9895 62.0717 59.286 62.5105 61.3005C62.9493 63.335 61.6528 65.3296 59.6383 65.7684Z" fill="#9FEAF9"/>
</g>
<defs>
<clipPath id="clip0_1_172">
<rect width="118" height="118" fill="white" transform="translate(0 0.86438)"/>
</clipPath>
</defs>
</svg>
