<svg width="118" height="119" viewBox="0 0 118 119" fill="none" xmlns="http://www.w3.org/2000/svg">
<g clip-path="url(#clip0_921_19386)">
<circle cx="59" cy="59.8394" r="59" fill="#F47421"/>
<path d="M58.8136 56.1113C49.8876 56.1113 41.7789 57.1799 35.7654 58.94V73.8794C41.7789 75.6185 49.8876 76.7081 58.8136 76.7081C69.0386 76.7081 78.1741 75.3042 84.3133 73.0832V59.7362C78.1741 57.5152 69.0177 56.1113 58.8136 56.1113Z" fill="white"/>
<path d="M93.5325 68.2638L92.4848 66.1056C92.4848 66.1056 92.4848 65.938 92.4848 65.8542C92.4848 63.4027 89.9286 61.1398 85.6332 59.3169V72.3915C87.6447 71.5534 89.2581 70.6105 90.4315 69.5838C90.0962 70.9667 88.9228 73.7535 87.98 75.7021C86.4504 78.5098 85.8847 80.9403 85.9685 81.066C86.0104 81.1498 86.5342 80.3327 87.3095 79.0336C89.1114 76.4773 92.5058 71.5744 93.1972 70.3381C93.9725 68.9343 93.5325 68.2638 93.5325 68.2638Z" fill="white"/>
<path d="M25.8128 65.9798C25.8128 66.4618 25.9175 66.9227 26.0852 67.3837L25.4566 68.4942C25.4566 68.4942 24.9537 69.1437 25.8337 70.5266C26.609 71.7419 30.5272 76.4773 32.5806 78.9706C33.4606 80.2488 34.0682 81.024 34.1101 80.9612C34.1939 80.8355 33.5654 78.4468 31.8053 75.7229C30.9881 74.2562 30.0034 72.3076 29.4167 70.8828C31.051 71.9305 33.2092 72.8734 35.7654 73.6696V58.332C29.6053 60.2807 25.7918 63.0045 25.7918 66.0008" fill="white"/>
<path d="M57.7031 33.3773L55.6497 36.7926L54.6439 36.8765L51.9829 33.9221C51.7315 33.6078 51.3334 33.4821 50.9562 33.5659C50.5791 33.6497 50.2648 33.964 50.1181 34.2992L48.7771 38.0917C48.4419 38.1755 48.1276 38.2594 47.8552 38.406L44.6913 35.9964C44.398 35.8079 43.937 35.724 43.6227 35.8707C43.2456 36.0802 42.9941 36.3736 42.9103 36.7717L42.2608 40.7947C41.9884 40.9204 41.7369 41.1299 41.4017 41.2556L37.9026 39.6003C37.5464 39.4118 37.1063 39.4537 36.7921 39.7051C36.4778 39.8937 36.2892 40.3127 36.2682 40.6899L36.394 44.7548C36.1844 44.9433 35.933 45.1948 35.6606 45.3833L31.8891 44.4824C31.491 44.3567 31.1138 44.4824 30.7995 44.7967C30.5481 45.0481 30.4224 45.5091 30.5062 45.8862L31.4072 49.8254C31.1976 50.0558 31.0091 50.3073 30.7995 50.6006L26.8813 50.433C26.4832 50.412 26.1061 50.6216 25.9175 50.9568C25.7289 51.313 25.6451 51.753 25.8546 52.1302L27.468 55.776C27.2794 56.0693 27.1328 56.3627 26.9861 56.656L23.1936 57.3265C22.7536 57.3684 22.4393 57.6618 22.3136 58.018C22.1879 58.4161 22.2298 58.8561 22.4184 59.1913L24.7022 62.46C24.7022 62.46 24.6603 62.5857 24.6603 62.6276L18.2278 69.4373C18.2278 69.4373 17.2849 70.1916 18.6678 72.0145C19.925 73.586 26.3785 79.8718 29.7938 83.2034C31.2186 84.8586 32.2034 85.8853 32.3081 85.8225C32.4548 85.6339 31.6376 82.5957 28.809 79.0337C26.6299 75.8279 23.8012 70.8831 24.4089 70.3173C24.4089 70.3173 25.1632 69.3535 26.7137 68.662C26.7137 68.662 58.7507 83.4338 88.462 68.8925C91.8563 68.2639 93.9307 70.0868 93.9307 70.0868C94.6431 70.5269 92.7992 75.5975 91.3115 78.9709C89.2372 82.7843 88.9439 85.7596 89.1324 85.8644C89.2582 85.9063 89.9915 84.7748 91.0601 82.9519C93.7002 79.3271 98.6241 72.3498 99.5251 70.6526C100.594 68.7249 99.5251 68.1382 99.5251 68.1382L92.6735 63.1095C92.5897 62.9 92.5268 62.6695 92.5059 62.3971L94.7269 59.1285C94.9783 58.8351 94.9993 58.3742 94.8526 57.997C94.7059 57.6199 94.4126 57.3684 94.0145 57.2846L90.1591 56.6141C90.0334 56.3417 89.8867 56.0274 89.7401 55.755L91.3115 52.0464C91.5001 51.6902 91.4582 51.2502 91.2068 50.873C91.0182 50.5587 90.662 50.3701 90.2639 50.3911L86.3667 50.5168C86.1781 50.2444 85.9267 49.993 85.7381 49.7416L86.6181 45.8234C86.7019 45.4253 86.6181 44.9852 86.3457 44.7338C86.0314 44.4195 85.6333 44.2938 85.2562 44.3776L81.4846 45.3205C81.2542 45.111 81.0027 44.9224 80.7513 44.65L80.8351 40.627C80.856 40.2289 80.6465 39.8518 80.3532 39.6003C79.997 39.3489 79.5989 39.328 79.2217 39.5375L75.7435 41.1718C75.4502 41.0251 75.1569 40.8366 74.8635 40.6899L74.2349 36.7298C74.193 36.2898 73.8997 35.9755 73.5435 35.8498C73.1873 35.6612 72.7473 35.7031 72.433 35.9545L69.29 38.3013C68.9967 38.2174 68.7243 38.1336 68.3681 38.0498L67.0271 34.2573C66.8804 33.8802 66.5661 33.5659 66.189 33.503C65.7909 33.4192 65.4137 33.5659 65.0994 33.8802L62.4594 36.8555C62.187 36.8346 61.8308 36.7507 61.4955 36.7088L59.4631 33.3145C59.2536 32.9373 58.9183 32.7487 58.5202 32.7278C58.1221 32.7068 57.7659 32.9583 57.5773 33.3145L57.7031 33.3773Z" fill="white"/>
<path d="M48.0018 77.7345C47.8761 77.6298 47.8132 77.5669 47.8132 77.5669L58.3106 76.7079C49.7409 65.4142 42.8893 74.403 42.1559 75.4088V77.7345H48.0018Z" fill="#F47421"/>
<path d="M69.8557 77.6088C69.9815 77.5041 70.0443 77.4412 70.0443 77.4412L59.966 76.7078C68.5357 64.9533 74.9683 74.2983 75.7016 75.304V77.6298H69.8557V77.6088Z" fill="#F47421"/>
<path d="M85.9685 66.3989C85.9685 66.3989 84.8371 70.9667 77.6921 75.7649L75.7016 76.2468C75.7016 76.2468 69.2272 64.4503 60.0707 77.7345C60.0707 77.7345 62.9203 76.0792 70.5681 78.1116C70.5681 78.1116 67.0481 83.4965 59.966 83.3289C59.966 83.3289 66.7547 91.5005 77.1055 79.704C77.1055 79.704 88.0429 75.4715 88.9229 66.3989H85.9685Z" fill="white"/>
<path d="M64.7222 60.5532C64.7222 60.5532 67.928 57.0541 71.1338 60.5532C71.1338 60.5532 73.6482 65.2257 71.1338 67.5724C71.1338 67.5724 67.0271 70.8411 64.7222 67.5724C64.7222 67.5724 61.9774 64.9952 64.7222 60.5532Z" fill="#F47421"/>
<path d="M68.41 61.8523C68.41 63.2143 67.6138 64.3248 66.608 64.3248C65.6023 64.3248 64.8061 63.2143 64.8061 61.8523C64.8061 60.4904 65.6023 59.3799 66.608 59.3799C67.6138 59.3799 68.41 60.4904 68.41 61.8523Z" fill="white"/>
<path d="M50.4114 59.5895C50.4114 59.5895 55.9011 57.159 57.4097 62.5858C57.4097 62.5858 58.9812 68.9136 52.9048 69.2698C52.9048 69.2698 45.1522 67.7821 50.4324 59.5895" fill="#F47421"/>
<path d="M53.1772 61.9361C53.1772 63.34 52.3391 64.4924 51.3333 64.4924C50.3276 64.4924 49.4895 63.3609 49.4895 61.9361C49.4895 60.5113 50.3276 59.3799 51.3333 59.3799C52.3391 59.3799 53.1772 60.5113 53.1772 61.9361Z" fill="white"/>
<path d="M42.1769 80.4375C52.2134 93.3026 56.9697 82.9728 56.9697 82.9728C51.3334 82.3442 47.3523 78.5936 47.3523 78.5936C54.1201 77.7345 58.0173 77.6507 58.0173 77.6507C48.9657 65.7285 41.6322 76.5193 41.6322 76.5193C39.8093 75.8488 37.9235 73.2925 36.5196 70.9458L30.9043 69.2905C37.3578 80.2699 42.1769 80.4375 42.1769 80.4375Z" fill="white"/>
</g>
<defs>
<clipPath id="clip0_921_19386">
<rect width="118" height="118" fill="white" transform="translate(0 0.907227)"/>
</clipPath>
</defs>
</svg>
