<svg width="118" height="119" viewBox="0 0 118 119" fill="none" xmlns="http://www.w3.org/2000/svg">
<g clip-path="url(#clip0_921_19562)">
<circle cx="59" cy="59" r="59" fill="#292C30"/>
<path d="M89.5381 31.7082L75.1891 24.7975C73.5362 24.0062 71.5491 24.3403 70.2479 25.6415L23.2971 68.46C22.031 69.6029 22.031 71.6076 23.2971 72.7506L27.1305 76.2323C28.168 77.1643 29.7155 77.2347 30.8409 76.3906L87.3753 33.5018C89.2744 32.0599 92 33.4139 92 35.8054V35.6472C92 33.9766 91.0504 32.4468 89.5381 31.7258V31.7082Z" fill="#0065A9"/>
<path d="M89.5381 86.2906L75.1891 93.2013C73.5362 93.9926 71.5491 93.6585 70.2479 92.3572L23.2971 49.5388C22.031 48.3958 22.031 46.3912 23.2971 45.2482L27.1305 41.7665C28.168 40.8345 29.7155 40.7641 30.8409 41.6082L87.3753 84.497C89.2744 85.9389 92 84.5849 92 82.1934V82.3516C92 84.0222 91.0504 85.552 89.5381 86.273V86.2906Z" fill="#007ACC"/>
<path d="M75.1892 93.2014C73.5362 93.9927 71.5492 93.6586 70.2479 92.3574C71.8481 93.9576 74.5913 92.8322 74.5913 90.5637V27.4527C74.5913 25.1843 71.8481 24.0413 70.2479 25.6591C71.5492 24.3579 73.5362 24.0238 75.1892 24.8151L89.5382 31.7082C91.0505 32.4292 92 33.959 92 35.6296V82.3869C92 84.0575 91.0505 85.5873 89.5382 86.3083L75.1892 93.2014Z" fill="#1F9CF0"/>
<g opacity="0.25">
<path fill-rule="evenodd" clip-rule="evenodd" d="M71.7074 93.3245C72.7977 93.7465 74.0462 93.7289 75.154 93.1838L89.4854 86.2907C90.9977 85.5697 91.9473 84.0398 91.9473 82.3693V35.612C91.9473 33.9414 90.9977 32.4116 89.4854 31.6906L75.154 24.7974C73.6945 24.0941 72.0064 24.2699 70.7227 25.2019C70.5468 25.3426 70.371 25.4832 70.2127 25.6415L42.7808 50.6643L30.8233 41.5907C29.7155 40.7466 28.1504 40.817 27.113 41.749L23.2795 45.2307C22.0134 46.3737 22.0134 48.3608 23.2795 49.5213L33.6368 58.9818L23.2795 68.4423C22.0134 69.5853 22.0134 71.59 23.2795 72.733L27.113 76.2147C28.1504 77.1467 29.6979 77.217 30.8233 76.373L42.7808 67.2993L70.2127 92.3222C70.6523 92.7618 71.1623 93.0783 71.7074 93.2893V93.3245ZM74.5561 43.1909L53.736 58.9994L74.5561 74.8079V43.2085V43.1909Z" fill="url(#paint0_linear_921_19562)"/>
</g>
</g>
<defs>
<linearGradient id="paint0_linear_921_19562" x1="57.1474" y1="24.3754" x2="57.1474" y2="93.641" gradientUnits="userSpaceOnUse">
<stop stop-color="white"/>
<stop offset="1" stop-color="white" stop-opacity="0"/>
</linearGradient>
<clipPath id="clip0_921_19562">
<rect width="118" height="118" fill="white" transform="translate(0 0.296875)"/>
</clipPath>
</defs>
</svg>
