<svg width="118" height="119" viewBox="0 0 118 119" fill="none" xmlns="http://www.w3.org/2000/svg">
<g clip-path="url(#clip0_921_19513)">
<circle cx="59" cy="59" r="59" fill="#2396ED"/>
<path d="M98.4085 52.4509C96.6889 51.2618 92.7374 50.8044 89.6457 51.4081C89.2798 48.4079 87.6334 45.7919 84.7612 43.4685L83.1147 42.2794L81.9622 43.999C80.517 46.2492 79.8035 49.3775 80.0231 52.3777C80.0962 53.4204 80.4621 55.2864 81.5415 56.9329C80.5353 57.5366 78.4498 58.2866 75.724 58.2866H23.7325L23.5862 58.8903C23.0739 61.8906 23.0739 71.2388 28.9829 78.41C33.4466 83.8799 40.0507 86.6423 48.7587 86.6423C67.6015 86.6423 81.5415 77.5868 88.0724 61.2137C90.6519 61.2868 96.1949 61.2137 98.9939 55.5974C99.0671 55.4511 99.2134 55.1401 99.7074 54.0241L100 53.4204L98.4268 52.4509H98.4085ZM65.2781 31.3579H57.3751V38.8401H65.2781V31.3579ZM65.2781 40.3402H57.3751V47.8225H65.2781V40.3402ZM55.9299 40.3402H48.0269V47.8225H55.9299V40.3402ZM46.5817 40.3402H38.6787V47.8225H46.5817V40.3402ZM37.2335 49.3226H29.3305V56.8048H37.2335V49.3226ZM46.5817 49.3226H38.6787V56.8048H46.5817V49.3226ZM55.9299 49.3226H48.0269V56.8048H55.9299V49.3226ZM65.2781 49.3226H57.3751V56.8048H65.2781V49.3226ZM74.6263 49.3226H66.7233V56.8048H74.6263V49.3226Z" fill="white"/>
</g>
<defs>
<clipPath id="clip0_921_19513">
<rect width="118" height="118" fill="white" transform="translate(0 0.296875)"/>
</clipPath>
</defs>
</svg>
