<svg width="118" height="119" viewBox="0 0 118 119" fill="none" xmlns="http://www.w3.org/2000/svg">
<g clip-path="url(#clip0_921_19322)">
<circle cx="59" cy="59.8394" r="59" fill="#292C30"/>
<path d="M69.2937 53.8395L79.7129 47.7856L69.2937 53.8395Z" fill="black"/>
<path d="M69.2937 53.8394L58.8386 59.8933L69.2937 53.8394Z" fill="black"/>
<path d="M79.2638 24.5399L70.9105 39.0549L64.9105 49.492L58.8926 59.9651L70.9644 59.9112L83.0004 59.8573L99.689 59.7855C99.689 58.8693 99.4375 57.9352 98.9704 57.1088L81.3297 26.5519C80.8267 25.6896 80.1082 24.989 79.2459 24.522L79.2638 24.5399Z" fill="#164289"/>
<path d="M83.0183 59.8572L70.9824 59.9111L58.9105 59.965L52.8925 70.4381L46.8925 80.8752L38.7009 95.1207C39.5093 95.5878 40.4255 95.8393 41.3776 95.8393H76.659C78.5991 95.8393 80.3776 94.7974 81.3477 93.1267L98.9884 62.5698C99.4734 61.7255 99.7249 60.7734 99.7069 59.8213L83.0183 59.8931V59.8572Z" fill="#3F5FC4"/>
<path d="M76.6411 23.8573H41.3596C39.4195 23.8573 37.6411 24.8992 36.671 26.5699L19.0303 57.1268C18.0602 58.7975 18.0602 60.8633 19.0303 62.5519L36.671 93.1088C37.156 93.9531 37.8566 94.6358 38.683 95.1029L46.8746 80.8573L52.8746 70.4202L58.8926 59.9472L64.9105 49.4741L70.9105 39.037L79.2638 24.522C78.4734 24.0909 77.5752 23.8394 76.6411 23.8394V23.8573Z" fill="#284BA3"/>
<path d="M43.7308 65.7316H35.7727L34.0302 69.7556H29.8625L38.3416 50.5879H41.3596L49.6051 69.7556H45.4554L43.7129 65.7316H43.7308ZM42.5991 62.6957L39.7967 55.7975L36.9943 62.6957H42.617H42.5991Z" fill="white"/>
<path d="M60.1142 54.9534C58.9645 53.4623 57.5992 53.3186 56.8986 53.3186C54.8328 53.3186 54.1681 54.5761 54.1681 55.5641C54.1681 56.0312 54.3118 56.4623 54.7968 56.8575C55.2639 57.2887 55.9286 57.5222 57.1681 57.9534C58.713 58.4743 60.1501 58.9953 61.1561 59.8755C62.0364 60.648 62.8447 61.9414 62.8447 63.8995C62.8447 67.636 60.0603 70.1869 55.9825 70.1869C52.3357 70.1869 50.216 68.0312 49.1741 66.5761L51.689 64.2587C52.6411 66.127 54.4375 66.8096 55.8387 66.8096C57.5813 66.8096 58.8926 65.7677 58.8926 64.1689C58.8926 63.4863 58.6591 62.9294 58.1202 62.4444C57.3837 61.7797 56.198 61.4025 55.0663 61.0432C54.0244 60.7019 52.7849 60.2348 51.7789 59.3725C51.1322 58.8336 50.216 57.7558 50.216 55.8156C50.216 52.9953 52.1741 50.1929 56.5393 50.1929C57.7789 50.1929 60.1142 50.4264 62.1262 52.4384L60.1142 54.9893V54.9534Z" fill="white"/>
<path d="M67.695 50.5879H70.4795L75.725 62.7675L81.204 50.5879H83.9885L87.2939 69.7556H83.3957L81.6172 57.9532L76.3178 69.7556H75.0244L69.9585 57.9532L67.9465 69.7556H64.0483L67.713 50.5879H67.695Z" fill="white"/>
</g>
<defs>
<clipPath id="clip0_921_19322">
<rect width="118" height="118" fill="white" transform="translate(0 0.907227)"/>
</clipPath>
</defs>
</svg>
