<svg width="118" height="119" viewBox="0 0 118 119" fill="none" xmlns="http://www.w3.org/2000/svg">
<g clip-path="url(#clip0_921_18996)">
<circle cx="59" cy="59.8394" r="59" fill="#292C30"/>
<path d="M34.5506 59.8946C34.5506 46.484 45.4275 35.589 58.8562 35.589C67.8328 35.589 75.6692 40.4574 79.886 47.6966L94.473 39.2448C94.0024 38.4666 93.3509 37.797 92.5365 37.3445L61.7337 19.5723C60.0506 18.595 57.9694 18.595 56.2682 19.5723L25.4835 37.3445C23.8004 38.3218 22.7507 40.1135 22.7507 42.0681V77.6125C22.7507 78.5898 23.0222 79.549 23.4927 80.3634L37.8082 72.0564C35.727 68.473 34.5325 64.3105 34.5325 59.8765L34.5506 59.8946Z" fill="#6E92EA"/>
<path d="M58.8381 84.1819C49.8615 84.1819 42.0251 79.3136 37.8083 72.0744L23.4928 80.3814C23.9633 81.1777 24.633 81.8654 25.4836 82.3541L56.2682 100.126C57.9513 101.104 60.0326 101.104 61.7338 100.126L92.5184 82.3541C93.369 81.8654 94.0568 81.1415 94.5454 80.3271L79.9404 71.9658C75.7597 79.2774 67.869 84.2 58.8381 84.2V84.1819Z" fill="#223889"/>
<path d="M69.3711 53.7958L79.8679 47.6968L69.3711 53.7958Z" fill="black"/>
<path d="M69.4073 65.9391C67.3079 69.5949 63.3625 72.0743 58.838 72.0743C54.3135 72.0743 50.4225 69.6311 48.305 66.0115C47.2553 64.2198 46.6581 62.1386 46.6581 59.9125C46.6581 53.1982 52.1056 47.7326 58.838 47.7326C63.3444 47.7326 67.2536 50.1758 69.3711 53.7954L79.8679 47.7145C75.6692 40.4753 67.8146 35.6069 58.838 35.6069C45.4274 35.6069 34.5325 46.4838 34.5325 59.9125C34.5325 64.3465 35.7269 68.509 37.8082 72.0924C42.0069 79.3316 49.8614 84.2 58.838 84.2C67.8146 84.2 75.7415 79.2773 79.9403 71.9657L69.4073 65.9391Z" fill="white"/>
<path d="M69.371 53.7957C67.2717 50.1761 63.3444 47.7329 58.838 47.7329C52.1237 47.7329 46.6581 53.1804 46.6581 59.9128C46.6581 62.1389 47.2553 64.2202 48.305 66.0119L58.838 59.9128L69.371 53.8138V53.7957Z" fill="#6E92EA"/>
<path d="M69.371 53.7954L58.838 59.8944L69.371 53.7954Z" fill="black"/>
<path d="M58.8381 72.0564C63.3626 72.0564 67.3079 69.5951 69.4073 65.9212L58.8381 59.8765L48.3051 65.9755C50.4044 69.5951 54.3317 72.0383 58.8381 72.0383V72.0564Z" fill="#223889"/>
<path d="M94.473 39.2446L79.886 47.6964L69.3892 53.7773L58.8562 59.8763L69.4254 65.921L79.9584 71.9477L94.5635 80.3089C95.0159 79.4945 95.2693 78.5715 95.2693 77.6123V42.0679C95.2693 41.0544 94.9797 40.0771 94.473 39.2446Z" fill="#3F5FC4"/>
</g>
<defs>
<clipPath id="clip0_921_18996">
<rect width="118" height="118" fill="white" transform="translate(0 0.907227)"/>
</clipPath>
</defs>
</svg>
