<svg width="118" height="119" viewBox="0 0 118 119" fill="none" xmlns="http://www.w3.org/2000/svg">
<g clip-path="url(#clip0_1_349)">
<path d="M95.3813 0.0933838H22.6187C10.1267 0.0933838 0 10.2201 0 22.712V95.4747C0 107.967 10.1267 118.093 22.6187 118.093H95.3813C107.873 118.093 118 107.967 118 95.4747V22.712C118 10.2201 107.873 0.0933838 95.3813 0.0933838Z" fill="#019639"/>
<path d="M63.069 73.3547C63.1887 73.4744 63.4479 73.6739 63.6474 73.6739H66.9983C67.1978 73.6739 67.4371 73.4744 67.5768 73.3547L68.4544 72.3973C68.574 72.2777 68.6134 72.1303 68.6538 72.0184L69.6112 68.7871C69.6711 68.468 69.6112 68.1489 69.4118 67.9693L68.7849 67.471C68.6652 67.3513 68.322 67.3074 68.1226 67.3074L65.2008 67.2114H64.9838H64.8892C64.7695 67.2114 64.5074 67.2114 64.3749 67.3074L63.3482 67.9693C63.2218 68.0242 63.1488 68.2885 63.0889 68.4081L62.0717 71.4998C61.952 71.8189 62.0118 72.1979 62.2711 72.4572L63.0114 73.299L63.069 73.3547ZM63.5676 90.0295L63.3083 90.0894H62.5504L67.098 76.7655C67.2177 76.3267 67.0382 75.8081 66.5994 75.6884L66.3401 75.6286H58.7008C58.3817 75.6884 58.1224 75.9477 58.0626 76.2668L57.6237 77.8426C57.5041 78.2814 57.8232 78.6603 58.262 78.8L58.4615 78.7401H59.5984L54.9909 91.9443C54.8712 92.3831 55.0507 92.9616 55.4895 93.1411L55.7488 93.3405H62.8296C63.2086 93.3405 63.5277 93.0214 63.6474 92.6424L64.0862 91.1265C64.2857 90.6877 64.0264 90.1691 63.5876 90.0495L63.5676 90.0295ZM97.1166 77.5833L95.9199 76.0075V75.9477C95.7204 75.7482 95.5409 75.5687 95.2816 75.5687H90.734C90.4747 75.5687 90.2951 75.828 90.0957 75.9477L88.8391 77.4636H86.8844L85.548 75.9477V75.8879C85.4283 75.6884 85.169 75.5687 84.9097 75.5687H82.3766L95.142 62.8033L80.8607 48.6617L93.6261 35.5173V29.8328L91.8509 27.5589H66.021L63.9266 29.7729V31.6079L56.786 24.4075L51.9192 29.1546L50.4033 27.5789H24.8726L22.858 29.9125V35.8564L24.7529 37.6914H26.6477V54.1867L17.8117 63.0228L26.6477 71.8588V92.064L29.9388 93.899H37.259L43.0034 87.8953L56.6464 101.538L65.8016 92.3831C65.8614 92.6424 66.0609 92.7023 66.38 92.8219L66.6393 92.7023H72.5832C72.9621 92.7023 73.2813 92.6424 73.3411 92.3233L73.7799 91.0667C73.8996 90.6279 73.7201 90.2489 73.2813 90.1093L73.022 90.1691H72.7627L74.9168 83.4075L76.3729 81.9514H79.5243L76.3729 92.0042C76.2532 92.443 76.4926 92.7023 76.9513 92.8818L77.2106 92.7621H82.955C83.2742 92.7621 83.5933 92.7023 83.713 92.3831L84.2116 91.2462C84.4111 90.8074 84.1518 90.4284 83.7728 90.229C83.713 90.1691 83.5734 90.229 83.4537 90.229H83.1944L85.8472 82.0113H89.6968L86.4655 92.064C86.3458 92.5028 86.5852 92.7621 87.044 92.8818L87.3033 92.6823H93.6261C93.9452 92.6823 94.2644 92.6225 94.3841 92.3034L94.8827 91.0468C95.0822 90.6079 94.8229 90.229 94.3841 90.0894C94.3242 90.0295 94.1846 90.1492 94.0649 90.1492H93.6261L97.1565 78.4609C97.2762 78.1418 97.2164 77.7628 97.0967 77.5833H97.1166ZM56.806 25.6042L63.9466 32.7449V35.7168L66.1008 38.3098H67.118L48.8076 56.0018V38.3098H50.902L52.6173 35.657V30.0322L52.4976 29.8328L56.8658 25.6042H56.806ZM19.0284 63.0028L26.6677 55.3635V70.6421L19.0284 63.0028ZM43.6018 87.1972L80.5017 49.3L94.025 62.8831L81.2596 75.6485H81.1998C81.0003 75.7084 80.8807 75.848 80.761 75.9677L79.4246 77.4835H77.5896L76.1934 75.9677C76.0737 75.7682 75.8144 75.5887 75.5551 75.5887H69.9902C69.6112 75.5887 69.2921 75.848 69.1724 76.2269L68.6738 77.8027C68.5541 78.2415 68.7336 78.6205 69.1724 78.8199H70.1298L66.0808 90.7675L56.5467 100.361L43.6018 87.2171V87.1972Z" fill="white"/>
</g>
<defs>
<clipPath id="clip0_1_349">
<rect width="118" height="118" fill="white" transform="translate(0 0.0933838)"/>
</clipPath>
</defs>
</svg>
