<svg width="118" height="119" viewBox="0 0 118 119" fill="none" xmlns="http://www.w3.org/2000/svg">
<g clip-path="url(#clip0_1_271)">
<path d="M95.3813 0.0933838H22.6187C10.1267 0.0933838 0 10.2201 0 22.712V95.4747C0 107.967 10.1267 118.093 22.6187 118.093H95.3813C107.873 118.093 118 107.967 118 95.4747V22.712C118 10.2201 107.873 0.0933838 95.3813 0.0933838Z" fill="#2396ED"/>
<path d="M34.0876 62.0853C34.1873 64.2394 36.3414 63.2421 37.3188 62.564C38.2363 61.9058 38.5156 62.4642 38.5953 61.2077C38.6552 60.3699 38.735 59.5521 38.6951 58.7144C37.2988 58.5947 35.783 58.9338 34.6261 59.7715C34.0277 60.1904 32.9307 61.5667 34.0876 62.1052" fill="#F6D2A2"/>
<path d="M77.1109 88.6133C78.7664 89.6306 81.7982 92.7421 79.3049 94.258C76.9114 96.4321 75.575 91.8446 73.4807 91.2263C74.3783 89.9896 75.5152 88.8527 77.1109 88.6333V88.6133Z" fill="#F6D2A2"/>
<path d="M47.4912 92.1039C45.5365 92.4031 44.4595 94.1583 42.8239 95.0559C41.2881 95.9534 40.7096 94.7567 40.5899 94.5173C40.3506 94.4176 40.3705 94.6171 40.0115 94.2381C38.5954 92.0041 41.4875 90.3686 42.9835 89.2516C45.0778 88.8327 46.3942 90.6478 47.5112 92.1039H47.4912Z" fill="#F6D2A2"/>
<path d="M86.3259 61.806C86.2262 63.9602 84.072 62.9629 83.0946 62.2847C82.1771 61.6265 81.8979 62.185 81.8181 60.9284C81.7583 60.0907 81.6785 59.2729 81.7184 58.4352C83.1146 58.3155 84.6305 58.6546 85.7873 59.4923C86.3658 59.9112 87.4827 61.2874 86.3259 61.826" fill="#F6D2A2"/>
<path d="M80.6014 35.4974C88.0811 32.8645 82.237 22.6123 75.7147 27.14C71.4462 23.47 65.5422 22.8118 59.379 22.8118C53.3154 23.2905 47.551 24.4074 43.5419 27.9179C37.0395 23.7293 31.0558 33.782 38.6751 36.3151C36.5409 44.6126 38.9743 53.0697 38.6352 61.5268C38.3161 69.1062 36.3215 79.2786 40.55 86.0802C44.1403 91.9044 51.8394 93.9788 58.2022 94.2181C66.3201 94.5173 76.1335 92.5227 80.0828 84.664C83.8526 77.1843 82.8154 67.8496 82.3168 59.7915C81.8381 51.6336 82.7356 43.3561 80.6214 35.4974H80.6014Z" fill="#69D7E2"/>
<path d="M62.5504 44.4132C62.5703 45.4903 62.7897 46.6471 62.5903 47.7841C62.2911 48.3226 61.7525 48.3824 61.2738 48.6018C60.5957 48.5021 60.0372 48.0633 59.7579 47.425C59.5984 46.1485 59.7978 44.9318 59.8577 43.6553C59.8577 43.6154 60.6555 43.6752 61.3736 43.8946C61.9719 44.0741 62.5504 44.3932 62.5504 44.4132Z" fill="white"/>
<path d="M56.6065 44.493C56.0281 46.707 57.3844 50.3371 59.6183 47.3652C59.4588 46.1086 59.6383 44.8919 59.6981 43.6553C59.7181 43.5555 56.6264 44.3534 56.6065 44.493Z" fill="white"/>
<path d="M44.0007 35.278C45.9354 42.7776 57.9429 40.8429 57.4841 33.3233C56.9456 24.3077 42.1656 26.043 44.0007 35.278Z" fill="white"/>
<path d="M47.3117 36.2354C48.4353 36.2354 49.3462 35.2531 49.3462 34.0413C49.3462 32.8296 48.4353 31.8473 47.3117 31.8473C46.1881 31.8473 45.2772 32.8296 45.2772 34.0413C45.2772 35.2531 46.1881 36.2354 47.3117 36.2354Z" fill="black"/>
<path d="M48.2292 35.0984C48.4936 35.0984 48.7079 34.8484 48.7079 34.54C48.7079 34.2315 48.4936 33.9815 48.2292 33.9815C47.9648 33.9815 47.7505 34.2315 47.7505 34.54C47.7505 34.8484 47.9648 35.0984 48.2292 35.0984Z" fill="white"/>
<path d="M60.835 33.8817C62.331 42.4984 76.4128 40.2046 74.3783 31.5281C72.5632 23.7293 60.3364 25.8834 60.835 33.8817Z" fill="white"/>
<path d="M64.3056 35.6968C65.4072 35.6968 66.3002 34.7145 66.3002 33.5028C66.3002 32.291 65.4072 31.3087 64.3056 31.3087C63.204 31.3087 62.311 32.291 62.311 33.5028C62.311 34.7145 63.204 35.6968 64.3056 35.6968Z" fill="black"/>
<path d="M65.2232 34.5599C65.4765 34.5599 65.6819 34.3099 65.6819 34.0014C65.6819 33.693 65.4765 33.4429 65.2232 33.4429C64.9698 33.4429 64.7644 33.693 64.7644 34.0014C64.7644 34.3099 64.9698 34.5599 65.2232 34.5599Z" fill="white"/>
<path d="M57.0453 39.9653C55.3898 40.1049 54.0534 42.0596 54.9111 43.6154C56.048 45.6698 58.5811 43.4358 60.1568 43.6353C61.9719 43.6752 63.4679 45.5701 64.904 43.9744C66.5196 42.2191 64.2059 40.5038 62.3908 39.7458L57.0453 39.9852V39.9653Z" fill="#F6D2A2"/>
<path d="M62.8097 39.0677C62.1515 36.6742 56.7062 37.0332 56.8458 39.8855C57.1251 41.9998 63.4479 41.4413 62.8097 39.0677Z" fill="black"/>
</g>
<defs>
<clipPath id="clip0_1_271">
<rect width="118" height="118" fill="white" transform="translate(0 0.0933838)"/>
</clipPath>
</defs>
</svg>
