<svg width="118" height="119" viewBox="0 0 118 119" fill="none" xmlns="http://www.w3.org/2000/svg">
<g clip-path="url(#clip0_1_333)">
<path d="M95.3813 0.0933838H22.6187C10.1267 0.0933838 0 10.2201 0 22.712V95.4747C0 107.967 10.1267 118.093 22.6187 118.093H95.3813C107.873 118.093 118 107.967 118 95.4747V22.712C118 10.2201 107.873 0.0933838 95.3813 0.0933838Z" fill="#77BC1F"/>
<path d="M59 98.3071C57.9229 98.3071 56.9057 98.0278 55.9683 97.5092L46.3942 91.8247C44.9581 91.0268 45.6762 90.7476 46.115 90.608C48.0697 89.9497 48.4287 89.8101 50.4432 88.6533C50.6626 88.5136 50.9419 88.5735 51.1613 88.733L58.5014 93.1211C58.7806 93.2608 59.1596 93.2608 59.3591 93.1211L88.1011 76.4863C88.3804 76.3466 88.5399 76.0475 88.5399 75.6884V42.4785C88.5399 42.1195 88.4003 41.8203 88.1011 41.6806L59.3591 25.1056C59.0798 24.966 58.7008 24.966 58.5014 25.1056L29.7593 41.6806C29.4801 41.8203 29.3205 42.1793 29.3205 42.4785V75.6884C29.3205 75.9677 29.4601 76.3466 29.7593 76.4863L37.618 81.0339C41.8665 83.1881 44.5392 80.6749 44.5392 78.1617V45.3706C44.5392 44.9318 44.8983 44.513 45.3969 44.513H49.067C49.5058 44.513 49.9246 44.872 49.9246 45.3706V78.1617C49.9246 83.8463 46.833 87.1773 41.4277 87.1773C39.7722 87.1773 38.4757 87.1773 34.8056 85.3821L27.2461 81.0539C25.3712 79.9768 24.2144 77.9623 24.2144 75.7882V42.5782C24.2144 40.4241 25.3712 38.3896 27.2461 37.3125L55.9882 20.6776C57.7833 19.6604 60.2367 19.6604 62.0318 20.6776L90.7739 37.3125C92.6488 38.3896 93.8056 40.4041 93.8056 42.5782V75.7882C93.8056 77.9423 92.6488 79.9768 90.7739 81.0539L62.0318 97.6888C61.0943 98.1276 60.0173 98.347 59 98.347V98.3071ZM67.856 75.469C55.2502 75.469 52.6572 69.7046 52.6572 64.798C52.6572 64.3591 53.0163 63.9403 53.5149 63.9403H57.2647C57.7035 63.9403 58.0626 64.2195 58.0626 64.6583C58.641 68.468 60.2965 70.3429 67.9358 70.3429C73.9794 70.3429 76.5724 68.9666 76.5724 65.7354C76.5724 63.8605 75.8543 62.4842 66.4199 61.5468C58.5612 60.7489 53.6745 59.0336 53.6745 52.7506C53.6745 46.9065 58.5812 43.4558 66.7789 43.4558C75.9939 43.4558 80.5416 46.6272 81.12 53.5485C81.12 53.7679 81.0403 53.9873 80.9006 54.2067C80.761 54.3463 80.5416 54.4859 80.3222 54.4859H76.5724C76.2134 54.4859 75.8543 54.2067 75.7745 53.8277C74.9169 49.8585 72.6829 48.562 66.759 48.562C60.137 48.562 59.3391 50.8757 59.3391 52.5911C59.3391 54.6854 60.2766 55.3236 69.2123 56.4805C78.0683 57.6374 82.257 59.2929 82.257 65.4961C82.1772 71.8389 76.9912 75.4491 67.856 75.4491V75.469Z" fill="white"/>
</g>
<defs>
<clipPath id="clip0_1_333">
<rect width="118" height="118" fill="white" transform="translate(0 0.0933838)"/>
</clipPath>
</defs>
</svg>
