<svg width="118" height="119" viewBox="0 0 118 119" fill="none" xmlns="http://www.w3.org/2000/svg">
<g clip-path="url(#clip0_921_18450)">
<circle cx="59" cy="58.771" r="59" fill="#326CE5"/>
<path d="M74.1292 84.7114C65.4945 89.6868 53.6018 90.1844 41.6608 85.0966C31.9829 81.004 23.9581 73.8137 18.8062 65.6124C21.2778 67.6667 24.1667 69.3038 27.2483 70.7322C39.5904 76.494 51.9326 76.0928 60.6154 70.7322C48.2572 61.295 37.7447 48.985 29.9285 38.9379C28.2754 37.3008 27.0396 35.2465 25.8038 33.4008C35.2731 42.0194 50.3116 52.885 55.6561 55.9505C44.3251 44.0577 34.2459 29.2921 34.6471 29.7094C52.5585 47.7491 69.2341 58.0049 69.2341 58.0049C69.7798 58.3098 70.2131 58.5666 70.5502 58.8073C70.9033 57.8925 71.2243 56.9456 71.4971 55.9666C74.386 45.5182 71.0798 33.6255 63.8735 23.771C80.5491 33.8181 90.4357 52.6764 86.3109 68.4692C86.1986 68.9026 86.0862 69.3199 85.9578 69.7211C94.1913 79.9768 92.0727 91.019 91.0455 88.9646C86.5837 80.2657 78.3021 82.9139 74.0971 84.6954L74.1292 84.7114Z" fill="white"/>
</g>
<defs>
<clipPath id="clip0_921_18450">
<rect width="118" height="118" fill="white" transform="translate(0 0.0678711)"/>
</clipPath>
</defs>
</svg>
