<svg width="118" height="119" viewBox="0 0 118 119" fill="none" xmlns="http://www.w3.org/2000/svg">
<g clip-path="url(#clip0_1_68)">
<path d="M95.3813 0.582642H22.6187C10.1267 0.582642 0 10.7094 0 23.2013V95.964C0 108.456 10.1267 118.583 22.6187 118.583H95.3813C107.873 118.583 118 108.456 118 95.964V23.2013C118 10.7094 107.873 0.582642 95.3813 0.582642Z" fill="#08A6ED"/>
<path d="M57.7035 27.8287H27.2461V58.2861H57.7035V27.8287Z" fill="white"/>
<path d="M90.7539 27.8287H60.2965V58.2861H90.7539V27.8287Z" fill="white"/>
<path d="M57.7035 60.879H27.2461V91.3364H57.7035V60.879Z" fill="white"/>
<path d="M90.7539 60.879H60.2965V91.3364H90.7539V60.879Z" fill="white"/>
</g>
<defs>
<clipPath id="clip0_1_68">
<rect width="118" height="118" fill="white" transform="translate(0 0.582642)"/>
</clipPath>
</defs>
</svg>
