<svg width="118" height="119" viewBox="0 0 118 119" fill="none" xmlns="http://www.w3.org/2000/svg">
<g clip-path="url(#clip0_921_19815)">
<circle cx="59" cy="59.0933" r="59" fill="#F7F7FA"/>
<path d="M58.9366 61.9843C58.5157 61.9843 58.0948 61.8928 57.7104 61.6915L31.374 48.6423C30.4406 48.1847 29.855 47.233 29.855 46.1898C29.855 45.1466 30.4406 44.1949 31.374 43.7374L57.7104 30.6882C58.4791 30.3038 59.3759 30.3038 60.1446 30.6882L86.4809 43.7374C87.4143 44.1949 88 45.1466 88 46.1898C88 47.233 87.4143 48.1847 86.4809 48.6423L60.1446 61.6915C59.7602 61.8745 59.3393 61.9843 58.9183 61.9843H58.9366ZM38.7863 46.1898L58.9366 56.1827L79.087 46.1898L58.9366 36.197L38.7863 46.1898Z" fill="#00D287"/>
<path d="M84.7606 86.4355H33.131C31.612 86.4355 30.3857 85.2093 30.3857 83.6903V68.5729C30.3857 67.0539 31.612 65.8276 33.131 65.8276H84.7606C86.2796 65.8276 87.5059 67.0539 87.5059 68.5729V83.6903C87.5059 85.2093 86.2796 86.4355 84.7606 86.4355ZM35.8763 80.945H82.0153V71.3182H35.8763V80.945Z" fill="#00977F"/>
</g>
<defs>
<clipPath id="clip0_921_19815">
<rect width="118" height="118" fill="white" transform="translate(0 0.0932617)"/>
</clipPath>
</defs>
</svg>
