<svg width="118" height="119" viewBox="0 0 118 119" fill="none" xmlns="http://www.w3.org/2000/svg">
<g clip-path="url(#clip0_921_19147)">
<circle cx="59" cy="59.8394" r="59" fill="#F7DF1E"/>
<path d="M78.265 84.4746C80.6386 88.364 83.7302 91.2163 89.1954 91.2163C93.7829 91.2163 96.7349 88.9225 96.7349 85.7511C96.7349 81.9415 93.7231 80.6051 88.6568 78.3911L85.8843 77.1943C77.886 73.7836 72.5605 69.5151 72.5605 60.4796C72.5605 52.1622 78.9033 45.8394 88.7964 45.8394C95.8373 45.8394 100.924 48.2927 104.574 54.7153L95.9371 60.2603C94.0422 56.8495 91.9878 55.5131 88.7964 55.5131C85.6051 55.5131 83.4908 57.5676 83.4908 60.2603C83.4908 63.5912 85.5453 64.9276 90.3123 67.002L93.0848 68.1987C102.499 72.2477 107.825 76.3566 107.825 85.6115C107.825 95.6044 99.9861 101.07 89.4547 101.07C78.9232 101.07 72.5006 96.1629 69.2495 89.7204L78.265 84.4945V84.4746ZM39.0912 85.432C40.8265 88.5236 42.4222 91.1365 46.2319 91.1365C50.0415 91.1365 52.1758 89.7204 52.1758 84.1754V46.4776H63.2657V84.335C63.2657 95.8238 56.524 101.05 46.7106 101.05C37.8346 101.05 32.6886 96.4621 30.0757 90.9171L39.1112 85.4519L39.0912 85.432Z" fill="black"/>
</g>
<defs>
<clipPath id="clip0_921_19147">
<rect width="118" height="118" fill="white" transform="translate(0 0.839355)"/>
</clipPath>
</defs>
</svg>
