<svg width="118" height="119" viewBox="0 0 118 119" fill="none" xmlns="http://www.w3.org/2000/svg">
<g clip-path="url(#clip0_1_82)">
<path d="M95.3813 0.421021H22.6187C10.1267 0.421021 0 10.5477 0 23.0397V95.8024C0 108.294 10.1267 118.421 22.6187 118.421H95.3813C107.873 118.421 118 108.294 118 95.8024V23.0397C118 10.5477 107.873 0.421021 95.3813 0.421021Z" fill="#E3E3E3"/>
<path d="M59.7087 53.1033V66.5602H78.791C77.9531 70.8879 75.4385 74.5524 71.6673 77.0163L83.1746 85.7666C89.8793 79.7017 93.7473 70.7935 93.7473 60.2112C93.7473 57.7473 93.5218 55.3779 93.1026 53.1037L59.7087 53.1033Z" fill="#4285F4"/>
<path d="M39.8375 66.0347L37.2422 67.9817L28.0554 74.9943C33.8897 86.3347 45.8475 94.1689 59.7079 94.1689C69.2811 94.1689 77.3072 91.0732 83.1739 85.7663L71.6665 77.0161C68.5076 79.1009 64.4783 80.3646 59.7079 80.3646C50.4891 80.3646 42.6566 74.268 39.852 66.0547L39.8375 66.0347Z" fill="#34A853"/>
<path d="M28.0554 43.8477C25.638 48.5226 24.2521 53.7981 24.2521 59.4209C24.2521 65.0436 25.638 70.3191 28.0554 74.9941C28.0554 75.0255 39.8532 66.0228 39.8532 66.0228C39.1441 63.9379 38.7249 61.7268 38.7249 59.4205C38.7249 57.1142 39.1441 54.9031 39.8532 52.8182L28.0554 43.8477Z" fill="#FBBC05"/>
<path d="M59.7087 38.509C64.9306 38.509 69.5722 40.2779 73.2791 43.6896L83.4326 33.7392C77.2759 28.1164 69.2822 24.673 59.7087 24.673C45.8483 24.673 33.8897 32.4755 28.0554 43.8476L39.8528 52.8189C42.657 44.6056 50.4899 38.509 59.7087 38.509Z" fill="#EA4335"/>
</g>
<defs>
<clipPath id="clip0_1_82">
<rect width="118" height="118" fill="white" transform="translate(0 0.421021)"/>
</clipPath>
</defs>
</svg>
