<svg width="118" height="119" viewBox="0 0 118 119" fill="none" xmlns="http://www.w3.org/2000/svg">
<g clip-path="url(#clip0_921_19095)">
<circle cx="59" cy="59.8394" r="59" fill="#292C30"/>
<path d="M58.5712 22.8402C55.5451 22.8402 52.6738 23.1153 50.1291 23.5624C42.667 24.8863 41.3086 27.6373 41.3086 32.7439V39.4666H58.9667V41.7018H34.689C29.5653 41.7018 25.0605 44.7795 23.6678 50.6598C22.0516 57.3826 21.9828 61.5779 23.6678 68.6102C24.9229 73.8371 27.9147 77.5682 33.0556 77.5682H39.125V69.5043C39.125 63.6756 44.1628 58.5346 50.1463 58.5346H67.7871C72.6874 58.5346 76.6076 54.494 76.6076 49.5594V32.7439C76.6076 27.964 72.567 24.3705 67.7871 23.5624C64.761 23.0637 61.6146 22.823 58.5884 22.8402H58.5712ZM49.0287 28.2563C50.8512 28.2563 52.3471 29.7693 52.3471 31.6263C52.3471 33.4832 50.8512 34.9791 49.0287 34.9791C47.2061 34.9791 45.7103 33.4832 45.7103 31.6263C45.7103 29.7693 47.1889 28.2563 49.0287 28.2563Z" fill="#4182AF"/>
<path d="M78.7911 41.7192V49.5596C78.7911 55.629 73.633 60.7528 67.7699 60.7528H50.129C45.2976 60.7528 41.3086 64.8793 41.3086 69.728V86.5435C41.3086 91.3234 45.4695 94.1432 50.129 95.5187C55.717 97.1693 61.0815 97.4616 67.7699 95.5187C72.2059 94.2292 76.5903 91.6501 76.5903 86.5435V79.8208H58.9495V77.5856H85.4108C90.5345 77.5856 92.4602 74.0092 94.2312 68.6276C96.0709 63.0912 96.0022 57.7783 94.2312 50.6772C92.9589 45.5707 90.5345 41.7192 85.4108 41.7192H78.7911ZM68.8703 84.2911C70.6928 84.2911 72.1887 85.787 72.1887 87.6439C72.1887 89.5009 70.71 91.0139 68.8703 91.0139C67.0306 91.0139 65.5519 89.5009 65.5519 87.6439C65.5519 85.787 67.0478 84.2911 68.8703 84.2911Z" fill="#FFD400"/>
</g>
<defs>
<clipPath id="clip0_921_19095">
<rect width="118" height="118" fill="white" transform="translate(0 0.907227)"/>
</clipPath>
</defs>
</svg>
