<svg width="118" height="119" viewBox="0 0 118 119" fill="none" xmlns="http://www.w3.org/2000/svg">
<g clip-path="url(#clip0_1_420)">
<path d="M95.3813 0.0933838H22.6187C10.1267 0.0933838 0 10.2201 0 22.712V95.4747C0 107.967 10.1267 118.093 22.6187 118.093H95.3813C107.873 118.093 118 107.967 118 95.4747V22.712C118 10.2201 107.873 0.0933838 95.3813 0.0933838Z" fill="#EFEFEF"/>
<path d="M30.238 58.475C28.4628 60.2502 28.4628 63.1424 30.238 64.9375C32.0132 66.7127 34.9053 66.7127 36.7005 64.9375C49.0071 52.6309 69.0129 52.6309 81.3195 64.9375C82.217 65.8351 83.3739 66.2739 84.5507 66.2739C85.7275 66.2739 86.8844 65.8151 87.7819 64.9375C89.5571 63.1623 89.5571 60.2702 87.7819 58.475C71.9249 42.5981 46.1149 42.5981 30.258 58.475H30.238Z" fill="#00D287"/>
<path d="M42.5845 70.8216C40.8093 72.5968 40.8093 75.4889 42.5845 77.284C44.3597 79.0592 47.2518 79.0592 49.047 77.284C54.5321 71.779 63.4878 71.779 68.9729 77.284C69.8705 78.1816 71.0274 78.6204 72.2042 78.6204C73.381 78.6204 74.5378 78.1617 75.4354 77.284C77.2106 75.5089 77.2106 72.6167 75.4354 70.8415C66.3999 61.7661 51.6599 61.7661 42.6044 70.8415L42.5845 70.8216Z" fill="#00D287"/>
<path d="M59 93.3006C62.3598 93.3006 65.0835 90.5769 65.0835 87.2171C65.0835 83.8573 62.3598 81.1336 59 81.1336C55.6402 81.1336 52.9165 83.8573 52.9165 87.2171C52.9165 90.5769 55.6402 93.3006 59 93.3006Z" fill="#60F1A1"/>
<path d="M100.288 45.949C77.5297 23.1907 40.4902 23.1907 17.7119 45.949C15.9368 47.7242 15.9368 50.6164 17.7119 52.4115C19.4871 54.1867 22.3793 54.1867 24.1744 52.4115C43.3624 33.2036 74.6176 33.2036 93.8455 52.4115C94.743 53.3091 95.8999 53.7479 97.0767 53.7479C98.2535 53.7479 99.4104 53.2891 100.308 52.4115C102.083 50.6363 102.083 47.7442 100.308 45.949H100.288Z" fill="#00977F"/>
</g>
<defs>
<clipPath id="clip0_1_420">
<rect width="118" height="118" fill="white" transform="translate(0 0.0933838)"/>
</clipPath>
</defs>
</svg>
