<svg width="118" height="119" viewBox="0 0 118 119" fill="none" xmlns="http://www.w3.org/2000/svg">
<g clip-path="url(#clip0_921_18899)">
<circle cx="59" cy="58.771" r="59" fill="#222C37"/>
<path d="M63.9217 58.6712L76.3323 37.238L82.3292 58.6712L76.3323 80.1044L63.9217 58.6712ZM57.8704 62.1498L70.281 83.583L48.6485 78.039L33.031 62.1498H57.8522H57.8704ZM70.281 33.7413L57.8704 55.1745H33.0491L48.6666 39.2853L70.281 33.7413ZM88.0001 51.3698L80.4269 23.1968L52.1633 30.7518L47.9781 38.1076L39.4809 38.0533L18.7905 58.6712L39.4809 79.2891L47.96 79.2348L52.1452 86.5905L80.4088 94.1456L87.9819 65.9726L83.688 58.6712L87.9819 51.3698H88.0001Z" fill="white"/>
</g>
<defs>
<clipPath id="clip0_921_18899">
<rect width="118" height="118" fill="white" transform="translate(0 0.0678711)"/>
</clipPath>
</defs>
</svg>
