<svg width="118" height="119" viewBox="0 0 118 119" fill="none" xmlns="http://www.w3.org/2000/svg">
<g clip-path="url(#clip0_921_18930)">
<circle cx="59" cy="58.771" r="59" fill="#292C30"/>
<path d="M88.7894 53.5037C88.7894 49.5194 83.7967 45.75 76.1588 43.419C77.9278 35.6323 77.1342 29.4327 73.679 27.4488C72.8854 26.9859 71.9596 26.771 70.9346 26.771V29.4988C71.4967 29.4988 71.9431 29.6145 72.3233 29.8129C73.9931 30.7718 74.704 34.4089 74.1419 39.0875C74.0096 40.2448 73.7947 41.4516 73.5136 42.6916C71.1165 42.0964 68.4878 41.65 65.7435 41.3524C64.0903 39.0875 62.3709 37.021 60.6515 35.2355C64.6524 31.5323 68.3886 29.4988 70.9346 29.4988V26.771C67.562 26.771 63.1644 29.1682 58.7007 33.3343C54.237 29.2012 49.8395 26.8206 46.4669 26.8206V29.5484C48.9963 29.5484 52.7657 31.5653 56.7499 35.252C55.0306 37.0541 53.3278 39.1041 51.6911 41.369C48.9302 41.6666 46.3015 42.1129 43.9044 42.7081C43.6233 41.4847 43.4084 40.2944 43.2596 39.1537C42.681 34.475 43.3919 30.8379 45.0451 29.8625C45.4088 29.6476 45.8882 29.5484 46.4503 29.5484V26.8206C45.4253 26.8206 44.483 27.0355 43.6895 27.4984C40.2507 29.4823 39.4737 35.6653 41.2592 43.4355C33.6378 45.7831 28.6782 49.5524 28.6782 53.5202C28.6782 57.4879 33.6709 61.2738 41.3088 63.6049C39.5399 71.3916 40.3334 77.5912 43.7886 79.575C44.5822 80.0379 45.508 80.2528 46.5495 80.2528C49.9221 80.2528 54.3197 77.8557 58.7834 73.6895C63.2471 77.8226 67.6447 80.2032 71.0173 80.2032C72.0423 80.2032 72.9846 79.9883 73.7782 79.5254C77.2169 77.5416 77.9939 71.3585 76.2084 63.5883C83.7967 61.2407 88.7564 57.4714 88.7564 53.5037H88.7894ZM72.8358 45.3367C72.3895 46.9238 71.8274 48.544 71.1826 50.1807C70.6866 49.2053 70.1576 48.2133 69.579 47.2379C69.0169 46.2625 68.4217 45.3037 67.81 44.3778C69.5459 44.6424 71.2322 44.9565 72.8358 45.3533V45.3367ZM67.2314 58.3807C66.2725 60.0339 65.2971 61.6045 64.2721 63.0593C62.4536 63.2246 60.6019 63.3073 58.7338 63.3073C56.8657 63.3073 55.0306 63.2246 53.2286 63.0758C52.2201 61.621 51.2116 60.067 50.2693 58.4137C49.3435 56.8101 48.5003 55.1734 47.7233 53.5367C48.4838 51.9 49.3435 50.2468 50.2528 48.6432C51.2116 46.9899 52.187 45.4194 53.212 43.9645C55.0306 43.7992 56.8822 43.7166 58.7503 43.7166C60.6185 43.7166 62.4536 43.7992 64.2556 43.948C65.264 45.4028 66.2725 46.9569 67.2149 48.6101C68.1407 50.2137 68.9838 51.8504 69.7608 53.4871C68.9838 55.1238 68.1407 56.777 67.2314 58.3807ZM71.1826 56.7936C71.8274 58.3972 72.3895 60.0174 72.8689 61.6706C71.2653 62.0674 69.579 62.398 67.8265 62.646C68.4217 61.7037 69.0334 60.7283 69.5955 59.7363C70.1576 58.7609 70.6866 57.769 71.1826 56.777V56.7936ZM58.7669 69.8706C57.6261 68.6968 56.4854 67.3907 55.3612 65.9524C56.4689 66.002 57.5931 66.0351 58.7338 66.0351C59.8745 66.0351 61.0318 66.0186 62.1395 65.9524C61.0814 67.3246 59.9572 68.6307 58.7669 69.8706ZM49.6576 62.6625C47.9217 62.398 46.2354 62.0839 44.6318 61.6871C45.0782 60.1 45.6403 58.4799 46.285 56.8432C46.781 57.8186 47.31 58.8105 47.8886 59.7859C48.4673 60.7613 49.0459 61.7202 49.6576 62.646V62.6625ZM58.7173 37.1698C59.858 38.3436 60.9987 39.6496 62.1229 41.0879C61.0153 41.0383 59.8911 41.0053 58.7503 41.0053C57.6096 41.0053 56.4524 41.0218 55.3447 41.0879C56.4028 39.7158 57.5269 38.4097 58.7173 37.1698ZM49.6576 44.3778C49.0624 45.3202 48.4507 46.2956 47.8886 47.2875C47.3265 48.2629 46.7975 49.2549 46.3015 50.2303C45.6568 48.6266 45.0947 47.0065 44.6153 45.3533C46.2189 44.973 47.9052 44.6424 49.6576 44.3778ZM38.581 59.7198C34.2495 57.8682 31.439 55.4379 31.439 53.5202C31.439 51.6024 34.2495 49.1557 38.581 47.3206C39.639 46.8742 40.7798 46.4609 41.9701 46.0807C42.6645 48.4778 43.5903 50.9742 44.731 53.5367C43.6068 56.0827 42.6975 58.5625 42.0197 60.9597C40.8128 60.5795 39.6556 60.1662 38.5975 59.7033L38.581 59.7198ZM45.1774 77.2274C43.5076 76.2686 42.7967 72.6315 43.3588 67.9528C43.4911 66.7956 43.706 65.5887 43.987 64.3488C46.3842 64.944 49.0128 65.3903 51.7572 65.6879C53.4104 67.9528 55.1298 70.0194 56.8491 71.8049C52.8483 75.5081 49.112 77.5416 46.5661 77.5416C46.0205 77.5416 45.5576 77.4258 45.1774 77.2109V77.2274ZM74.2245 67.8867C74.8032 72.5653 74.0923 76.2024 72.439 77.1778C72.0753 77.3928 71.5959 77.492 71.0338 77.492C68.5044 77.492 64.735 75.475 60.7507 71.7883C62.4701 69.9863 64.1729 67.9363 65.8096 65.6714C68.5705 65.3738 71.1991 64.9274 73.5963 64.3323C73.8773 65.5722 74.0923 66.7625 74.2411 67.9032L74.2245 67.8867ZM78.9362 59.7198C77.8782 60.1662 76.7374 60.5795 75.5471 60.9597C74.8528 58.5625 73.9269 56.0662 72.7862 53.5037C73.9104 50.9577 74.8197 48.4778 75.4975 46.0807C76.7044 46.4609 77.8616 46.8742 78.9362 47.3371C83.2677 49.1887 86.0782 51.619 86.0782 53.5367C86.0782 55.4545 83.2677 57.9012 78.9197 59.7363L78.9362 59.7198Z" fill="#61DAFB"/>
<path d="M58.7339 59.0917C61.8254 59.0917 64.3383 56.5788 64.3383 53.4872C64.3383 50.3957 61.8254 47.8828 58.7339 47.8828C55.6423 47.8828 53.1294 50.3957 53.1294 53.4872C53.1294 56.5788 55.6423 59.0917 58.7339 59.0917ZM31.4226 89.8747H29.571V93.0489H28.5294V85.1796H31.1415C32.0343 85.1796 32.7121 85.378 33.1915 85.7913C33.671 86.188 33.9024 86.7832 33.9024 87.5602C33.9024 88.0562 33.7701 88.4695 33.5056 88.8332C33.2411 89.1969 32.8774 89.4614 32.398 89.6433L34.2496 92.9828V93.0489H33.1419L31.4391 89.8747H31.4226ZM29.571 89.0316H31.158C31.6705 89.0316 32.0839 88.8993 32.3814 88.6348C32.6955 88.3703 32.8443 88.0066 32.8443 87.5602C32.8443 87.0808 32.6955 86.7005 32.4145 86.436C32.1335 86.1715 31.7036 86.0393 31.158 86.0393H29.571V89.0151V89.0316ZM37.6222 93.1647C36.8286 93.1647 36.1839 92.9001 35.6879 92.3876C35.1919 91.8586 34.9439 91.1643 34.9439 90.3046V90.1227C34.9439 89.5441 35.0597 89.0316 35.2746 88.5687C35.506 88.1058 35.8036 87.7586 36.2004 87.4941C36.5972 87.2296 37.027 87.0973 37.4899 87.0973C38.2504 87.0973 38.8455 87.3453 39.2589 87.8413C39.6722 88.3372 39.8871 89.0647 39.8871 89.9905V90.4038H35.9193C35.9193 90.9824 36.1012 91.4453 36.4153 91.809C36.746 92.1562 37.1427 92.338 37.6552 92.338C38.0024 92.338 38.3 92.2719 38.548 92.1231C38.7959 91.9743 39.0109 91.7925 39.1927 91.5445L39.8044 92.0239C39.3084 92.7844 38.581 93.1481 37.6056 93.1481L37.6222 93.1647ZM37.4899 87.9239C37.0931 87.9239 36.746 88.0727 36.4814 88.3703C36.2004 88.6679 36.0351 89.0647 35.9689 89.6102H38.8951V89.5276C38.8621 89.0151 38.7298 88.6348 38.4818 88.3538C38.2339 88.0727 37.9032 87.9405 37.4899 87.9405V87.9239ZM44.6649 93.0489C44.6153 92.9332 44.5657 92.7348 44.5326 92.4372C44.0697 92.9167 43.5076 93.1647 42.8629 93.1647C42.2843 93.1647 41.8214 92.9993 41.4411 92.6852C41.0774 92.3546 40.8955 91.9413 40.8955 91.4453C40.8955 90.8336 41.127 90.3707 41.5899 90.0235C42.0528 89.6929 42.7141 89.511 43.5407 89.511H44.5161V89.0481C44.5161 88.701 44.4169 88.4199 44.202 88.2215C43.9871 88.0066 43.6895 87.9074 43.2762 87.9074C42.9125 87.9074 42.6149 87.9901 42.3835 88.1719C42.1355 88.3538 42.0197 88.5687 42.0197 88.8332H41.0113C41.0113 88.5356 41.1105 88.2546 41.3254 87.9901C41.5403 87.709 41.8214 87.4941 42.1685 87.3453C42.5322 87.18 42.9125 87.1139 43.3423 87.1139C44.0201 87.1139 44.5492 87.2792 44.9294 87.6264C45.3097 87.957 45.508 88.4199 45.5246 89.0151V91.7098C45.5246 92.2389 45.5907 92.6687 45.723 92.9828V93.0655H44.6814L44.6649 93.0489ZM43.0117 92.2885C43.3258 92.2885 43.6234 92.2058 43.9044 92.0405C44.1855 91.8751 44.3839 91.6602 44.5161 91.4122V90.2054H43.7391C42.5157 90.2054 41.904 90.5691 41.904 91.28C41.904 91.5941 42.0032 91.8421 42.2181 92.0074C42.433 92.1893 42.6976 92.2719 43.0282 92.2719L43.0117 92.2885ZM49.4262 92.338C49.7899 92.338 50.0875 92.2223 50.3685 92.0074C50.6496 91.7925 50.7818 91.528 50.8149 91.1973H51.7572C51.7407 91.528 51.625 91.8586 51.4101 92.1562C51.1951 92.4538 50.9141 92.7018 50.5504 92.8836C50.2032 93.0655 49.823 93.1481 49.4262 93.1481C48.6326 93.1481 48.0044 92.8836 47.525 92.3546C47.0621 91.8256 46.8306 91.0981 46.8306 90.1723V90.007C46.8306 89.4449 46.9298 88.9324 47.1447 88.486C47.3597 88.0397 47.6572 87.6925 48.0375 87.461C48.4343 87.2131 48.8972 87.0973 49.4262 87.0973C50.0875 87.0973 50.633 87.2957 51.0629 87.6925C51.4927 88.0893 51.7242 88.6018 51.7572 89.2135H50.8149C50.7818 88.8332 50.6496 88.5191 50.3851 88.2876C50.1371 88.0397 49.8064 87.9239 49.4262 87.9239C48.9137 87.9239 48.5169 88.1058 48.2359 88.4695C47.9548 88.8332 47.8226 89.3622 47.8226 90.0566V90.2385C47.8226 90.9163 47.9548 91.4288 48.2359 91.7925C48.5169 92.1562 48.9137 92.338 49.4262 92.338ZM54.2371 85.7913V87.2131H55.3282V87.9901H54.2371V91.6106C54.2371 91.8421 54.2867 92.0239 54.3859 92.1397C54.4851 92.2554 54.6504 92.305 54.8818 92.305C54.9976 92.305 55.1629 92.2885 55.3613 92.2389V93.0489C55.0968 93.1151 54.8488 93.1647 54.6008 93.1647C54.1544 93.1647 53.8238 93.0324 53.5923 92.7514C53.3609 92.4868 53.2451 92.0901 53.2451 91.5941V87.9735H52.1871V87.1965H53.2451V85.7747H54.2371V85.7913ZM65.4459 93.0489H64.4044L60.4367 86.9816V93.0489H59.3951V85.1796H60.4367L64.4044 91.2635V85.1796H65.4294V93.0489H65.4459ZM70.7363 93.0489C70.6867 92.9332 70.6371 92.7348 70.604 92.4372C70.1411 92.9167 69.579 93.1647 68.9343 93.1647C68.3556 93.1647 67.8762 92.9993 67.5125 92.6852C67.1488 92.3546 66.9669 91.9413 66.9669 91.4453C66.9669 90.8336 67.1984 90.3707 67.6613 90.0235C68.1242 89.6929 68.7855 89.511 69.6121 89.511H70.5875V89.0481C70.5875 88.701 70.4883 88.4199 70.2734 88.2215C70.0584 88.0066 69.7609 87.9074 69.3476 87.9074C68.9838 87.9074 68.6863 87.9901 68.4548 88.1719C68.2068 88.3538 68.0911 88.5687 68.0911 88.8332H67.0826C67.0826 88.5356 67.1818 88.2546 67.3968 87.9901C67.6117 87.709 67.8927 87.4941 68.2399 87.3453C68.6036 87.18 68.9838 87.1139 69.4137 87.1139C70.0915 87.1139 70.6205 87.2792 71.0008 87.6264C71.381 87.957 71.5794 88.4199 71.5959 89.0151V91.7098C71.5959 92.2389 71.6621 92.6687 71.7943 92.9828V93.0655H70.7528L70.7363 93.0489ZM69.083 92.2885C69.3972 92.2885 69.6947 92.2058 69.9758 92.0405C70.2568 91.8751 70.4552 91.6602 70.5875 91.4122V90.2054H69.8105C68.5871 90.2054 67.9754 90.5691 67.9754 91.28C67.9754 91.5941 68.0746 91.8421 68.2895 92.0074C68.5044 92.1893 68.7689 92.2719 69.0996 92.2719L69.083 92.2885ZM74.5056 85.7913V87.2131H75.5967V87.9901H74.5056V91.6106C74.5056 91.8421 74.5552 92.0239 74.6544 92.1397C74.7536 92.2554 74.9189 92.305 75.1504 92.305C75.2661 92.305 75.4314 92.2885 75.6298 92.2389V93.0489C75.3653 93.1151 75.1173 93.1647 74.8693 93.1647C74.423 93.1647 74.0923 93.0324 73.8609 92.7514C73.6294 92.4868 73.5137 92.0901 73.5137 91.5941V87.9735H72.4556V87.1965H73.5137V85.7747H74.5056V85.7913ZM77.8617 93.0489H76.8697V87.1965H77.8617V93.0489ZM76.7871 85.659C76.7871 85.4937 76.8367 85.3614 76.9359 85.2457C77.0351 85.13 77.1838 85.0804 77.3822 85.0804C77.5806 85.0804 77.7294 85.13 77.8286 85.2457C77.9278 85.3614 77.9774 85.4937 77.9774 85.659C77.9774 85.8243 77.9278 85.9566 77.8286 86.0723C77.7294 86.1881 77.5806 86.2376 77.3822 86.2376C77.1838 86.2376 77.0351 86.1881 76.9359 86.0723C76.8367 85.9566 76.7871 85.8243 76.7871 85.659ZM81.3996 91.6933L82.8544 87.1965H83.8794L81.7798 93.0489H81.0193L78.9032 87.1965H79.9282L81.4161 91.6933H81.3996ZM87.1859 93.1647C86.3923 93.1647 85.7476 92.9001 85.2516 92.3876C84.7556 91.8586 84.5076 91.1643 84.5076 90.3046V90.1227C84.5076 89.5441 84.6234 89.0316 84.8383 88.5687C85.0697 88.1058 85.3673 87.7586 85.7641 87.4941C86.1609 87.2296 86.5907 87.0973 87.0536 87.0973C87.8141 87.0973 88.4092 87.3453 88.8226 87.8413C89.2359 88.3372 89.4508 89.0647 89.4508 89.9905V90.4038H85.483C85.483 90.9824 85.6649 91.4453 85.979 91.809C86.3097 92.1562 86.7064 92.338 87.2024 92.338C87.5496 92.338 87.8471 92.2719 88.0951 92.1231C88.3431 91.9743 88.558 91.7925 88.7399 91.5445L89.3516 92.0239C88.8556 92.7844 88.1282 93.1481 87.1528 93.1481L87.1859 93.1647ZM87.0536 87.9239C86.6568 87.9239 86.3097 88.0727 86.0451 88.3703C85.7641 88.6679 85.5988 89.0647 85.5326 89.6102H88.4588V89.5276C88.4258 89.0151 88.2935 88.6348 88.0455 88.3538C87.7976 88.0727 87.4669 87.9405 87.0536 87.9405V87.9239Z" fill="#61DAFB"/>
</g>
<defs>
<clipPath id="clip0_921_18930">
<rect width="118" height="118" fill="white" transform="translate(0 0.0678711)"/>
</clipPath>
</defs>
</svg>
