<svg width="118" height="119" viewBox="0 0 118 119" fill="none" xmlns="http://www.w3.org/2000/svg">
<g clip-path="url(#clip0_1_357)">
<path d="M95.3813 0.0933838H22.6187C10.1267 0.0933838 0 10.2201 0 22.712V95.4747C0 107.967 10.1267 118.093 22.6187 118.093H95.3813C107.873 118.093 118 107.967 118 95.4747V22.712C118 10.2201 107.873 0.0933838 95.3813 0.0933838Z" fill="#2396ED"/>
<path d="M101.724 51.9527C99.8492 50.6562 95.5409 50.1576 92.17 50.8158C91.7711 47.5447 89.976 44.6924 86.8445 42.1593L85.0493 40.8628L83.7927 42.7377C82.217 45.191 81.4391 48.6018 81.6785 51.8729C81.7582 53.0098 82.1572 55.0443 83.334 56.8395C82.2369 57.4977 79.9631 58.3155 76.9912 58.3155H20.3049L20.1453 58.9737C19.5868 62.2448 19.5868 72.4372 26.0294 80.256C30.8962 86.2198 38.0967 89.2316 47.5909 89.2316C68.1352 89.2316 83.334 79.3584 90.4547 61.5068C93.267 61.5866 99.3106 61.5068 102.362 55.3834C102.442 55.2238 102.602 54.8848 103.14 53.6681L103.459 53.0098L101.744 51.9527H101.724ZM65.6021 28.9551H56.9854V37.113H65.6021V28.9551ZM65.6021 38.7485H56.9854V46.9064H65.6021V38.7485ZM55.4097 38.7485H46.7931V46.9064H55.4097V38.7485ZM45.2173 38.7485H36.6007V46.9064H45.2173V38.7485ZM35.025 48.542H26.4083V56.6998H35.025V48.542ZM45.2173 48.542H36.6007V56.6998H45.2173V48.542ZM55.4097 48.542H46.7931V56.6998H55.4097V48.542ZM65.6021 48.542H56.9854V56.6998H65.6021V48.542ZM75.7944 48.542H67.1778V56.6998H75.7944V48.542Z" fill="white"/>
</g>
<defs>
<clipPath id="clip0_1_357">
<rect width="118" height="118" fill="white" transform="translate(0 0.0933838)"/>
</clipPath>
</defs>
</svg>
