<svg width="118" height="119" viewBox="0 0 118 119" fill="none" xmlns="http://www.w3.org/2000/svg">
<g clip-path="url(#clip0_1_307)">
<path d="M95.3813 0.0256348H22.6187C10.1267 0.0256348 0 10.1524 0 22.6443V95.407C0 107.899 10.1267 118.026 22.6187 118.026H95.3813C107.873 118.026 118 107.899 118 95.407V22.6443C118 10.1524 107.873 0.0256348 95.3813 0.0256348Z" fill="#F47421"/>
<path d="M58.8089 55.1763C49.5906 55.1763 41.2162 56.2799 35.0057 58.0976V73.5263C41.2162 75.3224 49.5906 76.4476 58.8089 76.4476C69.3688 76.4476 78.8035 74.9978 85.1438 72.704V58.9199C78.8035 56.6261 69.3472 55.1763 58.8089 55.1763Z" fill="white"/>
<path d="M94.665 67.727L93.583 65.4982C93.583 65.4982 93.583 65.3251 93.583 65.2385C93.583 62.7067 90.9431 60.3697 86.507 58.4871V71.9899C88.5844 71.1244 90.2506 70.1506 91.4624 69.0903C91.1162 70.5185 89.9044 73.3965 88.9306 75.4089C87.3509 78.3086 86.7667 80.8187 86.8532 80.9486C86.8965 81.0351 87.4375 80.1912 88.2382 78.8496C90.0991 76.2096 93.6047 71.146 94.3188 69.8693C95.1194 68.4195 94.665 67.727 94.665 67.727Z" fill="white"/>
<path d="M24.7271 65.3683C24.7271 65.866 24.8353 66.3421 25.0084 66.8182L24.3593 67.965C24.3593 67.965 23.8399 68.6359 24.7488 70.064C25.5494 71.3191 29.596 76.2096 31.7166 78.7846C32.6255 80.1046 33.253 80.9053 33.2963 80.8404C33.3828 80.7105 32.7337 78.2437 30.916 75.4306C30.072 73.9158 29.055 71.9034 28.4491 70.4319C30.1369 71.5139 32.3658 72.4876 35.0058 73.3099V57.47C28.6438 59.4825 24.7055 62.2956 24.7055 65.39" fill="white"/>
<path d="M57.662 31.6977L55.5413 35.2249L54.5027 35.3115L51.7545 32.2603C51.4948 31.9357 51.0837 31.8059 50.6942 31.8925C50.3046 31.979 49.9801 32.3036 49.8286 32.6498L48.4437 36.5665C48.0974 36.6531 47.7729 36.7396 47.4915 36.8911L44.224 34.4026C43.9211 34.2079 43.445 34.1213 43.1204 34.2728C42.7309 34.4892 42.4712 34.7921 42.3847 35.2033L41.7139 39.358C41.4326 39.4878 41.1729 39.7042 40.8267 39.8341L37.2129 38.1246C36.8451 37.9298 36.3906 37.9731 36.066 38.2328C35.7414 38.4275 35.5467 38.8603 35.5251 39.2498L35.6549 43.4478C35.4385 43.6426 35.1788 43.9022 34.8975 44.097L31.0025 43.1665C30.5913 43.0367 30.2018 43.1665 29.8772 43.4911C29.6176 43.7508 29.4877 44.2268 29.5743 44.6163L30.5048 48.6845C30.2884 48.9225 30.0936 49.1822 29.8772 49.4852L25.8307 49.312C25.4195 49.2904 25.03 49.5068 24.8353 49.853C24.6405 50.2209 24.554 50.6753 24.7704 51.0648L26.4366 54.83C26.2418 55.133 26.0904 55.4359 25.9389 55.7389L22.0222 56.4313C21.5678 56.4746 21.2432 56.7776 21.1133 57.1454C20.9835 57.5566 21.0268 58.011 21.2215 58.3572L23.5802 61.7329C23.5802 61.7329 23.5369 61.8628 23.5369 61.9061L16.8937 68.9388C16.8937 68.9388 15.9199 69.7178 17.3481 71.6004C18.6465 73.2234 25.3113 79.7151 28.8385 83.1558C30.31 84.8653 31.327 85.9256 31.4352 85.8607C31.5867 85.6659 30.7428 82.5282 27.8215 78.8496C25.571 75.5388 22.6497 70.4319 23.2773 69.8477C23.2773 69.8477 24.0563 68.8523 25.6576 68.1382C25.6576 68.1382 58.7439 83.3938 89.4284 68.3762C92.9339 67.727 95.0762 69.6096 95.0762 69.6096C95.8119 70.0641 93.9077 75.3007 92.3713 78.7847C90.229 82.723 89.9261 85.7958 90.1208 85.904C90.2506 85.9472 91.008 84.7787 92.1116 82.8961C94.8382 79.1525 99.9234 71.9467 100.854 70.1939C101.957 68.2031 100.854 67.5972 100.854 67.5972L93.7778 62.4038C93.6913 62.1874 93.6264 61.9493 93.6047 61.668L95.8985 58.2923C96.1582 57.9894 96.1798 57.5133 96.0283 57.1238C95.8768 56.7343 95.5739 56.4746 95.1628 56.3881L91.1811 55.6956C91.0513 55.4143 90.8998 55.0897 90.7483 54.8084L92.3713 50.9783C92.566 50.6104 92.5228 50.156 92.2631 49.7665C92.0683 49.4419 91.7005 49.2471 91.2893 49.2688L87.2644 49.3986C87.0697 49.1173 86.81 48.8576 86.6153 48.5979L87.5241 44.5514C87.6107 44.1403 87.5241 43.6858 87.2428 43.4262C86.9182 43.1016 86.5071 42.9717 86.1176 43.0583L82.2225 44.0321C81.9845 43.8157 81.7248 43.6209 81.4651 43.3396L81.5517 39.1849C81.5733 38.7737 81.3569 38.3842 81.054 38.1246C80.6861 37.8649 80.275 37.8432 79.8855 38.0596L76.2933 39.7475C75.9904 39.596 75.6875 39.4013 75.3845 39.2498L74.7353 35.16C74.692 34.7056 74.3891 34.381 74.0212 34.2511C73.6534 34.0564 73.1989 34.0997 72.8744 34.3593L69.6285 36.7829C69.3255 36.6964 69.0442 36.6098 68.6763 36.5233L67.2914 32.6066C67.14 32.2171 66.8154 31.8925 66.4259 31.8275C66.0147 31.741 65.6252 31.8925 65.3006 32.2171L62.5741 35.2898C62.2928 35.2682 61.9249 35.1816 61.5787 35.1383L59.4797 31.6328C59.2633 31.2433 58.9171 31.0485 58.5059 31.0269C58.0948 31.0053 57.7269 31.2649 57.5321 31.6328L57.662 31.6977Z" fill="white"/>
<path d="M47.643 77.5079C47.5132 77.3997 47.4482 77.3348 47.4482 77.3348L58.2895 76.4476C49.439 64.7841 42.363 74.0673 41.6057 75.106V77.5079H47.643Z" fill="#F47421"/>
<path d="M70.2127 77.3781C70.3426 77.2699 70.4075 77.205 70.4075 77.205L59.999 76.4476C68.8495 64.308 75.4927 73.9591 76.2501 74.9978V77.3997H70.2127V77.3781Z" fill="#F47421"/>
<path d="M86.8533 65.8011C86.8533 65.8011 85.6848 70.5185 78.3058 75.4739L76.2501 75.9716C76.2501 75.9716 69.5636 63.7887 60.1072 77.5079C60.1072 77.5079 63.0501 75.7984 70.9485 77.8974C70.9485 77.8974 67.3131 83.4587 59.999 83.2856C59.999 83.2856 67.0101 91.7249 77.6999 79.542C77.6999 79.542 88.9956 75.1709 89.9044 65.8011H86.8533Z" fill="white"/>
<path d="M64.9111 59.7638C64.9111 59.7638 68.2219 56.15 71.5327 59.7638C71.5327 59.7638 74.1294 64.5893 71.5327 67.0129C71.5327 67.0129 67.2914 70.3886 64.9111 67.0129C64.9111 67.0129 62.0763 64.3513 64.9111 59.7638Z" fill="#F47421"/>
<path d="M68.7196 61.1054C68.7196 62.512 67.8973 63.6588 66.8587 63.6588C65.82 63.6588 64.9977 62.512 64.9977 61.1054C64.9977 59.6989 65.82 58.552 66.8587 58.552C67.8973 58.552 68.7196 59.6989 68.7196 61.1054Z" fill="white"/>
<path d="M50.1315 58.7684C50.1315 58.7684 55.801 56.2582 57.359 61.8628C57.359 61.8628 58.982 68.3978 52.7066 68.7657C52.7066 68.7657 44.7001 67.2293 50.1532 58.7684" fill="#F47421"/>
<path d="M52.9879 61.192C52.9879 62.6418 52.1223 63.832 51.0836 63.832C50.0449 63.832 49.1794 62.6634 49.1794 61.192C49.1794 59.7205 50.0449 58.552 51.0836 58.552C52.1223 58.552 52.9879 59.7205 52.9879 61.192Z" fill="white"/>
<path d="M41.6273 80.2994C51.9925 93.5859 56.9046 82.9178 56.9046 82.9178C51.0837 82.2686 46.9722 78.3952 46.9722 78.3952C53.9617 77.508 57.9866 77.4214 57.9866 77.4214C48.6384 65.1087 41.0647 76.2529 41.0647 76.2529C39.1821 75.5604 37.2346 72.9204 35.7847 70.4969L29.9854 68.7874C36.6503 80.1263 41.6273 80.2994 41.6273 80.2994Z" fill="white"/>
</g>
<defs>
<clipPath id="clip0_1_307">
<rect width="118" height="118" fill="white" transform="translate(0 0.0256348)"/>
</clipPath>
</defs>
</svg>
