<svg width="118" height="119" viewBox="0 0 118 119" fill="none" xmlns="http://www.w3.org/2000/svg">
<g clip-path="url(#clip0_921_18518)">
<circle cx="59" cy="59.1978" r="59" fill="#C9005F"/>
<path d="M71.3286 41.917C70.8744 42.9834 70.3214 43.9512 69.6894 44.8596C68.8204 46.0841 68.1292 46.9333 67.5762 47.4073C66.727 48.1776 65.8382 48.5726 64.8705 48.5923C64.1793 48.5923 63.3498 48.3948 62.3623 47.9998C61.3946 47.6048 60.4861 47.4073 59.6764 47.4073C58.8666 47.4073 57.8989 47.6048 56.9114 47.9998C55.924 48.3948 55.134 48.6121 54.5217 48.6318C53.5935 48.6713 52.6653 48.2566 51.7568 47.4073C51.1643 46.8938 50.4336 46.0051 49.5448 44.7609C48.5969 43.4377 47.8266 41.8775 47.2144 40.1197C46.5627 38.2238 46.2269 36.3871 46.2269 34.5899C46.2269 32.5557 46.6614 30.798 47.5501 29.3167C48.2414 28.1318 49.1696 27.2035 50.3151 26.5123C51.4803 25.8211 52.7245 25.4853 54.0675 25.4458C54.7982 25.4458 55.766 25.6828 56.9707 26.1173C58.1754 26.5716 58.9259 26.7888 59.2616 26.7888C59.5184 26.7888 60.3676 26.5321 61.8093 25.9988C63.172 25.5051 64.3373 25.3076 65.2852 25.3866C67.8527 25.5841 69.7684 26.6111 71.0521 28.428C68.7612 29.8105 67.6354 31.7657 67.6552 34.2541C67.6749 36.1896 68.3859 37.8091 69.7684 39.0928C70.4004 39.6853 71.0916 40.1395 71.8816 40.4752C71.7038 40.969 71.5261 41.443 71.3483 41.8775L71.3286 41.917ZM65.4432 18.7902C65.4432 20.311 64.8902 21.7329 63.7843 23.0561C62.4413 24.6164 60.8218 25.5248 59.0641 25.3866C59.0444 25.2088 59.0246 25.0113 59.0246 24.8139C59.0246 23.3524 59.6566 21.7922 60.7823 20.5085C61.3551 19.8567 62.0661 19.3235 62.935 18.889C63.804 18.4742 64.6335 18.2373 65.4037 18.1978C65.4235 18.3952 65.4432 18.6125 65.4432 18.81V18.7902Z" fill="#EFEFEF"/>
<path d="M32.501 56.2354H35.4634C36.6879 56.2354 37.5964 56.5711 38.1888 57.2426C38.7813 57.9141 39.0973 58.8818 39.0973 60.1655C39.0973 61.4492 38.8011 62.417 38.1888 63.1082C37.5766 63.7994 36.6681 64.1352 35.4634 64.1352H32.501V56.2354ZM34.1204 57.4993V62.8514H35.2659C36.0164 62.8514 36.5694 62.6342 36.9249 62.1997C37.2804 61.7652 37.4581 61.0937 37.4581 60.1853C37.4581 59.2768 37.2804 58.6053 36.9249 58.1708C36.5694 57.7166 36.0164 57.4993 35.2659 57.4993H34.1204Z" fill="#EFEFEF"/>
<path d="M42.9879 64.2339C42.0992 64.2339 41.3882 63.9969 40.8747 63.5031C40.3612 63.0094 40.1045 62.3182 40.1045 61.4294V60.6987C40.1045 59.81 40.3612 59.1385 40.8945 58.625C41.4277 58.1115 42.0992 57.8745 42.9089 57.8745C43.7187 57.8745 44.4099 58.1313 44.9234 58.6447C45.4369 59.1582 45.6936 59.8297 45.6936 60.6987V61.4097H41.645V61.7059C41.645 62.1207 41.7635 62.4564 42.0202 62.6934C42.2769 62.9304 42.5929 63.0686 42.9879 63.0686C43.3039 63.0686 43.5607 63.0094 43.7779 62.8711C43.9952 62.7329 44.1136 62.5749 44.1531 62.3774H45.6344C45.6344 62.5354 45.5751 62.6934 45.5159 62.8711C45.4369 63.0291 45.3381 63.2069 45.1999 63.3649C45.0616 63.5229 44.8839 63.6809 44.6864 63.7994C44.4889 63.9179 44.2519 64.0364 43.9557 64.1154C43.6594 64.1944 43.3434 64.2339 42.9879 64.2339ZM41.645 60.4617H44.1926V60.4025C44.1926 59.9877 44.0741 59.652 43.8569 59.3952C43.6199 59.1385 43.3237 59.02 42.9484 59.02C42.5732 59.02 42.2572 59.1385 42.0202 59.3952C41.7832 59.652 41.6647 59.9877 41.6647 60.4025V60.4617H41.645Z" fill="#EFEFEF"/>
<path d="M48.2808 64.135L46.1874 57.9929H47.9056L49.1498 62.7131H49.2091L50.5915 57.9929H52.2505L50.0385 64.135H48.3006H48.2808Z" fill="#EFEFEF"/>
<path d="M55.5289 64.2339C54.6402 64.2339 53.9292 63.9969 53.4157 63.5031C52.9023 63.0094 52.6455 62.3182 52.6455 61.4294V60.6987C52.6455 59.81 52.9023 59.1385 53.4355 58.625C53.9687 58.1115 54.6402 57.8745 55.4499 57.8745C56.2597 57.8745 56.9509 58.1313 57.4644 58.6447C57.9779 59.1582 58.2346 59.8297 58.2346 60.6987V61.4097H54.186V61.7059C54.186 62.1207 54.3045 62.4564 54.5612 62.6934C54.818 62.9304 55.1339 63.0686 55.5289 63.0686C55.8449 63.0686 56.1017 63.0094 56.3189 62.8711C56.5362 62.7329 56.6547 62.5749 56.6942 62.3774H58.1754C58.1754 62.5354 58.1161 62.6934 58.0569 62.8711C57.9779 63.0291 57.8791 63.2069 57.7409 63.3649C57.6026 63.5229 57.4249 63.6809 57.2274 63.7994C57.0299 63.9179 56.7929 64.0364 56.4967 64.1154C56.2004 64.1944 55.8844 64.2339 55.5289 64.2339ZM54.186 60.4617H56.7337V60.4025C56.7337 59.9877 56.6152 59.652 56.3979 59.3952C56.1609 59.1385 55.8647 59.02 55.4894 59.02C55.1142 59.02 54.7982 59.1385 54.5612 59.3952C54.3242 59.652 54.2057 59.9877 54.2057 60.4025V60.4617H54.186Z" fill="#EFEFEF"/>
<path d="M59.4789 64.1354V55.8208H61.0588V64.1354H59.4789Z" fill="#EFEFEF"/>
<path d="M63.093 58.6645C63.6262 58.151 64.3174 57.8943 65.2062 57.8943C66.0949 57.8943 66.7664 58.151 67.2996 58.6645C67.8329 59.178 68.0896 59.8495 68.0896 60.7185V61.4097C68.0896 62.3182 67.8329 63.0094 67.2996 63.5032C66.7664 63.9969 66.0751 64.2536 65.2062 64.2536C64.3372 64.2536 63.6064 63.9969 63.093 63.5032C62.5795 63.0094 62.303 62.2984 62.303 61.4097V60.7382C62.303 59.889 62.5597 59.1978 63.093 58.6843V58.6645ZM65.2062 59.0793C64.7914 59.0793 64.4557 59.2373 64.2384 59.5532C64.0014 59.8692 63.9027 60.2642 63.9027 60.758V61.39C63.9027 61.8837 64.0212 62.2787 64.2384 62.5947C64.4557 62.9107 64.7914 63.0687 65.2259 63.0687C65.6604 63.0687 65.9764 62.9107 66.1936 62.5947C66.4109 62.2787 66.5294 61.8837 66.5294 61.39V60.758C66.5294 60.2642 66.4109 59.8692 66.1936 59.5532C65.9764 59.2373 65.6407 59.0793 65.2259 59.0793H65.2062Z" fill="#EFEFEF"/>
<path d="M72.7308 64.214C72.2963 64.214 71.9211 64.135 71.6051 63.9572C71.2891 63.7795 71.0719 63.5227 70.9336 63.2067H70.8546V66.1889H69.2747V58.0126H70.8151V59.0001H70.8941C71.0126 58.6644 71.2496 58.4076 71.5854 58.2299C71.9211 58.0521 72.2963 57.9534 72.7506 57.9534C73.4813 57.9534 74.054 58.1904 74.4885 58.6841C74.9033 59.1778 75.1205 59.8296 75.1205 60.6986V61.528C75.1205 62.3773 74.9033 63.0488 74.4885 63.5425C74.0738 64.0362 73.4813 64.2732 72.7506 64.2732L72.7308 64.214ZM72.1976 62.9895C72.6123 62.9895 72.9283 62.8513 73.1653 62.555C73.4023 62.2588 73.5011 61.8638 73.5011 61.3305V60.7973C73.5011 60.2641 73.3826 59.8493 73.1653 59.5531C72.9283 59.2568 72.6123 59.1186 72.1778 59.1186C71.7433 59.1186 71.4471 59.2568 71.2101 59.5333C70.9731 59.8098 70.8546 60.2048 70.8546 60.6788V61.4688C70.8546 61.923 70.9731 62.2785 71.2299 62.555C71.4669 62.8315 71.8026 62.9698 72.1976 62.9698V62.9895Z" fill="#EFEFEF"/>
<path d="M78.9321 64.2339C78.0434 64.2339 77.3324 63.9969 76.8189 63.5031C76.3054 63.0094 76.0487 62.3182 76.0487 61.4294V60.6987C76.0487 59.81 76.3054 59.1385 76.8387 58.625C77.3719 58.1115 78.0434 57.8745 78.8531 57.8745C79.6629 57.8745 80.3541 58.1313 80.8676 58.6447C81.3811 59.1582 81.6378 59.8297 81.6378 60.6987V61.4097H77.5892V61.7059C77.5892 62.1207 77.7077 62.4564 77.9644 62.6934C78.2212 62.9304 78.5371 63.0686 78.9321 63.0686C79.2481 63.0686 79.5049 63.0094 79.7221 62.8711C79.9394 62.7329 80.0579 62.5749 80.0974 62.3774H81.5786C81.5786 62.5354 81.5193 62.6934 81.4601 62.8711C81.3811 63.0291 81.2823 63.2069 81.1441 63.3649C81.0058 63.5229 80.8281 63.6809 80.6306 63.7994C80.4331 63.9179 80.1961 64.0364 79.8999 64.1154C79.6036 64.1944 79.2876 64.2339 78.9321 64.2339ZM77.5892 60.4617H80.1369V60.4025C80.1369 59.9877 80.0184 59.652 79.8011 59.3952C79.5641 59.1385 79.2679 59.02 78.8926 59.02C78.5174 59.02 78.2014 59.1385 77.9644 59.3952C77.7274 59.652 77.6089 59.9877 77.6089 60.4025V60.4617H77.5892Z" fill="#EFEFEF"/>
<path d="M82.9018 64.1354V57.9933H84.462V58.961H84.541C84.5805 58.8425 84.6398 58.724 84.699 58.6253C84.7583 58.5265 84.8768 58.408 84.9953 58.2895C85.1138 58.1711 85.2718 58.0921 85.4693 58.0131C85.6668 57.9341 85.884 57.9143 86.121 57.9143C86.3185 57.9143 86.4765 57.9143 86.6147 57.9538V59.277C86.4962 59.2375 86.2987 59.2178 86.0025 59.2178C85.5088 59.2178 85.1335 59.3363 84.8768 59.593C84.62 59.8498 84.4818 60.1855 84.4818 60.62V64.1354H82.8821H82.9018Z" fill="#EFEFEF"/>
<path d="M35.1474 75.9848H33.528L36.2534 68.085H38.1296L40.855 75.9848H39.1368L38.5048 73.9506H35.7794L35.1474 75.9848ZM37.1816 69.6057H37.1026L36.1151 72.8051H38.1691L37.1816 69.6057Z" fill="#EFEFEF"/>
<path d="M41.3685 73.2791V72.5088C41.3685 71.6596 41.6253 70.9881 42.1388 70.4944C42.6522 70.0006 43.3237 69.7439 44.1927 69.7439C44.9827 69.7439 45.6147 69.9414 46.0887 70.3561C46.5627 70.7709 46.7997 71.2646 46.7997 71.8768H45.3579C45.3382 71.6398 45.2197 71.4226 45.0419 71.2251C44.8642 71.0276 44.5877 70.9486 44.2322 70.9486C43.8175 70.9486 43.5212 71.0869 43.2842 71.3634C43.067 71.6399 42.9485 72.0348 42.9485 72.5088V73.2593C42.9485 73.7531 43.067 74.148 43.2842 74.4245C43.5015 74.701 43.8175 74.859 44.2322 74.859C44.9037 74.859 45.2789 74.5628 45.3777 73.99H46.8194C46.8194 74.6023 46.5824 75.096 46.1084 75.491C45.6344 75.886 45.0024 76.0835 44.173 76.0835C43.304 76.0835 42.6128 75.8268 42.119 75.333C41.6253 74.8393 41.3685 74.148 41.3685 73.2791Z" fill="#EFEFEF"/>
<path d="M49.7029 76.0637C49.0709 76.0637 48.5771 75.886 48.2019 75.5502C47.8266 75.2145 47.6292 74.7602 47.6292 74.1875C47.6292 73.6148 47.8266 73.1803 48.2216 72.8445C48.6166 72.5088 49.1696 72.3508 49.8806 72.3508H51.4211V71.7978C51.4211 71.5015 51.3223 71.2646 51.1446 71.1066C50.9668 70.9486 50.7101 70.8696 50.3743 70.8696C49.7818 70.8696 49.4264 71.0868 49.3474 71.5213H47.8661C47.9056 70.9683 48.1426 70.5338 48.5574 70.1981C48.9721 69.8623 49.6041 69.7043 50.4138 69.7043C50.7891 69.7043 51.1248 69.7438 51.4211 69.8228C51.7173 69.9018 51.9938 70.0203 52.2308 70.1783C52.4678 70.3363 52.6653 70.5536 52.7838 70.8301C52.9023 71.1066 52.9813 71.4423 52.9813 71.8175V75.9452H51.5001V75.1552H51.4211C51.2828 75.412 51.0656 75.6095 50.7891 75.7872C50.5126 75.9649 50.1373 76.0242 49.7029 76.0242V76.0637ZM50.2163 74.938C50.5521 74.938 50.8286 74.8392 51.0656 74.6417C51.3026 74.4442 51.4211 74.2072 51.4211 73.911V73.279H50.2163C49.8806 73.279 49.6239 73.358 49.4461 73.4963C49.2684 73.6543 49.1894 73.832 49.1894 74.0887C49.1894 74.3652 49.2881 74.5627 49.4856 74.7207C49.6831 74.8787 49.9201 74.938 50.2163 74.938Z" fill="#EFEFEF"/>
<path d="M56.5164 69.7636C56.9508 69.7636 57.3458 69.8624 57.6618 70.0401C57.9778 70.2179 58.2148 70.4746 58.3333 70.7906H58.4123V67.6899H59.9923V76.0045H58.4518V75.017H58.3728C58.2741 75.333 58.0568 75.5898 57.7211 75.7873C57.3853 75.9847 56.9903 76.0835 56.5361 76.0835C55.8251 76.0835 55.2326 75.8465 54.8179 75.3725C54.4032 74.8985 54.1859 74.227 54.1859 73.3976V72.4891C54.1859 71.6596 54.4032 71.0079 54.8376 70.5141C55.2721 70.0401 55.8449 69.8031 56.5756 69.8031L56.5164 69.7636ZM57.0496 70.9881C56.6546 70.9881 56.3386 71.1264 56.1016 71.4226C55.8646 71.6991 55.7659 72.1138 55.7659 72.6273V73.2198C55.7659 73.7333 55.8844 74.148 56.1214 74.4245C56.3584 74.7208 56.6744 74.859 57.0891 74.859C57.5038 74.859 57.8198 74.7208 58.0568 74.4443C58.2938 74.1678 58.4123 73.7728 58.4123 73.2791V72.4891C58.4123 72.0348 58.2938 71.6794 58.0371 71.4029C57.7803 71.1264 57.4643 70.9881 57.0693 70.9881H57.0496Z" fill="#EFEFEF"/>
<path d="M64.1002 76.0837C63.2115 76.0837 62.5005 75.8467 61.987 75.353C61.4735 74.8593 61.2168 74.168 61.2168 73.2793V72.5486C61.2168 71.6598 61.4735 70.9883 62.0068 70.4749C62.54 69.9614 63.2115 69.7244 64.0212 69.7244C64.831 69.7244 65.5222 69.9811 66.0357 70.4946C66.5492 71.0081 66.8059 71.6796 66.8059 72.5486V73.2595H62.7573V73.5558C62.7573 73.9705 62.8758 74.3063 63.1325 74.5433C63.3892 74.7803 63.7052 74.9185 64.1002 74.9185C64.4162 74.9185 64.673 74.8593 64.8902 74.721C65.1075 74.5828 65.2259 74.4248 65.2654 74.2273H66.7467C66.7467 74.3853 66.6874 74.5433 66.6282 74.721C66.5492 74.879 66.4504 75.0567 66.3122 75.2147C66.1739 75.3727 65.9962 75.5307 65.7987 75.6492C65.6012 75.7677 65.3642 75.8862 65.068 75.9652C64.7717 76.0442 64.4557 76.0837 64.1002 76.0837ZM62.7573 72.3116H65.3049V72.2523C65.3049 71.8376 65.1865 71.5018 64.9692 71.2451C64.7322 70.9883 64.436 70.8698 64.0607 70.8698C63.6855 70.8698 63.3695 70.9883 63.1325 71.2451C62.8955 71.5018 62.777 71.8376 62.777 72.2523V72.3116H62.7573Z" fill="#EFEFEF"/>
<path d="M67.991 75.9848V69.8426H69.5314V70.8499H69.6104C69.6499 70.7116 69.7092 70.5931 69.7882 70.4746C69.8672 70.3561 69.9659 70.2376 70.1042 70.1191C70.2424 70.0006 70.4004 69.9019 70.6177 69.8426C70.8349 69.7636 71.0719 69.7439 71.3484 69.7439C71.8026 69.7439 72.1779 69.8426 72.4939 70.0599C72.7901 70.2771 72.9876 70.5536 73.0864 70.8894H73.1456C73.2641 70.5734 73.5011 70.2969 73.8171 70.0796C74.1331 69.8624 74.5676 69.7439 75.0613 69.7439C75.6933 69.7439 76.2068 69.9216 76.5623 70.2574C76.9178 70.6129 77.0955 71.0869 77.0955 71.6794V75.965H75.5353V72.1533C75.5353 71.7781 75.4365 71.4819 75.2391 71.2844C75.0416 71.0869 74.7848 70.9881 74.4491 70.9881C74.1133 70.9881 73.8566 71.1066 73.6393 71.3239C73.4221 71.5411 73.3233 71.8571 73.3233 72.2323V75.965H71.8026V72.1731C71.8026 71.7781 71.7039 71.5016 71.5064 71.2844C71.3089 71.0671 71.0324 70.9684 70.7164 70.9684C70.4004 70.9684 70.1239 71.0869 69.9067 71.3041C69.6894 71.5213 69.5907 71.8176 69.5907 72.2126V75.965H68.0305L67.991 75.9848Z" fill="#EFEFEF"/>
<path d="M83.988 69.8428C83.9485 70.0008 83.8695 70.1785 83.7905 70.4155C83.7115 70.6525 83.6325 70.8895 83.5338 71.166C83.4548 71.4227 83.356 71.719 83.2375 72.0152C83.119 72.3115 83.0203 72.6077 82.9215 72.904C82.8228 73.2002 82.724 73.4964 82.6055 73.7729C82.5068 74.0494 82.408 74.3259 82.329 74.5629C82.25 74.7999 82.171 75.0172 82.1118 75.2147C82.0525 75.4121 81.9933 75.5504 81.9538 75.6689L81.8946 75.8269L81.7563 76.1824C81.4798 76.8934 81.1441 77.3871 80.7293 77.6833C80.3146 77.9796 79.7813 78.1376 79.0901 78.1376C78.7346 78.1376 78.4581 78.1178 78.2606 78.0783V76.9724C78.3989 76.9921 78.5569 77.0119 78.7741 77.0119C79.1296 77.0119 79.4061 76.9526 79.5839 76.8144C79.7616 76.6761 79.8998 76.4589 79.9591 76.1626L79.9986 76.0046L77.8064 69.8625H79.5444L80.8873 74.6814H80.9466L82.3093 69.8625H83.9683L83.988 69.8428Z" fill="#EFEFEF"/>
<path d="M68.9587 97.3141H67.438L67.1615 98.3214H70.1831C71.1904 98.3214 71.8026 97.6104 72.0001 96.8204C72.2173 96.0304 71.8421 95.3984 70.8349 95.3984H64.7718L63.7053 99.3878C63.5868 99.8223 63.8435 100.178 64.278 100.178H70.2819L70.5584 99.1706H66.253C66.253 99.1706 66.1345 99.1114 66.1542 99.0521L66.8652 96.4254H69.3339C69.5709 96.4254 69.6894 96.6032 69.6302 96.8402C69.5709 97.0771 69.3734 97.3339 68.9389 97.3339L68.9587 97.3141Z" fill="#EFEFEF"/>
<path d="M74.9427 96.5439C74.9427 96.5439 75.0415 96.4254 75.1007 96.4254H79.2876L79.5641 95.4182H72.8888L71.8223 99.3681C71.7038 99.8224 71.9803 100.198 72.4543 100.198H78.2804L78.5569 99.1904H74.449C74.3305 99.1904 74.2515 99.0916 74.291 98.9929L74.9427 96.5834V96.5439Z" fill="#EFEFEF"/>
<path d="M84.9558 95.3984L84.5016 97.1167H82.1514L82.6056 95.3984H80.2356L78.9717 100.158H81.3219L81.8749 98.1436H84.2251L83.6721 100.158H86.042L87.3257 95.3984H84.9558Z" fill="#EFEFEF"/>
<path d="M39.1961 95.6354C38.9986 95.4774 38.6826 95.3984 38.2678 95.3984H32.2837L31 100.158H33.3699L34.3772 96.4057H36.6286C37.0434 96.4057 37.1816 96.6822 37.0829 97.0377C36.9841 97.3734 36.6286 97.6696 36.2929 97.6696H34.7524L34.4759 98.6769H37.3594C38.4061 98.6769 39.1961 97.9461 39.4331 97.0377C39.5911 96.4452 39.5516 95.9317 39.1566 95.6354H39.1961Z" fill="#EFEFEF"/>
<path d="M46.9379 95.3984H41.7042C40.8155 95.3984 40.2823 95.8922 40.1045 96.6032L39.4923 98.9139C39.2948 99.6248 39.7293 100.198 40.4205 100.198H45.6541C46.6021 100.198 47.0761 99.6248 47.2736 98.9139L47.8661 96.6822C48.0636 95.9712 47.8661 95.3984 46.9379 95.3984ZM45.4566 96.8402L44.9432 98.7361C44.8839 98.9731 44.6469 99.1706 44.4099 99.1706H42.198C41.961 99.1706 41.8227 98.9731 41.882 98.7361L42.3955 96.8402C42.4547 96.6032 42.6917 96.4057 42.9287 96.4057H45.1407C45.4566 96.4057 45.5159 96.6032 45.4566 96.8402Z" fill="#EFEFEF"/>
<path d="M64.2385 95.3984H56.477L56.2202 96.4057H58.9457L57.9384 100.178H60.3479L61.3551 96.4057H63.962L64.2385 95.3984Z" fill="#EFEFEF"/>
<path d="M48.3993 96.8208C48.1821 97.6108 48.6561 98.2428 49.446 98.2428H52.685C52.9417 98.2428 53.0997 98.4403 53.0207 98.6971C52.9615 98.9538 52.764 99.1513 52.4282 99.1513H48.0438L47.7673 100.159H53.5145C54.5809 100.159 55.1734 99.5068 55.3907 98.6773C55.6079 97.8676 55.3907 97.1961 54.3044 97.1961H51.0655C50.8483 97.1961 50.71 97.0183 50.7693 96.7813L50.8878 96.3666H55.6869L55.9634 95.3594H48.7943L48.4191 96.7813L48.3993 96.8208Z" fill="#EFEFEF"/>
<path d="M72.3556 85.8992H45.9702V86.4127H72.3556V85.8992Z" fill="#EFEFEF"/>
</g>
<defs>
<clipPath id="clip0_921_18518">
<rect width="118" height="118" fill="white" transform="translate(0 0.197754)"/>
</clipPath>
</defs>
</svg>
