<svg width="118" height="119" viewBox="0 0 118 119" fill="none" xmlns="http://www.w3.org/2000/svg">
<g clip-path="url(#clip0_1_243)">
<path d="M95.3813 0.0256348H22.6187C10.1267 0.0256348 0 10.1524 0 22.6443V95.407C0 107.899 10.1267 118.026 22.6187 118.026H95.3813C107.873 118.026 118 107.899 118 95.407V22.6443C118 10.1524 107.873 0.0256348 95.3813 0.0256348Z" fill="#2396ED"/>
<path fill-rule="evenodd" clip-rule="evenodd" d="M73.0419 93.931V105.46C74.9169 106.417 77.1308 107.135 79.7039 107.614C82.2769 108.093 84.9696 108.332 87.8019 108.332C90.6342 108.332 93.1873 108.073 95.6805 107.534C98.1738 106.996 100.348 106.138 102.223 104.921C104.098 103.704 105.574 102.129 106.671 100.154C107.768 98.1795 108.306 95.766 108.306 92.8938C108.306 90.7995 107.987 88.9645 107.369 87.3887C106.751 85.813 105.833 84.4168 104.656 83.1801C103.479 81.9634 102.063 80.8465 100.428 79.8891C98.7921 78.9317 96.9172 77.9942 94.8628 77.1365C93.3469 76.5182 91.9906 75.8999 90.7938 75.3215C89.597 74.7231 88.5599 74.1247 87.7221 73.5263C86.8844 72.908 86.2262 72.2697 85.7674 71.5716C85.3087 70.8935 85.0893 70.1156 85.0893 69.238C85.0893 68.4401 85.2887 67.7221 85.7076 67.0838C86.1265 66.4455 86.6849 65.907 87.4429 65.4482C88.1809 64.9895 89.0984 64.6304 90.1755 64.3911C91.2525 64.1318 92.4693 64.0121 93.7857 64.0121C94.7431 64.0121 95.7603 64.0919 96.8374 64.2315C97.9145 64.3711 98.9916 64.5906 100.069 64.8897C101.146 65.1889 102.203 65.5679 103.22 66.0267C104.237 66.4854 105.195 67.004 106.052 67.6223V56.8316C104.297 56.1534 102.382 55.6548 100.308 55.3357C98.2336 55.0165 95.8401 54.8569 93.1474 54.8569C90.4547 54.8569 87.8019 55.1561 85.3486 55.7346C82.8952 56.313 80.7411 57.2505 78.8661 58.4871C77.0112 59.7437 75.5352 61.3394 74.4381 63.2741C73.3611 65.2089 72.8225 67.5226 72.8225 70.2153C72.8225 73.646 73.8198 76.578 75.7945 79.0114C77.7691 81.4448 80.7809 83.4993 84.83 85.1747C86.4256 85.8329 87.9016 86.4513 89.258 87.0895C90.6143 87.7278 91.811 88.3661 92.8083 89.0442C93.8056 89.7224 94.6035 90.4405 95.1619 91.2383C95.7404 92.0361 96.0196 92.9337 96.0196 93.9509C96.0196 94.6889 95.8401 95.387 95.4811 96.0253C95.1221 96.6636 94.5636 97.2221 93.8455 97.6808C93.1275 98.1396 92.19 98.5185 91.1129 98.7778C90.0159 99.0371 88.7394 99.1768 87.2634 99.1768C84.7701 99.1768 82.2769 98.7379 79.8235 97.8603C77.3702 96.9827 75.0964 95.6663 73.002 93.911L73.0419 93.931ZM53.6545 65.5081H68.4544V56.0338H27.2062V65.5081H41.9263V107.674H53.6545V65.5081Z" fill="white"/>
</g>
<defs>
<clipPath id="clip0_1_243">
<rect width="118" height="118" fill="white" transform="translate(0 0.0256348)"/>
</clipPath>
</defs>
</svg>
