<svg width="118" height="119" viewBox="0 0 118 119" fill="none" xmlns="http://www.w3.org/2000/svg">
<g clip-path="url(#clip0_1_215)">
<path d="M95.3813 0.0256348H22.6187C10.1267 0.0256348 0 10.1524 0 22.6443V95.407C0 107.899 10.1267 118.026 22.6187 118.026H95.3813C107.873 118.026 118 107.899 118 95.407V22.6443C118 10.1524 107.873 0.0256348 95.3813 0.0256348Z" fill="#292C31"/>
<path d="M58.5014 16.102C54.9909 16.102 51.6599 16.4212 48.7079 16.9398C40.0514 18.4756 38.4757 21.6669 38.4757 27.5909V35.3897H58.9601V37.9827H30.7965C24.8526 37.9827 19.6268 41.553 18.0112 48.3745C16.1362 56.1734 16.0565 61.0402 18.0112 69.198C19.4672 75.2616 22.9378 79.5899 28.9016 79.5899H35.9425V70.2352C35.9425 63.4736 41.7867 57.5097 48.7279 57.5097H69.1924C74.8769 57.5097 79.4246 52.8224 79.4246 47.098V27.5909C79.4246 22.0459 74.7373 17.8772 69.1924 16.9398C65.6819 16.3613 62.0318 16.0821 58.5213 16.102H58.5014ZM47.4314 22.385C49.5456 22.385 51.2809 24.1402 51.2809 26.2944C51.2809 28.4485 49.5456 30.1838 47.4314 30.1838C45.3171 30.1838 43.5818 28.4485 43.5818 26.2944C43.5818 24.1402 45.2972 22.385 47.4314 22.385Z" fill="#4182AF"/>
<path d="M81.9577 38.0027V47.098C81.9577 54.1389 75.974 60.0828 69.1724 60.0828H48.7079C43.1031 60.0828 38.4757 64.8698 38.4757 70.4945V90.0016C38.4757 95.5466 43.3026 98.8177 48.7079 100.413C55.1903 102.328 61.4135 102.667 69.1724 100.413C74.3185 98.9175 79.4047 95.9256 79.4047 90.0016V82.2028H58.9402V79.6098H89.6369C95.5808 79.6098 97.8147 75.4611 99.8692 69.218C102.003 62.7954 101.924 56.6321 99.8692 48.3945C98.3932 42.4705 95.5808 38.0027 89.6369 38.0027H81.9577ZM70.449 87.3887C72.5632 87.3887 74.2985 89.124 74.2985 91.2782C74.2985 93.4323 72.5832 95.1876 70.449 95.1876C68.3147 95.1876 66.5994 93.4323 66.5994 91.2782C66.5994 89.124 68.3347 87.3887 70.449 87.3887Z" fill="#FFD400"/>
</g>
<defs>
<clipPath id="clip0_1_215">
<rect width="118" height="118" fill="white" transform="translate(0 0.0256348)"/>
</clipPath>
</defs>
</svg>
