<svg width="118" height="119" viewBox="0 0 118 119" fill="none" xmlns="http://www.w3.org/2000/svg">
<g clip-path="url(#clip0_921_19187)">
<circle cx="59" cy="59.8394" r="59" fill="#F05239"/>
<path d="M57.1493 37.1076C53.8418 39.4352 50.0967 42.0603 48.0841 46.4179C44.6015 54.0306 55.2243 62.3258 55.6793 62.6758C55.7843 62.7633 55.9068 62.7983 56.0293 62.7983C56.1693 62.7983 56.2918 62.7458 56.3968 62.6583C56.6068 62.4833 56.6593 62.1858 56.5368 61.9408C56.5018 61.8708 52.6867 54.4681 52.8267 49.1479C52.8792 47.2929 55.4693 45.1928 58.1994 42.9703C60.7019 40.9402 63.5545 38.6302 65.217 35.9351C68.8746 30.0025 64.8145 24.1573 64.762 24.0873C64.6045 23.8598 64.307 23.7723 64.0445 23.8948C63.782 23.9998 63.642 24.2798 63.712 24.5598C63.712 24.5948 64.517 28.4624 62.312 32.435C61.4019 34.0801 59.4244 35.4801 57.1143 37.1076H57.1493Z" fill="white"/>
<path d="M71.0622 39.7325C71.2897 39.5575 71.3597 39.2425 71.2197 38.98C71.0797 38.7175 70.7647 38.6125 70.5022 38.7175C69.9421 38.9275 56.7468 44.0201 56.7468 50.1628C56.7468 54.3979 58.5494 56.6379 59.8794 58.2655C60.4044 58.913 60.8419 59.4555 60.9994 59.928C61.4194 61.293 60.4394 63.7431 60.0194 64.5831C59.8969 64.8281 59.9669 65.1081 60.1594 65.2831C60.2644 65.3706 60.4044 65.4231 60.5444 65.4231C60.6669 65.4231 60.7719 65.3881 60.8769 65.3181C61.1044 65.1606 66.4246 61.398 65.462 56.8829C65.112 55.1679 64.2545 53.9079 63.5195 52.7878C62.3645 51.0728 61.5244 49.8303 62.802 47.5377C64.2895 44.8601 71.0097 39.785 71.0797 39.7325H71.0622Z" fill="white"/>
<path d="M36.7438 65.5285C36.5163 66.2111 36.6213 66.8761 37.0588 67.4711C38.4938 69.4486 43.5514 70.5512 51.3216 70.5512C52.3716 70.5512 53.4917 70.5337 54.6292 70.4812C67.0545 70.0437 71.6571 66.1761 71.8496 66.0011C72.0596 65.8261 72.1121 65.5286 71.9896 65.2835C71.8671 65.0385 71.5871 64.916 71.3246 64.986C66.9495 66.1761 58.7768 66.5961 53.1242 66.5961C46.789 66.5961 43.5514 66.1411 42.7639 65.8086C43.1664 65.2485 45.669 64.251 48.7666 63.656C49.0641 63.6035 49.2741 63.3235 49.2391 63.026C49.2041 62.7285 48.9591 62.501 48.6616 62.501C46.8415 62.501 37.7413 62.641 36.7788 65.5285H36.7438Z" fill="white"/>
<path d="M78.2899 61.5381C75.7348 61.5381 73.3022 62.8156 73.1972 62.8681C72.9522 62.9906 72.8472 63.2706 72.8997 63.5331C72.9697 63.7956 73.1972 63.9706 73.4597 63.9706C73.5122 63.9706 78.9199 64.0231 79.4099 67.1032C79.8474 69.7633 74.2998 74.0859 72.1122 75.5209C71.8847 75.6784 71.7797 75.9759 71.9022 76.2384C71.9897 76.466 72.2172 76.606 72.4447 76.606C72.4797 76.606 72.5322 76.606 72.5672 76.606C73.0922 76.501 85.2025 73.8234 83.925 66.7707C83.1375 62.4481 80.4249 61.5381 78.2899 61.5381Z" fill="white"/>
<path d="M69.9771 74.6813C70.0121 74.4538 69.9246 74.2263 69.7321 74.0863L66.8271 72.0562C66.6871 71.9512 66.5121 71.9337 66.337 71.9687C66.302 71.9687 63.2745 72.7738 58.8644 73.2638C57.1143 73.4563 55.1543 73.5613 53.1942 73.5613C48.7841 73.5613 45.8966 73.0363 45.4765 72.6688C45.424 72.5638 45.4415 72.5113 45.4415 72.4938C45.5115 72.2838 45.9316 72.0212 46.1941 71.9337C46.4916 71.8287 46.6491 71.5137 46.5441 71.2162C46.4566 70.9187 46.1416 70.7437 45.8441 70.8137C42.9215 71.5137 41.5039 72.4938 41.6089 73.7363C41.8015 75.9238 46.8766 77.0614 51.1642 77.3414C51.7767 77.3764 52.4417 77.4114 53.1417 77.4114C60.2819 77.4114 69.4171 75.1713 69.5221 75.1538C69.7496 75.1013 69.9071 74.9263 69.9596 74.6988L69.9771 74.6813Z" fill="white"/>
<path d="M48.0841 79.3887C48.3116 79.2487 48.3991 78.9687 48.3291 78.7237C48.2591 78.4787 48.0141 78.3037 47.7516 78.3037C47.3666 78.3037 43.9365 78.4612 43.6915 80.6488C43.6215 81.2963 43.814 81.8913 44.2515 82.4163C45.4766 83.8689 48.8017 84.7439 54.4193 85.0764C55.0843 85.1114 55.7493 85.1289 56.4143 85.1289C63.537 85.1289 68.3496 82.8888 68.5421 82.8013C68.7346 82.7138 68.8571 82.5213 68.8746 82.2938C68.8921 82.0663 68.7871 81.8738 68.5946 81.7688L64.9195 79.5287C64.797 79.4587 64.6395 79.4237 64.4995 79.4587C64.482 79.4587 62.137 79.9488 58.6194 80.4213C57.9544 80.5088 57.1144 80.5613 56.1343 80.5613C52.6167 80.5613 48.7142 79.9838 47.9616 79.6162C47.9616 79.5462 47.9616 79.4587 48.0666 79.3712L48.0841 79.3887Z" fill="white"/>
<path d="M53.0892 91.8839C69.4171 91.8839 78.1849 88.9613 79.8649 87.1412C80.4599 86.4937 80.5299 85.8812 80.4774 85.4787C80.3549 84.4987 79.4624 83.8862 79.3574 83.8337C79.1124 83.6762 78.7799 83.7112 78.5874 83.9387C78.3949 84.1662 78.3949 84.4812 78.5874 84.7087C78.6924 84.8487 78.7449 85.0587 78.4474 85.3562C77.7648 85.9862 70.9747 87.8938 59.6344 88.4713C58.0769 88.5588 56.4493 88.5938 54.7868 88.5938C44.6365 88.5938 37.2164 87.2112 36.2363 86.3887C36.6038 85.8462 39.2464 84.9887 42.029 84.4987C42.344 84.4462 42.554 84.1487 42.5015 83.8337C42.449 83.5187 42.169 83.3086 41.8365 83.3436C41.749 83.3436 41.4865 83.3787 41.189 83.3962C36.5863 83.6762 31.2487 84.3062 30.9687 86.6862C30.8812 87.4037 31.0912 88.0688 31.6162 88.6463C32.8588 90.0463 36.4463 91.9014 53.0717 91.9014L53.0892 91.8839Z" fill="white"/>
<path d="M83.0675 87.6489C82.84 87.5439 82.56 87.5964 82.3849 87.7889C82.3674 87.8064 79.8999 90.3789 72.5322 91.884C69.7146 92.444 64.3945 92.7415 56.7643 92.7415C49.1341 92.7415 41.8365 92.444 41.7665 92.444C41.469 92.444 41.2064 92.654 41.1539 92.9515C41.1189 93.249 41.3114 93.529 41.5915 93.599C41.6615 93.6165 49.2916 95.4016 59.7219 95.4016C64.727 95.4016 69.5921 94.9991 74.1947 94.194C82.77 92.689 83.365 88.4364 83.3825 88.2614C83.4175 88.0164 83.2775 87.7714 83.05 87.6664L83.0675 87.6489Z" fill="white"/>
</g>
<defs>
<clipPath id="clip0_921_19187">
<rect width="118" height="118" fill="white" transform="translate(0 0.907227)"/>
</clipPath>
</defs>
</svg>
