<svg width="118" height="119" viewBox="0 0 118 119" fill="none" xmlns="http://www.w3.org/2000/svg">
<g clip-path="url(#clip0_1_301)">
<path d="M95.3813 0.0256348H22.6187C10.1267 0.0256348 0 10.1524 0 22.6443V95.407C0 107.899 10.1267 118.026 22.6187 118.026H95.3813C107.873 118.026 118 107.899 118 95.407V22.6443C118 10.1524 107.873 0.0256348 95.3813 0.0256348Z" fill="#6082BB"/>
<path d="M32.7712 64.0321C35.2245 64.0321 37.0596 63.5733 38.2164 62.6757C39.3533 61.7782 40.1512 60.2224 40.57 58.0682C40.949 56.0337 40.8094 54.6375 40.1312 53.8596C39.4331 53.0817 37.9372 52.6828 35.6833 52.6828H31.754L29.5799 64.0321H32.7712ZM19.946 78.0141C19.7665 78.0141 19.587 77.9344 19.4673 77.7947C19.3476 77.6551 19.3077 77.4556 19.3476 77.2761L25.112 47.1778C25.1718 46.8786 25.4112 46.6791 25.7103 46.6791H38.1167C42.0261 46.6791 44.9183 47.7562 46.7533 49.8705C48.5883 52.0047 49.1468 54.9766 48.4287 58.7264C48.1296 60.2623 47.6309 61.6784 46.9328 62.935C46.2347 64.2116 45.3172 65.3884 44.1803 66.4256C42.8439 67.7021 41.308 68.6396 39.6525 69.1781C38.017 69.7166 35.9426 69.9959 33.4494 69.9959H28.423L26.9869 77.4955C26.927 77.7947 26.6877 77.9942 26.3885 77.9942H19.926L19.946 78.0141Z" fill="white"/>
<path d="M63.7271 70.0158C63.5476 70.0158 63.3681 69.936 63.2683 69.7964C63.1487 69.6568 63.1088 69.4573 63.1487 69.2778L65.6619 55.954C65.9012 54.6974 65.8414 53.7799 65.5023 53.4009C65.2829 53.1615 64.6446 52.7626 62.7697 52.7626H58.222L55.0506 69.4972C54.9908 69.7964 54.7514 69.9959 54.4523 69.9959H48.1294C47.9499 69.9959 47.7704 69.9161 47.6706 69.7765C47.551 69.6369 47.5111 69.4374 47.551 69.2579L53.2356 39.1595C53.2954 38.8603 53.5347 38.6609 53.8339 38.6609H60.1568C60.3363 38.6609 60.5158 38.7406 60.6155 38.8803C60.7352 39.0199 60.7751 39.2193 60.7352 39.3989L59.3589 46.6592H64.2656C67.9955 46.6592 70.5287 47.3373 72.0047 48.7335C73.5006 50.1497 73.9793 52.4235 73.4009 55.4952L70.7481 69.4972C70.6882 69.7964 70.4489 69.9959 70.1497 69.9959H63.7271V70.0158Z" fill="white"/>
<path d="M85.0294 64.0321C87.5825 64.0321 89.4774 63.5733 90.6741 62.6757C91.8709 61.7782 92.6887 60.2224 93.1075 58.0682C93.5064 56.0337 93.3469 54.6375 92.6488 53.8596C91.9307 53.0817 90.3749 52.6828 88.0213 52.6828H83.9524L81.6985 64.0321H85.0095H85.0294ZM71.7255 78.0141C71.546 78.0141 71.3665 77.9344 71.2468 77.7947C71.1271 77.6551 71.0872 77.4556 71.1072 77.2761L77.091 47.1778C77.1508 46.8786 77.4101 46.6791 77.7093 46.6791H90.5943C94.6434 46.6791 97.6552 47.7562 99.5501 49.8705C101.465 52.0047 102.043 54.9766 101.305 58.7264C101.006 60.2623 100.488 61.6784 99.7495 62.935C99.0315 64.2116 98.0741 65.3884 96.8973 66.4256C95.501 67.7021 93.9253 68.6396 92.21 69.1781C90.5146 69.7166 88.3604 69.9959 85.7674 69.9959H80.5416L79.0457 77.4955C78.9858 77.7947 78.7265 77.9942 78.4273 77.9942H71.7255V78.0141Z" fill="white"/>
</g>
<defs>
<clipPath id="clip0_1_301">
<rect width="118" height="118" fill="white" transform="translate(0 0.0256348)"/>
</clipPath>
</defs>
</svg>
