<svg width="118" height="119" viewBox="0 0 118 119" fill="none" xmlns="http://www.w3.org/2000/svg">
<g clip-path="url(#clip0_1_326)">
<path d="M95.3813 0.0933838H22.6187C10.1267 0.0933838 0 10.2201 0 22.712V95.4747C0 107.967 10.1267 118.093 22.6187 118.093H95.3813C107.873 118.093 118 107.967 118 95.4747V22.712C118 10.2201 107.873 0.0933838 95.3813 0.0933838Z" fill="#222C37"/>
<path d="M88.4402 36.8139L63.0091 21.7148C61.7924 20.9968 60.3962 20.6178 59 20.6178C57.6038 20.6178 56.2076 20.9968 54.9909 21.7148L29.5598 36.8139C27.0666 38.2899 25.5308 41.0424 25.5308 43.9944V74.1726C25.5308 77.1246 27.0666 79.8771 29.5598 81.3531L54.9909 96.4521C56.2076 97.1702 57.6038 97.5492 59 97.5492C59.4588 97.5492 59.8976 97.4893 60.3364 97.4295C59 97.0306 58.1224 95.6144 58.1224 93.4603V63.8206C58.1224 60.2104 60.3364 58.2358 63.3283 56.4805L87.383 41.6208C89.597 40.3244 91.4919 40.823 92.3496 42.6181C91.9506 40.2047 90.5345 38.0505 88.4402 36.8139Z" fill="#FEFEFE"/>
<path d="M94.2444 44.0143C94.2444 42.8973 94.045 41.8003 93.7059 40.7631C92.9479 38.4893 91.4321 36.5147 89.3377 35.278L77.1907 28.0576L63.9067 20.179C62.3908 19.2814 60.6954 18.8226 59 18.8226C57.3046 18.8226 55.6092 19.2814 54.0933 20.179L43.5419 26.442L28.6822 35.2581C26.8472 36.3351 25.451 37.9906 24.6332 39.9055C24.5933 39.9852 24.5534 40.0451 24.5335 40.1249C24.2143 40.9227 23.975 41.7804 23.8753 42.658C23.8154 43.0968 23.7955 43.5356 23.7955 43.9944V74.1725C23.7955 74.6313 23.8154 75.0701 23.8753 75.5089C24.2742 78.5806 26.0294 81.3331 28.7022 82.9088L39.9517 89.5907L54.1332 98.0079C54.4124 98.1675 54.7116 98.3071 54.9909 98.4467C55.5095 98.6861 56.048 98.9055 56.5865 99.0451C57.3844 99.2645 58.2022 99.3642 59.0199 99.3642C60.2965 99.3642 61.5531 99.1049 62.7498 98.6063C63.1488 98.4467 63.5277 98.2472 63.9067 98.0079L89.3377 82.9088C91.1528 81.8318 92.549 80.1962 93.3668 78.3013C93.4067 78.2215 93.4466 78.1418 93.4865 78.062C93.5064 78.0021 93.5264 77.9224 93.5663 77.8426C94.0051 76.6857 94.2444 75.4491 94.2444 74.1925V44.0143ZM69.6511 82.4102L69.691 84.5843C69.691 84.8436 69.5314 85.1428 69.312 85.2425L68.0355 85.9805C67.836 86.0802 67.6565 85.9606 67.6565 85.7013V83.5671C66.5396 84.0258 65.4226 84.1255 64.7045 83.8463C64.5649 83.7865 64.5051 83.587 64.5649 83.3676L65.0237 81.4129C65.0636 81.2533 65.1433 81.1137 65.263 81.014C65.3029 80.9741 65.3428 80.9541 65.3827 80.9342C65.4625 80.8943 65.5223 80.8943 65.5822 80.9143C66.3401 81.1735 67.3374 81.0539 68.2748 80.5752C69.4716 79.9768 70.2694 78.7401 70.2694 77.5234C70.2694 76.4264 69.6711 75.9677 68.215 75.9477C66.36 75.9477 64.6447 75.5887 64.6248 72.8761C64.6048 70.6421 65.7617 68.3084 67.6166 66.8324V64.6384C67.5967 64.3791 67.7563 64.0799 67.9757 63.9602L69.2123 63.1624C69.4118 63.0627 69.5913 63.1823 69.5913 63.4616V65.6556C70.5287 65.2966 71.3266 65.1969 72.0446 65.3564C72.2042 65.3963 72.264 65.6157 72.2042 65.8551L71.7255 67.7898C71.6856 67.9295 71.6058 68.089 71.5061 68.1688C71.4662 68.2087 71.4263 68.2486 71.3864 68.2685C71.3266 68.3084 71.2667 68.3084 71.187 68.3084C70.8479 68.2287 70.07 68.0691 68.8333 68.6874C67.5368 69.3456 67.098 70.4626 67.098 71.3003C67.098 72.2976 67.6166 72.5968 69.3918 72.6367C71.7454 72.6766 72.7627 73.6938 72.7826 76.0674C72.8026 78.3811 71.5659 80.8943 69.6711 82.4102H69.6511ZM82.975 78.7601C82.975 78.9595 82.955 79.1391 82.7755 79.2388L76.3529 83.1482C76.1934 83.2479 76.0538 83.1482 76.0538 82.9687V81.3132C76.0538 81.1137 76.1734 80.994 76.3529 80.8943L82.6758 77.1046C82.8354 77.0049 82.975 77.1046 82.975 77.2841V78.7401V78.7601ZM87.383 41.6408L63.3283 56.5005C60.3364 58.2557 58.1224 60.2303 58.1224 63.8405V93.4802C58.1224 95.6543 59 97.0505 60.3364 97.4494C59.8976 97.5292 59.4588 97.5691 59 97.5691C57.5838 97.5691 56.2076 97.1901 54.9909 96.4721L29.5598 81.373C27.0666 79.897 25.5308 77.1445 25.5308 74.1925V44.0143C25.5308 41.0623 27.0666 38.3098 29.5598 36.8338L54.9909 21.7347C56.2076 21.0167 57.6038 20.6377 59 20.6377C60.3962 20.6377 61.7924 21.0167 63.0091 21.7347L88.4402 36.8338C90.5345 38.0704 91.9506 40.2246 92.3496 42.638C91.5118 40.8429 89.597 40.3443 87.383 41.6408Z" fill="#222C37"/>
<path d="M82.6758 77.1045L76.353 80.8943C76.1934 80.994 76.0538 81.0937 76.0538 81.3131V82.9686C76.0538 83.1681 76.1934 83.2479 76.353 83.1481L82.7755 79.2387C82.9351 79.139 82.975 78.9595 82.975 78.76V77.304C82.975 77.1045 82.8354 77.0247 82.6758 77.1245V77.1045Z" fill="#47B353"/>
<path d="M69.3719 72.6367C67.6166 72.5968 67.098 72.2976 67.0781 71.3003C67.0781 70.4625 67.5169 69.3456 68.8134 68.6874C70.05 68.069 70.8279 68.2286 71.167 68.3084C71.2269 68.3084 71.2867 68.3084 71.3665 68.2685C71.4064 68.2486 71.4463 68.2087 71.4861 68.1688C71.5859 68.069 71.6657 67.9294 71.7056 67.7898L72.1843 65.855C72.2441 65.5957 72.1843 65.3963 72.0247 65.3564C71.3066 65.1968 70.5088 65.2966 69.5913 65.6556V63.4615C69.5713 63.2022 69.3918 63.0626 69.1924 63.1623L67.9557 63.9602C67.7363 64.0599 67.5768 64.3591 67.5768 64.6383V66.8324C65.7617 68.3084 64.5849 70.6421 64.6248 72.876C64.6447 75.5887 66.38 75.9676 68.215 75.9477C69.6711 75.9477 70.2694 76.4264 70.2694 77.5234C70.2694 78.7401 69.4716 79.9568 68.2749 80.5751C67.3374 81.0538 66.3401 81.1735 65.5822 80.9142C65.5223 80.8943 65.4425 80.9142 65.3827 80.9341C65.3428 80.9541 65.3029 80.974 65.263 81.0139C65.1434 81.1137 65.0636 81.2732 65.0237 81.4129L64.5649 83.3676C64.5051 83.587 64.5649 83.7864 64.7045 83.8463C65.4226 84.1255 66.5396 84.0258 67.6366 83.567V85.7012C67.6565 85.9605 67.836 86.0802 68.0355 85.9805L69.312 85.2425C69.5115 85.1427 69.691 84.8436 69.691 84.5843L69.6511 82.4102C71.546 80.8743 72.7826 78.3811 72.7627 76.0673C72.7427 73.6938 71.7255 72.6765 69.3719 72.6367Z" fill="#FEFEFE"/>
</g>
<defs>
<clipPath id="clip0_1_326">
<rect width="118" height="118" fill="white" transform="translate(0 0.0933838)"/>
</clipPath>
</defs>
</svg>
