<svg width="118" height="119" viewBox="0 0 118 119" fill="none" xmlns="http://www.w3.org/2000/svg">
<g clip-path="url(#clip0_921_19791)">
<circle cx="59" cy="59.0933" r="59" fill="#F7F7FA"/>
<path d="M40.4196 52.4106V50.7688C40.4196 48.5507 41.0483 46.8216 42.3058 45.5641C43.5633 44.3241 45.3099 43.6953 47.5804 43.6953C49.8509 43.6953 51.58 44.3241 52.8375 45.5641C54.095 46.8216 54.7237 48.5507 54.7237 50.7688V52.4106C54.7237 54.6112 54.095 56.3403 52.8549 57.5629C51.6149 58.8029 49.8509 59.4142 47.5978 59.4142C45.3448 59.4142 43.5808 58.7854 42.3233 57.5454C41.0658 56.3054 40.437 54.5937 40.437 52.3931L40.4196 52.4106ZM44.9256 50.7339V52.3931C44.9256 53.5109 45.1527 54.3667 45.6243 54.9954C46.0784 55.6067 46.7246 55.9211 47.5629 55.9211C48.4013 55.9211 49.03 55.6067 49.5016 54.9954C49.9557 54.3842 50.2002 53.5109 50.2002 52.3931V50.7339C50.2002 49.6161 49.9731 48.7603 49.5016 48.1315C49.03 47.5028 48.4013 47.2059 47.5629 47.2059C46.7246 47.2059 46.0784 47.5202 45.6243 48.1315C45.1702 48.7428 44.9256 49.6161 44.9256 50.7339Z" fill="#00977F"/>
<path d="M55.6493 55.991C55.6493 55.4845 55.8239 55.0653 56.1558 54.7335C56.4876 54.4016 56.8893 54.227 57.3609 54.227C57.9198 54.227 58.5311 54.454 59.1948 54.9256C60.2252 55.6766 61.2382 56.0434 62.2163 56.0434C63.631 56.0434 64.3296 55.6242 64.3296 54.7859C64.3296 54.454 64.155 54.1746 63.8231 53.965C63.4738 53.7554 62.9149 53.5633 62.129 53.4236L60.1728 53.0393C58.7057 52.7599 57.6054 52.2534 56.8893 51.5198C56.1733 50.7863 55.8065 49.8257 55.8065 48.6031C55.8065 47.0836 56.3654 45.896 57.4832 45.0052C58.6009 44.1319 60.1204 43.6953 62.0416 43.6953C63.1245 43.6953 64.12 43.835 65.0457 44.1319C65.9714 44.4289 66.7049 44.8131 67.2289 45.3196C67.8751 45.896 68.1895 46.5247 68.1895 47.1884C68.1895 47.6425 68.0323 48.0267 67.7179 48.3062C67.4035 48.6031 66.9844 48.7428 66.4779 48.7428C65.9714 48.7428 65.395 48.5332 64.8012 48.0791C64.3471 47.7298 63.9104 47.4678 63.4738 47.3107C63.0546 47.1535 62.5831 47.0661 62.094 47.0661C61.5351 47.0661 61.0985 47.1709 60.7841 47.3805C60.4523 47.5901 60.2951 47.8696 60.2951 48.2363C60.2951 48.9699 60.9762 49.4589 62.356 49.686L64.3645 50.0353C67.2987 50.5418 68.7658 51.9739 68.7658 54.3318C68.7658 55.8687 68.1545 57.1088 66.932 58.0344C65.7094 58.9601 64.0676 59.4317 62.0242 59.4317C60.8889 59.4317 59.841 59.2745 58.8804 58.9776C57.9198 58.6806 57.1688 58.2615 56.6099 57.755C55.9986 57.1786 55.6842 56.5848 55.6842 55.991H55.6493Z" fill="#00977F"/>
<path d="M62.5482 92.0218H47.0389C45.5893 92.0218 44.4191 90.8516 44.4191 89.402V77.735C44.4191 76.2854 45.5893 75.1152 47.0389 75.1152H62.5482C63.9978 75.1152 65.168 76.2854 65.168 77.735V89.402C65.168 90.8516 63.9978 92.0218 62.5482 92.0218ZM49.6587 86.7821H59.9284V80.3549H49.6587V86.7821Z" fill="#00977F"/>
<path d="M79.5595 80.3376H30.0101C25.8708 80.3376 22.5175 76.9668 22.5175 72.845V39.6606C22.5175 35.5213 25.8883 32.168 30.0101 32.168H79.577C83.7163 32.168 87.0697 35.5388 87.0697 39.6606V72.845C87.0697 76.9843 83.6989 80.3376 79.577 80.3376H79.5595ZM30.0101 37.3901C28.7701 37.3901 27.7571 38.4031 27.7571 39.6432V72.8275C27.7571 74.0675 28.7701 75.0805 30.0101 75.0805H79.577C80.8171 75.0805 81.8301 74.0675 81.8301 72.8275V39.6432C81.8301 38.4031 80.8171 37.3901 79.577 37.3901H30.0101Z" fill="#00D287"/>
<path d="M84.4499 69.9457H25.1198C23.6702 69.9457 22.5 68.7755 22.5 67.3259C22.5 65.8762 23.6702 64.7061 25.1198 64.7061H84.4324C85.882 64.7061 87.0522 65.8762 87.0522 67.3259C87.0522 68.7755 85.882 69.9457 84.4324 69.9457H84.4499Z" fill="#00D287"/>
<path d="M93.8463 57.3882H77.6558C75.4662 57.3882 73.6912 59.1632 73.6912 61.3528V85.4901C73.6912 87.6797 75.4662 89.4547 77.6558 89.4547H93.8463C96.0359 89.4547 97.8109 87.6797 97.8109 85.4901V61.3528C97.8109 59.1632 96.0359 57.3882 93.8463 57.3882Z" fill="#F7F7FA"/>
<path fill-rule="evenodd" clip-rule="evenodd" d="M77.6558 59.5958C76.6576 59.5958 75.8803 60.4 75.8803 61.3526V85.4899C75.8803 86.4425 76.6576 87.2467 77.6558 87.2467H93.8463C94.8445 87.2467 95.6218 86.4425 95.6218 85.4899V61.3526C95.6218 60.4 94.8445 59.5958 93.8463 59.5958H77.6558ZM71.5021 61.3526C71.5021 57.926 74.2748 55.1802 77.6558 55.1802H93.8463C97.2273 55.1802 100 57.926 100 61.3526V85.4899C100 88.9165 97.2273 91.6623 93.8463 91.6623H77.6558C74.2748 91.6623 71.5021 88.9165 71.5021 85.4899V61.3526Z" fill="#60F1A1"/>
<path d="M90.5104 73.5611C90.5104 73.5611 90.5104 73.4738 90.5104 73.4214C90.5104 73.369 90.5104 73.3341 90.5104 73.2817L91.5234 72.5481C91.8902 72.2861 91.995 71.7971 91.7679 71.4129L90.5453 69.2471C90.3881 68.9677 90.0912 68.8105 89.7769 68.8105C89.6546 68.8105 89.5323 68.828 89.4101 68.8978L88.3272 69.4043C88.3272 69.4043 88.2224 69.3345 88.1526 69.2995C88.1002 69.2646 88.0478 69.2471 87.9954 69.2122L87.8033 68.0246C87.7334 67.6054 87.3666 67.291 86.9475 67.291H84.5198C84.0831 67.291 83.7164 67.6054 83.664 68.0246L83.4718 69.2122C83.4718 69.2122 83.3496 69.2646 83.2972 69.2995C83.2448 69.3345 83.1924 69.3519 83.1575 69.3869L82.0571 68.8804C81.9349 68.828 81.8126 68.793 81.6904 68.793C81.3935 68.793 81.0965 68.9502 80.9219 69.2297L79.6993 71.3954C79.4723 71.7796 79.577 72.2687 79.9438 72.5306L80.9743 73.2817C80.9743 73.2817 80.9743 73.369 80.9743 73.4039C80.9743 73.4388 80.9743 73.4912 80.9743 73.5262L79.9438 74.2772C79.5945 74.5392 79.4897 75.0282 79.6993 75.4124L80.9219 77.5782C81.0791 77.8576 81.376 78.0148 81.6904 78.0148C81.8126 78.0148 81.9349 77.9973 82.0571 77.9275L83.1575 77.421C83.1575 77.421 83.2448 77.4734 83.2972 77.5083C83.3496 77.5432 83.4194 77.5781 83.4718 77.5956L83.664 78.8007C83.7338 79.2199 84.1006 79.5343 84.5198 79.5343H86.9475C87.3841 79.5343 87.7509 79.2199 87.8033 78.8007L87.9954 77.6131C87.9954 77.6131 88.1351 77.5432 88.205 77.4908C88.2399 77.4734 88.2923 77.4384 88.3272 77.421L89.4276 77.9275C89.5498 77.9799 89.6721 78.0148 89.7943 78.0148C90.0912 78.0148 90.3882 77.8576 90.5628 77.5782L91.7854 75.4124C92.0124 75.0282 91.8902 74.5392 91.5409 74.2772L90.5104 73.5436V73.5611ZM85.7249 73.369L85.7947 73.4388L85.7423 73.4738H85.7249V73.369ZM84.153 70.7142C84.415 70.557 84.6944 70.4523 84.9913 70.3999C84.6944 70.4697 84.415 70.5745 84.153 70.7142ZM83.4544 75.5522C83.664 75.7617 83.9085 75.9364 84.153 76.0936C83.891 75.9364 83.664 75.7617 83.4544 75.5522ZM87.7509 76.7922C87.9255 76.6874 88.1002 76.5652 88.2399 76.4604C88.1002 76.5826 87.943 76.6874 87.7509 76.7922ZM89.5847 73.9803C89.6022 73.8929 89.6197 73.8056 89.6197 73.7008C89.6197 73.596 89.6197 73.5087 89.6197 73.4214C89.6197 73.3341 89.6197 73.2467 89.6197 73.1419C89.6197 73.0371 89.6197 72.9498 89.5847 72.8625C89.6022 72.9498 89.6197 73.0371 89.6197 73.1419C89.6197 73.2467 89.6197 73.3341 89.6197 73.4214C89.6197 73.5087 89.6197 73.596 89.6197 73.7008C89.6197 73.8056 89.6197 73.8929 89.5847 73.9803Z" fill="#00977F"/>
<path d="M85.7424 75.3597C86.8131 75.3597 87.681 74.4918 87.681 73.4211C87.681 72.3504 86.8131 71.4824 85.7424 71.4824C84.6717 71.4824 83.8037 72.3504 83.8037 73.4211C83.8037 74.4918 84.6717 75.3597 85.7424 75.3597Z" fill="#F7F7FA"/>
</g>
<defs>
<clipPath id="clip0_921_19791">
<rect width="118" height="118" fill="white" transform="translate(0 0.0932617)"/>
</clipPath>
</defs>
</svg>
