<svg width="118" height="119" viewBox="0 0 118 119" fill="none" xmlns="http://www.w3.org/2000/svg">
<g clip-path="url(#clip0_1_220)">
<path d="M95.3813 0.0256348H22.6187C10.1267 0.0256348 0 10.1524 0 22.6443V95.407C0 107.899 10.1267 118.026 22.6187 118.026H95.3813C107.873 118.026 118 107.899 118 95.407V22.6443C118 10.1524 107.873 0.0256348 95.3813 0.0256348Z" fill="#F05239"/>
<path d="M78.6667 91.8167C67.9358 97.9999 53.1558 98.6183 38.3161 92.2954C26.2887 87.2092 16.3158 78.2734 9.91312 68.0811C12.9848 70.6342 16.575 72.6686 20.4047 74.4438C35.7431 81.6044 51.0815 81.1058 61.8722 74.4438C46.5139 62.7156 33.4493 47.4171 23.7356 34.931C21.6812 32.8965 20.1454 30.3434 18.6095 28.0496C30.3776 38.7606 49.0669 52.264 55.7089 56.0736C41.6271 41.2937 29.1011 22.9435 29.5997 23.4621C51.8594 45.8813 72.5832 58.6267 72.5832 58.6267C73.2613 59.0057 73.7999 59.3248 74.2187 59.624C74.6575 58.4871 75.0564 57.3103 75.3955 56.0936C78.9858 43.1088 74.8769 28.3289 65.9212 16.0821C86.645 28.5682 98.9317 52.0047 93.8056 71.6315C93.666 72.17 93.5264 72.6886 93.3668 73.1872C103.599 85.9327 100.966 99.6554 99.6897 97.1024C94.1447 86.2917 83.8526 89.5828 78.6268 91.7968L78.6667 91.8167Z" fill="white"/>
</g>
<defs>
<clipPath id="clip0_1_220">
<rect width="118" height="118" fill="white" transform="translate(0 0.0256348)"/>
</clipPath>
</defs>
</svg>
