<svg width="118" height="119" viewBox="0 0 118 119" fill="none" xmlns="http://www.w3.org/2000/svg">
<g clip-path="url(#clip0_1_369)">
<path d="M95.3813 0.0933838H22.6187C10.1267 0.0933838 0 10.2201 0 22.712V95.4747C0 107.967 10.1267 118.093 22.6187 118.093H95.3813C107.873 118.093 118 107.967 118 95.4747V22.712C118 10.2201 107.873 0.0933838 95.3813 0.0933838Z" fill="#292C31"/>
<path d="M93.8854 28.1373L77.6095 20.2986C75.7346 19.401 73.4807 19.78 72.0047 21.256L18.7492 69.8243C17.3131 71.1207 17.3131 73.3946 18.7492 74.6911L23.0974 78.6404C24.2742 79.6975 26.0294 79.7773 27.306 78.8199L91.4321 30.1718C93.5862 28.5362 96.6778 30.0721 96.6778 32.7847V32.6052C96.6778 30.7103 95.6008 28.975 93.8854 28.1573V28.1373Z" fill="#0065A9"/>
<path d="M93.8854 90.0494L77.6095 97.8881C75.7346 98.7857 73.4807 98.4067 72.0047 96.9307L18.7492 48.3624C17.3131 47.0659 17.3131 44.7921 18.7492 43.4956L23.0974 39.5463C24.2742 38.4892 26.0294 38.4094 27.306 39.3668L91.4321 88.0149C93.5862 89.6505 96.6778 88.1146 96.6778 85.402V85.5815C96.6778 87.4764 95.6008 89.2116 93.8854 90.0294V90.0494Z" fill="#007ACC"/>
<path d="M77.6095 97.8882C75.7346 98.7858 73.4807 98.4068 72.0047 96.9308C73.8198 98.7459 76.9314 97.4694 76.9314 94.8963V23.3105C76.9314 20.7375 73.8198 19.441 72.0047 21.276C73.4807 19.8 75.7346 19.421 77.6095 20.3186L93.8854 28.1374C95.6008 28.9552 96.6778 30.6905 96.6778 32.5853V85.6215C96.6778 87.5164 95.6008 89.2517 93.8854 90.0694L77.6095 97.8882Z" fill="#1F9CF0"/>
<g opacity="0.25">
<path fill-rule="evenodd" clip-rule="evenodd" d="M73.6603 98.0278C74.8969 98.5065 76.3131 98.4866 77.5697 97.8682L93.8256 90.0494C95.5409 89.2317 96.618 87.4964 96.618 85.6015V32.5653C96.618 30.6705 95.5409 28.9352 93.8256 28.1174L77.5697 20.2986C75.9141 19.5007 73.9993 19.7002 72.5433 20.7573C72.3438 20.9169 72.1444 21.0765 71.9649 21.256L40.8492 49.639L27.286 39.3469C26.0294 38.3895 24.2542 38.4693 23.0774 39.5264L18.7292 43.4757C17.2931 44.7722 17.2931 47.0261 18.7292 48.3425L30.4774 59.0734L18.7292 69.8043C17.2931 71.1008 17.2931 73.3746 18.7292 74.6711L23.0774 78.6204C24.2542 79.6776 26.0095 79.7573 27.286 78.7999L40.8492 68.5078L71.9649 96.8909C72.4635 97.3895 73.0419 97.7486 73.6603 97.9879V98.0278ZM76.8915 41.162L53.2755 59.0934L76.8915 77.0247V41.182V41.162Z" fill="url(#paint0_linear_1_369)"/>
</g>
</g>
<defs>
<linearGradient id="paint0_linear_1_369" x1="57.145" y1="19.8199" x2="57.145" y2="98.3868" gradientUnits="userSpaceOnUse">
<stop stop-color="white"/>
<stop offset="1" stop-color="white" stop-opacity="0"/>
</linearGradient>
<clipPath id="clip0_1_369">
<rect width="118" height="118" fill="white" transform="translate(0 0.0933838)"/>
</clipPath>
</defs>
</svg>
