<svg width="118" height="119" viewBox="0 0 118 119" fill="none" xmlns="http://www.w3.org/2000/svg">
<g clip-path="url(#clip0_1_157)">
<path d="M95.3813 0.86438H22.6187C10.1267 0.86438 0 10.9911 0 23.483V96.2457C0 108.738 10.1267 118.864 22.6187 118.864H95.3813C107.873 118.864 118 108.738 118 96.2457V23.483C118 10.9911 107.873 0.86438 95.3813 0.86438Z" fill="#292C31"/>
<path d="M59 67.4438C63.186 67.4438 66.5794 64.0504 66.5794 59.8644C66.5794 55.6783 63.186 52.2849 59 52.2849C54.814 52.2849 51.4205 55.6783 51.4205 59.8644C51.4205 64.0504 54.814 67.4438 59 67.4438Z" fill="#61DAFB"/>
<path d="M101.585 59.8644C101.585 53.9005 94.5835 48.7345 83.693 45.623C86.4256 34.6328 85.4682 25.9763 80.3022 23.0043C75.9939 20.5111 69.7509 22.2863 62.7299 28.0107C61.4932 29.008 60.2566 30.145 59.02 31.3617C57.7833 30.1649 56.5467 29.028 55.31 28.0107C48.2891 22.3062 42.046 20.531 37.7377 23.0043C33.4293 25.4976 31.8536 31.7805 33.2698 40.7163C33.5291 42.292 33.8881 43.9475 34.307 45.623C23.4364 48.7545 16.4354 53.9005 16.4354 59.8644C16.4354 65.8282 23.4364 70.9742 34.307 74.1057C33.8881 75.7812 33.5091 77.4367 33.2698 79.0124C31.8337 87.9482 33.4293 94.2511 37.7377 96.7244C39.0142 97.4624 40.4503 97.8214 42.026 97.8214C45.7958 97.8214 50.3634 95.747 55.31 91.718C56.5467 90.7207 57.7833 89.5838 59.02 88.3671C60.2566 89.5638 61.4932 90.7007 62.7299 91.718C67.6765 95.747 72.2441 97.8214 76.0139 97.8214C77.5896 97.8214 79.0257 97.4624 80.3022 96.7244C84.6105 94.2312 86.1863 87.9482 84.7701 79.0124C84.5108 77.4367 84.1518 75.7812 83.7329 74.1057C94.6034 70.9742 101.604 65.8282 101.604 59.8644H101.585ZM65.0636 30.863C69.312 27.4124 73.1217 25.5773 75.954 25.5773C76.8915 25.5773 77.7292 25.7768 78.4473 26.1957C81.7982 28.1304 82.4963 35.1514 80.1227 44.6855C76.6322 43.8877 72.8425 43.2893 68.7934 42.9103C66.4797 39.6392 64.0663 36.6274 61.593 33.9746C62.7498 32.8576 63.9067 31.8005 65.0636 30.863ZM70.8878 66.7058C69.5713 68.9796 68.1951 71.1737 66.7789 73.268C64.3056 73.4475 61.7127 73.5672 59.02 73.5672C56.3273 73.5672 53.7542 73.4675 51.2809 73.268C49.8648 71.1737 48.4885 68.9996 47.1721 66.7058C45.8556 64.432 44.639 62.1382 43.5419 59.8644C44.639 57.5905 45.8556 55.2967 47.1721 53.0229C48.4885 50.7491 49.8648 48.555 51.2809 46.4607C53.7542 46.2812 56.3472 46.1615 59.02 46.1615C61.6927 46.1615 64.2857 46.2613 66.7789 46.4607C68.1951 48.555 69.5713 50.7491 70.8878 53.0229C72.2042 55.2967 73.4009 57.5905 74.498 59.8644C73.4209 62.0983 72.2241 64.3921 70.8878 66.7258V66.7058ZM76.4726 64.2126C77.5098 66.6859 78.4074 69.0993 79.1454 71.4729C76.7718 72.0114 74.2387 72.4702 71.5061 72.8093C72.3837 71.433 73.2613 70.0168 74.0991 68.5807C74.9368 67.1247 75.7147 65.6686 76.4726 64.2325V64.2126ZM59.0399 83.0814C57.3644 81.2663 55.7089 79.2717 54.0933 77.1375C55.7089 77.2173 57.3644 77.2572 59.0399 77.2572C60.7154 77.2572 62.3709 77.2173 63.9865 77.1375C62.3709 79.2717 60.7154 81.2663 59.0399 83.0814ZM46.5538 72.7893C43.8411 72.4502 41.288 71.9915 38.9145 71.4529C39.6525 69.0993 40.55 66.6659 41.5872 64.1926C42.3452 65.6487 43.1231 67.1047 43.9608 68.5408C44.7985 69.9969 45.6562 71.3931 46.5538 72.7694V72.7893ZM41.5872 55.5162C40.55 53.0429 39.6525 50.6294 38.9145 48.2558C41.288 47.7173 43.8212 47.2585 46.5538 46.9195C45.6761 48.2957 44.7985 49.7119 43.9608 51.148C43.1231 52.604 42.3452 54.0402 41.5872 55.4962V55.5162ZM59.02 36.6274C60.6954 38.4425 62.3509 40.437 63.9665 42.5713C62.3509 42.4915 60.6954 42.4516 59.02 42.4516C57.3445 42.4516 55.689 42.4915 54.0734 42.5713C55.689 40.437 57.3445 38.4425 59.02 36.6274ZM74.0791 51.148C73.2414 49.6919 72.3837 48.2957 71.4861 46.9195C74.1988 47.2585 76.7319 47.7173 79.1055 48.2558C78.3874 50.5696 77.5098 53.003 76.4527 55.5162C75.6947 54.0601 74.9168 52.604 74.0791 51.148ZM36.9199 40.1179C35.763 32.8975 36.7404 27.8312 39.5727 26.1957C40.2907 25.7768 41.1285 25.5773 42.0659 25.5773C44.8982 25.5773 48.7079 27.3924 52.9763 30.863C54.1332 31.8005 55.2901 32.8576 56.4469 33.9746C53.9736 36.6473 51.5602 39.6392 49.2465 42.9103C45.1974 43.2893 41.3878 43.8877 37.8972 44.6855C37.4983 43.1297 37.1592 41.5939 36.9199 40.1179ZM20.1454 59.8444C20.1454 55.9749 25.8698 51.8661 35.3242 49.1534C36.4013 52.624 37.7975 56.1943 39.473 59.8444C37.7975 63.4746 36.4013 67.0648 35.3242 70.5354C25.8698 67.8427 20.1454 63.7139 20.1454 59.8444ZM52.9763 88.8458C47.3117 93.4533 42.425 95.1487 39.5926 93.5131C36.7404 91.8775 35.783 86.7913 36.9398 79.5709C37.1792 78.0949 37.5183 76.5591 37.9172 75.0033C41.4077 75.8011 45.2174 76.3995 49.2664 76.7785C51.5801 80.0496 53.9936 83.0615 56.4669 85.7143C55.31 86.8312 54.1531 87.8884 52.9963 88.8258L52.9763 88.8458ZM81.12 79.5709C82.2769 86.7913 81.2995 91.8576 78.4672 93.5131C75.6349 95.1487 70.7481 93.4533 65.0835 88.8458C63.9266 87.9083 62.7698 86.8512 61.6129 85.7342C64.0862 83.0615 66.4997 80.0696 68.8134 76.7984C72.8624 76.4195 76.6721 75.8211 80.1626 75.0233C80.5615 76.579 80.9006 78.1149 81.14 79.5909L81.12 79.5709ZM82.7356 70.5354C81.6586 67.0648 80.2623 63.4945 78.5869 59.8444C80.2823 56.1544 81.6586 52.5642 82.7157 49.1534C92.1701 51.8461 97.8945 55.9749 97.8945 59.8444C97.8945 63.7139 92.1701 67.8228 82.7157 70.5354H82.7356Z" fill="#61DAFB"/>
</g>
<defs>
<clipPath id="clip0_1_157">
<rect width="118" height="118" fill="white" transform="translate(0 0.86438)"/>
</clipPath>
</defs>
</svg>
