<svg width="118" height="119" viewBox="0 0 118 119" fill="none" xmlns="http://www.w3.org/2000/svg">
<g clip-path="url(#clip0_1_167)">
<path d="M95.3813 0.86438H22.6187C10.1267 0.86438 0 10.9911 0 23.483V96.2457C0 108.738 10.1267 118.864 22.6187 118.864H95.3813C107.873 118.864 118 108.738 118 96.2457V23.483C118 10.9911 107.873 0.86438 95.3813 0.86438Z" fill="#2BA977"/>
<path d="M50.1041 24.4006H62.2512V80.1095C56.0281 81.2863 51.4405 81.745 46.474 81.745C31.6342 81.745 23.8952 75.1031 23.8952 62.3576C23.8952 49.6122 32.093 42.1125 44.7985 42.1125C46.7732 42.1125 48.2691 42.2721 50.0842 42.7309V24.3806L50.1041 24.4006ZM50.523 52.7836C49.1068 52.3248 47.93 52.1653 46.4341 52.1653C40.2907 52.1653 36.7404 55.9151 36.7404 62.4972C36.7404 69.0794 40.1312 72.4303 46.3543 72.4303C47.6907 72.4303 48.7877 72.3505 50.523 72.1311V52.8035V52.7836Z" fill="white"/>
<path d="M82.1373 43.6085V71.5128C82.1373 81.1267 81.4192 85.7342 79.305 89.7234C77.3303 93.553 74.7374 95.9665 69.3719 98.6392L58.0825 93.3336C63.448 90.8404 66.0409 88.6264 67.6964 85.2755C69.4317 81.8448 69.9902 77.8556 69.9902 67.384V43.6484H82.1373V43.6085ZM68.7735 24.3806H80.9206V36.7271H68.7735V24.3806Z" fill="white"/>
</g>
<defs>
<clipPath id="clip0_1_167">
<rect width="118" height="118" fill="white" transform="translate(0 0.86438)"/>
</clipPath>
</defs>
</svg>
