<svg width="118" height="119" viewBox="0 0 118 119" fill="none" xmlns="http://www.w3.org/2000/svg">
<g clip-path="url(#clip0_921_19487)">
<circle cx="59" cy="59" r="59" fill="#019639"/>
<path d="M62.3388 71.8958C62.4427 71.9997 62.6679 72.1729 62.8411 72.1729H65.7513C65.9246 72.1729 66.1324 71.9997 66.2537 71.8958L67.0159 71.0643C67.1198 70.9603 67.154 70.8323 67.1891 70.7351L68.0206 67.9289C68.0726 67.6517 68.0206 67.3745 67.8474 67.2186L67.3029 66.7858C67.199 66.6819 66.901 66.6437 66.7277 66.6437L64.1902 66.5604H64.0017H63.9196C63.8156 66.5604 63.588 66.5604 63.473 66.6437L62.5813 67.2186C62.4715 67.2663 62.408 67.4958 62.3561 67.5997L61.4726 70.2847C61.3687 70.5619 61.4207 70.891 61.6458 71.1162L62.2888 71.8473L62.3388 71.8958ZM62.7718 86.3776L62.5466 86.4295H61.8884L65.8379 74.8579C65.9419 74.4768 65.786 74.0265 65.4049 73.9225L65.1797 73.8706H58.5451C58.2679 73.9225 58.0427 74.1477 57.9907 74.4249L57.6096 75.7934C57.5057 76.1745 57.7829 76.5036 58.164 76.6249L58.3372 76.5729H59.3246L55.323 88.0406C55.2191 88.4217 55.375 88.924 55.7561 89.0799L55.9813 89.2532H62.1309C62.46 89.2532 62.7372 88.976 62.8411 88.6469L63.2222 87.3303C63.3954 86.9492 63.1702 86.4988 62.7891 86.3949L62.7718 86.3776ZM91.9087 75.5682L90.8693 74.1997V74.1477C90.6961 73.9745 90.5402 73.8186 90.315 73.8186H86.3654C86.1402 73.8186 85.9843 74.0438 85.8111 74.1477L84.7197 75.4642H83.0221L81.8615 74.1477V74.0957C81.7576 73.9225 81.5324 73.8186 81.3072 73.8186H79.1072L90.1937 62.732L77.7906 50.4502L88.8772 39.0345V34.0975L87.3355 32.1227H64.9025L63.0836 34.0456V35.6393L56.8821 29.3857L52.6553 33.5086L51.3388 32.1401H29.1657L27.4161 34.1668V39.329L29.0618 40.9227H30.7074V55.2486L23.0334 62.9226L30.7074 70.5966V88.1445L33.5657 89.7382H39.9231L44.9121 84.524L56.7608 96.3728L64.712 88.4217C64.7639 88.6469 64.9372 88.6988 65.2143 88.8028L65.4395 88.6988H70.6017C70.9308 88.6988 71.208 88.6469 71.26 88.3697L71.6411 87.2784C71.745 86.8973 71.5891 86.5681 71.208 86.4469L70.9828 86.4988H70.7576L72.6285 80.6264L73.893 79.3619H76.63L73.893 88.0925C73.7891 88.4736 73.997 88.6988 74.3954 88.8547L74.6206 88.7508H79.6095C79.8867 88.7508 80.1639 88.6988 80.2678 88.4217L80.7009 87.4343C80.8741 87.0532 80.6489 86.724 80.3198 86.5508C80.2678 86.4988 80.1465 86.5508 80.0426 86.5508H79.8174L82.1213 79.4138H85.4646L82.6583 88.1445C82.5544 88.5256 82.7623 88.7508 83.1607 88.8547L83.3859 88.6815H88.8772C89.1544 88.6815 89.4315 88.6295 89.5355 88.3524L89.9685 87.261C90.1418 86.8799 89.9166 86.5508 89.5355 86.4295C89.4835 86.3776 89.3622 86.4815 89.2583 86.4815H88.8772L91.9433 76.3304C92.0473 76.0532 91.9953 75.7241 91.8914 75.5682H91.9087ZM56.8994 30.4251L63.101 36.6267V39.2077L64.9718 41.4597H65.8553L49.953 56.825V41.4597H51.7719L53.2616 39.1558V34.2708L53.1577 34.0975L56.9514 30.4251H56.8994ZM24.0901 62.9053L30.7247 56.2706V69.5399L24.0901 62.9053ZM45.4318 83.9177L77.4788 51.0045L89.2237 62.8013L78.1371 73.8879H78.0851C77.9119 73.9398 77.808 74.0611 77.704 74.165L76.5434 75.4816H74.9497L73.7371 74.165C73.6332 73.9918 73.408 73.8359 73.1828 73.8359H68.3498C68.0206 73.8359 67.7435 74.0611 67.6395 74.3902L67.2064 75.7587C67.1025 76.1398 67.2584 76.469 67.6395 76.6422H68.471L64.9545 87.0185L56.6742 95.3508L45.4318 83.9351V83.9177Z" fill="white"/>
</g>
<defs>
<clipPath id="clip0_921_19487">
<rect width="118" height="118" fill="white" transform="translate(0 0.296875)"/>
</clipPath>
</defs>
</svg>
