<svg width="118" height="119" viewBox="0 0 118 119" fill="none" xmlns="http://www.w3.org/2000/svg">
<g clip-path="url(#clip0_1_431)">
<path d="M95.3813 0.0933838H22.6187C10.1267 0.0933838 0 10.2201 0 22.712V95.4747C0 107.967 10.1267 118.093 22.6187 118.093H95.3813C107.873 118.093 118 107.967 118 95.4747V22.712C118 10.2201 107.873 0.0933838 95.3813 0.0933838Z" fill="#EFEFEF"/>
<path d="M43.0034 50.3115V48.7557C43.0034 46.1827 43.7214 44.1482 45.1775 42.6922C46.6136 41.2361 48.6481 40.4981 51.2411 40.4981C52.4578 40.4981 53.6146 40.6577 54.6717 41.0167C55.7289 41.3558 56.6065 41.8345 57.2647 42.4329C58.2022 43.2905 58.6609 44.1682 58.6609 45.0258C58.6609 45.6242 58.4615 46.1029 58.0626 46.4819C57.6636 46.8609 57.145 47.0404 56.5267 47.0404C56.1278 47.0404 55.7688 46.9606 55.4496 46.821C55.1106 46.6614 54.7316 46.4221 54.3327 46.083C53.834 45.6242 53.3952 45.3051 52.9763 45.1056C52.5575 44.9062 52.0987 44.8064 51.62 44.8064C50.5629 44.8064 49.7451 45.1854 49.1667 45.9234C48.5882 46.6814 48.309 47.7185 48.309 49.0749V50.0921C48.309 51.5681 48.5882 52.6851 49.1467 53.463C49.7052 54.2409 50.5429 54.6198 51.62 54.6198C52.5974 54.6198 53.5149 54.201 54.4125 53.3433C54.8313 52.9843 55.1903 52.725 55.5095 52.5853C55.8286 52.4457 56.1876 52.3659 56.5666 52.3659C57.1849 52.3659 57.7035 52.5455 58.1024 52.9244C58.5014 53.3034 58.7008 53.7821 58.7008 54.3605C58.7008 54.939 58.5213 55.4775 58.1623 56.016C57.8033 56.5546 57.3046 57.0333 56.6863 57.4521C55.2701 58.4095 53.455 58.9082 51.261 58.9082C48.6082 58.9082 46.5737 58.1702 45.1575 56.6743C43.7414 55.1983 43.0233 53.084 43.0233 50.3514L43.0034 50.3115Z" fill="#00977F"/>
<path d="M59.738 54.8392C59.738 54.2608 59.9375 53.7621 60.3164 53.3832C60.7154 53.0042 61.1741 52.8047 61.7326 52.8047C62.3908 52.8047 63.1089 53.084 63.8668 53.6225C65.0835 54.5002 66.2603 54.919 67.3972 54.919C69.0328 54.919 69.8705 54.4204 69.8705 53.443C69.8705 53.0441 69.6711 52.725 69.2721 52.4856C68.8732 52.2463 68.215 52.0269 67.2776 51.8473L64.9838 51.4085C63.2684 51.0894 61.9919 50.491 61.1542 49.6333C60.3164 48.7757 59.8976 47.6388 59.8976 46.2226C59.8976 44.4474 60.5558 43.0512 61.8523 42.034C63.1488 41.0167 64.9239 40.4981 67.1778 40.4981C68.4344 40.4981 69.6112 40.6577 70.6883 40.9968C71.7654 41.3359 72.6231 41.7946 73.2414 42.373C73.9794 43.0512 74.3584 43.7693 74.3584 44.5471C74.3584 45.0857 74.1788 45.5245 73.7999 45.8436C73.4209 46.1628 72.9422 46.3423 72.3438 46.3423C71.7454 46.3423 71.0872 46.083 70.3891 45.5843C69.8506 45.1655 69.3519 44.8663 68.8533 44.6868C68.3546 44.5073 67.8161 44.4075 67.2377 44.4075C66.5795 44.4075 66.0808 44.5272 65.7018 44.7665C65.3229 45.0059 65.1433 45.345 65.1433 45.7638C65.1433 46.6215 65.9412 47.1999 67.5369 47.4592L69.8905 47.8582C73.3212 48.4565 75.0365 50.1121 75.0365 52.8646C75.0365 54.6597 74.3185 56.1158 72.8824 57.1929C71.4463 58.2699 69.5314 58.8085 67.1579 58.8085C65.8414 58.8085 64.6048 58.629 63.4878 58.2899C62.3709 57.9508 61.4733 57.4721 60.835 56.8538C60.117 56.1756 59.7579 55.4974 59.7579 54.7993L59.738 54.8392Z" fill="#00977F"/>
<path d="M68.2829 97.5847H49.7171C47.9818 97.5847 46.581 96.1839 46.581 94.4486V80.4824C46.581 78.7471 47.9818 77.3463 49.7171 77.3463H68.2829C70.0183 77.3463 71.4191 78.7471 71.4191 80.4824V94.4486C71.4191 96.1839 70.0183 97.5847 68.2829 97.5847ZM52.8532 91.3124H65.1468V83.6185H52.8532V91.3124Z" fill="#00977F"/>
<path d="M88.6677 83.5976H29.3323C24.3773 83.5976 20.363 79.5625 20.363 74.6283V34.9041C20.363 29.9491 24.3982 25.9348 29.3323 25.9348H88.6677C93.6228 25.9348 97.637 29.97 97.637 34.9041V74.6283C97.637 79.5834 93.6019 83.5976 88.6677 83.5976ZM29.3323 32.1862C27.8479 32.1862 26.6353 33.3988 26.6353 34.8832V74.6074C26.6353 76.0918 27.8479 77.3045 29.3323 77.3045H88.6677C90.1521 77.3045 91.3648 76.0918 91.3648 74.6074V34.8832C91.3648 33.3988 90.1521 32.1862 88.6677 32.1862H29.3323Z" fill="#00D287"/>
<path d="M94.5009 71.1577H23.4992C21.7638 71.1577 20.363 69.7569 20.363 68.0216C20.363 66.2862 21.7638 64.8854 23.4992 64.8854H94.5009C96.2362 64.8854 97.637 66.2862 97.637 68.0216C97.637 69.7569 96.2362 71.1577 94.5009 71.1577Z" fill="#00D287"/>
</g>
<defs>
<clipPath id="clip0_1_431">
<rect width="118" height="118" fill="white" transform="translate(0 0.0933838)"/>
</clipPath>
</defs>
</svg>
