<svg width="118" height="119" viewBox="0 0 118 119" fill="none" xmlns="http://www.w3.org/2000/svg">
<g clip-path="url(#clip0_921_18565)">
<circle cx="59" cy="59.687" r="59" fill="#2BA977"/>
<path d="M78.9012 45.2362L85.5067 33.7075C85.8824 33.0692 85.6451 32.2315 85.0122 31.8724C84.3794 31.4935 83.5487 31.7129 83.1928 32.3711L76.5082 44.0394C71.4057 41.6858 65.6704 40.3893 59.5001 40.3893C53.3297 40.3893 47.5746 41.7058 42.4919 44.0394L35.8074 32.3711C35.4316 31.7328 34.6207 31.5134 33.9879 31.8724C33.355 32.2514 33.1375 33.0692 33.4935 33.7075L40.0989 45.2362C28.7272 51.4593 21.0143 63.0678 19.7485 76.671H99.2911C98.0254 63.0678 90.3124 51.4593 78.921 45.2362H78.9012ZM41.2262 65.4015C39.387 65.4015 37.8839 63.8856 37.8839 62.0307C37.8839 60.1757 39.387 58.6598 41.2262 58.6598C43.0655 58.6598 44.5685 60.1757 44.5685 62.0307C44.5685 63.8856 43.0853 65.4015 41.2262 65.4015ZM77.7343 65.4015C75.8951 65.4015 74.392 63.8856 74.392 62.0307C74.392 60.1757 75.8951 58.6598 77.7343 58.6598C79.5736 58.6598 81.0766 60.1757 81.0766 62.0307C81.0766 63.8856 79.5934 65.4015 77.7343 65.4015Z" fill="white"/>
</g>
<defs>
<clipPath id="clip0_921_18565">
<rect width="118" height="118" fill="white" transform="translate(0 0.687012)"/>
</clipPath>
</defs>
</svg>
