<svg width="118" height="119" viewBox="0 0 118 119" fill="none" xmlns="http://www.w3.org/2000/svg">
<g clip-path="url(#clip0_921_19693)">
<circle cx="59" cy="59.0933" r="59" fill="#F7F7FA"/>
<path d="M54.516 41.0737C52.7508 41.0737 51.3098 42.5147 51.3098 44.2799V54.4748C51.3098 56.24 52.7508 57.681 54.516 57.681C56.2812 57.681 57.7222 56.24 57.7222 54.4748V44.2799C57.7222 42.5147 56.2812 41.0737 54.516 41.0737Z" fill="#00977F"/>
<path d="M45.5459 41.0737C43.7807 41.0737 42.3397 42.5147 42.3397 44.2799V54.4748C42.3397 56.24 43.7807 57.681 45.5459 57.681C47.3111 57.681 48.7521 56.24 48.7521 54.4748V44.2799C48.7521 42.5147 47.3111 41.0737 45.5459 41.0737Z" fill="#00977F"/>
<path d="M72.4562 41.0737C70.691 41.0737 69.25 42.5147 69.25 44.2799V54.4748C69.25 56.24 70.691 57.681 72.4562 57.681C74.2214 57.681 75.6623 56.24 75.6623 54.4748V44.2799C75.6623 42.5147 74.2214 41.0737 72.4562 41.0737Z" fill="#00977F"/>
<path d="M63.4861 41.0737C61.7209 41.0737 60.2799 42.5147 60.2799 44.2799V54.4748C60.2799 56.24 61.7209 57.681 63.4861 57.681C65.2513 57.681 66.6923 56.24 66.6923 54.4748V44.2799C66.6923 42.5147 65.2513 41.0737 63.4861 41.0737Z" fill="#00977F"/>
<path d="M82.0747 31.1128H35.9274C31.5684 31.1128 28.02 34.6612 28.02 39.0202V70.2713C28.02 74.6303 31.5684 78.1787 35.9274 78.1787H38.6112V83.096C38.6112 87.455 42.1596 91.0034 46.5186 91.0034H71.5015C75.8605 91.0034 79.4089 87.455 79.4089 83.096V78.1787H82.0927C86.4516 78.1787 90 74.6303 90 70.2713V39.0202C90 34.6612 86.4516 31.1128 82.0927 31.1128H82.0747ZM72.5102 74.7384V83.114C72.5102 83.6724 72.0599 84.1227 71.5015 84.1227H46.5186C45.9602 84.1227 45.5099 83.6724 45.5099 83.114V74.7384C45.5099 72.8471 43.9608 71.298 42.0695 71.298H35.9454C35.387 71.298 34.9367 70.8477 34.9367 70.2893V39.0382C34.9367 38.4798 35.387 38.0295 35.9454 38.0295H82.0927C82.6511 38.0295 83.1014 38.4798 83.1014 39.0382V70.2893C83.1014 70.8477 82.6511 71.298 82.0927 71.298H75.9685C74.0772 71.298 72.5282 72.8471 72.5282 74.7384H72.5102Z" fill="#00D287"/>
</g>
<defs>
<clipPath id="clip0_921_19693">
<rect width="118" height="118" fill="white" transform="translate(0 0.0932617)"/>
</clipPath>
</defs>
</svg>
