<svg width="118" height="119" viewBox="0 0 118 119" fill="none" xmlns="http://www.w3.org/2000/svg">
<g clip-path="url(#clip0_1_133)">
<path d="M95.3813 0.86438H22.6187C10.1267 0.86438 0 10.9911 0 23.483V96.2457C0 108.738 10.1267 118.864 22.6187 118.864H95.3813C107.873 118.864 118 108.738 118 96.2457V23.483C118 10.9911 107.873 0.86438 95.3813 0.86438Z" fill="#77BC1F"/>
<path d="M68.6338 47.8569C61.0743 49.672 54.3725 48.1761 47.3715 50.8887C31.3749 57.052 31.6342 76.1203 40.4503 80.4086L40.9689 80.6879C40.9689 80.6879 53.8938 78.1149 61.0544 75.482C71.5061 71.6125 82.955 62.0983 86.7447 51.0283C84.7103 62.5371 74.8769 73.6071 64.9439 78.6534C59.6781 81.3661 55.5693 81.9445 46.8928 84.9763C45.8157 85.3752 44.9979 85.7342 44.9979 85.7342C47.2119 85.3752 49.406 85.2356 49.406 85.2356C61.7725 84.6571 81.0601 88.7061 90.0757 76.6788C99.2508 64.432 94.1247 44.6257 89.8762 31.98C86.0666 39.8786 76.7319 45.9421 68.6538 47.8769L68.6338 47.8569Z" fill="#77BC1F"/>
<path d="M39.9317 83.2211C39.3732 82.7623 38.6751 82.5229 37.9571 82.5229C36.2417 82.5229 34.8256 83.9391 34.8256 85.6545C34.8256 87.3698 36.2417 88.786 37.9571 88.786C38.8945 88.786 39.7921 88.3671 40.3905 87.6291C41.4676 86.2927 41.2681 84.2981 39.9317 83.2211Z" fill="#77BC1F"/>
<path d="M86.3059 34.9719C79.4445 28.1105 70.1298 24.2609 60.4361 24.2609C40.3705 24.2609 23.8553 40.7961 23.8553 60.9016C23.8553 70.9344 27.9641 80.5283 35.2245 87.4496L36.5808 88.6463C43.1829 94.2112 51.5402 97.263 60.1568 97.263C79.2451 97.263 95.2816 82.3035 96.6379 63.2352C97.6352 53.9005 94.9026 42.0926 90.2353 28.0706C89.218 30.5239 87.9016 32.8576 86.3458 34.9918L86.3059 34.9719ZM40.4104 87.649C39.812 88.387 38.9144 88.8059 37.977 88.8059C36.2616 88.8059 34.8455 87.3897 34.8455 85.6744C34.8455 83.959 36.2616 82.5429 37.977 82.5429C38.695 82.5429 39.3932 82.7822 39.9516 83.241C41.288 84.3181 41.5074 86.3126 40.4104 87.649ZM90.0558 76.6788C81.0203 88.7261 61.7525 84.6571 49.3861 85.2356C49.3861 85.2356 47.192 85.3752 44.978 85.7342C44.978 85.7342 45.7958 85.3752 46.8729 84.9763C55.5493 81.9445 59.6582 81.3661 64.9239 78.6534C74.857 73.6071 84.6704 62.5371 86.7248 51.0283C82.9351 62.0983 71.4861 71.6125 61.0345 75.482C53.8739 78.1149 40.9489 80.6879 40.9489 80.6879L40.4303 80.4087C31.6342 76.1203 31.3549 57.052 47.3516 50.8887C54.3526 48.196 61.0544 49.672 68.6139 47.8569C76.692 45.9421 86.0267 39.8786 89.8364 31.96C94.0848 44.6058 99.2109 64.412 90.0358 76.6588L90.0558 76.6788Z" fill="white"/>
</g>
<defs>
<clipPath id="clip0_1_133">
<rect width="118" height="118" fill="white" transform="translate(0 0.86438)"/>
</clipPath>
</defs>
</svg>
