<svg width="118" height="119" viewBox="0 0 118 119" fill="none" xmlns="http://www.w3.org/2000/svg">
<g clip-path="url(#clip0_921_19861)">
<circle cx="59" cy="59.0933" r="59" fill="#F7F7FA"/>
<path d="M50.9578 38.0273C49.8209 38.0273 48.8436 38.4462 47.9859 39.3039C47.1282 40.1616 46.7094 41.1389 46.7094 42.2758C46.7094 43.4127 47.1282 44.3901 47.9859 45.2478C48.8436 46.1054 49.8209 46.5243 50.9578 46.5243C52.0947 46.5243 53.0721 46.1054 53.9298 45.2478C54.7874 44.3901 55.2063 43.4127 55.2063 42.2758C55.2063 41.1389 54.7874 40.1616 53.9298 39.3039C53.0721 38.4462 52.0947 38.0273 50.9578 38.0273Z" fill="#00D287"/>
<path d="M41.6033 52.4482C40.4664 52.4482 39.489 52.8671 38.6313 53.7248C37.7737 54.5825 37.3548 55.5598 37.3548 56.6967C37.3548 57.8336 37.7737 58.811 38.6313 59.6687C39.489 60.5263 40.4664 60.9452 41.6033 60.9452C42.7402 60.9452 43.7175 60.5263 44.5752 59.6687C45.4329 58.811 45.8518 57.8336 45.8518 56.6967C45.8518 55.5598 45.4329 54.5825 44.5752 53.7248C43.7175 52.8671 42.7402 52.4482 41.6033 52.4482Z" fill="#60F1A1"/>
<path d="M69.1087 38.0273C67.9718 38.0273 66.9944 38.4462 66.1368 39.3039C65.2791 40.1616 64.8602 41.1389 64.8602 42.2758C64.8602 43.4127 65.2791 44.3901 66.1368 45.2478C66.9944 46.1054 67.9718 46.5243 69.1087 46.5243C70.2456 46.5243 71.223 46.1054 72.0807 45.2478C72.9383 44.3901 73.3572 43.4127 73.3572 42.2758C73.3572 41.1389 72.9383 40.1616 72.0807 39.3039C71.223 38.4462 70.2456 38.0273 69.1087 38.0273Z" fill="#00977F"/>
<path d="M91.7273 42.5153C89.9322 38.8253 87.4589 35.5941 84.4071 32.9014C81.3554 30.2087 77.7452 28.0944 73.6962 26.5785C69.6472 25.0626 65.3189 24.3047 60.8111 24.3047C55.9643 24.3047 51.3568 25.1823 47.1083 26.9176C42.8598 28.6529 39.09 31.1062 35.9386 34.1779C32.7672 37.2496 30.2341 40.9396 28.419 45.1083C26.584 49.277 25.6664 53.8446 25.6664 58.7114C25.6664 63.5782 26.584 67.8865 28.3791 72.0552C30.1742 76.2239 32.6675 79.9139 35.779 83.0255C38.8906 86.137 42.5806 88.6303 46.7493 90.4254C50.918 92.2205 55.4058 93.138 60.0931 93.138C62.3669 93.138 64.162 92.4998 65.4386 91.2631C66.7151 90.0065 67.3733 88.2313 67.3733 85.9376C67.3733 84.4217 66.9345 83.0653 66.037 81.9085C65.279 80.9311 64.9 79.7144 64.9 78.3182C64.9 77.4805 65.2192 76.7425 65.8774 76.0244C66.5157 75.3263 67.2537 75.0072 68.1313 75.0072H74.494C80.4778 75.0072 85.3645 73.1722 88.9947 69.562C92.6448 65.9518 94.4798 60.9653 94.4798 54.7621C94.4798 50.354 93.5623 46.2452 91.7672 42.5552L91.7273 42.5153ZM58.7766 79.2357C58.7766 81.729 59.2354 83.3246 60.1928 84.1025C60.8909 84.681 61.2499 85.2793 61.2499 85.9176C61.2499 86.3365 61.1702 86.6357 61.0106 86.7952C60.9308 86.875 60.6715 87.0346 60.0532 87.0346C52.2543 87.0346 45.5126 84.2422 40.0275 78.7371C34.5224 73.232 31.73 66.4903 31.73 58.7114C31.73 50.9325 34.5823 44.0312 40.1871 38.6059C45.7919 33.1607 52.733 30.3882 60.8111 30.3882C68.0714 30.3882 74.5539 32.6421 80.0789 37.11C85.584 41.538 88.3764 47.4619 88.3764 54.7421C88.3764 59.3297 87.0799 62.8801 84.5468 65.2736C81.9937 67.687 78.6029 68.9037 74.4541 68.9037H68.2709C65.5383 68.9037 63.2445 69.9609 61.4494 72.0552C59.6742 74.1096 58.7766 76.543 58.7766 79.2557V79.2357Z" fill="#00D287"/>
<path d="M76.0298 52.6281C75.1722 53.4658 74.7533 54.4631 74.7533 55.6C74.7533 56.737 75.1722 57.7143 76.0298 58.572C76.8875 59.4297 77.8649 59.8485 79.0018 59.8485C80.1387 59.8485 81.116 59.4297 81.9737 58.572C82.8314 57.7143 83.2503 56.737 83.2503 55.6C83.2503 54.4631 82.8314 53.4858 81.9737 52.6281C81.116 51.7704 80.1387 51.3516 79.0018 51.3516C77.8649 51.3516 76.8875 51.7704 76.0298 52.6281Z" fill="#00977F"/>
</g>
<defs>
<clipPath id="clip0_921_19861">
<rect width="118" height="118" fill="white" transform="translate(0 0.0932617)"/>
</clipPath>
</defs>
</svg>
