<svg width="118" height="119" viewBox="0 0 118 119" fill="none" xmlns="http://www.w3.org/2000/svg">
<g clip-path="url(#clip0_921_19755)">
<circle cx="59" cy="59.0933" r="59" fill="#F7F7FA"/>
<path d="M45.7512 52.278V50.9895C45.7512 48.8585 46.3459 47.1735 47.5519 45.9676C48.7413 44.7616 50.4263 44.1504 52.5738 44.1504C53.5815 44.1504 54.5397 44.2825 55.4152 44.5799C56.2907 44.8607 57.0176 45.2572 57.5628 45.7528C58.3392 46.4631 58.7191 47.19 58.7191 47.9003C58.7191 48.3959 58.5539 48.7924 58.2235 49.1063C57.8932 49.4202 57.4636 49.5688 56.9515 49.5688C56.6211 49.5688 56.3238 49.5028 56.0595 49.3871C55.7786 49.255 55.4648 49.0567 55.1344 48.7759C54.7214 48.3959 54.358 48.1316 54.011 47.9664C53.6641 47.8012 53.2842 47.7186 52.8877 47.7186C52.0122 47.7186 51.3349 48.0325 50.8558 48.6437C50.3767 49.2715 50.1454 50.1305 50.1454 51.2538V52.0963C50.1454 53.3188 50.3767 54.2439 50.8393 54.8882C51.3018 55.5324 51.9956 55.8463 52.8877 55.8463C53.6972 55.8463 54.4571 55.4994 55.2005 54.789C55.5474 54.4917 55.8447 54.2769 56.109 54.1613C56.3733 54.0456 56.6707 53.9796 56.9846 53.9796C57.4967 53.9796 57.9262 54.1282 58.2566 54.4421C58.587 54.756 58.7522 55.1525 58.7522 55.6315C58.7522 56.1106 58.6035 56.5566 58.3061 57.0027C58.0088 57.4487 57.5958 57.8452 57.0837 58.1921C55.9108 58.985 54.4075 59.398 52.5904 59.398C50.3932 59.398 48.7082 58.7868 47.5353 57.5478C46.3624 56.3254 45.7677 54.5743 45.7677 52.3111L45.7512 52.278Z" fill="#00977F"/>
<path d="M59.6112 56.028C59.6112 55.5489 59.7764 55.1359 60.0903 54.8221C60.4207 54.5082 60.8006 54.343 61.2632 54.343C61.8083 54.343 62.403 54.5743 63.0308 55.0203C64.0385 55.7472 65.0131 56.0941 65.9547 56.0941C67.3094 56.0941 68.0032 55.6811 68.0032 54.8716C68.0032 54.5412 67.838 54.2769 67.5076 54.0787C67.1772 53.8805 66.632 53.6987 65.8556 53.5501L63.9559 53.1866C62.5352 52.9223 61.4779 52.4267 60.7841 51.7164C60.0903 51.006 59.7434 50.0644 59.7434 48.8915C59.7434 47.4213 60.2885 46.2649 61.3623 45.4224C62.4361 44.5799 63.9063 44.1504 65.773 44.1504C66.8138 44.1504 67.7884 44.2825 68.6805 44.5634C69.5725 44.8442 70.2829 45.2242 70.795 45.7032C71.4062 46.2649 71.7201 46.8596 71.7201 47.5039C71.7201 47.9499 71.5714 48.3133 71.2575 48.5777C70.9437 48.842 70.5472 48.9906 70.0516 48.9906C69.556 48.9906 69.0109 48.7759 68.4327 48.3629C67.9867 48.016 67.5737 47.7682 67.1607 47.6195C66.7477 47.4708 66.3017 47.3882 65.8226 47.3882C65.2774 47.3882 64.8644 47.4874 64.5506 47.6856C64.2367 47.8838 64.088 48.1647 64.088 48.5116C64.088 49.2219 64.7488 49.701 66.0704 49.9157L68.0197 50.2461C70.8611 50.7417 72.2818 52.1129 72.2818 54.3926C72.2818 55.8793 71.6871 57.0853 70.4976 57.9773C69.3082 58.8694 67.7223 59.3154 65.7565 59.3154C64.6662 59.3154 63.642 59.1667 62.7169 58.8859C61.7918 58.6051 61.0484 58.2086 60.5198 57.6965C59.9251 57.1348 59.6277 56.5732 59.6277 55.995L59.6112 56.028Z" fill="#00977F"/>
<path d="M66.6883 91.4308H51.3116C49.8744 91.4308 48.7142 90.2707 48.7142 88.8334V77.2663C48.7142 75.8291 49.8744 74.6689 51.3116 74.6689H66.6883C68.1255 74.6689 69.2857 75.8291 69.2857 77.2663V88.8334C69.2857 90.2707 68.1255 91.4308 66.6883 91.4308ZM53.909 86.236H64.0909V79.8637H53.909V86.236Z" fill="#00977F"/>
<path d="M83.5714 79.8464H34.4286C30.3247 79.8464 27 76.5044 27 72.4179V39.5174C27 35.4135 30.342 32.0889 34.4286 32.0889H83.5714C87.6753 32.0889 91 35.4309 91 39.5174V72.4179C91 76.5218 87.658 79.8464 83.5714 79.8464ZM34.4286 37.2664C33.1991 37.2664 32.1948 38.2707 32.1948 39.5001V72.4005C32.1948 73.63 33.1991 74.6343 34.4286 74.6343H83.5714C84.8008 74.6343 85.8052 73.63 85.8052 72.4005V39.5001C85.8052 38.2707 84.8008 37.2664 83.5714 37.2664H34.4286Z" fill="#00D287"/>
<path d="M88.4026 69.5434H29.5974C28.1602 69.5434 27 68.3833 27 66.946C27 65.5088 28.1602 64.3486 29.5974 64.3486H88.4026C89.8398 64.3486 91 65.5088 91 66.946C91 68.3833 89.8398 69.5434 88.4026 69.5434Z" fill="#00D287"/>
</g>
<defs>
<clipPath id="clip0_921_19755">
<rect width="118" height="118" fill="white" transform="translate(0 0.0932617)"/>
</clipPath>
</defs>
</svg>
