<svg width="118" height="119" viewBox="0 0 118 119" fill="none" xmlns="http://www.w3.org/2000/svg">
<g clip-path="url(#clip0_1_450)">
<path d="M95.3813 0.0933838H22.6187C10.1267 0.0933838 0 10.2201 0 22.712V95.4747C0 107.967 10.1267 118.093 22.6187 118.093H95.3813C107.873 118.093 118 107.967 118 95.4747V22.712C118 10.2201 107.873 0.0933838 95.3813 0.0933838Z" fill="#EFEFEF"/>
<path d="M58.9375 62.3047C58.4787 62.3047 58.0199 62.2049 57.6011 61.9855L28.8989 47.7641C27.8817 47.2654 27.2434 46.2283 27.2434 45.0913C27.2434 43.9544 27.8817 42.9172 28.8989 42.4186L57.6011 28.1972C58.4388 27.7783 59.4162 27.7783 60.2539 28.1972L88.9561 42.4186C89.9733 42.9172 90.6116 43.9544 90.6116 45.0913C90.6116 46.2283 89.9733 47.2654 88.9561 47.7641L60.2539 61.9855C59.835 62.185 59.3763 62.3047 58.9175 62.3047H58.9375ZM36.977 45.0913L58.9375 55.9818L80.8979 45.0913L58.9375 34.2009L36.977 45.0913Z" fill="#00D287"/>
<path d="M87.0812 88.9524H30.8138C29.1582 88.9524 27.8219 87.616 27.8219 85.9605V69.4852C27.8219 67.8297 29.1582 66.4933 30.8138 66.4933H87.0812C88.7367 66.4933 90.0731 67.8297 90.0731 69.4852V85.9605C90.0731 87.616 88.7367 88.9524 87.0812 88.9524ZM33.8056 82.9686H84.0893V72.4771H33.8056V82.9686Z" fill="#00977F"/>
</g>
<defs>
<clipPath id="clip0_1_450">
<rect width="118" height="118" fill="white" transform="translate(0 0.0933838)"/>
</clipPath>
</defs>
</svg>
