<svg width="118" height="119" viewBox="0 0 118 119" fill="none" xmlns="http://www.w3.org/2000/svg">
<g clip-path="url(#clip0_921_18588)">
<circle cx="59" cy="59.1978" r="59" fill="#F7F7FA"/>
<path d="M59.7087 52.6279V66.0849H78.7911C77.9531 70.4126 75.4386 74.0771 71.6673 76.541L83.1747 85.2912C89.8793 79.2263 93.7474 70.3181 93.7474 59.7358C93.7474 57.2719 93.5218 54.9025 93.1027 52.6283L59.7087 52.6279Z" fill="#4285F4"/>
<path d="M39.8375 65.5593L37.2422 67.5063L28.0554 74.519C33.8897 85.8593 45.8476 93.6936 59.708 93.6936C69.2812 93.6936 77.3073 90.5978 83.1739 85.291L71.6665 76.5407C68.5076 78.6256 64.4784 79.8893 59.708 79.8893C50.4892 79.8893 42.6566 73.7926 39.852 65.5794L39.8375 65.5593Z" fill="#34A853"/>
<path d="M28.0555 43.3723C25.6381 48.0473 24.2522 53.3228 24.2522 58.9455C24.2522 64.5683 25.6381 69.8437 28.0555 74.5187C28.0555 74.5501 39.8533 65.5474 39.8533 65.5474C39.1441 63.4626 38.725 61.2515 38.725 58.9452C38.725 56.6389 39.1441 54.4278 39.8533 52.3429L28.0555 43.3723Z" fill="#FBBC05"/>
<path d="M59.7087 38.0338C64.9306 38.0338 69.5722 39.8027 73.2791 43.2144L83.4326 33.2639C77.276 27.6412 69.2822 24.1978 59.7087 24.1978C45.8483 24.1978 33.8897 32.0002 28.0554 43.3724L39.8528 52.3437C42.657 44.1304 50.4899 38.0338 59.7087 38.0338Z" fill="#EA4335"/>
</g>
<defs>
<clipPath id="clip0_921_18588">
<rect width="118" height="118" fill="white" transform="translate(0 0.197754)"/>
</clipPath>
</defs>
</svg>
