<svg width="118" height="119" viewBox="0 0 118 119" fill="none" xmlns="http://www.w3.org/2000/svg">
<g clip-path="url(#clip0_1_139)">
<path d="M95.3813 0.86438H22.6187C10.1267 0.86438 0 10.9911 0 23.483V96.2457C0 108.738 10.1267 118.864 22.6187 118.864H95.3813C107.873 118.864 118 108.738 118 96.2457V23.483C118 10.9911 107.873 0.86438 95.3813 0.86438Z" fill="#2396ED"/>
<path d="M90.6143 43.1098C87.1636 43.1098 83.713 44.3066 81.9179 46.3011C80.1227 48.2957 78.9858 50.8887 77.071 57.1717C75.1562 63.4546 72.9422 69.7575 72.9422 69.7575C72.9422 69.7575 71.5859 66.4665 70.3492 60.0638C69.7309 56.8326 68.0555 49.5922 65.1234 46.4009C62.8895 43.9675 60.835 43.768 58.5812 43.768H42.7441C37.638 43.768 34.7857 45.8025 31.0558 50.769C26.4284 56.9323 20.7438 68.1818 18.6096 76.6389H25.83C31.8337 76.6389 34.4666 74.6443 35.5835 73.5273C36.9199 72.2109 37.7776 71.433 39.2536 67.0249C40.7096 62.6169 41.5274 57.79 41.5274 57.79C41.5274 57.79 43.1829 54.9976 47.9699 49.9512C47.9699 49.9512 49.3462 55.4164 50.3435 59.4654C51.3408 63.5145 52.6373 69.1193 54.7515 71.9117C56.8658 74.6842 58.3817 75.7812 61.0943 75.7812H76.7319C80.0629 75.7812 83.3739 73.4276 85.2488 71.2934C86.7448 69.578 91.9108 63.0956 102.961 43.1297H90.6143V43.1098Z" fill="white"/>
</g>
<defs>
<clipPath id="clip0_1_139">
<rect width="118" height="118" fill="white" transform="translate(0 0.86438)"/>
</clipPath>
</defs>
</svg>
