<svg width="118" height="119" viewBox="0 0 118 119" fill="none" xmlns="http://www.w3.org/2000/svg">
<g clip-path="url(#clip0_1_119)">
<path d="M95.3813 0.86438H22.6187C10.1267 0.86438 0 10.9911 0 23.483V96.2457C0 108.738 10.1267 118.864 22.6187 118.864H95.3813C107.873 118.864 118 108.738 118 96.2457V23.483C118 10.9911 107.873 0.86438 95.3813 0.86438Z" fill="#08A6ED"/>
<path fill-rule="evenodd" clip-rule="evenodd" d="M63.1487 101.192L41.5673 79.7505L53.4949 67.6034L87.1437 101.192H63.1487Z" fill="#006CBC"/>
<path fill-rule="evenodd" clip-rule="evenodd" d="M41.308 79.7704L62.7099 58.3684H86.7647L53.475 91.6581L41.308 79.7704Z" fill="white"/>
<path fill-rule="evenodd" clip-rule="evenodd" d="M22.7782 61.1011L34.9253 73.2481L86.7647 21.4087H62.5902L22.7782 61.1011Z" fill="white"/>
</g>
<defs>
<clipPath id="clip0_1_119">
<rect width="118" height="118" fill="white" transform="translate(0 0.86438)"/>
</clipPath>
</defs>
</svg>
