<svg width="118" height="119" viewBox="0 0 118 119" fill="none" xmlns="http://www.w3.org/2000/svg">
<g clip-path="url(#clip0_1_17)">
<path d="M95.3813 0.421021H22.6187C10.1267 0.421021 0 10.5477 0 23.0397V95.8024C0 108.294 10.1267 118.421 22.6187 118.421H95.3813C107.873 118.421 118 108.294 118 95.8024V23.0397C118 10.5477 107.873 0.421021 95.3813 0.421021Z" fill="#C9005F"/>
<path d="M71.2867 41.39C70.8279 42.4671 70.2694 43.4444 69.6312 44.3619C68.7535 45.5986 68.0554 46.4562 67.497 46.9349C66.6393 47.7128 65.7417 48.1117 64.7644 48.1317C64.0663 48.1317 63.2285 47.9322 62.2312 47.5333C61.2539 47.1344 60.3364 46.9349 59.5186 46.9349C58.7008 46.9349 57.7235 47.1344 56.7262 47.5333C55.7289 47.9322 54.931 48.1516 54.3127 48.1716C53.3752 48.2115 52.4378 47.7926 51.5203 46.9349C50.9219 46.4163 50.1839 45.5188 49.2863 44.2622C48.3289 42.9258 47.551 41.3501 46.9327 39.5749C46.2745 37.6601 45.9354 35.8051 45.9354 33.99C45.9354 31.9356 46.3742 30.1604 47.2718 28.6645C47.9699 27.4677 48.9074 26.5303 50.0642 25.8322C51.241 25.1341 52.4976 24.795 53.8539 24.7551C54.5919 24.7551 55.5693 24.9944 56.786 25.4332C58.0027 25.892 58.7606 26.1114 59.0997 26.1114C59.359 26.1114 60.2167 25.8521 61.6727 25.3136C63.049 24.8149 64.2258 24.6155 65.1832 24.6952C67.7762 24.8947 69.7109 25.9319 71.0074 27.7669C68.6937 29.1631 67.5568 31.1378 67.5767 33.651C67.5967 35.6057 68.3147 37.2412 69.7109 38.5377C70.3492 39.1361 71.0473 39.5948 71.8452 39.9339C71.6656 40.4326 71.4861 40.9113 71.3066 41.3501L71.2867 41.39ZM65.3428 18.0333C65.3428 19.5691 64.7843 21.0053 63.6673 22.3416C62.311 23.9174 60.6755 24.8349 58.9003 24.6952C58.8803 24.5157 58.8604 24.3163 58.8604 24.1168C58.8604 22.6408 59.4986 21.0651 60.6356 19.7686C61.214 19.1104 61.932 18.5719 62.8097 18.133C63.6873 17.7142 64.525 17.4748 65.3029 17.4349C65.3229 17.6344 65.3428 17.8538 65.3428 18.0533V18.0333Z" fill="#EFEFEF"/>
<path d="M32.073 55.8506H35.0649C36.3015 55.8506 37.219 56.1897 37.8174 56.8678C38.4158 57.546 38.7349 58.5233 38.7349 59.8198C38.7349 61.1163 38.4357 62.0937 37.8174 62.7918C37.1991 63.4899 36.2816 63.8289 35.0649 63.8289H32.073V55.8506ZM33.7086 57.1271V62.5325H34.8654C35.6234 62.5325 36.1819 62.3131 36.5409 61.8742C36.8999 61.4354 37.0794 60.7573 37.0794 59.8398C37.0794 58.9223 36.8999 58.2441 36.5409 57.8053C36.1819 57.3465 35.6234 57.1271 34.8654 57.1271H33.7086Z" fill="#EFEFEF"/>
<path d="M42.6643 63.9289C41.7667 63.9289 41.0487 63.6896 40.5301 63.1909C40.0115 62.6923 39.7522 61.9942 39.7522 61.0966V60.3586C39.7522 59.461 40.0115 58.7829 40.55 58.2643C41.0886 57.7457 41.7667 57.5063 42.5845 57.5063C43.4023 57.5063 44.1004 57.7656 44.619 58.2842C45.1376 58.8028 45.3969 59.481 45.3969 60.3586V61.0767H41.308V61.3759C41.308 61.7947 41.4277 62.1338 41.6869 62.3731C41.9462 62.6125 42.2654 62.7521 42.6643 62.7521C42.9834 62.7521 43.2427 62.6923 43.4621 62.5527C43.6815 62.413 43.8012 62.2535 43.8411 62.054H45.3371C45.3371 62.2136 45.2772 62.3731 45.2174 62.5527C45.1376 62.7122 45.0379 62.8917 44.8982 63.0513C44.7586 63.2109 44.5791 63.3704 44.3796 63.4901C44.1802 63.6098 43.9408 63.7295 43.6416 63.8093C43.3425 63.889 43.0233 63.9289 42.6643 63.9289ZM41.308 60.1193H43.881V60.0594C43.881 59.6406 43.7613 59.3015 43.5419 59.0422C43.3026 58.7829 43.0034 58.6632 42.6244 58.6632C42.2454 58.6632 41.9263 58.7829 41.6869 59.0422C41.4476 59.3015 41.3279 59.6406 41.3279 60.0594V60.1193H41.308Z" fill="#EFEFEF"/>
<path d="M48.0098 63.8292L45.8955 57.626H47.6308L48.8874 62.393H48.9472L50.3434 57.626H52.0189L49.785 63.8292H48.0297H48.0098Z" fill="#EFEFEF"/>
<path d="M55.3299 63.9289C54.4324 63.9289 53.7143 63.6896 53.1957 63.1909C52.6771 62.6923 52.4178 61.9942 52.4178 61.0966V60.3586C52.4178 59.461 52.6771 58.7829 53.2157 58.2643C53.7542 57.7457 54.4324 57.5063 55.2502 57.5063C56.0679 57.5063 56.7661 57.7656 57.2846 58.2842C57.8032 58.8028 58.0625 59.481 58.0625 60.3586V61.0767H53.9736V61.3759C53.9736 61.7947 54.0933 62.1338 54.3526 62.3731C54.6119 62.6125 54.931 62.7521 55.3299 62.7521C55.6491 62.7521 55.9084 62.6923 56.1278 62.5527C56.3472 62.413 56.4669 62.2535 56.5068 62.054H58.0027C58.0027 62.2136 57.9429 62.3731 57.883 62.5527C57.8032 62.7122 57.7035 62.8917 57.5639 63.0513C57.4243 63.2109 57.2448 63.3704 57.0453 63.4901C56.8458 63.6098 56.6065 63.7295 56.3073 63.8093C56.0081 63.889 55.689 63.9289 55.3299 63.9289ZM53.9736 60.1193H56.5466V60.0594C56.5466 59.6406 56.427 59.3015 56.2076 59.0422C55.9682 58.7829 55.669 58.6632 55.2901 58.6632C54.9111 58.6632 54.5919 58.7829 54.3526 59.0422C54.1132 59.3015 53.9936 59.6406 53.9936 60.0594V60.1193H53.9736Z" fill="#EFEFEF"/>
<path d="M59.3191 63.8291V55.4319H60.9148V63.8291H59.3191Z" fill="#EFEFEF"/>
<path d="M62.9692 58.304C63.5078 57.7854 64.2059 57.5261 65.1034 57.5261C66.001 57.5261 66.6792 57.7854 67.2177 58.304C67.7562 58.8226 68.0155 59.5008 68.0155 60.3784V61.0765C68.0155 61.994 67.7562 62.6921 67.2177 63.1908C66.6792 63.6894 65.9811 63.9487 65.1034 63.9487C64.2258 63.9487 63.4878 63.6894 62.9692 63.1908C62.4506 62.6921 62.1714 61.9741 62.1714 61.0765V60.3983C62.1714 59.5407 62.4307 58.8426 62.9692 58.324V58.304ZM65.1034 58.7229C64.6846 58.7229 64.3455 58.8824 64.1261 59.2016C63.8867 59.5207 63.787 59.9196 63.787 60.4183V61.0566C63.787 61.5552 63.9067 61.9541 64.1261 62.2733C64.3455 62.5924 64.6846 62.752 65.1234 62.752C65.5622 62.752 65.8813 62.5924 66.1007 62.2733C66.3201 61.9541 66.4398 61.5552 66.4398 61.0566V60.4183C66.4398 59.9196 66.3201 59.5207 66.1007 59.2016C65.8813 58.8824 65.5422 58.7229 65.1234 58.7229H65.1034Z" fill="#EFEFEF"/>
<path d="M72.7028 63.9088C72.264 63.9088 71.885 63.829 71.5659 63.6495C71.2468 63.47 71.0274 63.2107 70.8877 62.8915H70.808V65.9034H69.2123V57.6458H70.7681V58.6431H70.8478C70.9675 58.304 71.2069 58.0447 71.5459 57.8652C71.885 57.6857 72.264 57.5859 72.7228 57.5859C73.4608 57.5859 74.0392 57.8253 74.478 58.3239C74.8969 58.8226 75.1163 59.4808 75.1163 60.3584V61.1961C75.1163 62.0538 74.8969 62.732 74.478 63.2306C74.0591 63.7293 73.4608 63.9686 72.7228 63.9686L72.7028 63.9088ZM72.1643 62.6721C72.5831 62.6721 72.9023 62.5325 73.1416 62.2333C73.381 61.9341 73.4807 61.5352 73.4807 60.9967V60.4581C73.4807 59.9196 73.361 59.5007 73.1416 59.2016C72.9023 58.9024 72.5831 58.7627 72.1443 58.7627C71.7055 58.7627 71.4063 58.9024 71.167 59.1816C70.9276 59.4609 70.808 59.8598 70.808 60.3385V61.1363C70.808 61.5951 70.9276 61.9541 71.1869 62.2333C71.4263 62.5126 71.7654 62.6522 72.1643 62.6522V62.6721Z" fill="#EFEFEF"/>
<path d="M78.9659 63.9289C78.0683 63.9289 77.3503 63.6896 76.8317 63.1909C76.3131 62.6923 76.0538 61.9942 76.0538 61.0966V60.3586C76.0538 59.461 76.3131 58.7829 76.8516 58.2643C77.3901 57.7457 78.0683 57.5063 78.8861 57.5063C79.7039 57.5063 80.402 57.7656 80.9206 58.2842C81.4392 58.8028 81.6985 59.481 81.6985 60.3586V61.0767H77.6096V61.3759C77.6096 61.7947 77.7292 62.1338 77.9885 62.3731C78.2478 62.6125 78.567 62.7521 78.9659 62.7521C79.285 62.7521 79.5443 62.6923 79.7637 62.5527C79.9831 62.413 80.1028 62.2535 80.1427 62.054H81.6386C81.6386 62.2136 81.5788 62.3731 81.5189 62.5527C81.4392 62.7122 81.3394 62.8917 81.1998 63.0513C81.0602 63.2109 80.8807 63.3704 80.6812 63.4901C80.4818 63.6098 80.2424 63.7295 79.9432 63.8093C79.644 63.889 79.3249 63.9289 78.9659 63.9289ZM77.6096 60.1193H80.1826V60.0594C80.1826 59.6406 80.0629 59.3015 79.8435 59.0422C79.6041 58.7829 79.305 58.6632 78.926 58.6632C78.547 58.6632 78.2279 58.7829 77.9885 59.0422C77.7492 59.3015 77.6295 59.6406 77.6295 60.0594V60.1193H77.6096Z" fill="#EFEFEF"/>
<path d="M82.975 63.8291V57.6259H84.5507V58.6033H84.6305C84.6704 58.4836 84.7303 58.3639 84.7901 58.2642C84.8499 58.1645 84.9696 58.0448 85.0893 57.9251C85.209 57.8054 85.3685 57.7257 85.568 57.6459C85.7675 57.5661 85.9869 57.5461 86.2262 57.5461C86.4257 57.5461 86.5852 57.5461 86.7249 57.586V58.9224C86.6052 58.8825 86.4057 58.8626 86.1065 58.8626C85.6079 58.8626 85.2289 58.9822 84.9696 59.2415C84.7103 59.5008 84.5707 59.8399 84.5707 60.2787V63.8291H82.9551H82.975Z" fill="#EFEFEF"/>
<path d="M34.7458 75.7967H33.1102L35.8628 67.8184H37.7576L40.5102 75.7967H38.7749L38.1366 73.7423H35.3841L34.7458 75.7967ZM36.8002 69.3542H36.7204L35.7231 72.5854H37.7975L36.8002 69.3542Z" fill="#EFEFEF"/>
<path d="M41.0287 73.064V72.2861C41.0287 71.4284 41.288 70.7502 41.8066 70.2516C42.3252 69.7529 43.0034 69.4937 43.881 69.4937C44.6788 69.4937 45.3171 69.6931 45.7958 70.112C46.2745 70.5308 46.5139 71.0295 46.5139 71.6478H45.0578C45.0379 71.4085 44.9182 71.1891 44.7387 70.9896C44.5592 70.7901 44.2799 70.7104 43.9209 70.7104C43.502 70.7104 43.2029 70.85 42.9635 71.1292C42.7441 71.4085 42.6244 71.8074 42.6244 72.2861V73.044C42.6244 73.5427 42.7441 73.9416 42.9635 74.2208C43.1829 74.5001 43.502 74.6596 43.9209 74.6596C44.5991 74.6596 44.978 74.3604 45.0778 73.782H46.5338C46.5338 74.4003 46.2945 74.899 45.8158 75.2979C45.3371 75.6968 44.6988 75.8963 43.8611 75.8963C42.9834 75.8963 42.2853 75.637 41.7867 75.1383C41.288 74.6397 41.0287 73.9416 41.0287 73.064Z" fill="#EFEFEF"/>
<path d="M49.4459 75.8762C48.8076 75.8762 48.309 75.6967 47.93 75.3576C47.551 75.0185 47.3516 74.5598 47.3516 73.9813C47.3516 73.4029 47.551 72.9641 47.9499 72.625C48.3489 72.2859 48.9073 72.1264 49.6254 72.1264H51.1812V71.5679C51.1812 71.2687 51.0814 71.0293 50.9019 70.8698C50.7224 70.7102 50.4631 70.6304 50.124 70.6304C49.5257 70.6304 49.1666 70.8498 49.0869 71.2886H47.5909C47.6308 70.7301 47.8702 70.2913 48.289 69.9523C48.7079 69.6132 49.3462 69.4536 50.1639 69.4536C50.5429 69.4536 50.882 69.4935 51.1812 69.5733C51.4804 69.6531 51.7596 69.7727 51.999 69.9323C52.2383 70.0919 52.4378 70.3113 52.5574 70.5905C52.6771 70.8698 52.7569 71.2089 52.7569 71.5878V75.7565H51.261V74.9587H51.1812C51.0416 75.218 50.8222 75.4174 50.5429 75.5969C50.2637 75.7765 49.8847 75.8363 49.4459 75.8363V75.8762ZM49.9645 74.7393C50.3036 74.7393 50.5828 74.6395 50.8222 74.4401C51.0615 74.2406 51.1812 74.0013 51.1812 73.7021V73.0638H49.9645C49.6254 73.0638 49.3661 73.1436 49.1866 73.2832C49.0071 73.4428 48.9273 73.6223 48.9273 73.8816C48.9273 74.1609 49.027 74.3603 49.2265 74.5199C49.4259 74.6794 49.6653 74.7393 49.9645 74.7393Z" fill="#EFEFEF"/>
<path d="M56.3273 69.5138C56.7661 69.5138 57.165 69.6135 57.4841 69.793C57.8032 69.9725 58.0426 70.2318 58.1623 70.5509H58.2421V67.4194H59.8377V75.8167H58.2819V74.8194H58.2022C58.1024 75.1385 57.883 75.3978 57.544 75.5973C57.2049 75.7967 56.806 75.8964 56.3472 75.8964C55.6291 75.8964 55.0308 75.6571 54.6119 75.1784C54.193 74.6997 53.9736 74.0215 53.9736 73.1838V72.2663C53.9736 71.4286 54.193 70.7703 54.6318 70.2717C55.0707 69.793 55.6491 69.5536 56.3871 69.5536L56.3273 69.5138ZM56.8658 70.7504C56.4669 70.7504 56.1477 70.89 55.9084 71.1892C55.669 71.4685 55.5693 71.8873 55.5693 72.4059V73.0043C55.5693 73.5229 55.689 73.9417 55.9283 74.221C56.1677 74.5202 56.4868 74.6598 56.9057 74.6598C57.3245 74.6598 57.6437 74.5202 57.883 74.2409C58.1224 73.9617 58.2421 73.5628 58.2421 73.0641V72.2663C58.2421 71.8075 58.1224 71.4485 57.8631 71.1693C57.6038 70.89 57.2847 70.7504 56.8857 70.7504H56.8658Z" fill="#EFEFEF"/>
<path d="M63.9864 75.8962C63.0889 75.8962 62.3708 75.6569 61.8522 75.1582C61.3336 74.6596 61.0743 73.9615 61.0743 73.0639V72.3259C61.0743 71.4283 61.3336 70.7502 61.8722 70.2316C62.4107 69.713 63.0889 69.4736 63.9067 69.4736C64.7244 69.4736 65.4226 69.7329 65.9411 70.2515C66.4597 70.7701 66.719 71.4483 66.719 72.3259V73.044H62.6301V73.3431C62.6301 73.762 62.7498 74.1011 63.0091 74.3404C63.2684 74.5798 63.5875 74.7194 63.9864 74.7194C64.3056 74.7194 64.5649 74.6596 64.7843 74.52C65.0037 74.3803 65.1234 74.2208 65.1632 74.0213H66.6592C66.6592 74.1809 66.5994 74.3404 66.5395 74.52C66.4597 74.6795 66.36 74.859 66.2204 75.0186C66.0808 75.1782 65.9012 75.3377 65.7018 75.4574C65.5023 75.5771 65.263 75.6968 64.9638 75.7765C64.6646 75.8563 64.3455 75.8962 63.9864 75.8962ZM62.6301 72.0865H65.2031V72.0267C65.2031 71.6079 65.0835 71.2688 64.8641 71.0095C64.6247 70.7502 64.3255 70.6305 63.9466 70.6305C63.5676 70.6305 63.2484 70.7502 63.0091 71.0095C62.7697 71.2688 62.6501 71.6079 62.6501 72.0267V72.0865H62.6301Z" fill="#EFEFEF"/>
<path d="M67.9158 75.7966V69.5934H69.4716V70.6106H69.5514C69.5913 70.471 69.6511 70.3513 69.7309 70.2316C69.8107 70.112 69.9104 69.9923 70.05 69.8726C70.1897 69.7529 70.3492 69.6532 70.5686 69.5934C70.788 69.5136 71.0274 69.4937 71.3066 69.4937C71.7654 69.4937 72.1444 69.5934 72.4635 69.8128C72.7627 70.0322 72.9622 70.3114 73.0619 70.6505H73.1217C73.2414 70.3314 73.4807 70.0521 73.7999 69.8327C74.119 69.6133 74.5578 69.4937 75.0565 69.4937C75.6947 69.4937 76.2133 69.6732 76.5724 70.0122C76.9314 70.3713 77.1109 70.85 77.1109 71.4484V75.7766H75.5352V71.927C75.5352 71.5481 75.4354 71.2489 75.236 71.0494C75.0365 70.85 74.7772 70.7502 74.4381 70.7502C74.0991 70.7502 73.8398 70.8699 73.6204 71.0893C73.401 71.3087 73.3012 71.6279 73.3012 72.0068V75.7766H71.7654V71.947C71.7654 71.5481 71.6657 71.2688 71.4662 71.0494C71.2668 70.83 70.9875 70.7303 70.6684 70.7303C70.3492 70.7303 70.07 70.85 69.8506 71.0694C69.6312 71.2888 69.5315 71.588 69.5315 71.9869V75.7766H67.9557L67.9158 75.7966Z" fill="#EFEFEF"/>
<path d="M84.0721 69.5933C84.0322 69.7528 83.9524 69.9323 83.8726 70.1717C83.7928 70.411 83.713 70.6504 83.6133 70.9296C83.5335 71.1889 83.4338 71.4881 83.3141 71.7873C83.1944 72.0865 83.0947 72.3857 82.995 72.6849C82.8952 72.9841 82.7955 73.2833 82.6758 73.5625C82.5761 73.8417 82.4764 74.121 82.3966 74.3603C82.3168 74.5997 82.237 74.8191 82.1772 75.0186C82.1174 75.218 82.0575 75.3576 82.0176 75.4773L81.9578 75.6369L81.8182 75.9959C81.5389 76.7139 81.1998 77.2126 80.781 77.5118C80.3621 77.811 79.8236 77.9705 79.1255 77.9705C78.7664 77.9705 78.4872 77.9506 78.2877 77.9107V76.7937C78.4274 76.8137 78.5869 76.8336 78.8063 76.8336C79.1654 76.8336 79.4446 76.7738 79.6241 76.6342C79.8036 76.4945 79.9432 76.2751 80.0031 75.976L80.043 75.8164L77.829 69.6132H79.5842L80.9405 74.48H81.0004L82.3766 69.6132H84.0521L84.0721 69.5933Z" fill="#EFEFEF"/>
<path d="M68.8931 97.3381H67.3573L67.0781 98.3553H70.1298C71.147 98.3553 71.7654 97.6373 71.9648 96.8394C72.1842 96.0416 71.8053 95.4033 70.788 95.4033H64.6646L63.5875 99.4324C63.4679 99.8712 63.7272 100.23 64.166 100.23H70.2295L70.5088 99.213H66.1606C66.1606 99.213 66.0409 99.1532 66.0608 99.0933L66.7789 96.4405H69.2721C69.5115 96.4405 69.6311 96.62 69.5713 96.8594C69.5115 97.0987 69.312 97.358 68.8732 97.358L68.8931 97.3381Z" fill="#EFEFEF"/>
<path d="M74.9368 96.5603C74.9368 96.5603 75.0365 96.4406 75.0964 96.4406H79.3249L79.6041 95.4233H72.8624L71.7853 99.4125C71.6657 99.8713 71.9449 100.25 72.4236 100.25H78.3076L78.5869 99.233H74.4381C74.3185 99.233 74.2387 99.1333 74.2786 99.0335L74.9368 96.6001V96.5603Z" fill="#EFEFEF"/>
<path d="M85.0493 95.4033L84.5906 97.1386H82.217L82.6758 95.4033H80.2823L79.0057 100.21H81.3793L81.9378 98.1758H84.3113L83.7529 100.21H86.1464L87.4429 95.4033H85.0493Z" fill="#EFEFEF"/>
<path d="M38.8347 95.6427C38.6352 95.4831 38.3161 95.4033 37.8972 95.4033H31.8536L30.5571 100.21H32.9506L33.9679 96.4206H36.2417C36.6606 96.4206 36.8002 96.6998 36.7005 97.0588C36.6007 97.3979 36.2417 97.6971 35.9026 97.6971H34.3469L34.0676 98.7143H36.9797C38.0368 98.7143 38.8347 97.9763 39.074 97.0588C39.2336 96.4605 39.1937 95.9419 38.7948 95.6427H38.8347Z" fill="#EFEFEF"/>
<path d="M46.6535 95.4033H41.3678C40.4703 95.4033 39.9317 95.902 39.7522 96.62L39.1339 98.9537C38.9344 99.6718 39.3732 100.25 40.0713 100.25H45.357C46.3144 100.25 46.7931 99.6718 46.9926 98.9537L47.5909 96.6998C47.7904 95.9818 47.5909 95.4033 46.6535 95.4033ZM45.1575 96.8594L44.6389 98.7742C44.5791 99.0135 44.3398 99.213 44.1004 99.213H41.8665C41.6271 99.213 41.4875 99.0135 41.5473 98.7742L42.0659 96.8594C42.1258 96.62 42.3651 96.4206 42.6045 96.4206H44.8384C45.1575 96.4206 45.2174 96.62 45.1575 96.8594Z" fill="#EFEFEF"/>
<path d="M64.1261 95.4033H56.2874L56.0281 96.4206H58.7806L57.7634 100.23H60.1968L61.214 96.4206H63.8469L64.1261 95.4033Z" fill="#EFEFEF"/>
<path d="M48.1295 96.8395C47.9101 97.6374 48.3888 98.2756 49.1866 98.2756H52.4577C52.717 98.2756 52.8766 98.4751 52.7968 98.7344C52.737 98.9937 52.5375 99.1931 52.1984 99.1931H47.7705L47.4912 100.21H53.2955C54.3725 100.21 54.9709 99.5522 55.1903 98.7144C55.4097 97.8967 55.1903 97.2185 54.0933 97.2185H50.8222C50.6028 97.2185 50.4632 97.039 50.523 96.7996L50.6427 96.3808H55.4895L55.7688 95.3635H48.5284L48.1494 96.7996L48.1295 96.8395Z" fill="#EFEFEF"/>
<path d="M72.3239 85.8096H45.6761V86.3282H72.3239V85.8096Z" fill="#EFEFEF"/>
</g>
<defs>
<clipPath id="clip0_1_17">
<rect width="118" height="118" fill="white" transform="translate(0 0.421021)"/>
</clipPath>
</defs>
</svg>
