<svg width="118" height="119" viewBox="0 0 118 119" fill="none" xmlns="http://www.w3.org/2000/svg">
<g clip-path="url(#clip0_921_19835)">
<circle cx="59" cy="59.0933" r="59" fill="#F7F7FA"/>
<path d="M58.2665 65.9542H47.2154L40.0736 58.8124C40.6186 57.6283 40.9005 56.3315 40.9005 55.0347C40.9005 52.6291 39.9608 50.3925 38.2693 48.701C36.5778 47.0095 34.3225 46.0698 31.9356 46.0698C29.5487 46.0698 27.2934 47.0095 25.6019 48.701C22.1062 52.1968 22.1062 57.8915 25.6019 61.3872C28.2519 64.0372 32.3303 64.7326 35.7133 63.1727L43.7572 71.2167C44.3399 71.7993 45.1104 72.1188 45.9374 72.1188H58.2665C59.9768 72.1188 61.3487 70.728 61.3487 69.0365C61.3487 67.345 59.958 65.9542 58.2665 65.9542ZM33.9278 57.0269C32.8377 58.117 31.0523 58.117 29.9622 57.0269C28.9097 55.9744 28.9097 54.1326 29.9622 53.0613C31.0147 52.0088 32.8753 52.0088 33.9278 53.0613C34.9803 54.1138 34.9803 55.9744 33.9278 57.0269Z" fill="#60F1A1"/>
<path d="M92.3782 56.8204C89.7282 54.1704 85.6498 53.475 82.2668 55.035L74.2229 46.991C73.6402 46.4084 72.8509 46.0889 72.0427 46.0889H59.7136C58.0033 46.0889 56.6313 47.4796 56.6313 49.1711C56.6313 50.8626 58.0221 52.2534 59.7136 52.2534H70.7647L77.9065 59.3953C77.3615 60.5793 77.0796 61.8761 77.0796 63.1729C77.0796 65.5786 78.0193 67.8151 79.7108 69.5066C81.4023 71.1981 83.6576 72.1378 86.0445 72.1378C88.4314 72.1378 90.6867 71.1981 92.3782 69.5066C95.8739 66.0109 95.8739 60.3162 92.3782 56.8204ZM88.0179 65.1463C86.9654 66.1988 85.1236 66.1988 84.0523 65.1463C82.9998 64.0938 82.9998 62.2332 84.0523 61.1807C84.5973 60.6357 85.3115 60.3538 86.0257 60.3538C86.7399 60.3538 87.4541 60.6169 87.9991 61.1807C89.0516 62.2332 89.0516 64.0938 87.9991 65.1463H88.0179Z" fill="#00D287"/>
<path d="M69.3927 25.7156C65.897 22.2198 60.2023 22.2198 56.7065 25.7156C54.0565 28.3656 53.3612 32.4439 54.9211 35.8269L46.8771 43.8709C46.2945 44.4535 45.975 45.2241 45.975 46.051V58.3801C45.975 60.0716 47.3658 61.4624 49.0573 61.4624C50.7487 61.4624 52.1395 60.0716 52.1395 58.3801V47.3291L59.2814 40.1872C60.4654 40.7322 61.7622 41.0142 63.059 41.0142C65.4647 41.0142 67.7012 40.0744 69.3927 38.3829C71.0842 36.6915 72.0239 34.4361 72.0239 32.0493C72.0239 29.6624 71.0842 27.4071 69.3927 25.7156ZM65.8594 32.0493C65.8594 32.801 65.5775 33.4964 65.0324 34.0227C63.98 35.0751 62.1381 35.0751 61.0668 34.0227C59.9768 32.9326 59.9768 31.1471 61.0668 30.0571C62.1193 29.0046 63.98 29.0046 65.0324 30.0571C65.5587 30.5833 65.8594 31.2787 65.8594 32.0305V32.0493Z" fill="#00977F"/>
<path d="M68.9417 56.7451C67.2314 56.7451 65.8594 58.1359 65.8594 59.8274V70.8785L58.7175 78.0203C57.5335 77.4753 56.2367 77.1934 54.9399 77.1934C52.5342 77.1934 50.2977 78.1331 48.6062 79.8246C46.9147 81.5161 45.975 83.7714 45.975 86.1583C45.975 88.5451 46.9147 90.8005 48.6062 92.492C50.2977 94.1834 52.553 95.1232 54.9399 95.1232C57.3268 95.1232 59.5821 94.1834 61.2736 92.492C63.9236 89.8419 64.619 85.7636 63.059 82.3806L71.103 74.3366C71.6856 73.754 72.0051 72.9834 72.0051 72.1565V59.8274C72.0051 58.1359 70.6144 56.7451 68.9229 56.7451H68.9417ZM56.9321 88.1317C55.8796 89.1841 54.019 89.1841 52.9665 88.1317C52.4402 87.6054 52.1395 86.91 52.1395 86.1583C52.1395 85.4065 52.4214 84.7111 52.9665 84.1849C53.4927 83.6586 54.2257 83.3955 54.9399 83.3955C55.6541 83.3955 56.387 83.6586 56.9133 84.1849C58.0034 85.2749 58.0034 87.0604 56.9133 88.1505L56.9321 88.1317Z" fill="#00D287"/>
</g>
<defs>
<clipPath id="clip0_921_19835">
<rect width="118" height="118" fill="white" transform="translate(0 0.0932617)"/>
</clipPath>
</defs>
</svg>
