<svg width="117" height="119" viewBox="0 0 117 119" fill="none" xmlns="http://www.w3.org/2000/svg">
<g clip-path="url(#clip0_1_64)">
<path d="M94.573 0.421021H22.427C10.0409 0.421021 0 10.5477 0 23.0397V95.8024C0 108.294 10.0409 118.421 22.427 118.421H94.573C106.959 118.421 117 108.294 117 95.8024V23.0397C117 10.5477 106.959 0.421021 94.573 0.421021Z" fill="#494949"/>
<path d="M87.75 75.9962C86.6623 78.5492 85.357 80.9029 83.854 83.057C81.7972 86.009 80.1359 88.0435 78.8307 89.1804C76.8332 91.0354 74.6775 91.9928 72.3834 92.0526C70.7419 92.0526 68.7445 91.5739 66.4306 90.6165C64.0969 89.6591 61.961 89.1804 60.0229 89.1804C58.0847 89.1804 55.7708 89.6591 53.4174 90.6165C51.0639 91.5739 49.1653 92.0726 47.7216 92.1324C45.5066 92.2321 43.3114 91.2548 41.1162 89.1804C39.712 87.9438 37.9716 85.8295 35.8555 82.8376C33.6009 79.6463 31.7617 75.9363 30.2982 71.7078C28.7358 67.1402 27.9645 62.7321 27.9645 58.4438C27.9645 53.5371 29.0127 49.3085 31.1091 45.7781C32.7703 42.9258 34.9656 40.6919 37.7145 39.0364C40.4635 37.3809 43.4301 36.5431 46.6339 36.5033C48.3941 36.5033 50.6882 37.0418 53.536 38.1189C56.3839 39.196 58.2034 39.7345 59.0142 39.7345C59.6075 39.7345 61.6446 39.0962 65.0857 37.8197C68.3489 36.6429 71.0979 36.1442 73.3327 36.3437C79.424 36.8423 84.0122 39.2558 87.0578 43.6239C81.5994 46.9549 78.9098 51.6223 78.9493 57.606C78.9889 62.2734 80.6699 66.1628 83.9727 69.2345C85.4757 70.6706 87.137 71.7676 88.996 72.5655C88.6004 73.7423 88.1653 74.8792 87.7105 75.9563L87.75 75.9962ZM73.7678 20.4867C73.7678 24.1368 72.4427 27.5475 69.8124 30.7189C66.6283 34.4688 62.7718 36.6429 58.5989 36.3038C58.5396 35.865 58.5198 35.4062 58.5198 34.9275C58.5198 31.417 60.0426 27.6672 62.7323 24.5955C64.0771 23.0398 65.7779 21.7433 67.8545 20.7061C69.9311 19.6889 71.8692 19.1304 73.7085 19.0306C73.7678 19.5293 73.7876 20.008 73.7876 20.4867H73.7678Z" fill="white"/>
</g>
<defs>
<clipPath id="clip0_1_64">
<rect width="117" height="118" fill="white" transform="translate(0 0.421021)"/>
</clipPath>
</defs>
</svg>
