<svg width="118" height="119" viewBox="0 0 118 119" fill="none" xmlns="http://www.w3.org/2000/svg">
<g clip-path="url(#clip0_921_18885)">
<circle cx="59" cy="59.771" r="59" fill="black"/>
<path d="M56.387 50.1773C49.2265 39.3268 43.2427 30.3312 43.0831 30.1516C42.5047 29.5333 42.1457 29.4336 39.9516 29.4336C38.0966 29.4336 37.9171 29.4535 37.4783 29.6729C37.219 29.8126 36.86 30.1118 36.6805 30.3312L36.3414 30.75L36.3015 52.3714V73.9728L36.501 74.4515C36.6605 74.7706 36.8999 75.0299 37.219 75.2294L37.7177 75.5485H39.5726C41.2082 75.5485 41.5074 75.5086 41.8465 75.3491C42.3052 75.1097 42.5047 74.8903 42.8039 74.3717C43.0033 74.0127 43.0033 73.3744 43.0432 57.8565C43.0632 48.9806 43.1031 41.7203 43.143 41.7402C43.1828 41.7402 48.1893 49.0803 54.2728 58.0759L65.3228 74.4116L74.1389 86.3193C77.2704 90.5479 80.0628 94.2977 81.6585 96.4319C82.3167 97.3095 83.5334 97.5688 84.4709 97.0103C84.4709 97.0103 84.4908 97.0103 84.5108 96.9904C85.5879 96.3521 85.9469 94.9559 85.2488 93.8988L78.1281 83.108C73.3211 75.8278 63.5476 61.0279 56.387 50.1773Z" fill="#EFEFEF"/>
<path d="M75.934 28.1569C75.5749 27.9574 75.2957 27.9375 73.7 27.9375C72.0046 27.9375 71.8451 27.9574 71.4062 28.1769C70.8877 28.4561 70.5087 28.9348 70.3491 29.5332C70.2893 29.7725 70.2494 34.8986 70.2494 43.994V58.0758L73.6801 63.3215L77.0908 68.5673L77.1307 49.1998C77.1507 35.6965 77.1307 29.7127 77.0509 29.4334C76.8914 28.9148 76.4725 28.4162 75.9539 28.1569H75.934Z" fill="#EFEFEF"/>
</g>
<defs>
<clipPath id="clip0_921_18885">
<rect width="118" height="118" fill="white" transform="translate(0 0.770996)"/>
</clipPath>
</defs>
</svg>
