<svg width="118" height="119" viewBox="0 0 118 119" fill="none" xmlns="http://www.w3.org/2000/svg">
<g clip-path="url(#clip0_921_18455)">
<circle cx="59" cy="59.8394" r="59" fill="#F05239"/>
<path d="M74.1292 85.7798C65.4945 90.7552 53.6018 91.2527 41.6608 86.165C31.9829 82.0723 23.9581 74.8821 18.8062 66.6807C21.2778 68.7351 24.1667 70.3722 27.2483 71.8006C39.5904 77.5624 51.9326 77.1612 60.6154 71.8006C48.2572 62.3634 37.7447 50.0533 29.9285 40.0063C28.2754 38.3692 27.0396 36.3148 25.8038 34.4691C35.2731 43.0878 50.3116 53.9534 55.6561 57.0189C44.3251 45.1261 34.2459 30.3604 34.6471 30.7777C52.5585 48.8175 69.2341 59.0732 69.2341 59.0732C69.7798 59.3782 70.2131 59.635 70.5502 59.8757C70.9033 58.9609 71.2243 58.0139 71.4971 57.0349C74.386 46.5866 71.0798 34.6938 63.8735 24.8394C80.5491 34.8864 90.4357 53.7447 86.3109 69.5376C86.1986 69.9709 86.0862 70.3882 85.9578 70.7895C94.1913 81.0452 92.0727 92.0873 91.0455 90.033C86.5837 81.3341 78.3021 83.9822 74.0971 85.7638L74.1292 85.7798Z" fill="white"/>
</g>
<defs>
<clipPath id="clip0_921_18455">
<rect width="118" height="118" fill="white" transform="translate(0 0.907227)"/>
</clipPath>
</defs>
</svg>
