<svg width="118" height="119" viewBox="0 0 118 119" fill="none" xmlns="http://www.w3.org/2000/svg">
<g clip-path="url(#clip0_921_18869)">
<circle cx="59" cy="58.771" r="59" fill="#292C30"/>
<path d="M87.9191 33.92L83.3211 85.4674C83.1501 87.4244 81.763 89.0774 79.882 89.6094L60.2359 95.0624C59.3999 95.2904 58.5259 95.2904 57.7089 95.0624L38.1388 89.6284C36.2387 89.0964 34.8707 87.4434 34.6997 85.4864L30.1017 33.92C29.8547 31.146 32.0397 28.771 34.8137 28.771H83.2261C86.0001 28.771 88.1851 31.146 87.9381 33.92H87.9191Z" fill="#264DE4"/>
<path d="M59.0009 41.0259H58.9819H40.5518L41.2358 48.3789H58.9819H59.0009H69.3369L68.6719 55.903H59.0009H58.9819H41.8818L42.5468 63.256H58.9819H59.0009H68.0449L67.1899 72.7941L58.9819 75.0171H58.9629L50.7738 72.8131L50.2608 66.942H46.2708H42.8698L43.8958 78.4941L58.9629 82.6742L59.0009 82.6552L74.049 78.4941L74.163 77.2401L75.892 57.879L76.082 55.903L77.412 41.0259H59.0009Z" fill="white"/>
</g>
<defs>
<clipPath id="clip0_921_18869">
<rect width="118" height="118" fill="white" transform="translate(0 0.0678711)"/>
</clipPath>
</defs>
</svg>
