<svg width="118" height="119" viewBox="0 0 118 119" fill="none" xmlns="http://www.w3.org/2000/svg">
<g clip-path="url(#clip0_921_19279)">
<circle cx="59" cy="59.8394" r="59" fill="#2396ED"/>
<path d="M36.4496 62.5609C36.5403 64.5202 38.4997 63.6131 39.3886 62.9963C40.2232 62.3976 40.4771 62.9056 40.5497 61.7626C40.6041 61.0006 40.6767 60.2568 40.6404 59.4949C39.3705 59.386 37.9917 59.6944 36.9394 60.4564C36.3952 60.8374 35.3974 62.0892 36.4496 62.579" fill="#F6D2A2"/>
<path d="M75.5821 86.6899C77.0879 87.6152 79.8455 90.4453 77.5777 91.8241C75.4007 93.8016 74.1852 89.629 72.2802 89.0665C73.0966 87.9417 74.1307 86.9076 75.5821 86.7081V86.6899Z" fill="#F6D2A2"/>
<path d="M48.641 89.8649C46.8631 90.137 45.8834 91.7335 44.3958 92.5499C42.9989 93.3663 42.4727 92.2778 42.3639 92.06C42.1462 91.9693 42.1643 92.1508 41.8378 91.8061C40.5497 89.7741 43.1803 88.2865 44.5409 87.2705C46.4459 86.8896 47.6432 88.5405 48.6592 89.8649H48.641Z" fill="#F6D2A2"/>
<path d="M83.9638 62.307C83.8731 64.2663 81.9137 63.3592 81.0248 62.7424C80.1902 62.1437 79.9362 62.6517 79.8637 61.5087C79.8092 60.7467 79.7367 60.0029 79.773 59.2409C81.0429 59.1321 82.4217 59.4405 83.4739 60.2025C84 60.5835 85.016 61.8353 83.9638 62.3251" fill="#F6D2A2"/>
<path d="M78.7569 38.3777C85.5602 35.983 80.2446 26.6579 74.3121 30.7762C70.4297 27.438 65.0597 26.8394 59.4538 26.8394C53.9386 27.2748 48.6955 28.2907 45.0489 31.4837C39.1346 27.6739 33.692 36.8175 40.6223 39.1215C38.6811 46.6687 40.8944 54.3609 40.586 62.0531C40.2957 68.9471 38.4815 78.1996 42.3276 84.386C45.5932 89.6835 52.5961 91.5703 58.3834 91.788C65.7672 92.0601 74.6931 90.2459 78.2852 83.098C81.7141 76.2947 80.7707 67.8042 80.3172 60.4748C79.8817 53.0547 80.6981 45.5257 78.7751 38.3777H78.7569Z" fill="#69D7E2"/>
<path d="M62.3384 46.487C62.3566 47.4667 62.5561 48.5189 62.3747 49.553C62.1026 50.0428 61.6127 50.0973 61.1773 50.2968C60.5605 50.2061 60.0525 49.807 59.7985 49.2264C59.6534 48.0654 59.8348 46.9587 59.8892 45.7976C59.8892 45.7613 60.6149 45.8157 61.268 46.0153C61.8123 46.1786 62.3384 46.4688 62.3384 46.487Z" fill="white"/>
<path d="M56.9321 46.5598C56.4059 48.5736 57.6396 51.8755 59.6715 49.1723C59.5264 48.0293 59.6897 46.9227 59.7441 45.7979C59.7622 45.7071 56.9502 46.4328 56.9321 46.5598Z" fill="white"/>
<path d="M45.4663 38.1782C47.226 44.9996 58.1476 43.2398 57.7303 36.4003C57.2405 28.2 43.7972 29.7784 45.4663 38.1782Z" fill="white"/>
<path d="M48.4777 39.0489C49.4997 39.0489 50.3282 38.1554 50.3282 37.0532C50.3282 35.9511 49.4997 35.0576 48.4777 35.0576C47.4557 35.0576 46.6273 35.9511 46.6273 37.0532C46.6273 38.1554 47.4557 39.0489 48.4777 39.0489Z" fill="black"/>
<path d="M49.3124 38.015C49.5528 38.015 49.7478 37.7876 49.7478 37.507C49.7478 37.2265 49.5528 36.999 49.3124 36.999C49.0719 36.999 48.877 37.2265 48.877 37.507C48.877 37.7876 49.0719 38.015 49.3124 38.015Z" fill="white"/>
<path d="M60.7781 36.9083C62.1387 44.7456 74.947 42.6593 73.0966 34.7675C71.4456 27.6739 60.3245 29.6333 60.7781 36.9083Z" fill="white"/>
<path d="M63.9348 38.5591C64.9368 38.5591 65.749 37.6657 65.749 36.5635C65.749 35.4613 64.9368 34.5679 63.9348 34.5679C62.9329 34.5679 62.1206 35.4613 62.1206 36.5635C62.1206 37.6657 62.9329 38.5591 63.9348 38.5591Z" fill="black"/>
<path d="M64.7694 37.5252C64.9998 37.5252 65.1866 37.2978 65.1866 37.0173C65.1866 36.7367 64.9998 36.5093 64.7694 36.5093C64.5389 36.5093 64.3521 36.7367 64.3521 37.0173C64.3521 37.2978 64.5389 37.5252 64.7694 37.5252Z" fill="white"/>
<path d="M57.3311 42.4418C55.8253 42.5687 54.6098 44.3467 55.3899 45.7618C56.424 47.6304 58.7281 45.5985 60.1613 45.7799C61.8122 45.8162 63.1729 47.5397 64.4791 46.0883C65.9486 44.4918 63.8441 42.9316 62.1932 42.2422L57.3311 42.4599V42.4418Z" fill="#F6D2A2"/>
<path d="M62.5742 41.6254C61.9755 39.4483 57.0227 39.7749 57.1497 42.3692C57.4037 44.2923 63.1547 43.7843 62.5742 41.6254Z" fill="black"/>
</g>
<defs>
<clipPath id="clip0_921_19279">
<rect width="118" height="118" fill="white" transform="translate(0 0.907227)"/>
</clipPath>
</defs>
</svg>
