<svg width="118" height="119" viewBox="0 0 118 119" fill="none" xmlns="http://www.w3.org/2000/svg">
<g clip-path="url(#clip0_921_18818)">
<circle cx="59" cy="58.771" r="59" fill="#292C30"/>
<path d="M66.6561 32.2054L59 45.4736L51.3439 32.2054C50.8239 31.3089 49.8736 30.771 48.8516 30.771H26.0805C24.3771 30.771 23.3192 32.6178 24.162 34.0881L57.0815 91.1235C57.9242 92.5937 60.0579 92.5937 60.9185 91.1235L93.8381 34.0881C94.6808 32.6178 93.6229 30.771 91.9195 30.771H69.1484C68.1264 30.771 67.1761 31.3268 66.6561 32.2054Z" fill="#41B883"/>
<path d="M66.692 32.1337L59 45.4736L51.308 32.1337C50.8239 31.291 49.9095 30.771 48.9412 30.771H36.964L59.0179 68.962L81.0719 30.771H69.0946C68.1084 30.771 67.2119 31.291 66.7278 32.1337H66.692Z" fill="#34495E"/>
</g>
<defs>
<clipPath id="clip0_921_18818">
<rect width="118" height="118" fill="white" transform="translate(0 0.0678711)"/>
</clipPath>
</defs>
</svg>
