<svg width="118" height="119" viewBox="0 0 118 119" fill="none" xmlns="http://www.w3.org/2000/svg">
<g clip-path="url(#clip0_921_19883)">
<circle cx="59" cy="59.0933" r="59" fill="#F7F7FA"/>
<path d="M58.7641 45.7795H47.5609V34.5763C47.5609 32.5887 45.9347 30.9624 43.947 30.9624C41.9593 30.9624 40.3331 32.5887 40.3331 34.5763V45.7795H29.1299C27.1422 45.7795 25.5159 47.4058 25.5159 49.3935C25.5159 51.3811 27.1422 53.0074 29.1299 53.0074H40.3331V64.2106C40.3331 66.1983 41.9593 67.8245 43.947 67.8245C45.9347 67.8245 47.5609 66.1983 47.5609 64.2106V53.0074H58.7641C60.7518 53.0074 62.3781 51.3811 62.3781 49.3935C62.3781 47.4058 60.7518 45.7795 58.7641 45.7795Z" fill="#00977F"/>
<path d="M90.3861 80.4551H65.974C63.9863 80.4551 62.36 82.0813 62.36 84.069C62.36 86.0567 63.9863 87.6829 65.974 87.6829H90.3861C92.3738 87.6829 94 86.0567 94 84.069C94 82.0813 92.3738 80.4551 90.3861 80.4551Z" fill="#00D287"/>
<path d="M90.3861 67.7949H65.974C63.9863 67.7949 62.36 69.4212 62.36 71.4089C62.36 73.3965 63.9863 75.0228 65.974 75.0228H90.3861C92.3738 75.0228 94 73.3965 94 71.4089C94 69.4212 92.3738 67.7949 90.3861 67.7949Z" fill="#00D287"/>
</g>
<defs>
<clipPath id="clip0_921_19883">
<rect width="118" height="118" fill="white" transform="translate(0 0.0932617)"/>
</clipPath>
</defs>
</svg>
