<svg width="118" height="119" viewBox="0 0 118 119" fill="none" xmlns="http://www.w3.org/2000/svg">
<g clip-path="url(#clip0_1_412)">
<path d="M95.3813 0.0933838H22.6187C10.1267 0.0933838 0 10.2201 0 22.712V95.4747C0 107.967 10.1267 118.093 22.6187 118.093H95.3813C107.873 118.093 118 107.967 118 95.4747V22.712C118 10.2201 107.873 0.0933838 95.3813 0.0933838Z" fill="#EFEFEF"/>
<path d="M54.0335 38.9281C52.0788 38.9281 50.4831 40.5237 50.4831 42.4784V53.7678C50.4831 55.7225 52.0788 57.3182 54.0335 57.3182C55.9882 57.3182 57.5838 55.7225 57.5838 53.7678V42.4784C57.5838 40.5237 55.9882 38.9281 54.0335 38.9281Z" fill="#00977F"/>
<path d="M44.1004 38.9281C42.1457 38.9281 40.55 40.5237 40.55 42.4784V53.7678C40.55 55.7225 42.1457 57.3182 44.1004 57.3182C46.0551 57.3182 47.6508 55.7225 47.6508 53.7678V42.4784C47.6508 40.5237 46.0551 38.9281 44.1004 38.9281Z" fill="#00977F"/>
<path d="M73.8996 38.9281C71.9449 38.9281 70.3492 40.5237 70.3492 42.4784V53.7678C70.3492 55.7225 71.9449 57.3182 73.8996 57.3182C75.8543 57.3182 77.45 55.7225 77.45 53.7678V42.4784C77.45 40.5237 75.8543 38.9281 73.8996 38.9281Z" fill="#00977F"/>
<path d="M63.9665 38.9281C62.0118 38.9281 60.4161 40.5237 60.4161 42.4784V53.7678C60.4161 55.7225 62.0118 57.3182 63.9665 57.3182C65.9212 57.3182 67.5169 55.7225 67.5169 53.7678V42.4784C67.5169 40.5237 65.9212 38.9281 63.9665 38.9281Z" fill="#00977F"/>
<path d="M84.5507 27.898H33.4493C28.6224 27.898 24.6931 31.8273 24.6931 36.6542V71.2604C24.6931 76.0873 28.6224 80.0166 33.4493 80.0166H36.4212V85.4619C36.4212 90.2888 40.3506 94.2181 45.1775 94.2181H72.8425C77.6694 94.2181 81.5987 90.2888 81.5987 85.4619V80.0166H84.5707C89.3976 80.0166 93.3269 76.0873 93.3269 71.2604V36.6542C93.3269 31.8273 89.3976 27.898 84.5707 27.898H84.5507ZM73.9594 76.207V85.4818C73.9594 86.1001 73.4608 86.5988 72.8425 86.5988H45.1775C44.5592 86.5988 44.0605 86.1001 44.0605 85.4818V76.207C44.0605 74.1127 42.3452 72.3973 40.2509 72.3973H33.4693C32.8509 72.3973 32.3523 71.8987 32.3523 71.2803V36.6742C32.3523 36.0559 32.8509 35.5572 33.4693 35.5572H84.5707C85.189 35.5572 85.6876 36.0559 85.6876 36.6742V71.2803C85.6876 71.8987 85.189 72.3973 84.5707 72.3973H77.7891C75.6947 72.3973 73.9794 74.1127 73.9794 76.207H73.9594Z" fill="#00D287"/>
</g>
<defs>
<clipPath id="clip0_1_412">
<rect width="118" height="118" fill="white" transform="translate(0 0.0933838)"/>
</clipPath>
</defs>
</svg>
