<svg width="118" height="119" viewBox="0 0 118 119" fill="none" xmlns="http://www.w3.org/2000/svg">
<g clip-path="url(#clip0_105_19)">
<path d="M95.3813 0.86438H22.6187C10.1267 0.86438 0 10.9911 0 23.483V96.2457C0 108.738 10.1267 118.864 22.6187 118.864H95.3813C107.873 118.864 118 108.738 118 96.2457V23.483C118 10.9911 107.873 0.86438 95.3813 0.86438Z" fill="#326CE5"/>
<path d="M78.6667 92.6555C67.9358 98.8387 53.1559 99.457 38.3161 93.1342C26.2887 88.0479 16.3158 79.1122 9.91315 68.9198C12.9848 71.4729 16.5751 73.5074 20.4047 75.2826C35.7431 82.4432 51.0815 81.9445 61.8722 75.2826C46.5139 63.5544 33.4493 48.2559 23.7357 35.7697C21.6812 33.7352 20.1454 31.1822 18.6096 28.8884C30.3776 39.5993 49.067 53.1027 55.709 56.9124C41.6271 42.1325 29.1011 23.7822 29.5998 24.3008C51.8594 46.72 72.5832 59.4655 72.5832 59.4655C73.2614 59.8444 73.7999 60.1636 74.2188 60.4628C74.6576 59.3258 75.0565 58.149 75.3956 56.9323C78.9858 43.9475 74.877 29.1676 65.9213 16.9208C86.6451 29.407 98.9317 52.8434 93.8056 72.4702C93.666 73.0087 93.5264 73.5273 93.3668 74.026C103.599 86.7714 100.966 100.494 99.6897 97.9411C94.1447 87.1304 83.8526 90.4215 78.6268 92.6355L78.6667 92.6555Z" fill="white"/>
</g>
<defs>
<clipPath id="clip0_105_19">
<rect width="118" height="118" fill="white" transform="translate(0 0.86438)"/>
</clipPath>
</defs>
</svg>
