<svg width="118" height="119" viewBox="0 0 118 119" fill="none" xmlns="http://www.w3.org/2000/svg">
<g clip-path="url(#clip0_1_162)">
<path d="M95.3813 0.86438H22.6187C10.1267 0.86438 0 10.9911 0 23.483V96.2457C0 108.738 10.1267 118.864 22.6187 118.864H95.3813C107.873 118.864 118 108.738 118 96.2457V23.483C118 10.9911 107.873 0.86438 95.3813 0.86438Z" fill="#292C31"/>
<path d="M94.9425 53.2623C94.9425 48.4553 88.9189 43.9077 79.7038 41.0953C81.8381 31.7008 80.8806 24.2211 76.712 21.8275C75.7546 21.2691 74.6376 21.0098 73.4009 21.0098V24.3008C74.0791 24.3008 74.6176 24.4405 75.0764 24.6798C77.0909 25.8367 77.9486 30.2248 77.2704 35.8695C77.1109 37.2657 76.8516 38.7217 76.5125 40.2177C73.6203 39.4996 70.4489 38.9611 67.1379 38.6021C65.1433 35.8695 63.069 33.3762 60.9946 31.2221C65.8215 26.7542 70.3293 24.3008 73.4009 24.3008V21.0098C69.332 21.0098 64.0264 23.9019 58.641 28.9283C53.2556 23.9418 47.95 21.0696 43.881 21.0696V24.3607C46.9327 24.3607 51.4804 26.7941 56.2873 31.242C54.213 33.4161 52.1585 35.8894 50.1839 38.622C46.8529 38.981 43.6815 39.5196 40.7894 40.2376C40.4503 38.7616 40.191 37.3255 40.0115 35.9493C39.3134 30.3046 40.171 25.9165 42.1656 24.7397C42.6045 24.4804 43.1829 24.3607 43.861 24.3607V21.0696C42.6244 21.0696 41.4875 21.3289 40.5301 21.8874C36.3813 24.2809 35.4439 31.7407 37.598 41.1152C28.403 43.9476 22.4192 48.4952 22.4192 53.2822C22.4192 58.0693 28.4429 62.6369 37.6579 65.4493C35.5237 74.8438 36.4811 82.3235 40.6497 84.717C41.6072 85.2755 42.7241 85.5348 43.9807 85.5348C48.0497 85.5348 53.3553 82.6426 58.7407 77.6163C64.1261 82.6027 69.4317 85.4749 73.5007 85.4749C74.7373 85.4749 75.8742 85.2156 76.8316 84.6572C80.9804 82.2637 81.9178 74.8039 79.7637 65.4293C88.9189 62.597 94.9026 58.0493 94.9026 53.2623H94.9425ZM75.6947 43.409C75.1562 45.3238 74.478 47.2785 73.7001 49.2532C73.1017 48.0764 72.4635 46.8796 71.7654 45.7028C71.0872 44.526 70.3692 43.3691 69.6312 42.2522C71.7255 42.5713 73.76 42.9503 75.6947 43.429V43.409ZM68.9331 59.1463C67.7762 61.1409 66.5994 63.0358 65.3627 64.791C63.1687 64.9905 60.9347 65.0902 58.6809 65.0902C56.427 65.0902 54.213 64.9905 52.0389 64.811C50.8222 63.0557 49.6055 61.1808 48.4685 59.1862C47.3516 57.2515 46.3343 55.2768 45.3969 53.3022C46.3144 51.3275 47.3516 49.333 48.4486 47.3982C49.6055 45.4036 50.7823 43.5088 52.0189 41.7535C54.213 41.5541 56.4469 41.4543 58.7008 41.4543C60.9547 41.4543 63.1687 41.5541 65.3428 41.7336C66.5595 43.4888 67.7762 45.3637 68.9131 47.3583C70.0301 49.2931 71.0473 51.2677 71.9848 53.2424C71.0473 55.217 70.0301 57.2116 68.9331 59.1463ZM73.7001 57.2315C74.478 59.1663 75.1562 61.121 75.7346 63.1156C73.7999 63.5943 71.7654 63.9932 69.6511 64.2924C70.3692 63.1555 71.1072 61.9787 71.7853 60.7819C72.4635 59.6051 73.1017 58.4083 73.7001 57.2116V57.2315ZM58.7207 73.0087C57.3445 71.5926 55.9682 70.0169 54.6119 68.2816C55.9483 68.3414 57.3046 68.3813 58.6809 68.3813C60.0571 68.3813 61.4533 68.3614 62.7897 68.2816C61.5132 69.9371 60.1569 71.5128 58.7207 73.0087ZM47.7306 64.3123C45.6362 63.9932 43.6017 63.6142 41.667 63.1355C42.2055 61.2207 42.8837 59.266 43.6616 57.2914C44.26 58.4682 44.8982 59.6649 45.5963 60.8417C46.2944 62.0186 46.9926 63.1754 47.7306 64.2924V64.3123ZM58.6609 33.5557C60.0372 34.9719 61.4134 36.5476 62.7698 38.2829C61.4334 38.2231 60.0771 38.1832 58.7008 38.1832C57.3245 38.1832 55.9283 38.2031 54.5919 38.2829C55.8685 36.6274 57.2248 35.0517 58.6609 33.5557ZM47.7306 42.2522C47.0125 43.3891 46.2745 44.5659 45.5963 45.7626C44.9182 46.9394 44.2799 48.1362 43.6815 49.313C42.9036 47.3783 42.2255 45.4236 41.647 43.429C43.5818 42.9702 45.6163 42.5713 47.7306 42.2522ZM34.3668 60.762C29.141 58.528 25.7502 55.596 25.7502 53.2822C25.7502 50.9685 29.141 48.0165 34.3668 45.8025C35.6433 45.264 37.0196 44.7653 38.4557 44.3066C39.2934 47.1987 40.4104 50.2106 41.7867 53.3022C40.4303 56.3739 39.3333 59.3657 38.5155 62.2579C37.0595 61.7992 35.6633 61.3005 34.3867 60.742L34.3668 60.762ZM42.3252 81.8847C40.3107 80.7278 39.453 76.3397 40.1312 70.695C40.2907 69.2988 40.55 67.8428 40.8891 66.3468C43.7813 67.0649 46.9527 67.6034 50.2637 67.9624C52.2583 70.695 54.3326 73.1883 56.407 75.3424C51.5801 79.8103 47.0723 82.2637 44.0007 82.2637C43.3424 82.2637 42.784 82.124 42.3252 81.8647V81.8847ZM77.3702 70.6152C78.0683 76.2599 77.2106 80.648 75.216 81.8248C74.7772 82.0841 74.1988 82.2038 73.5206 82.2038C70.4689 82.2038 65.9212 79.7704 61.1143 75.3225C63.1886 73.1484 65.2431 70.6751 67.2177 67.9425C70.5487 67.5835 73.7201 67.0449 76.6122 66.3269C76.9513 67.8228 77.2106 69.2589 77.3901 70.6352L77.3702 70.6152ZM83.0548 60.762C81.7782 61.3005 80.402 61.7992 78.9658 62.2579C78.1281 59.3657 77.0111 56.3539 75.6349 53.2623C76.9912 50.1906 78.0882 47.1987 78.906 44.3066C80.3621 44.7653 81.7583 45.264 83.0548 45.8225C88.2806 48.0564 91.6714 50.9885 91.6714 53.3022C91.6714 55.6159 88.2806 58.5679 83.0348 60.7819L83.0548 60.762Z" fill="#61DAFB"/>
<path d="M58.6809 60.004C62.4107 60.004 65.4425 56.9722 65.4425 53.2423C65.4425 49.5124 62.4107 46.4807 58.6809 46.4807C54.951 46.4807 51.9192 49.5124 51.9192 53.2423C51.9192 56.9722 54.951 60.004 58.6809 60.004ZM25.7302 97.1433H23.4963V100.973H22.2397V91.4786H25.3911C26.4682 91.4786 27.286 91.718 27.8644 92.2166C28.4429 92.6953 28.7221 93.4134 28.7221 94.3508C28.7221 94.9492 28.5625 95.4479 28.2434 95.8867C27.9243 96.3255 27.4855 96.6446 26.907 96.864L29.141 100.893V100.973H27.8046L25.7502 97.1433H25.7302ZM23.4963 96.126H25.4111C26.0294 96.126 26.5281 95.9664 26.8871 95.6473C27.2661 95.3282 27.4456 94.8894 27.4456 94.3508C27.4456 93.7724 27.2661 93.3136 26.927 92.9945C26.5879 92.6754 26.0693 92.5158 25.4111 92.5158H23.4963V96.1061V96.126ZM33.2099 101.112C32.2525 101.112 31.4746 100.793 30.8763 100.175C30.2779 99.5368 29.9787 98.699 29.9787 97.6618V97.4424C29.9787 96.7443 30.1183 96.126 30.3776 95.5675C30.6569 95.009 31.0159 94.5902 31.4946 94.271C31.9733 93.9519 32.4919 93.7923 33.0504 93.7923C33.9679 93.7923 34.6859 94.0915 35.1846 94.6899C35.6832 95.2883 35.9425 96.1659 35.9425 97.2829V97.7815H31.1555C31.1555 98.4796 31.3749 99.0381 31.7539 99.4769C32.1528 99.8958 32.6315 100.115 33.2498 100.115C33.6687 100.115 34.0277 100.035 34.3269 99.8559C34.6261 99.6764 34.8854 99.457 35.1048 99.1578L35.8428 99.7362C35.2444 100.654 34.3668 101.093 33.19 101.093L33.2099 101.112ZM33.0504 94.7896C32.5717 94.7896 32.1528 94.9692 31.8337 95.3282C31.4946 95.6872 31.2951 96.1659 31.2153 96.8241H34.7458V96.7244C34.7059 96.1061 34.5463 95.6473 34.2471 95.3082C33.9479 94.9692 33.549 94.8096 33.0504 94.8096V94.7896ZM41.7069 100.973C41.6471 100.833 41.5872 100.594 41.5473 100.235C40.9888 100.813 40.3107 101.112 39.5328 101.112C38.8347 101.112 38.2762 100.913 37.8174 100.534C37.3786 100.135 37.1592 99.6365 37.1592 99.0381C37.1592 98.3001 37.4385 97.7416 37.997 97.3228C38.5554 96.9239 39.3533 96.7044 40.3506 96.7044H41.5274V96.146C41.5274 95.7271 41.4077 95.388 41.1484 95.1487C40.8891 94.8894 40.5301 94.7697 40.0314 94.7697C39.5926 94.7697 39.2336 94.8694 38.9544 95.0888C38.6552 95.3082 38.5155 95.5675 38.5155 95.8867H37.2988C37.2988 95.5276 37.4185 95.1886 37.6778 94.8694C37.9371 94.5303 38.2762 94.271 38.6951 94.0915C39.1339 93.8921 39.5926 93.8123 40.1112 93.8123C40.929 93.8123 41.5673 94.0117 42.026 94.4306C42.4848 94.8295 42.7241 95.388 42.7441 96.1061V99.3573C42.7441 99.9955 42.8239 100.514 42.9834 100.893V100.993H41.7268L41.7069 100.973ZM39.7123 100.055C40.0913 100.055 40.4503 99.9556 40.7894 99.7562C41.1285 99.5567 41.3678 99.2974 41.5274 98.9982V97.5422H40.5899C39.1139 97.5422 38.3759 97.981 38.3759 98.8387C38.3759 99.2176 38.4956 99.5168 38.7549 99.7163C39.0142 99.9357 39.3333 100.035 39.7322 100.035L39.7123 100.055ZM47.4513 100.115C47.8901 100.115 48.2492 99.9756 48.5882 99.7163C48.9273 99.457 49.0869 99.1378 49.1268 98.7389H50.2637C50.2437 99.1378 50.1041 99.5368 49.8448 99.8958C49.5855 100.255 49.2464 100.554 48.8076 100.773C48.3888 100.993 47.93 101.093 47.4513 101.093C46.4939 101.093 45.736 100.773 45.1575 100.135C44.599 99.4969 44.3198 98.6193 44.3198 97.5023V97.3028C44.3198 96.6247 44.4395 96.0063 44.6988 95.4678C44.9581 94.9293 45.3171 94.5104 45.7759 94.2312C46.2546 93.932 46.813 93.7923 47.4513 93.7923C48.2492 93.7923 48.9074 94.0317 49.426 94.5104C49.9446 94.9891 50.2238 95.6074 50.2637 96.3454H49.1268C49.0869 95.8867 48.9273 95.5077 48.6082 95.2285C48.309 94.9293 47.9101 94.7896 47.4513 94.7896C46.833 94.7896 46.3543 95.009 46.0152 95.4479C45.6761 95.8867 45.5166 96.5249 45.5166 97.3627V97.5821C45.5166 98.3999 45.6761 99.0182 46.0152 99.457C46.3543 99.8958 46.833 100.115 47.4513 100.115ZM53.2556 92.2166V93.932H54.572V94.8694H53.2556V99.2376C53.2556 99.5168 53.3154 99.7362 53.4351 99.8758C53.5548 100.015 53.7542 100.075 54.0335 100.075C54.1731 100.075 54.3725 100.055 54.6119 99.9955V100.973C54.2928 101.053 53.9936 101.112 53.6944 101.112C53.1558 101.112 52.7569 100.953 52.4777 100.614C52.1984 100.295 52.0588 99.816 52.0588 99.2176V94.8495H50.7823V93.912H52.0588V92.1967H53.2556V92.2166ZM66.7789 100.973H65.5223L60.7353 93.6527V100.973H59.4787V91.4786H60.7353L65.5223 98.8187V91.4786H66.759V100.973H66.7789ZM73.1616 100.973C73.1018 100.833 73.0419 100.594 73.002 100.235C72.4435 100.813 71.7654 101.112 70.9875 101.112C70.2894 101.112 69.7109 100.913 69.2721 100.534C68.8333 100.135 68.6139 99.6365 68.6139 99.0381C68.6139 98.3001 68.8932 97.7416 69.4517 97.3228C70.0101 96.9239 70.808 96.7044 71.8053 96.7044H72.9821V96.146C72.9821 95.7271 72.8624 95.388 72.6031 95.1487C72.3438 94.8894 71.9848 94.7697 71.4861 94.7697C71.0473 94.7697 70.6883 94.8694 70.4091 95.0888C70.1099 95.3082 69.9702 95.5675 69.9702 95.8867H68.7535C68.7535 95.5276 68.8732 95.1886 69.1325 94.8694C69.3918 94.5303 69.7309 94.271 70.1498 94.0915C70.5886 93.8921 71.0473 93.8123 71.5659 93.8123C72.3837 93.8123 73.022 94.0117 73.4807 94.4306C73.9395 94.8295 74.1788 95.388 74.1988 96.1061V99.3573C74.1988 99.9955 74.2786 100.514 74.4381 100.893V100.993H73.1815L73.1616 100.973ZM71.167 100.055C71.546 100.055 71.905 99.9556 72.2441 99.7562C72.5832 99.5567 72.8225 99.2974 72.9821 98.9982V97.5422H72.0446C70.5686 97.5422 69.8306 97.981 69.8306 98.8387C69.8306 99.2176 69.9503 99.5168 70.2096 99.7163C70.4689 99.9357 70.788 100.035 71.1869 100.035L71.167 100.055ZM77.7093 92.2166V93.932H79.0257V94.8694H77.7093V99.2376C77.7093 99.5168 77.7691 99.7362 77.8888 99.8758C78.0084 100.015 78.2079 100.075 78.4871 100.075C78.6268 100.075 78.8262 100.055 79.0656 99.9955V100.973C78.7464 101.053 78.4473 101.112 78.1481 101.112C77.6095 101.112 77.2106 100.953 76.9314 100.614C76.6521 100.295 76.5125 99.816 76.5125 99.2176V94.8495H75.236V93.912H76.5125V92.1967H77.7093V92.2166ZM81.7583 100.973H80.5615V93.912H81.7583V100.973ZM80.4618 92.0571C80.4618 91.8576 80.5216 91.698 80.6413 91.5584C80.761 91.4188 80.9405 91.3589 81.1798 91.3589C81.4192 91.3589 81.5987 91.4188 81.7184 91.5584C81.8381 91.698 81.8979 91.8576 81.8979 92.0571C81.8979 92.2565 81.8381 92.4161 81.7184 92.5557C81.5987 92.6953 81.4192 92.7552 81.1798 92.7552C80.9405 92.7552 80.761 92.6953 80.6413 92.5557C80.5216 92.4161 80.4618 92.2565 80.4618 92.0571ZM86.0267 99.3373L87.7819 93.912H89.0186L86.4855 100.973H85.5679L83.0149 93.912H84.2515L86.0466 99.3373H86.0267ZM93.0078 101.112C92.0504 101.112 91.2725 100.793 90.6741 100.175C90.0757 99.5368 89.7765 98.699 89.7765 97.6618V97.4424C89.7765 96.7443 89.9161 96.126 90.1754 95.5675C90.4547 95.009 90.8137 94.5902 91.2924 94.271C91.7711 93.9519 92.2897 93.7923 92.8482 93.7923C93.7657 93.7923 94.4838 94.0915 94.9824 94.6899C95.4811 95.2883 95.7404 96.1659 95.7404 97.2829V97.7815H90.9533C90.9533 98.4796 91.1727 99.0381 91.5517 99.4769C91.9506 99.8958 92.4293 100.115 93.0277 100.115C93.4466 100.115 93.8056 100.035 94.1048 99.8559C94.404 99.6764 94.6633 99.457 94.8827 99.1578L95.6207 99.7362C95.0223 100.654 94.1447 101.093 92.9679 101.093L93.0078 101.112ZM92.8482 94.7896C92.3695 94.7896 91.9506 94.9692 91.6315 95.3282C91.2924 95.6872 91.093 96.1659 91.0132 96.8241H94.5436V96.7244C94.5037 96.1061 94.3441 95.6473 94.045 95.3082C93.7458 94.9692 93.3469 94.8096 92.8482 94.8096V94.7896Z" fill="#61DAFB"/>
</g>
<defs>
<clipPath id="clip0_1_162">
<rect width="118" height="118" fill="white" transform="translate(0 0.86438)"/>
</clipPath>
</defs>
</svg>
