<svg width="118" height="118" viewBox="0 0 118 118" fill="none" xmlns="http://www.w3.org/2000/svg">
<path fill-rule="evenodd" clip-rule="evenodd" d="M77.1109 78.0683C77.789 78.7464 78.6866 79.0855 79.5842 79.0855V79.0456C80.4817 79.0456 81.3793 78.7065 82.0575 78.0284C87.1636 72.9422 89.956 66.1805 89.956 58.9601C89.956 51.7397 87.1437 44.978 82.0575 39.8918C80.7011 38.5355 78.4871 38.5355 77.1109 39.8918C75.7545 41.2481 75.7545 43.4621 77.1109 44.8384C80.8806 48.6082 82.955 53.6345 82.955 58.98C82.955 64.3255 80.8806 69.3519 77.1109 73.1217C76.4527 73.7998 76.0936 74.6575 76.0936 75.595C76.0936 76.5324 76.4527 77.4101 77.1109 78.0683Z" fill="#00D287"/>
<path fill-rule="evenodd" clip-rule="evenodd" d="M35.9226 78.0683C36.6008 78.7465 37.4984 79.0856 38.3959 79.0856V79.1254C39.2935 79.1254 40.1911 78.7864 40.8692 78.1082C42.2255 76.7519 42.2255 74.5379 40.8692 73.1616C37.0994 69.3918 35.0251 64.3655 35.0251 59.02C35.0251 53.6745 37.0994 48.6481 40.8692 44.8783C41.5274 44.2002 41.8865 43.3425 41.8865 42.405C41.8865 41.4676 41.5274 40.5899 40.8692 39.9317C39.5129 38.5754 37.2989 38.5754 35.9226 39.9317C30.8364 45.0179 28.024 51.7796 28.024 59C28.024 66.2005 30.8364 72.9821 35.9226 78.0683Z" fill="#00D287"/>
<path d="M90.2154 31.7938C88.8591 30.4374 86.6451 30.4374 85.2688 31.7938C83.9125 33.1501 83.9125 35.3641 85.2688 36.7403C91.2127 42.6842 94.4838 50.5828 94.4838 59.0199C94.4838 67.4571 91.2127 75.3556 85.2688 81.2995C84.6106 81.9577 84.2516 82.8353 84.2516 83.7728C84.2516 84.7103 84.6106 85.5879 85.2688 86.2461C85.947 86.9243 86.8446 87.2633 87.7421 87.2633C88.6397 87.2633 89.5373 86.9243 90.2154 86.2461C105.215 71.2268 105.215 46.813 90.2154 31.8137V31.7938Z" fill="#00977F"/>
<path d="M33.7485 34.2472C33.7485 33.3097 33.3894 32.452 32.7312 31.7739C31.3749 30.4175 29.1609 30.4175 27.7846 31.7739C12.7853 46.7931 12.7853 71.2069 27.7846 86.2062C28.4628 86.8844 29.3604 87.2235 30.2579 87.2235C31.1555 87.2235 32.0531 86.8844 32.7312 86.2062C34.0876 84.8499 34.0876 82.6359 32.7312 81.2597C26.7874 75.3158 23.5162 67.4172 23.5162 58.9801C23.5162 50.543 26.7874 42.6444 32.7312 36.7005C33.3894 36.0423 33.7485 35.1647 33.7485 34.2272V34.2472Z" fill="#00977F"/>
<path d="M59 66.5641C62.866 66.5641 66 63.4033 66 59.5043C66 55.6052 62.866 52.4444 59 52.4444C55.134 52.4444 52 55.6052 52 59.5043C52 63.4033 55.134 66.5641 59 66.5641Z" fill="#60F1A1"/>
</svg>
