<svg width="118" height="119" viewBox="0 0 118 119" fill="none" xmlns="http://www.w3.org/2000/svg">
<g clip-path="url(#clip0_1_462)">
<path d="M95.3813 0.0933838H22.6187C10.1267 0.0933838 0 10.2201 0 22.712V95.4747C0 107.967 10.1267 118.093 22.6187 118.093H95.3813C107.873 118.093 118 107.967 118 95.4747V22.712C118 10.2201 107.873 0.0933838 95.3813 0.0933838Z" fill="#EFEFEF"/>
<path d="M50.9578 39.0278C49.8209 39.0278 48.8436 39.4466 47.9859 40.3043C47.1282 41.162 46.7094 42.1393 46.7094 43.2762C46.7094 44.4132 47.1282 45.3905 47.9859 46.2482C48.8436 47.1059 49.8209 47.5247 50.9578 47.5247C52.0947 47.5247 53.0721 47.1059 53.9298 46.2482C54.7874 45.3905 55.2063 44.4132 55.2063 43.2762C55.2063 42.1393 54.7874 41.162 53.9298 40.3043C53.0721 39.4466 52.0947 39.0278 50.9578 39.0278Z" fill="#00D287"/>
<path d="M41.6032 53.4487C40.4663 53.4487 39.489 53.8676 38.6313 54.7252C37.7736 55.5829 37.3548 56.5603 37.3548 57.6972C37.3548 58.8341 37.7736 59.8114 38.6313 60.6691C39.489 61.5268 40.4663 61.9457 41.6032 61.9457C42.7402 61.9457 43.7175 61.5268 44.5752 60.6691C45.4329 59.8114 45.8517 58.8341 45.8517 57.6972C45.8517 56.5603 45.4329 55.5829 44.5752 54.7252C43.7175 53.8676 42.7402 53.4487 41.6032 53.4487Z" fill="#60F1A1"/>
<path d="M69.1087 39.0278C67.9718 39.0278 66.9944 39.4466 66.1367 40.3043C65.2791 41.162 64.8602 42.1393 64.8602 43.2762C64.8602 44.4132 65.2791 45.3905 66.1367 46.2482C66.9944 47.1059 67.9718 47.5247 69.1087 47.5247C70.2456 47.5247 71.2229 47.1059 72.0806 46.2482C72.9383 45.3905 73.3572 44.4132 73.3572 43.2762C73.3572 42.1393 72.9383 41.162 72.0806 40.3043C71.2229 39.4466 70.2456 39.0278 69.1087 39.0278Z" fill="#00977F"/>
<path d="M91.7273 43.5157C89.9322 39.8257 87.4589 36.5944 84.4071 33.9017C81.3554 31.209 77.7452 29.0948 73.6962 27.5789C69.6472 26.063 65.3189 25.305 60.8111 25.305C55.9643 25.305 51.3568 26.1827 47.1083 27.918C42.8598 29.6532 39.09 32.1066 35.9386 35.1783C32.7672 38.2499 30.2341 41.9399 28.419 46.1086C26.584 50.2773 25.6664 54.8449 25.6664 59.7117C25.6664 64.5785 26.584 68.8869 28.3791 73.0556C30.1742 77.2243 32.6675 80.9142 35.779 84.0258C38.8906 87.1374 42.5806 89.6306 46.7493 91.4257C50.918 93.2209 55.4058 94.1384 60.0931 94.1384C62.3669 94.1384 64.162 93.5001 65.4386 92.2635C66.7151 91.0069 67.3733 89.2317 67.3733 86.9379C67.3733 85.422 66.9345 84.0657 66.037 82.9088C65.279 81.9315 64.9 80.7148 64.9 79.3186C64.9 78.4808 65.2192 77.7428 65.8774 77.0248C66.5157 76.3267 67.2537 76.0075 68.1313 76.0075H74.494C80.4778 76.0075 85.3645 74.1725 88.9947 70.5623C92.6448 66.9521 94.4798 61.9656 94.4798 55.7624C94.4798 51.3544 93.5623 47.2455 91.7672 43.5555L91.7273 43.5157ZM58.7766 80.2361C58.7766 82.7293 59.2354 84.325 60.1928 85.1029C60.8909 85.6813 61.2499 86.2797 61.2499 86.918C61.2499 87.3368 61.1702 87.636 61.0106 87.7956C60.9308 87.8754 60.6715 88.0349 60.0532 88.0349C52.2543 88.0349 45.5126 85.2425 40.0275 79.7374C34.5224 74.2324 31.73 67.4906 31.73 59.7117C31.73 51.9328 34.5823 45.0315 40.1871 39.6063C45.7919 34.161 52.733 31.3885 60.8111 31.3885C68.0714 31.3885 74.5539 33.6424 80.0789 38.1103C85.584 42.5383 88.3764 48.4622 88.3764 55.7425C88.3764 60.3301 87.0799 63.8804 84.5468 66.2739C81.9937 68.6874 78.6029 69.9041 74.4541 69.9041H68.2709C65.5383 69.9041 63.2445 70.9612 61.4494 73.0556C59.6742 75.11 58.7766 77.5434 58.7766 80.256V80.2361Z" fill="#00D287"/>
<path d="M76.0298 53.6282C75.1722 54.4659 74.7533 55.4632 74.7533 56.6002C74.7533 57.7371 75.1722 58.7144 76.0298 59.5721C76.8875 60.4298 77.8649 60.8486 79.0018 60.8486C80.1387 60.8486 81.116 60.4298 81.9737 59.5721C82.8314 58.7144 83.2503 57.7371 83.2503 56.6002C83.2503 55.4632 82.8314 54.4859 81.9737 53.6282C81.116 52.7705 80.1387 52.3517 79.0018 52.3517C77.8649 52.3517 76.8875 52.7705 76.0298 53.6282Z" fill="#00977F"/>
</g>
<defs>
<clipPath id="clip0_1_462">
<rect width="118" height="118" fill="white" transform="translate(0 0.0933838)"/>
</clipPath>
</defs>
</svg>
