<svg width="118" height="119" viewBox="0 0 118 119" fill="none" xmlns="http://www.w3.org/2000/svg">
<g clip-path="url(#clip0_921_18966)">
<circle cx="59" cy="58.771" r="59" fill="#222C37"/>
<path d="M49.3282 39.0448C40.1996 37.3772 32.9964 39.1307 30.1082 44.099C27.9593 47.8124 28.5782 52.7463 31.6039 58.0068C31.8446 58.4538 32.4119 58.6257 32.876 58.3851C33.323 58.1444 33.4949 57.5771 33.2543 57.1129C33.2543 57.1129 33.2543 57.0957 33.2371 57.0785C30.5208 52.3337 29.9879 48.0874 31.7414 45.0446C34.131 40.9014 40.5606 39.3542 49.0015 40.8842C49.5173 40.9702 49.9986 40.6264 50.0846 40.1106C50.1706 39.6121 49.8439 39.1307 49.3454 39.0448H49.3282ZM36.3487 64.4192C40.0448 68.4764 44.824 72.2757 50.2909 75.4389C63.5282 83.0718 77.608 85.1176 84.5533 80.39C84.9831 80.0977 85.1034 79.5304 84.8283 79.1006C84.5361 78.6709 83.9688 78.5505 83.539 78.8256C83.539 78.8256 83.5218 78.8256 83.5046 78.8428C77.2985 83.0718 63.9064 81.1464 51.2364 73.8229C45.9415 70.7628 41.2998 67.0839 37.7412 63.1642C37.3974 62.786 36.7957 62.7517 36.4175 63.0955C36.0393 63.4393 36.0049 64.041 36.3487 64.4192Z" fill="#9FEAF9"/>
<path d="M82.3529 63.2674C88.3183 56.2189 90.4156 49.1189 87.5447 44.1506C85.4301 40.4888 80.9776 38.5634 75.0465 38.4946C74.5308 38.4946 74.1182 38.9072 74.1182 39.4402C74.1182 39.9387 74.5308 40.3685 75.0293 40.3685C80.3587 40.4373 84.2095 42.1048 85.9459 45.0961C88.3355 49.222 86.4616 55.5485 80.9432 62.0812C80.5993 62.4766 80.6509 63.0611 81.0463 63.4049C81.4417 63.7487 82.0262 63.6972 82.37 63.3018L82.3529 63.2674ZM67.001 39.3542C61.6029 40.506 55.8438 42.7753 50.3254 45.9557C36.6582 53.8465 27.7531 65.4679 28.9909 73.9088C29.0596 74.4246 29.5238 74.7856 30.0396 74.7168C30.5553 74.6481 30.9163 74.1839 30.8476 73.6682C30.8476 73.6682 30.8476 73.6682 30.8476 73.651C29.7473 66.1555 38.1883 55.1359 51.2709 47.5889C56.6346 44.4944 62.1874 42.3111 67.3964 41.1937C67.8949 41.0905 68.2388 40.6092 68.1356 40.0934C68.0325 39.5777 67.5511 39.251 67.0354 39.3542C67.0354 39.3542 67.0182 39.3542 67.001 39.3542Z" fill="#9FEAF9"/>
<path d="M44.8584 79.7711C47.9872 88.4871 53.0931 93.868 58.835 93.868C63.0297 93.868 66.8977 91.0142 69.9234 85.9772C70.1985 85.5302 70.061 84.9629 69.614 84.6878C69.167 84.4127 68.5997 84.5503 68.3246 84.9972C68.3246 84.9972 68.3246 84.9972 68.3246 85.0144C65.6084 89.5358 62.2733 91.9941 58.835 91.9941C54.0558 91.9941 49.5001 87.1977 46.6119 79.1522C46.44 78.6536 45.9243 78.3958 45.4257 78.5677C44.9272 78.7396 44.6693 79.2553 44.8412 79.7539C44.8412 79.7539 44.8412 79.7711 44.8412 79.7883L44.8584 79.7711ZM73.3789 78.0691C74.9949 72.8945 75.8716 66.9463 75.8716 60.723C75.8716 45.2164 70.4392 31.8588 62.7202 28.4377C62.2389 28.2314 61.6888 28.4549 61.4997 28.9362C61.3106 29.4004 61.4997 29.9333 61.9638 30.1396C68.8576 33.1997 73.9978 45.8869 73.9978 60.723C73.9978 66.7572 73.1554 72.5163 71.591 77.5018C71.4363 78.0004 71.6941 78.5161 72.1927 78.688C72.6912 78.8599 73.207 78.5849 73.3789 78.0863C73.3789 78.0863 73.3789 78.0863 73.3789 78.0691ZM91 77.158C91 74.6824 88.9886 72.6882 86.5303 72.6882C84.0719 72.6882 82.0605 74.6996 82.0605 77.158C82.0605 79.6164 84.0719 81.6277 86.5303 81.6277C88.9886 81.6277 91 79.6164 91 77.158ZM89.1262 77.158C89.1262 78.6021 87.9572 79.7711 86.5131 79.7711C85.069 79.7711 83.9 78.6021 83.9 77.158C83.9 75.7139 85.069 74.5449 86.5131 74.5449C87.9572 74.5449 89.1262 75.7139 89.1262 77.158ZM31.071 81.6277C33.5465 81.6277 35.5407 79.6164 35.5407 77.158C35.5407 74.6996 33.5293 72.6882 31.071 72.6882C28.6126 72.6882 26.6012 74.6996 26.6012 77.158C26.6012 79.6164 28.6126 81.6277 31.071 81.6277ZM31.071 79.7539C29.6269 79.7539 28.4579 78.5849 28.4579 77.1408C28.4579 75.6967 29.6269 74.5277 31.071 74.5277C32.515 74.5277 33.684 75.6967 33.684 77.1408C33.684 78.5849 32.515 79.7539 31.071 79.7539Z" fill="#9FEAF9"/>
<path d="M58.835 32.9932C61.3105 32.9932 63.3047 30.9818 63.3047 28.5235C63.3047 26.0651 61.2934 24.0537 58.835 24.0537C56.3766 24.0537 54.3652 26.0651 54.3652 28.5235C54.3652 30.9818 56.3766 32.9932 58.835 32.9932ZM58.835 31.1194C57.3909 31.1194 56.2219 29.9503 56.2219 28.5063C56.2219 27.0622 57.3909 25.8932 58.835 25.8932C60.2791 25.8932 61.4481 27.0622 61.4481 28.5063C61.4481 29.9503 60.2791 31.1194 58.835 31.1194ZM59.5226 63.8861C57.7691 64.2643 56.05 63.1469 55.6718 61.4105C55.2936 59.657 56.411 57.9379 58.1473 57.5597C59.9009 57.1815 61.62 58.2989 61.9982 60.0352C62.3764 61.7887 61.259 63.5079 59.5226 63.8861Z" fill="#9FEAF9"/>
</g>
<defs>
<clipPath id="clip0_921_18966">
<rect width="118" height="118" fill="white" transform="translate(0 0.0678711)"/>
</clipPath>
</defs>
</svg>
