<svg width="118" height="119" viewBox="0 0 118 119" fill="none" xmlns="http://www.w3.org/2000/svg">
<g clip-path="url(#clip0_921_18569)">
<circle cx="59" cy="59.687" r="59" fill="#494949"/>
<path d="M66.4997 45.7397C58.9402 45.7397 54.0535 51.3246 54.0535 59.9412C54.0535 68.5579 58.9402 74.1627 66.4997 74.1627C74.0592 74.1627 78.946 68.5778 78.946 59.9412C78.946 51.3047 74.0592 45.7397 66.4997 45.7397ZM66.4997 70.8516C60.9348 70.8516 57.4842 66.663 57.4842 59.9412C57.4842 53.2195 60.9348 49.0508 66.4997 49.0508C72.0646 49.0508 75.5153 53.2195 75.5153 59.9412C75.5153 66.663 72.0646 70.8516 66.4997 70.8516Z" fill="white"/>
<path d="M94.2245 58.4253L91.3523 57.6873C86.7249 56.5304 86.0866 55.0345 86.0866 53.5784C86.0866 50.9854 88.6397 49.0108 92.0305 49.0108C95.4213 49.0108 98.114 50.8658 98.2735 53.3989L98.3334 54.3364H101.724L101.684 53.2992C101.505 48.9709 97.376 45.7197 92.0704 45.7197C86.7647 45.7197 82.6559 49.1105 82.6559 53.5984C82.6559 58.4053 87.024 60.0808 90.3151 60.9185L93.3469 61.6565C97.7948 62.7735 98.7124 64.2096 98.7124 66.0047C98.7124 68.837 96.0795 70.8316 92.3097 70.8316C88.5399 70.8316 85.5281 68.7772 85.3486 65.8451L85.2887 64.9077H81.8979L81.9578 65.9648C82.1971 70.7718 86.4257 74.1426 92.21 74.1426C98.0741 74.1426 102.163 70.7518 102.163 65.9249C102.163 61.098 97.9145 59.3228 94.2245 58.4053V58.4253Z" fill="white"/>
<path d="M48.6082 66.5234C48.0098 67.8997 47.2917 69.1762 46.474 70.353C45.357 71.9487 44.4395 73.0457 43.7414 73.664C42.6443 74.6613 41.4675 75.1799 40.2109 75.2198C39.3134 75.2198 38.2163 74.9605 36.9598 74.4419C35.6832 73.9233 34.5264 73.664 33.4493 73.664C32.3722 73.664 31.1356 73.9233 29.8391 74.4419C28.5625 74.9605 27.5253 75.2398 26.7275 75.2597C25.5307 75.3195 24.314 74.781 23.1173 73.664C22.3594 73.0058 21.4019 71.8489 20.2451 70.2333C19.0084 68.498 18.0111 66.5034 17.2133 64.2097C16.3556 61.7364 15.9368 59.3429 15.9368 57.0291C15.9368 54.3763 16.5152 52.0826 17.6521 50.1677C18.5497 48.6319 19.7464 47.4152 21.2623 46.5176C22.7583 45.6201 24.3938 45.1813 26.1291 45.1414C27.0865 45.1414 28.3431 45.4406 29.8989 46.019C31.4547 46.5974 32.452 46.8966 32.8908 46.8966C33.2099 46.8966 34.3269 46.5575 36.2018 45.8594C37.977 45.2212 39.4729 44.9619 40.7096 45.0616C44.0406 45.3209 46.5338 46.6373 48.2092 49.0109C45.2373 50.806 43.7613 53.3391 43.7813 56.5903C43.8012 59.1235 44.7187 61.2178 46.5338 62.8932C47.3516 63.6711 48.2691 64.2695 49.2664 64.6884C49.047 65.3266 48.8076 65.945 48.5683 66.5234H48.6082ZM40.9689 36.4649C40.9689 38.4395 40.2508 40.2945 38.7948 42.0099C37.0595 44.0443 34.9452 45.2212 32.6714 45.0416C32.6514 44.8023 32.6315 44.5629 32.6315 44.2837C32.6315 42.3888 33.4493 40.3544 34.9253 38.6789C35.6633 37.8412 36.6007 37.1431 37.7177 36.5846C38.8546 36.0261 39.9118 35.7269 40.909 35.687C40.929 35.9463 40.9489 36.2256 40.9489 36.4849L40.9689 36.4649Z" fill="white"/>
</g>
<defs>
<clipPath id="clip0_921_18569">
<rect width="118" height="118" fill="white" transform="translate(0 0.687012)"/>
</clipPath>
</defs>
</svg>
