<svg width="118" height="119" viewBox="0 0 118 119" fill="none" xmlns="http://www.w3.org/2000/svg">
<g clip-path="url(#clip0_1_378)">
<path d="M95.3813 0.0933838H22.6187C10.1267 0.0933838 0 10.2201 0 22.712V95.4747C0 107.967 10.1267 118.093 22.6187 118.093H95.3813C107.873 118.093 118 107.967 118 95.4747V22.712C118 10.2201 107.873 0.0933838 95.3813 0.0933838Z" fill="#08A6ED"/>
<path d="M23.5362 65.7856H94.0786C97.0107 65.7856 99.272 68.162 99.272 70.9791C99.272 73.7962 96.8957 76.1725 94.0786 76.1725H23.5362C20.6041 76.1725 18.3427 73.7962 18.3427 70.9791C18.2278 68.162 20.6041 65.7856 23.5362 65.7856Z" fill="white"/>
<path d="M23.689 66.8011H94.1003C96.3501 66.8011 98.2567 68.6026 98.2567 70.9789V71.0939C98.2567 73.3552 96.4645 75.2716 94.1003 75.2716H23.689C21.4392 75.2716 19.5326 73.4702 19.5326 71.0939V70.8639C19.647 68.6026 21.4392 66.8011 23.689 66.8011Z" fill="white"/>
<path d="M56.5553 23.7184L91.817 84.7555C93.2926 87.2468 92.3727 90.4089 89.9006 91.8845C87.4093 93.3601 84.2472 92.4403 82.7716 89.9681L47.51 28.931C46.0343 26.4397 46.9542 23.2776 49.4264 21.802C51.9177 20.3264 55.0797 21.2463 56.5553 23.7184Z" fill="white"/>
<path d="M55.635 24.18L91.0116 85.4471C92.1423 87.3635 91.4716 89.9698 89.536 91.1005L89.306 91.2155C87.6294 92.1726 84.7834 91.6754 83.6527 89.7398L48.2952 28.3577C47.1645 26.4414 47.7467 23.8506 49.6823 22.72L49.8858 22.5894C51.9172 21.4587 54.5235 22.1295 55.6542 24.18H55.635Z" fill="white"/>
<path d="M49.1965 65.7845C59.0276 48.8244 70.3344 29.1622 70.3344 29.1622C71.81 26.6709 70.8901 23.5088 68.418 22.0332C65.9267 20.5576 62.7646 21.4775 61.289 23.9496C61.289 23.9496 47.491 47.9237 37.1041 65.7653H49.1965V65.7845ZM43.0832 76.1905C38.3306 84.3352 35.0536 90.1993 35.0536 90.1993C33.5779 92.6906 30.4159 93.5913 27.9246 92.1157C25.4333 90.6401 24.5326 87.478 26.0082 84.9867C26.0082 84.9867 27.9246 81.4797 30.9908 76.2863C34.8428 76.1713 41.8376 76.1713 43.0832 76.1713V76.1905Z" fill="white"/>
<path d="M47.9507 65.7852C57.8968 48.5951 69.4335 28.588 69.4335 28.588C70.5642 26.6716 69.9514 24.0755 68.0158 22.9449L67.8429 22.8197C65.9265 21.689 63.3202 22.3597 62.1895 24.2953C62.1895 24.2953 48.6215 47.8094 38.2155 65.7852H47.9316H47.9507ZM41.9524 76.1912C37.4297 84.1059 34.1527 89.7593 34.1527 89.7593C33.022 91.6757 30.5242 92.4919 28.4929 91.3612L28.2694 91.2349C26.353 90.1042 25.6631 87.6129 26.7938 85.5815C26.7938 85.5815 28.9401 81.8446 32.2171 76.1912H41.9333H41.9524Z" fill="white"/>
<path d="M47.4433 98.207C47.2261 98.6415 46.8585 99.1595 46.9421 99.9615C47.0089 102.953 51.8881 105.71 54.7287 105.71C56.7004 105.71 57.352 104.908 58.0706 103.454C58.8058 102 48.2454 96.4692 47.4433 98.207Z" fill="url(#paint0_radial_1_378)"/>
<path d="M80.9959 36.2806C80.9959 36.2806 88.4817 38.102 89.0666 38.6032C89.6514 39.1045 88.1141 42.0287 87.8301 42.4631C85.4239 45.3706 77.9381 61.445 77.9381 61.445L71.0204 57.5183C71.0204 57.5183 77.2029 46.0222 79.3918 41.9451C80.7787 39.1881 80.9959 36.2639 80.9959 36.2639V36.2806Z" fill="url(#paint1_linear_1_378)"/>
<path d="M98.3073 32.5038C99.6106 33.4562 101.365 33.239 102.752 33.0051C103.704 32.8547 102.251 34.2416 100.647 37.4498C99.0425 40.658 99.1261 40.8752 98.8921 40.658C98.6582 40.4408 91.4732 36.3637 91.6904 35.9961C91.9744 35.6285 93.1441 27.7082 93.7289 27.9254C95.8343 28.4267 96.2019 30.9832 98.3073 32.5038Z" fill="url(#paint2_linear_1_378)"/>
<path d="M87.112 41.4446C87.6133 40.6425 89.9526 35.6965 93.6621 35.6965C95.3331 35.6965 98.5413 39.924 98.8253 40.4921C99.0425 40.9934 98.324 43.032 97.9564 42.0962C97.522 41.0101 95.7007 38.6708 93.7289 38.6708C91.7572 38.6708 89.067 40.9266 88.4153 41.7286C87.7637 42.4639 86.594 42.2299 87.112 41.4446Z" fill="url(#paint3_linear_1_378)"/>
<path d="M86.9612 41.1608C87.3288 40.576 88.9998 38.0361 89.8018 37.2341C90.6039 36.432 92.6424 34.3266 94.3802 34.0259C96.1347 33.7418 97.9393 37.3009 97.3712 38.0194C96.9367 38.5207 96.2015 37.9526 95.3326 37.2174C94.4637 36.5657 93.8789 35.2457 91.1052 37.3678C90.1527 38.103 89.217 38.6711 87.028 41.8125C86.4432 42.6145 86.5936 41.7456 86.9612 41.1608Z" fill="url(#paint4_linear_1_378)"/>
<path d="M77.9389 62.3988C78.2229 61.814 78.5905 60.9451 77.7885 60.2935C76.9196 59.6418 72.8425 57.4528 72.1073 57.3025C71.3721 57.1521 70.8039 57.3025 70.5032 57.8037C70.2191 58.305 47.8786 96.5864 47.4442 97.6725C47.0097 98.7586 46.9429 99.5606 47.5945 99.7779C48.2462 99.9951 55.7487 103.554 56.4673 104.356C57.2025 105.158 57.5534 104.289 57.8541 103.855C59.241 102.1 77.5713 62.967 77.9389 62.3821V62.3988Z" fill="url(#paint5_linear_1_378)"/>
<path d="M87.4628 41.0101C87.8304 40.5088 88.6993 39.0384 89.7854 37.7351C90.5206 36.8662 94.4473 34.978 95.3162 31.9202C95.8175 30.2492 95.0321 28.5783 93.9293 27.8431C90.2198 25.5873 83.8201 22.0282 74.4294 22.0282C68.0965 22.0282 65.4063 24.1336 65.4063 24.1336H68.6145L79.743 28.4948L81.1299 34.3096C81.1299 34.3096 81.2803 36.2814 80.6286 38.5371C80.1942 40.3585 80.0438 41.4446 79.3921 43.2659C79.8934 43.4831 81.0631 42.6811 82.3831 43.0487C83.5528 43.3327 84.2713 44.9368 85.0733 44.0011C86.4602 42.1798 86.8946 41.8122 87.4795 41.0101H87.4628Z" fill="url(#paint6_linear_1_378)"/>
<path d="M80.9126 36.4988C80.3277 31.1183 79.0244 26.0219 65.3394 26.0888C66.2082 25.2199 68.3303 24.3343 68.3303 24.3343L65.3394 24.1171C65.3394 24.1171 65.7738 23.7495 66.6427 23.6826C74.6465 23.031 81.7814 24.7019 81.2634 35.1119C81.1966 36.7828 81.0462 37.518 80.8958 36.4988H80.9126Z" fill="url(#paint7_linear_1_378)"/>
<path d="M65.3561 26.0878C66.3085 25.7202 67.6118 25.503 70.0848 25.6534C73.1427 25.8038 77.0025 26.9567 78.5899 28.4104C79.392 29.1457 79.3252 28.5608 78.4396 27.6084C76.1838 24.985 72.7583 24.4002 68.3303 24.3333C67.8291 24.2665 66.1414 25.2022 65.3394 26.0878H65.3561Z" fill="url(#paint8_linear_1_378)"/>
<path d="M102.886 33.0072L106.88 35.0458C106.88 35.0458 105.359 37.0843 104.123 39.4069C102.819 41.8799 101.934 44.5701 101.934 44.5701L98.0739 42.2475C98.0739 42.2475 99.0263 39.6241 100.396 37.0843C101.483 34.9789 102.869 33.0072 102.869 33.0072H102.886Z" fill="url(#paint9_linear_1_378)"/>
<path d="M106.896 35.0446C107.181 35.1949 106.245 37.4507 104.858 40.0574C103.471 42.6641 102.168 44.7193 101.95 44.5689C101.666 44.4186 102.602 42.1628 103.989 39.5561C105.292 36.9327 106.612 34.8942 106.896 35.0446Z" fill="#BFC0D0"/>
</g>
<defs>
<radialGradient id="paint0_radial_1_378" cx="0" cy="0" r="1" gradientUnits="userSpaceOnUse" gradientTransform="translate(53.2693 99.426) rotate(26.12) scale(5.73134 5.73134)">
<stop offset="0.42" stop-color="#0C0C12"/>
<stop offset="1" stop-color="#3D4651"/>
</radialGradient>
<linearGradient id="paint1_linear_1_378" x1="74.5407" y1="49.1552" x2="79.1324" y2="51.6417" gradientUnits="userSpaceOnUse">
<stop stop-color="#344351"/>
<stop offset="0.1" stop-color="#9697A0"/>
<stop offset="0.18" stop-color="#8B8C95"/>
<stop offset="0.35" stop-color="#787A83"/>
<stop offset="0.47" stop-color="#71747D"/>
<stop offset="0.59" stop-color="#777982"/>
<stop offset="0.75" stop-color="#87898F"/>
<stop offset="0.8" stop-color="#8E8F94"/>
<stop offset="0.85" stop-color="#3D3B42"/>
<stop offset="0.9" stop-color="#606E84"/>
</linearGradient>
<linearGradient id="paint2_linear_1_378" x1="99.5037" y1="36.7045" x2="91.8725" y2="26.8493" gradientUnits="userSpaceOnUse">
<stop offset="0.27" stop-color="#262B33"/>
<stop offset="0.45" stop-color="#74747E"/>
<stop offset="0.54" stop-color="#B0B0BC"/>
<stop offset="0.73" stop-color="#74747E"/>
</linearGradient>
<linearGradient id="paint3_linear_1_378" x1="91.163" y1="41.3911" x2="102.89" y2="40.2885" gradientUnits="userSpaceOnUse">
<stop offset="0.14" stop-color="#606E84"/>
<stop offset="0.4" stop-color="#9899A5"/>
<stop offset="0.73" stop-color="#475768"/>
<stop offset="0.92" stop-color="#262B33"/>
</linearGradient>
<linearGradient id="paint4_linear_1_378" x1="95.4936" y1="43.0463" x2="94.8435" y2="39.1446" gradientUnits="userSpaceOnUse">
<stop stop-color="#101215" stop-opacity="0.1"/>
<stop offset="0.46" stop-color="#101215" stop-opacity="0.7"/>
<stop offset="0.7" stop-color="#474951"/>
<stop offset="0.91" stop-color="#7B7D88"/>
</linearGradient>
<linearGradient id="paint5_linear_1_378" x1="58.1096" y1="76.7422" x2="64.9385" y2="81.2269" gradientUnits="userSpaceOnUse">
<stop offset="0.11" stop-color="#2C3952"/>
<stop offset="0.37" stop-color="#3D414E"/>
<stop offset="0.55" stop-color="#474A54"/>
<stop offset="0.75" stop-color="#4E5057"/>
<stop offset="0.89" stop-color="#323945"/>
<stop offset="1" stop-color="#143052"/>
</linearGradient>
<linearGradient id="paint6_linear_1_378" x1="71.7726" y1="39.3906" x2="77.7801" y2="27.2256" gradientUnits="userSpaceOnUse">
<stop offset="0.12" stop-color="#6D7078" stop-opacity="0"/>
<stop offset="0.2" stop-color="#6D7078" stop-opacity="0.7"/>
<stop offset="0.34" stop-color="#35363A"/>
<stop offset="0.37" stop-color="#1D1F22"/>
<stop offset="0.4" stop-color="#101215"/>
<stop offset="0.5" stop-color="#16171A"/>
<stop offset="0.56" stop-color="#292A2E"/>
<stop offset="0.69" stop-color="#4B4D51"/>
<stop offset="0.81" stop-color="#63666B"/>
<stop offset="0.92" stop-color="#72757B"/>
<stop offset="1" stop-color="#777A80"/>
</linearGradient>
<linearGradient id="paint7_linear_1_378" x1="60.9508" y1="31.0111" x2="77.6368" y2="31.0111" gradientUnits="userSpaceOnUse">
<stop stop-color="#4A4D56"/>
<stop offset="1" stop-color="#29292D"/>
</linearGradient>
<linearGradient id="paint8_linear_1_378" x1="63.9667" y1="28.2086" x2="77.6723" y2="28.2086" gradientUnits="userSpaceOnUse">
<stop stop-color="#767880"/>
<stop offset="0.41" stop-color="#0C0A0B"/>
</linearGradient>
<linearGradient id="paint9_linear_1_378" x1="102.122" y1="43.3534" x2="107.045" y2="35.326" gradientUnits="userSpaceOnUse">
<stop stop-color="#858997"/>
<stop offset="0.23" stop-color="#244668"/>
<stop offset="0.28" stop-color="#1A3249"/>
<stop offset="0.4" stop-color="#040506"/>
<stop offset="0.46" stop-color="#313236"/>
<stop offset="0.55" stop-color="#65656E"/>
<stop offset="0.61" stop-color="#868691"/>
<stop offset="0.64" stop-color="#92929E"/>
</linearGradient>
<clipPath id="clip0_1_378">
<rect width="118" height="118" fill="white" transform="translate(0 0.0933838)"/>
</clipPath>
</defs>
</svg>
