<svg width="118" height="119" viewBox="0 0 118 119" fill="none" xmlns="http://www.w3.org/2000/svg">
<g clip-path="url(#clip0_1_471)">
<path d="M95.3813 0.0933838H22.6187C10.1267 0.0933838 0 10.2201 0 22.712V95.4747C0 107.967 10.1267 118.093 22.6187 118.093H95.3813C107.873 118.093 118 107.967 118 95.4747V22.712C118 10.2201 107.873 0.0933838 95.3813 0.0933838Z" fill="#EFEFEF"/>
<path d="M58.6609 44.3733H46.2945V32.0068C46.2945 29.8128 44.4994 28.0177 42.3053 28.0177C40.1113 28.0177 38.3161 29.8128 38.3161 32.0068V44.3733H25.9497C23.7556 44.3733 21.9605 46.1684 21.9605 48.3625C21.9605 50.5565 23.7556 52.3517 25.9497 52.3517H38.3161V64.7181C38.3161 66.9122 40.1113 68.7073 42.3053 68.7073C44.4994 68.7073 46.2945 66.9122 46.2945 64.7181V52.3517H58.6609C60.855 52.3517 62.6501 50.5565 62.6501 48.3625C62.6501 46.1684 60.855 44.3733 58.6609 44.3733Z" fill="#00977F"/>
<path d="M93.5663 82.6495H66.6194C64.4253 82.6495 62.6302 84.4447 62.6302 86.6387C62.6302 88.8328 64.4253 90.6279 66.6194 90.6279H93.5663C95.7603 90.6279 97.5555 88.8328 97.5555 86.6387C97.5555 84.4447 95.7603 82.6495 93.5663 82.6495Z" fill="#00D287"/>
<path d="M93.5663 68.6746H66.6194C64.4253 68.6746 62.6302 70.4697 62.6302 72.6638C62.6302 74.8578 64.4253 76.653 66.6194 76.653H93.5663C95.7603 76.653 97.5555 74.8578 97.5555 72.6638C97.5555 70.4697 95.7603 68.6746 93.5663 68.6746Z" fill="#00D287"/>
</g>
<defs>
<clipPath id="clip0_1_471">
<rect width="118" height="118" fill="white" transform="translate(0 0.0933838)"/>
</clipPath>
</defs>
</svg>
