<svg width="118" height="119" viewBox="0 0 118 119" fill="none" xmlns="http://www.w3.org/2000/svg">
<g clip-path="url(#clip0_921_18839)">
<circle cx="59" cy="58.771" r="59" fill="#77BC1F"/>
<path d="M68.4426 47.0617C61.0576 48.8349 54.5105 47.3735 47.6711 50.0235C32.0438 56.0445 32.2971 74.6726 40.9096 78.862L41.4163 79.1348C41.4163 79.1348 54.0429 76.6212 61.0381 74.0491C71.2485 70.2689 82.4332 60.9743 86.1354 50.1599C84.1479 61.403 74.5416 72.2174 64.8378 77.1473C59.6936 79.7973 55.6796 80.3624 47.2035 83.3242C46.1512 83.7139 45.3523 84.0646 45.3523 84.0646C47.5152 83.7139 49.6586 83.5775 49.6586 83.5775C61.7396 83.0124 80.5821 86.9679 89.3895 75.2182C98.3528 63.2541 93.345 43.9051 89.1946 31.5513C85.4729 39.2675 76.3537 45.1911 68.4621 47.0812L68.4426 47.0617Z" fill="#77BC1F"/>
<path d="M40.403 81.6092C39.8574 81.1611 39.1754 80.9272 38.474 80.9272C36.7982 80.9272 35.4147 82.3107 35.4147 83.9865C35.4147 85.6622 36.7982 87.0457 38.474 87.0457C39.3898 87.0457 40.2666 86.6365 40.8512 85.9155C41.9034 84.61 41.7085 82.6615 40.403 81.6092Z" fill="#77BC1F"/>
<path d="M85.7068 34.474C79.0038 27.771 69.904 24.0103 60.4341 24.0103C40.8317 24.0103 24.6978 40.1637 24.6978 59.8051C24.6978 69.6062 28.7118 78.9788 35.8045 85.7402L37.1295 86.9093C43.5792 92.3458 51.7436 95.3271 60.1613 95.3271C78.8089 95.3271 94.4752 80.713 95.8002 62.0849C96.7745 52.9657 94.105 41.4303 89.5454 27.732C88.5516 30.1287 87.2656 32.4085 85.7457 34.4934L85.7068 34.474ZM40.8707 85.9351C40.2861 86.656 39.4093 87.0652 38.4935 87.0652C36.8177 87.0652 35.4342 85.6818 35.4342 84.006C35.4342 82.3303 36.8177 80.9468 38.4935 80.9468C39.1949 80.9468 39.8769 81.1806 40.4225 81.6288C41.7281 82.681 41.9424 84.6295 40.8707 85.9351ZM89.37 75.2181C80.5431 86.9873 61.7201 83.0122 49.6392 83.5773C49.6392 83.5773 47.4958 83.7137 45.3329 84.0645C45.3329 84.0645 46.1318 83.7137 47.184 83.324C55.6602 80.3622 59.6742 79.7971 64.8183 77.1471C74.5221 72.2173 84.109 61.4029 86.116 50.1597C82.4137 60.9742 71.2291 70.2688 61.0187 74.0489C54.0234 76.621 41.3968 79.1346 41.3968 79.1346L40.8902 78.8618C32.2971 74.6725 32.0243 56.0444 47.6516 50.0234C54.491 47.3928 61.0382 48.8347 68.4232 47.0616C76.3148 45.191 85.434 39.2674 89.1557 31.5316C93.3061 43.8854 98.3139 63.2345 89.3505 75.1986L89.37 75.2181Z" fill="white"/>
</g>
<defs>
<clipPath id="clip0_921_18839">
<rect width="118" height="118" fill="white" transform="translate(0 0.0678711)"/>
</clipPath>
</defs>
</svg>
