<svg width="118" height="119" viewBox="0 0 118 119" fill="none" xmlns="http://www.w3.org/2000/svg">
<g clip-path="url(#clip0_921_18547)">
<circle cx="59" cy="59.1978" r="59" fill="#494949"/>
<path d="M84.8568 74.4034C83.8587 76.7432 82.6611 78.9002 81.2819 80.8743C79.3947 83.5797 77.8704 85.4441 76.6727 86.4861C74.8399 88.186 72.862 89.0634 70.757 89.1183C69.2508 89.1183 67.418 88.6796 65.2949 87.8022C63.1536 86.9248 61.1938 86.4861 59.4154 86.4861C57.6371 86.4861 55.5139 86.9248 53.3545 87.8022C51.1951 88.6796 49.453 89.1366 48.1283 89.1914C46.0959 89.2828 44.0817 88.3871 42.0674 86.4861C40.779 85.3528 39.1821 83.4151 37.2404 80.6732C35.1717 77.7486 33.4841 74.3486 32.1413 70.4734C30.7077 66.2874 30 62.2477 30 58.3177C30 53.821 30.9618 49.9457 32.8853 46.7103C34.4096 44.0964 36.4238 42.0491 38.9462 40.5319C41.4686 39.0147 44.1905 38.247 47.1303 38.2104C48.7453 38.2104 50.8503 38.704 53.4634 39.691C56.0765 40.6781 57.7459 41.1717 58.49 41.1717C59.0343 41.1717 60.9034 40.5867 64.0609 39.4169C67.0551 38.3384 69.5774 37.8814 71.628 38.0642C77.2171 38.5212 81.4271 40.733 84.2216 44.7361C79.2132 47.7888 76.7453 52.0661 76.7816 57.5499C76.8179 61.8273 78.3603 65.3918 81.3908 68.2068C82.7699 69.5229 84.2942 70.5282 86 71.2594C85.6371 72.3379 85.2378 73.3798 84.8205 74.3669L84.8568 74.4034ZM72.0272 23.5321C72.0272 26.8773 70.8114 30.003 68.3979 32.9094C65.4763 36.3459 61.9378 38.3384 58.1089 38.0276C58.0544 37.6255 58.0363 37.2051 58.0363 36.7664C58.0363 33.5492 59.4336 30.1127 61.9015 27.2977C63.1354 25.8719 64.696 24.6837 66.6014 23.7332C68.5068 22.801 70.2852 22.2892 71.9728 22.1978C72.0272 22.6547 72.0454 23.0934 72.0454 23.5321H72.0272Z" fill="white"/>
</g>
<defs>
<clipPath id="clip0_921_18547">
<rect width="118" height="118" fill="white" transform="translate(0 0.197754)"/>
</clipPath>
</defs>
</svg>
