<svg width="118" height="119" viewBox="0 0 118 119" fill="none" xmlns="http://www.w3.org/2000/svg">
<g clip-path="url(#clip0_1_153)">
<path d="M95.3813 0.86438H22.6187C10.1267 0.86438 0 10.9911 0 23.483V96.2457C0 108.738 10.1267 118.864 22.6187 118.864H95.3813C107.873 118.864 118 108.738 118 96.2457V23.483C118 10.9911 107.873 0.86438 95.3813 0.86438Z" fill="#222C37"/>
<path d="M64.9838 59.7647L78.6467 36.1687L85.2488 59.7647L78.6467 83.3607L64.9838 59.7647ZM58.3219 63.5943L71.9848 87.1903L48.1694 81.0868L30.976 63.5943H58.3019H58.3219ZM71.9848 32.3191L58.3219 55.9151H30.996L48.1893 38.4225L71.9848 32.3191ZM91.4919 51.7265L83.1545 20.7106L52.0389 29.028L47.4314 37.1261L38.0768 37.0662L15.2985 59.7647L38.0768 82.4631L47.4115 82.4033L52.019 90.5013L83.1346 98.8188L91.472 67.8029L86.7448 59.7647L91.472 51.7265H91.4919Z" fill="white"/>
</g>
<defs>
<clipPath id="clip0_1_153">
<rect width="118" height="118" fill="white" transform="translate(0 0.86438)"/>
</clipPath>
</defs>
</svg>
