<svg width="118" height="119" viewBox="0 0 118 119" fill="none" xmlns="http://www.w3.org/2000/svg">
<g clip-path="url(#clip0_1_353)">
<path d="M95.3813 0.0933838H22.6187C10.1267 0.0933838 0 10.2201 0 22.712V95.4747C0 107.967 10.1267 118.093 22.6187 118.093H95.3813C107.873 118.093 118 107.967 118 95.4747V22.712C118 10.2201 107.873 0.0933838 95.3813 0.0933838Z" fill="black"/>
<path fill-rule="evenodd" clip-rule="evenodd" d="M59 17.7256C35.5636 17.7256 16.595 36.7141 16.595 60.1306C16.595 78.8997 28.7421 94.7567 45.5964 100.361C47.7107 100.74 48.5085 99.4639 48.5085 98.3469C48.5085 97.3497 48.4487 93.9987 48.4487 90.4484C37.7975 92.4031 35.045 87.8554 34.1873 85.4619C33.7086 84.2452 31.6342 80.4754 29.8391 79.4781C28.3631 78.6803 26.2289 76.7256 29.7793 76.6657C33.1102 76.6059 35.5038 79.7374 36.3016 81.014C40.1113 87.4365 46.2147 85.6215 48.6481 84.5045C49.0271 81.752 50.1241 79.897 51.3608 78.8399C41.9263 77.7827 32.0731 74.1127 32.0731 57.8966C32.0731 53.2891 33.7086 49.4595 36.4213 46.5075C36.0024 45.4504 34.5065 41.1022 36.8401 35.278C36.8401 35.278 40.3905 34.161 48.5085 39.6262C51.8993 38.6688 55.5095 38.1901 59.1197 38.1901C62.7299 38.1901 66.3202 38.6688 69.7309 39.6262C77.8489 34.1211 81.3993 35.278 81.3993 35.278C83.733 41.1022 82.257 45.4504 81.8182 46.5075C84.5308 49.4795 86.1664 53.2493 86.1664 57.8966C86.1664 74.1725 76.2532 77.7827 66.8188 78.8399C68.3547 80.1563 69.691 82.7094 69.691 86.6786C69.691 92.3432 69.6312 96.9108 69.6312 98.3469C69.6312 99.4639 70.429 100.78 72.5433 100.361C89.2979 94.7367 101.445 78.8399 101.445 60.1306C101.445 36.6941 82.4564 17.7256 59.0399 17.7256H59Z" fill="white"/>
</g>
<defs>
<clipPath id="clip0_1_353">
<rect width="118" height="118" fill="white" transform="translate(0 0.0933838)"/>
</clipPath>
</defs>
</svg>
