<svg width="118" height="119" viewBox="0 0 118 119" fill="none" xmlns="http://www.w3.org/2000/svg">
<g clip-path="url(#clip0_921_19420)">
<circle cx="59" cy="59" r="59" fill="#222C37"/>
<path d="M85.3201 39.0835L62.586 25.5857C61.4984 24.9438 60.2502 24.605 59.0021 24.605C57.7539 24.605 56.5058 24.9438 55.4181 25.5857L32.6841 39.0835C30.4552 40.4029 29.0823 42.8635 29.0823 45.5025V72.4802C29.0823 75.1192 30.4552 77.5798 32.6841 78.8993L55.4181 92.397C56.5058 93.0389 57.7539 93.3777 59.0021 93.3777C59.4122 93.3777 59.8044 93.3242 60.1967 93.2707C59.0021 92.9141 58.2175 91.6481 58.2175 89.7224V63.2261C58.2175 59.9988 60.1967 58.2335 62.8713 56.6645L84.3751 43.3806C86.3543 42.2216 88.0482 42.6674 88.8149 44.2722C88.4583 42.1147 87.1923 40.189 85.3201 39.0835Z" fill="#FEFEFE"/>
<path d="M90.5088 45.5201C90.5088 44.5216 90.3305 43.5409 90.0274 42.6137C89.3498 40.581 87.9947 38.8158 86.1225 37.7103L75.2636 31.2556L63.3884 24.2125C62.0333 23.4101 60.5177 23 59.0021 23C57.4865 23 55.9709 23.4101 54.6157 24.2125L45.1833 29.8113L31.8995 37.6924C30.2591 38.6553 29.0109 40.1352 28.2799 41.847C28.2442 41.9183 28.2086 41.9718 28.1907 42.0431C27.9054 42.7563 27.6915 43.5231 27.6023 44.3076C27.5488 44.6999 27.531 45.0921 27.531 45.5023V72.48C27.531 72.8901 27.5488 73.2824 27.6023 73.6747C27.9589 76.4206 29.528 78.8812 31.9173 80.2898L41.9738 86.2631L54.6514 93.7876C54.901 93.9302 55.1685 94.0551 55.4181 94.1799C55.8817 94.3938 56.3631 94.59 56.8446 94.7148C57.5578 94.9109 58.2888 95.0001 59.0199 95.0001C60.1611 95.0001 61.2844 94.7683 62.3542 94.3225C62.7108 94.1799 63.0496 94.0016 63.3884 93.7876L86.1225 80.2898C87.745 79.327 88.9932 77.8648 89.7242 76.1709C89.7599 76.0996 89.7956 76.0283 89.8312 75.957C89.849 75.9035 89.8669 75.8322 89.9025 75.7608C90.2948 74.7267 90.5088 73.6212 90.5088 72.4978V45.5201ZM68.5236 79.844L68.5593 81.7876C68.5593 82.0194 68.4166 82.2868 68.2205 82.376L67.0793 83.0357C66.901 83.1249 66.7406 83.0179 66.7406 82.7861V80.8782C65.742 81.2883 64.7435 81.3775 64.1016 81.1279C63.9768 81.0744 63.9233 80.8961 63.9768 80.6999L64.3869 78.9525C64.4226 78.8099 64.4939 78.6851 64.6009 78.5959C64.6365 78.5602 64.6722 78.5424 64.7079 78.5246C64.7792 78.4889 64.8327 78.4889 64.8862 78.5068C65.5637 78.7385 66.4553 78.6316 67.2933 78.2036C68.3631 77.6687 69.0764 76.5632 69.0764 75.4755C69.0764 74.4949 68.5415 74.0848 67.2398 74.0669C65.5816 74.0669 64.0481 73.746 64.0303 71.321C64.0125 69.324 65.0466 67.2378 66.7049 65.9183V63.957C66.6871 63.7252 66.8297 63.4577 67.0258 63.3507L68.1313 62.6375C68.3097 62.5483 68.4701 62.6553 68.4701 62.9049V64.8663C69.3082 64.5454 70.0214 64.4562 70.6633 64.5989C70.8059 64.6345 70.8594 64.8307 70.8059 65.0446L70.378 66.7742C70.3423 66.899 70.271 67.0417 70.1819 67.113C70.1462 67.1486 70.1105 67.1843 70.0749 67.2021C70.0214 67.2378 69.9679 67.2378 69.8966 67.2378C69.5935 67.1665 68.8981 67.0238 67.7926 67.5766C66.6336 68.165 66.2413 69.1635 66.2413 69.9124C66.2413 70.8039 66.7049 71.0714 68.2918 71.107C70.3958 71.1427 71.3052 72.0521 71.323 74.1739C71.3409 76.2423 70.2354 78.4889 68.5415 79.844H68.5236ZM80.4345 76.581C80.4345 76.7593 80.4166 76.9198 80.2562 77.009L74.5147 80.5038C74.3721 80.5929 74.2473 80.5038 74.2473 80.3433V78.8634C74.2473 78.6851 74.3542 78.5781 74.5147 78.4889L80.167 75.1011C80.3097 75.0119 80.4345 75.1011 80.4345 75.2616V76.5632V76.581ZM84.375 43.3982L62.8713 56.6821C60.1967 58.2512 58.2175 60.0164 58.2175 63.2437V89.74C58.2175 91.6836 59.0021 92.9317 60.1967 93.2883C59.8044 93.3597 59.4122 93.3953 59.0021 93.3953C57.7361 93.3953 56.5058 93.0565 55.4181 92.4146L32.6841 78.9169C30.4552 77.5974 29.0823 75.1368 29.0823 72.4978V45.5201C29.0823 42.8812 30.4552 40.4205 32.6841 39.1011L55.4181 25.6033C56.5058 24.9614 57.7539 24.6226 59.0021 24.6226C60.2502 24.6226 61.4984 24.9614 62.586 25.6033L85.3201 39.1011C87.1923 40.2066 88.4583 42.1323 88.8149 44.2898C88.066 42.685 86.3543 42.2392 84.375 43.3982Z" fill="#222C37"/>
<path d="M80.1671 75.1011L74.5148 78.4889C74.3721 78.5781 74.2473 78.6672 74.2473 78.8634V80.3433C74.2473 80.5216 74.3721 80.593 74.5148 80.5038L80.2562 77.009C80.3989 76.9198 80.4345 76.7594 80.4345 76.5811V75.2794C80.4345 75.1011 80.3097 75.0298 80.1671 75.1189V75.1011Z" fill="#47B353"/>
<path d="M68.274 71.1069C66.7049 71.0712 66.2413 70.8037 66.2235 69.9122C66.2235 69.1633 66.6158 68.1648 67.7748 67.5764C68.8803 67.0236 69.5757 67.1663 69.8788 67.2376C69.9323 67.2376 69.9858 67.2376 70.0571 67.202C70.0927 67.1841 70.1284 67.1485 70.1641 67.1128C70.2532 67.0236 70.3245 66.8988 70.3602 66.774L70.7881 65.0444C70.8416 64.8126 70.7881 64.6343 70.6455 64.5987C70.0036 64.456 69.2904 64.5452 68.4702 64.8661V62.9048C68.4523 62.673 68.2918 62.5482 68.1135 62.6373L67.008 63.3505C66.8119 63.4397 66.6693 63.7071 66.6693 63.9568V65.9181C65.0467 67.2376 63.9947 69.3238 64.0303 71.3208C64.0482 73.7458 65.5994 74.0846 67.2398 74.0667C68.5415 74.0667 69.0764 74.4947 69.0764 75.4754C69.0764 76.563 68.3632 77.6507 67.2933 78.2034C66.4553 78.6314 65.5638 78.7384 64.8862 78.5066C64.8327 78.4887 64.7614 78.5066 64.7079 78.5244C64.6722 78.5422 64.6366 78.5601 64.6009 78.5957C64.4939 78.6849 64.4226 78.8275 64.3869 78.9523L63.9768 80.6997C63.9233 80.8959 63.9768 81.0742 64.1016 81.1277C64.7435 81.3773 65.7421 81.2881 66.7227 80.878V82.7859C66.7406 83.0177 66.9011 83.1247 67.0794 83.0356L68.2205 82.3758C68.3988 82.2867 68.5593 82.0192 68.5593 81.7874L68.5236 79.8439C70.2175 78.4709 71.3231 76.2421 71.3052 74.1737C71.2874 72.0519 70.378 71.1425 68.274 71.1069Z" fill="#FEFEFE"/>
</g>
<defs>
<clipPath id="clip0_921_19420">
<rect width="118" height="118" fill="white" transform="translate(0 0.296875)"/>
</clipPath>
</defs>
</svg>
