<svg width="118" height="119" viewBox="0 0 118 119" fill="none" xmlns="http://www.w3.org/2000/svg">
<g clip-path="url(#clip0_921_19451)">
<circle cx="59" cy="59" r="59" fill="#019639"/>
<path d="M58.8404 18.8687H59.0199C59.9773 19.3274 60.9148 19.8261 61.8124 20.3845C72.1842 26.3484 82.5561 32.3122 92.9479 38.296C93.7657 38.7348 94.2444 39.6323 94.1447 40.5499C94.1247 53.1357 94.1447 65.7216 94.1447 78.2875C94.0051 78.8859 93.646 79.4045 93.1274 79.7436C82.0974 86.1063 71.0673 92.4491 60.0172 98.7919C59.4787 99.2108 58.7208 99.2507 58.1423 98.8916C47.0923 92.5488 36.0622 86.206 25.0321 79.8632C24.2941 79.5242 23.8553 78.7662 23.8952 77.9484V40.2108C23.8354 39.4129 24.2742 38.635 25.0122 38.296C35.384 32.3321 45.736 26.3683 56.1078 20.4045C57.0254 19.8859 57.9429 19.3274 58.9003 18.8687" fill="white"/>
<path d="M38.2563 43.3421V74.4777C38.2363 75.6345 38.6751 76.7714 39.473 77.5892C41.0487 79.145 43.522 79.4043 45.377 78.1876C46.6136 77.3499 47.3317 75.9736 47.3317 74.4777C47.3317 66.9581 47.3317 59.4584 47.3317 51.9388C54.1731 60.1366 61.0345 68.3343 67.9158 76.5121C69.8506 78.4868 72.663 79.3245 75.3756 78.7461C77.3104 78.3671 78.7664 76.7714 78.9659 74.8167C78.9659 64.2255 78.9659 53.6342 78.9659 43.0429C78.7465 40.5497 76.5524 38.6947 74.0592 38.9141C71.8651 39.1136 70.1298 40.8489 69.9304 43.0429C69.9304 50.6822 69.8905 58.3015 69.9304 65.9209C63.2086 57.9824 56.5666 49.9841 49.8648 42.0257C48.0697 39.7119 45.1576 38.575 42.2654 39.0138C40.0514 39.2532 38.3361 41.0882 38.2363 43.3222L38.2563 43.3421Z" fill="#019639"/>
</g>
<defs>
<clipPath id="clip0_921_19451">
<rect width="118" height="118" fill="white" transform="translate(0 0.296875)"/>
</clipPath>
</defs>
</svg>
