<svg width="118" height="119" viewBox="0 0 118 119" fill="none" xmlns="http://www.w3.org/2000/svg">
<g clip-path="url(#clip0_921_19072)">
<circle cx="59" cy="59.8394" r="59" fill="#292C30"/>
<path d="M34.5496 59.8946C34.5496 46.484 45.4265 35.589 58.8552 35.589C67.8318 35.589 75.6682 40.4574 79.885 47.6966L94.472 39.2448C94.0014 38.4666 93.3499 37.797 92.5355 37.3445L61.7328 19.5723C60.0497 18.595 57.9684 18.595 56.2672 19.5723L25.4825 37.3445C23.7994 38.3218 22.7498 40.1135 22.7498 42.0681V77.6125C22.7498 78.5898 23.0212 79.549 23.4918 80.3634L37.8073 72.0564C35.726 68.473 34.5315 64.3105 34.5315 59.8765L34.5496 59.8946Z" fill="#BC57B8"/>
<path d="M58.8371 84.1819C49.8606 84.1819 42.0241 79.3136 37.8073 72.0744L23.4918 80.3814C23.9624 81.1777 24.632 81.8654 25.4826 82.3541L56.2672 100.126C57.9504 101.104 60.0316 101.104 61.7328 100.126L92.5175 82.3541C93.3681 81.8654 94.0558 81.1415 94.5444 80.3271L79.9394 71.9658C75.7588 79.2774 67.868 84.2 58.8371 84.2V84.1819Z" fill="#6A0D78"/>
<path d="M69.3701 53.7958L79.8669 47.6968L69.3701 53.7958Z" fill="black"/>
<path d="M69.4063 65.9391C67.3069 69.5949 63.3616 72.0743 58.8371 72.0743C54.3126 72.0743 50.4215 69.6311 48.304 66.0115C47.2544 64.2198 46.6571 62.1386 46.6571 59.9125C46.6571 53.1982 52.1046 47.7326 58.8371 47.7326C63.3435 47.7326 67.2526 50.1758 69.3701 53.7954L79.8669 47.7145C75.6682 40.4753 67.8137 35.6069 58.8371 35.6069C45.4265 35.6069 34.5315 46.4838 34.5315 59.9125C34.5315 64.3465 35.726 68.509 37.8072 72.0924C42.006 79.3316 49.8605 84.2 58.8371 84.2C67.8137 84.2 75.7406 79.2773 79.9393 71.9657L69.4063 65.9391Z" fill="white"/>
<path d="M69.3702 53.7957C67.2708 50.1761 63.3435 47.7329 58.8372 47.7329C52.1228 47.7329 46.6572 53.1804 46.6572 59.9128C46.6572 62.1389 47.2545 64.2202 48.3041 66.0119L58.8372 59.9128L69.3702 53.8138V53.7957Z" fill="#BC57B8"/>
<path d="M94.454 39.2446L79.867 47.6964L69.3702 53.7773L58.8372 59.8763L69.4064 65.921L79.9394 71.9477L94.5444 80.3089C94.9969 79.4945 95.2503 78.5715 95.2503 77.6123V42.0679C95.2503 41.0544 94.9607 40.0771 94.454 39.2446Z" fill="#962A9B"/>
<path d="M69.3702 53.7954L58.8372 59.8944L69.3702 53.7954Z" fill="black"/>
<path d="M58.8371 72.0564C63.3616 72.0564 67.3069 69.5951 69.4063 65.9212L58.8371 59.8765L48.3041 65.9755C50.4034 69.5951 54.3307 72.0383 58.8371 72.0383V72.0564Z" fill="#6A0D78"/>
<path d="M90.2371 58.7003V56.1666H88.2463V54.1758H85.7126V56.1666H83.0522V54.1758H80.5185V56.1666H78.5277V58.7003H80.5185V61.3607H78.5277V63.8944H80.5185V65.8852H83.0522V63.8944H85.7126V65.8852H88.2463V63.8944H90.2371V61.3607H88.2463V58.7003H90.2371ZM85.7126 61.3607H83.0522V58.7003H85.7126V61.3607Z" fill="white"/>
</g>
<defs>
<clipPath id="clip0_921_19072">
<rect width="118" height="118" fill="white" transform="translate(0 0.907227)"/>
</clipPath>
</defs>
</svg>
