<svg width="118" height="119" viewBox="0 0 118 119" fill="none" xmlns="http://www.w3.org/2000/svg">
<g clip-path="url(#clip0_921_19347)">
<circle cx="59" cy="59.8394" r="59" fill="#6082BB"/>
<path d="M32.7712 64.8456C35.2245 64.8456 37.0596 64.3869 38.2164 63.4893C39.3533 62.5917 40.1512 61.036 40.57 58.8818C40.949 56.8473 40.8094 55.4511 40.1312 54.6732C39.4331 53.8953 37.9372 53.4964 35.6833 53.4964H31.754L29.5799 64.8456H32.7712ZM19.946 78.8277C19.7665 78.8277 19.587 78.7479 19.4673 78.6083C19.3476 78.4687 19.3077 78.2692 19.3476 78.0897L25.112 47.9913C25.1718 47.6921 25.4112 47.4927 25.7103 47.4927H38.1167C42.0261 47.4927 44.9183 48.5698 46.7533 50.684C48.5883 52.8182 49.1468 55.7902 48.4287 59.54C48.1296 61.0758 47.6309 62.492 46.9328 63.7486C46.2347 65.0251 45.3172 66.2019 44.1803 67.2391C42.8439 68.5157 41.308 69.4531 39.6525 69.9917C38.017 70.5302 35.9426 70.8095 33.4494 70.8095H28.423L26.9869 78.3091C26.927 78.6083 26.6877 78.8078 26.3885 78.8078H19.926L19.946 78.8277Z" fill="white"/>
<path d="M63.7272 70.8296C63.5477 70.8296 63.3682 70.7498 63.2685 70.6102C63.1488 70.4706 63.1089 70.2711 63.1488 70.0916L65.662 56.7677C65.9013 55.5111 65.8415 54.5936 65.5024 54.2146C65.283 53.9753 64.6447 53.5764 62.7698 53.5764H58.2221L55.0507 70.311C54.9909 70.6102 54.7516 70.8096 54.4524 70.8096H48.1295C47.95 70.8096 47.7705 70.7299 47.6708 70.5902C47.5511 70.4506 47.5112 70.2511 47.5511 70.0716L53.2357 39.9733C53.2955 39.6741 53.5349 39.4746 53.834 39.4746H60.1569C60.3364 39.4746 60.5159 39.5544 60.6157 39.694C60.7353 39.8336 60.7752 40.0331 60.7353 40.2126L59.3591 47.4729H64.2658C67.9956 47.4729 70.5288 48.1511 72.0048 49.5473C73.5007 50.9635 73.9794 53.2373 73.401 56.309L70.7482 70.311C70.6883 70.6102 70.449 70.8096 70.1498 70.8096H63.7272V70.8296Z" fill="white"/>
<path d="M85.0295 64.8456C87.5826 64.8456 89.4774 64.3869 90.6742 63.4893C91.8709 62.5917 92.6887 61.036 93.1076 58.8818C93.5065 56.8473 93.3469 55.4511 92.6488 54.6732C91.9308 53.8953 90.375 53.4964 88.0214 53.4964H83.9524L81.6985 64.8456H85.0095H85.0295ZM71.7256 78.8277C71.5461 78.8277 71.3665 78.7479 71.2469 78.6083C71.1272 78.4687 71.0873 78.2692 71.1072 78.0897L77.091 47.9913C77.1509 47.6921 77.4101 47.4927 77.7093 47.4927H90.5944C94.6434 47.4927 97.6552 48.5698 99.5501 50.684C101.465 52.8182 102.043 55.7902 101.305 59.54C101.006 61.0758 100.488 62.492 99.7496 63.7486C99.0315 65.0251 98.0741 66.2019 96.8973 67.2391C95.5011 68.5157 93.9254 69.4531 92.21 69.9917C90.5146 70.5302 88.3605 70.8095 85.7675 70.8095H80.5417L79.0457 78.3091C78.9859 78.6083 78.7266 78.8078 78.4274 78.8078H71.7256V78.8277Z" fill="white"/>
</g>
<defs>
<clipPath id="clip0_921_19347">
<rect width="118" height="118" fill="white" transform="translate(0 0.907227)"/>
</clipPath>
</defs>
</svg>
