<svg width="118" height="119" viewBox="0 0 118 119" fill="none" xmlns="http://www.w3.org/2000/svg">
<g clip-path="url(#clip0_1_476)">
<path d="M95.3813 0.0933838H22.6187C10.1267 0.0933838 0 10.2201 0 22.712V95.4747C0 107.967 10.1267 118.093 22.6187 118.093H95.3813C107.873 118.093 118 107.967 118 95.4747V22.712C118 10.2201 107.873 0.0933838 95.3813 0.0933838Z" fill="#EFEFEF"/>
<path d="M62.9108 62.2944L62.9108 42.4074C62.9108 40.2133 61.1308 38.4182 58.9554 38.4182C56.7799 38.4182 55 40.2133 55 42.4074L55 62.2944C55 64.4885 56.7799 66.2836 58.9554 66.2836C61.1308 66.2836 62.9108 64.4885 62.9108 62.2944Z" fill="#00977F"/>
<path d="M39.473 79.2787C38.5754 79.2787 37.6779 78.9795 36.9399 78.3611L17.5724 62.3246C16.6549 61.5667 16.1363 60.4497 16.1363 59.253C16.1363 58.0562 16.6748 56.9392 17.5724 56.1813L37.279 39.8655C38.9744 38.4494 41.4875 38.6887 42.9037 40.3841C44.3199 42.0795 44.0805 44.5927 42.3851 46.0089L26.3885 59.253L42.046 72.2178C43.7414 73.614 43.9808 76.1272 42.5646 77.8425C41.7668 78.8 40.6299 79.2787 39.4929 79.2787H39.473Z" fill="#00D287"/>
<path d="M78.188 79.2787C77.0311 79.2787 75.8942 78.78 75.1163 77.8425C73.7002 76.1471 73.9395 73.634 75.6349 72.2178L91.6315 58.9737L75.974 46.0089C74.2786 44.6127 74.0393 42.0995 75.4554 40.3841C76.8516 38.6887 79.3648 38.4494 81.0802 39.8655L100.448 55.902C101.365 56.66 101.884 57.777 101.884 58.9737C101.884 60.1705 101.345 61.2874 100.448 62.0454L80.7411 78.3611C80.0031 78.9795 79.0856 79.2787 78.2079 79.2787H78.188Z" fill="#00D287"/>
<path d="M56.038 72.9768C55.1803 73.8145 54.7615 74.8118 54.7615 75.9487C54.7615 77.0856 55.1803 78.063 56.038 78.9206C56.8957 79.7783 57.873 80.1972 59.01 80.1972C60.1469 80.1972 61.1242 79.7783 61.9819 78.9206C62.8396 78.063 63.2584 77.0856 63.2584 75.9487C63.2584 74.8118 62.8396 73.8344 61.9819 72.9768C61.1242 72.1191 60.1469 71.7002 59.01 71.7002C57.873 71.7002 56.8957 72.1191 56.038 72.9768Z" fill="#00977F"/>
</g>
<defs>
<clipPath id="clip0_1_476">
<rect width="118" height="118" fill="white" transform="translate(0 0.0933838)"/>
</clipPath>
</defs>
</svg>
