<svg width="118" height="119" viewBox="0 0 118 119" fill="none" xmlns="http://www.w3.org/2000/svg">
<g clip-path="url(#clip0_921_18501)">
<circle cx="59" cy="59.687" r="59" fill="#F47421"/>
<path d="M58.4305 86.4613C72.9759 86.4613 84.7672 74.67 84.7672 60.1246C84.7672 45.5792 72.9759 33.7878 58.4305 33.7878C43.8851 33.7878 32.0938 45.5792 32.0938 60.1246C32.0938 74.67 43.8851 86.4613 58.4305 86.4613Z" stroke="white" stroke-width="8.55"/>
<path d="M21.5147 70.2968C27.1327 70.2968 31.6869 65.7425 31.6869 60.1246C31.6869 54.5066 27.1327 49.9524 21.5147 49.9524C15.8968 49.9524 11.3425 54.5066 11.3425 60.1246C11.3425 65.7425 15.8968 70.2968 21.5147 70.2968Z" fill="#F47421"/>
<path d="M78.9414 60.1245H91.0001H78.9414Z" fill="#F47421"/>
<path d="M78.9414 60.1245H91.0001" stroke="#F47421" stroke-width="3.24"/>
<path d="M21.5147 67.3745C25.5187 67.3745 28.7647 64.1286 28.7647 60.1245C28.7647 56.1204 25.5187 52.8745 21.5147 52.8745C17.5106 52.8745 14.2646 56.1204 14.2646 60.1245C14.2646 64.1286 17.5106 67.3745 21.5147 67.3745Z" fill="white"/>
<path d="M76.8885 38.3376C82.5065 38.3376 87.0607 33.7833 87.0607 28.1654C87.0607 22.5474 82.5065 17.9932 76.8885 17.9932C71.2706 17.9932 66.7163 22.5474 66.7163 28.1654C66.7163 33.7833 71.2706 38.3376 76.8885 38.3376Z" fill="#F47421"/>
<path d="M48.1844 77.8979L42.155 88.3476L48.1844 77.8979Z" fill="#F47421"/>
<path d="M48.1844 77.8979L42.155 88.3476" stroke="#F47421" stroke-width="3.24"/>
<path d="M76.8884 35.4153C80.8925 35.4153 84.1384 32.1694 84.1384 28.1653C84.1384 24.1612 80.8925 20.9153 76.8884 20.9153C72.8844 20.9153 69.6384 24.1612 69.6384 28.1653C69.6384 32.1694 72.8844 35.4153 76.8884 35.4153Z" fill="white"/>
<path d="M76.8885 102.275C82.5065 102.275 87.0607 97.7203 87.0607 92.1024C87.0607 86.4844 82.5065 81.9302 76.8885 81.9302C71.2706 81.9302 66.7163 86.4844 66.7163 92.1024C66.7163 97.7203 71.2706 102.275 76.8885 102.275Z" fill="#F47421"/>
<path d="M48.1844 42.3695L42.155 31.9199L48.1844 42.3695Z" fill="#F47421"/>
<path d="M48.1844 42.3695L42.155 31.9199" stroke="#F47421" stroke-width="3.24"/>
<path d="M76.8884 99.3523C80.8925 99.3523 84.1384 96.1064 84.1384 92.1023C84.1384 88.0982 80.8925 84.8523 76.8884 84.8523C72.8844 84.8523 69.6384 88.0982 69.6384 92.1023C69.6384 96.1064 72.8844 99.3523 76.8884 99.3523Z" fill="white"/>
</g>
<defs>
<clipPath id="clip0_921_18501">
<rect width="118" height="118" fill="white" transform="translate(0 0.687012)"/>
</clipPath>
</defs>
</svg>
