<svg width="118" height="119" viewBox="0 0 118 119" fill="none" xmlns="http://www.w3.org/2000/svg">
<g clip-path="url(#clip0_921_19500)">
<circle cx="59" cy="59" r="59" fill="black"/>
<path fill-rule="evenodd" clip-rule="evenodd" d="M59.0021 21.9653C38.0211 21.9653 21.0399 38.9644 21.0399 59.9275C21.0399 76.7301 31.9143 90.9258 47.0028 95.9433C48.8955 96.2826 49.6097 95.1398 49.6097 94.1399C49.6097 93.2471 49.5562 90.2472 49.5562 87.0688C40.021 88.8187 37.5568 84.7475 36.789 82.6048C36.3605 81.5156 34.5035 78.1408 32.8964 77.248C31.575 76.5337 29.6644 74.7838 32.8428 74.7302C35.8248 74.6767 37.9675 77.4801 38.6818 78.6229C42.0923 84.3726 47.5563 82.7476 49.7347 81.7477C50.074 79.2836 51.0561 77.6229 52.1632 76.6766C43.7172 75.7302 34.8963 72.4446 34.8963 57.9276C34.8963 53.8028 36.3605 50.3745 38.7889 47.7317C38.4139 46.7854 37.0747 42.8927 39.1639 37.6787C39.1639 37.6787 42.3423 36.6788 49.6097 41.5714C52.6453 40.7143 55.8773 40.2857 59.1092 40.2857C62.3412 40.2857 65.5553 40.7143 68.6087 41.5714C75.8761 36.6431 79.0545 37.6787 79.0545 37.6787C81.1437 42.8927 79.8223 46.7854 79.4295 47.7317C81.8579 50.3923 83.3221 53.7671 83.3221 57.9276C83.3221 72.4982 74.4476 75.7302 66.0017 76.6766C67.3766 77.8551 68.573 80.1406 68.573 83.694C68.573 88.7652 68.5194 92.8542 68.5194 94.1399C68.5194 95.1398 69.2336 96.3183 71.1264 95.9433C86.1256 90.9079 97 76.6766 97 59.9275C97 38.9465 80.0009 21.9653 59.0378 21.9653H59.0021Z" fill="white"/>
</g>
<defs>
<clipPath id="clip0_921_19500">
<rect width="118" height="118" fill="white" transform="translate(0 0.296875)"/>
</clipPath>
</defs>
</svg>
