<svg width="118" height="119" viewBox="0 0 118 119" fill="none" xmlns="http://www.w3.org/2000/svg">
<g clip-path="url(#clip0_1_105)">
<path d="M95.3813 0.582642H22.6187C10.1267 0.582642 0 10.7094 0 23.2013V95.964C0 108.456 10.1267 118.583 22.6187 118.583H95.3813C107.873 118.583 118 108.456 118 95.964V23.2013C118 10.7094 107.873 0.582642 95.3813 0.582642Z" fill="#494949"/>
<path d="M66.4997 47.2959C58.9402 47.2959 54.0534 52.8808 54.0534 61.4974C54.0534 70.114 58.9402 75.7188 66.4997 75.7188C74.0592 75.7188 78.9459 70.134 78.9459 61.4974C78.9459 52.8608 74.0592 47.2959 66.4997 47.2959ZM66.4997 72.4078C60.9347 72.4078 57.4841 68.2192 57.4841 61.4974C57.4841 54.7756 60.9347 50.6069 66.4997 50.6069C72.0646 50.6069 75.5152 54.7756 75.5152 61.4974C75.5152 68.2192 72.0646 72.4078 66.4997 72.4078Z" fill="white"/>
<path d="M94.2245 59.9815L91.3522 59.2435C86.7248 58.0867 86.0865 56.5907 86.0865 55.1347C86.0865 52.5417 88.6396 50.5671 92.0304 50.5671C95.4212 50.5671 98.1139 52.422 98.2735 54.9552L98.3333 55.8926H101.724L101.684 54.8554C101.505 50.5272 97.3759 47.276 92.0703 47.276C86.7647 47.276 82.6558 50.6668 82.6558 55.1546C82.6558 59.9616 87.024 61.6371 90.3151 62.4748L93.3468 63.2128C97.7948 64.3298 98.7123 65.7659 98.7123 67.561C98.7123 70.3933 96.0794 72.3879 92.3096 72.3879C88.5399 72.3879 85.528 70.3335 85.3485 67.4014L85.2887 66.464H81.8979L81.9577 67.5211C82.1971 72.3281 86.4256 75.6989 92.2099 75.6989C98.074 75.6989 102.163 72.3081 102.163 67.4812C102.163 62.6543 97.9145 60.8791 94.2245 59.9616V59.9815Z" fill="white"/>
<path d="M48.6082 68.0797C48.0098 69.4559 47.2917 70.7325 46.474 71.9093C45.357 73.5049 44.4395 74.602 43.7414 75.2203C42.6443 76.2176 41.4675 76.7362 40.2109 76.7761C39.3134 76.7761 38.2163 76.5168 36.9598 75.9982C35.6832 75.4796 34.5264 75.2203 33.4493 75.2203C32.3722 75.2203 31.1356 75.4796 29.8391 75.9982C28.5625 76.5168 27.5253 76.796 26.7275 76.816C25.5307 76.8758 24.314 76.3373 23.1173 75.2203C22.3594 74.5621 21.4019 73.4052 20.2451 71.7896C19.0084 70.0543 18.0111 68.0597 17.2133 65.7659C16.3556 63.2926 15.9368 60.8991 15.9368 58.5854C15.9368 55.9326 16.5152 53.6388 17.6521 51.724C18.5497 50.1882 19.7464 48.9715 21.2623 48.0739C22.7583 47.1763 24.3938 46.7375 26.1291 46.6977C27.0865 46.6977 28.3431 46.9968 29.8989 47.5753C31.4547 48.1537 32.452 48.4529 32.8908 48.4529C33.2099 48.4529 34.3269 48.1138 36.2018 47.4157C37.977 46.7774 39.4729 46.5181 40.7096 46.6179C44.0406 46.8772 46.5338 48.1936 48.2092 50.5672C45.2373 52.3623 43.7613 54.8954 43.7813 58.1466C43.8012 60.6797 44.7187 62.7741 46.5338 64.4495C47.3516 65.2274 48.2691 65.8258 49.2664 66.2446C49.047 66.8829 48.8076 67.5012 48.5683 68.0797H48.6082ZM40.9689 38.0212C40.9689 39.9958 40.2508 41.8508 38.7948 43.5661C37.0595 45.6006 34.9452 46.7774 32.6714 46.5979C32.6514 46.3586 32.6315 46.1192 32.6315 45.84C32.6315 43.9451 33.4493 41.9106 34.9253 40.2352C35.6633 39.3974 36.6007 38.6993 37.7177 38.1409C38.8546 37.5824 39.9118 37.2832 40.909 37.2433C40.929 37.5026 40.9489 37.7818 40.9489 38.0411L40.9689 38.0212Z" fill="white"/>
</g>
<defs>
<clipPath id="clip0_1_105">
<rect width="118" height="118" fill="white" transform="translate(0 0.582642)"/>
</clipPath>
</defs>
</svg>
