<svg width="118" height="119" viewBox="0 0 118 119" fill="none" xmlns="http://www.w3.org/2000/svg">
<g clip-path="url(#clip0_1_342)">
<path d="M95.3813 0.0933838H22.6187C10.1267 0.0933838 0 10.2201 0 22.712V95.4747C0 107.967 10.1267 118.093 22.6187 118.093H95.3813C107.873 118.093 118 107.967 118 95.4747V22.712C118 10.2201 107.873 0.0933838 95.3813 0.0933838Z" fill="#326CE5"/>
<path d="M58.7208 19.7401C58.0227 19.78 57.3445 19.9395 56.7062 20.2387L29.2806 33.3432C27.8445 34.0213 26.8073 35.3378 26.4483 36.8736L19.6866 66.3138C19.3675 67.69 19.6268 69.1261 20.4047 70.3029C20.5044 70.4426 20.6041 70.5822 20.7039 70.7218L39.6924 94.3178C40.6897 95.5545 42.2056 96.2725 43.8012 96.2725H74.2387C75.8344 96.2725 77.3502 95.5545 78.3475 94.3178L97.3161 70.7218C98.3134 69.4852 98.6924 67.8695 98.3333 66.3138L91.5517 36.8736C91.1927 35.3378 90.1555 34.0413 88.7194 33.3432L61.2938 20.2387C60.496 19.8597 59.6183 19.6802 58.7607 19.7401H58.7208Z" fill="white"/>
<path d="M59 29.753C58.1025 29.753 57.3645 30.5707 57.3645 31.568V31.6079C57.3645 31.7475 57.3645 31.9071 57.3645 32.0268C57.3844 32.6052 57.5041 33.044 57.5839 33.5826C57.7235 34.7195 57.8432 35.6769 57.7634 36.5545C57.7035 36.8936 57.4442 37.1928 57.2248 37.4122L57.1849 38.1103C56.2076 38.1901 55.2103 38.3496 54.213 38.569C49.9446 39.5464 46.2745 41.7404 43.4821 44.6924C43.3026 44.5728 42.9835 44.3334 42.8837 44.2736C42.5845 44.3135 42.2854 44.4132 41.9064 44.1738C41.1684 43.6752 40.5102 42.997 39.6924 42.1793C39.3134 41.7803 39.0541 41.4213 38.6153 41.0224C38.5156 40.9426 38.356 40.8229 38.2563 40.7232C37.9172 40.444 37.4983 40.3043 37.1194 40.2844C36.6207 40.2844 36.1221 40.4639 35.8029 40.8628C35.2444 41.5809 35.424 42.658 36.2018 43.2763C36.2018 43.2763 36.2018 43.2763 36.2218 43.2763C36.3215 43.3561 36.4611 43.4757 36.5609 43.5555C37.0196 43.8946 37.4584 44.0741 37.9172 44.3534C38.8945 44.9517 39.7123 45.4703 40.3506 46.0687C40.6099 46.328 40.6498 46.8067 40.6897 47.0062L41.2083 47.4849C38.3959 51.7333 37.0795 56.9592 37.8574 62.2847L37.1792 62.4842C36.9997 62.7235 36.7404 63.0826 36.4811 63.2022C35.6434 63.4615 34.686 63.5613 33.5291 63.6809C32.9906 63.7208 32.5318 63.6809 31.9534 63.8006C31.8337 63.8206 31.6542 63.8605 31.5146 63.9003C31.5146 63.9003 31.5146 63.9003 31.4946 63.9003C30.5173 64.1397 29.8989 65.0173 30.0984 65.8949C30.2979 66.7726 31.2353 67.3111 32.2127 67.0917C32.2127 67.0917 32.2127 67.0917 32.2326 67.0917C32.2326 67.0917 32.2526 67.0917 32.2725 67.0917C32.4121 67.0717 32.5717 67.0319 32.6914 66.992C33.2499 66.8324 33.6687 66.613 34.1674 66.4335C35.2444 66.0346 36.162 65.7154 37.0196 65.5958C37.3787 65.5758 37.7776 65.8152 37.9571 65.9348L38.6751 65.8152C40.3307 70.9213 43.7813 75.0501 48.1494 77.6431L47.8503 78.3611C47.95 78.6404 48.0697 79.0193 47.9899 79.2986C47.6707 80.1164 47.1322 80.994 46.5139 81.9713C46.2147 82.4301 45.8956 82.7692 45.6363 83.2878C45.5764 83.4074 45.4966 83.6069 45.4169 83.7266C44.998 84.6241 45.2972 85.6613 46.115 86.0602C46.9327 86.4592 47.95 86.0403 48.3888 85.1427C48.4486 85.0231 48.5484 84.8436 48.5883 84.7239C48.8276 84.1853 48.9074 83.7266 49.067 83.2279C49.5058 82.1309 49.7451 80.994 50.3435 80.2759C50.5031 80.0765 50.7823 79.9967 51.0416 79.9369L51.4206 79.2587C55.2302 80.7147 59.4987 81.1137 63.7471 80.1363C64.7245 79.9169 65.662 79.6377 66.5595 79.2786C66.6592 79.4582 66.8587 79.8172 66.9185 79.9169C67.1978 80.0166 67.497 80.0565 67.7563 80.4156C68.1951 81.1735 68.5142 82.091 68.8732 83.1681C69.0328 83.6867 69.1126 84.1455 69.3519 84.664C69.4118 84.7837 69.4916 84.9632 69.5514 85.0829C69.9902 85.9805 71.0075 86.3993 71.8252 86.0204C72.643 85.6214 72.9422 84.5843 72.5233 83.6867C72.4635 83.5471 72.3837 83.3676 72.3039 83.2479C72.0247 82.7293 71.7255 82.3902 71.4263 81.9314C70.808 80.9541 70.2894 80.1563 69.9703 79.3185C69.8307 78.8997 69.9902 78.6204 70.0899 78.3412C70.0301 78.2614 69.8905 77.8625 69.8107 77.683C74.3584 75.0102 77.7093 70.7219 79.2651 65.7753C79.4845 65.8152 79.8435 65.875 79.9632 65.8949C80.2025 65.7354 80.4419 65.516 80.8807 65.5559C81.7583 65.6755 82.6559 66.0146 83.7329 66.3936C84.2316 66.593 84.6505 66.8125 85.209 66.9521C85.3286 66.992 85.4882 67.0119 85.6278 67.0518C85.6278 67.0518 85.6478 67.0518 85.6677 67.0518C85.6677 67.0518 85.6677 67.0518 85.6876 67.0518C86.665 67.2712 87.6025 66.7327 87.8019 65.855C88.0014 64.9774 87.383 64.0799 86.4057 63.8605C86.2661 63.8206 86.0666 63.7807 85.927 63.7408C85.3486 63.6411 84.8898 63.661 84.3513 63.6211C83.1944 63.5014 82.257 63.4017 81.3993 63.1424C81.0602 63.0028 80.8009 62.6039 80.6812 62.4244L80.023 62.2249C80.3621 59.7317 80.2823 57.1586 79.6839 54.5657C79.0856 51.9527 78.0284 49.5592 76.6123 47.4649C76.7918 47.3054 77.1109 47.0261 77.1907 46.9463C77.2106 46.6471 77.1907 46.3479 77.4899 46.0089C78.1281 45.4105 78.9459 44.8919 79.9233 44.2935C80.382 44.0143 80.8208 43.8348 81.2796 43.4957C81.3793 43.4159 81.5389 43.2962 81.6386 43.1965C82.4165 42.5782 82.616 41.4811 82.0375 40.783C81.4591 40.0849 80.382 40.0051 79.5842 40.6434C79.4645 40.7232 79.3249 40.8429 79.2252 40.9426C78.7864 41.3216 78.5071 41.7006 78.1481 42.0995C77.3303 42.9173 76.6721 43.6154 75.9341 44.0941C75.615 44.2736 75.1562 44.2137 74.9368 44.1938L74.3185 44.6326C70.7681 40.9027 65.9213 38.5092 60.6954 38.0505C60.6954 37.831 60.6555 37.4321 60.6555 37.3125C60.4361 37.113 60.1768 36.9335 60.117 36.4947C60.0372 35.617 60.1569 34.6596 60.2965 33.5227C60.3763 32.9842 60.496 32.5454 60.5159 31.9669C60.5159 31.8273 60.5159 31.6478 60.5159 31.5082C60.5159 30.5109 59.7779 29.6931 58.8803 29.6931L59 29.753ZM56.9456 42.4784L56.4669 51.0951H56.427C56.3871 51.873 55.7688 52.4913 54.9909 52.4913C54.6718 52.4913 54.3726 52.3916 54.1332 52.212L47.0724 47.2056C49.2465 45.0714 52.019 43.4957 55.2103 42.7776C55.7887 42.638 56.3871 42.5383 56.9655 42.4784H56.9456ZM61.0545 42.4784C64.7843 42.9372 68.235 44.6326 70.8878 47.2256L63.8668 52.1921H63.8469C63.2285 52.6309 62.3509 52.5312 61.8523 51.9129C61.6528 51.6735 61.5531 51.3743 61.5332 51.0751L61.0545 42.4784ZM44.4794 50.4369L50.9219 56.2012V56.2411C51.5004 56.7398 51.5801 57.6174 51.1014 58.2357C50.902 58.4751 50.6427 58.6546 50.3435 58.7344L42.0859 61.1478C41.667 57.2983 42.5646 53.5684 44.4794 50.4369ZM73.4608 50.4369C74.4182 51.9926 75.1363 53.7279 75.5751 55.6028C75.9939 57.4578 76.1136 59.3128 75.9341 61.1079L67.6366 58.7144V58.6745C66.8787 58.4751 66.4199 57.7171 66.5994 56.9592C66.6792 56.64 66.8388 56.3807 67.0582 56.1813L73.4608 50.4169V50.4369ZM57.6836 56.64H60.3165L61.952 58.6945L61.3536 61.2475L58.9801 62.3845L56.6065 61.2475L56.0081 58.6945L57.6437 56.64H57.6836ZM66.1407 63.661C66.2603 63.661 66.3601 63.661 66.4797 63.6809L75.0365 65.117C73.7799 68.6275 71.3864 71.6793 68.1951 73.7137L64.8841 65.6955C64.5849 64.9774 64.8841 64.1397 65.5822 63.8006C65.7617 63.7208 65.9412 63.661 66.1407 63.661ZM51.7796 63.7009C52.4378 63.7009 53.0163 64.1596 53.1758 64.8179C53.2556 65.137 53.2157 65.4362 53.096 65.7154V65.7553L49.8449 73.6938C46.7732 71.7191 44.3398 68.7671 43.0233 65.1569L51.5004 63.7208C51.5004 63.7208 51.6998 63.7208 51.7796 63.7208V63.7009ZM58.9402 67.1715C59.1596 67.1715 59.3989 67.2114 59.6183 67.3111C59.8976 67.4507 60.1369 67.6701 60.2766 67.9294H60.3165L64.4851 75.469C63.9466 75.6485 63.3881 75.8081 62.8097 75.9277C59.6183 76.6458 56.427 76.4264 53.5548 75.449L57.7235 67.9095C57.9828 67.4507 58.4415 67.1715 58.9402 67.1515V67.1715Z" fill="#326CE5" stroke="#326CE5" stroke-width="0.25"/>
</g>
<defs>
<clipPath id="clip0_1_342">
<rect width="118" height="118" fill="white" transform="translate(0 0.0933838)"/>
</clipPath>
</defs>
</svg>
