<svg width="118" height="119" viewBox="0 0 118 119" fill="none" xmlns="http://www.w3.org/2000/svg">
<g clip-path="url(#clip0_921_18946)">
<circle cx="59" cy="58.771" r="59" fill="#2BA977"/>
<path d="M50.3179 26.0307H61.5734V77.651C55.807 78.7414 51.5562 79.1665 46.9541 79.1665C33.2035 79.1665 26.0325 73.012 26.0325 61.202C26.0325 49.392 33.6286 42.4427 45.4016 42.4427C47.2314 42.4427 48.6175 42.5906 50.2994 43.0157V26.0122L50.3179 26.0307ZM50.706 52.3306C49.3938 51.9055 48.3033 51.7577 46.9172 51.7577C41.2247 51.7577 37.9349 55.2323 37.9349 61.3314C37.9349 67.4304 41.0768 70.5354 46.8432 70.5354C48.0815 70.5354 49.098 70.4615 50.706 70.2582V52.3491V52.3306Z" fill="white"/>
<path d="M80 43.8289V69.6852C80 78.5936 79.3347 82.8629 77.3756 86.5593C75.5458 90.1079 73.1432 92.3442 68.1715 94.8208L57.7107 89.9046C62.6824 87.5943 65.085 85.5428 66.619 82.4379C68.227 79.2589 68.7445 75.5625 68.7445 65.8595V43.8659H80V43.8289ZM67.6171 26.0122H78.8726V37.4526H67.6171V26.0122Z" fill="white"/>
</g>
<defs>
<clipPath id="clip0_921_18946">
<rect width="118" height="118" fill="white" transform="translate(0 0.0678711)"/>
</clipPath>
</defs>
</svg>
