<svg width="118" height="119" viewBox="0 0 118 119" fill="none" xmlns="http://www.w3.org/2000/svg">
<g clip-path="url(#clip0_1_247)">
<path d="M95.3813 0.0256348H22.6187C10.1267 0.0256348 0 10.1524 0 22.6443V95.407C0 107.899 10.1267 118.026 22.6187 118.026H95.3813C107.873 118.026 118 107.899 118 95.407V22.6443C118 10.1524 107.873 0.0256348 95.3813 0.0256348Z" fill="#F05239"/>
<path d="M57.1025 33.148C53.3327 35.8008 49.0643 38.7927 46.7705 43.7592C42.8012 52.4357 54.9084 61.8901 55.427 62.289C55.5467 62.3887 55.6863 62.4286 55.8259 62.4286C55.9855 62.4286 56.1251 62.3688 56.2448 62.2691C56.4841 62.0696 56.544 61.7305 56.4044 61.4513C56.3645 61.3715 52.0163 52.9344 52.1758 46.8708C52.2357 44.7565 55.1877 42.363 58.2992 39.8299C61.1515 37.5162 64.4027 34.8833 66.2975 31.8116C70.4662 25.05 65.8388 18.388 65.7789 18.3083C65.5994 18.049 65.2603 17.9492 64.9612 18.0889C64.662 18.2085 64.5024 18.5277 64.5822 18.8468C64.5822 18.8867 65.4997 23.2947 62.9865 27.8225C61.9493 29.6974 59.6954 31.2931 57.0626 33.148H57.1025Z" fill="white"/>
<path d="M72.9594 36.1399C73.2187 35.9405 73.2985 35.5814 73.1389 35.2822C72.9794 34.9831 72.6203 34.8634 72.3212 34.9831C71.6829 35.2224 56.6437 41.0267 56.6437 48.0277C56.6437 52.8546 58.6981 55.4077 60.214 57.2626C60.8124 58.0006 61.311 58.619 61.4905 59.1575C61.9692 60.7133 60.8523 63.5057 60.3736 64.4631C60.2339 64.7424 60.3137 65.0615 60.5331 65.2609C60.6528 65.3607 60.8124 65.4205 60.9719 65.4205C61.1116 65.4205 61.2312 65.3806 61.3509 65.3008C61.6102 65.1213 67.6738 60.833 66.5767 55.6869C66.1778 53.7322 65.2005 52.2961 64.3627 51.0196C63.0463 49.0649 62.0889 47.6487 63.545 45.0358C65.2404 41.9841 72.8996 36.1998 72.9794 36.1399H72.9594Z" fill="white"/>
<path d="M33.8455 65.5402C33.5862 66.3181 33.7058 67.076 34.2045 67.7542C35.8401 70.0081 41.6044 71.2647 50.4604 71.2647C51.6572 71.2647 52.9337 71.2447 54.2302 71.1849C68.3918 70.6862 73.6375 66.2782 73.857 66.0787C74.0963 65.8793 74.1561 65.5402 74.0165 65.2609C73.8769 64.9817 73.5578 64.8421 73.2586 64.9219C68.2721 66.2782 58.9574 66.7569 52.5148 66.7569C45.2944 66.7569 41.6044 66.2383 40.7069 65.8593C41.1656 65.221 44.0179 64.0841 47.5483 63.406C47.8874 63.3461 48.1267 63.027 48.0868 62.6879C48.047 62.3488 47.7677 62.0895 47.4286 62.0895C45.3543 62.0895 34.9824 62.2491 33.8854 65.5402H33.8455Z" fill="white"/>
<path d="M81.1971 60.9925C78.285 60.9925 75.5125 62.4486 75.3929 62.5084C75.1136 62.648 74.994 62.9672 75.0538 63.2663C75.1336 63.5655 75.3929 63.765 75.6921 63.765C75.7519 63.765 81.9152 63.8248 82.4737 67.3353C82.9723 70.3671 76.6495 75.2937 74.1562 76.9293C73.8969 77.1088 73.7773 77.4479 73.9169 77.7471C74.0166 78.0064 74.2759 78.1659 74.5352 78.1659C74.5751 78.1659 74.6349 78.1659 74.6748 78.1659C75.2732 78.0463 89.0758 74.9945 87.6197 66.9563C86.7222 62.0297 83.6305 60.9925 81.1971 60.9925Z" fill="white"/>
<path d="M71.7228 75.9719C71.7627 75.7126 71.6629 75.4533 71.4435 75.2937L68.1325 72.98C67.973 72.8603 67.7735 72.8404 67.574 72.8803C67.5341 72.8803 64.0835 73.7978 59.0571 74.3563C57.0625 74.5757 54.8286 74.6954 52.5947 74.6954C47.5683 74.6954 44.2772 74.097 43.7985 73.6781C43.7387 73.5584 43.7586 73.4986 43.7586 73.4787C43.8384 73.2393 44.3171 72.9401 44.6163 72.8404C44.9554 72.7207 45.1349 72.3617 45.0152 72.0226C44.9155 71.6835 44.5565 71.4841 44.2174 71.5639C40.8864 72.3617 39.2708 73.4787 39.3905 74.8948C39.6099 77.3881 45.3942 78.6845 50.2809 79.0037C50.979 79.0436 51.737 79.0835 52.5348 79.0835C60.6728 79.0835 71.0845 76.5304 71.2042 76.5104C71.4635 76.4506 71.643 76.2511 71.7028 75.9918L71.7228 75.9719Z" fill="white"/>
<path d="M46.7705 81.3374C47.0298 81.1778 47.1295 80.8587 47.0497 80.5794C46.9699 80.3002 46.6907 80.1007 46.3915 80.1007C45.9527 80.1007 42.0433 80.2802 41.7641 82.7735C41.6843 83.5115 41.9037 84.1896 42.4023 84.788C43.7985 86.4435 47.5883 87.4408 53.9909 87.8198C54.7488 87.8597 55.5068 87.8796 56.2647 87.8796C64.3827 87.8796 69.8678 85.3265 70.0872 85.2268C70.3066 85.1271 70.4463 84.9077 70.4662 84.6484C70.4862 84.3891 70.3665 84.1697 70.1471 84.05L65.9584 81.4969C65.8188 81.4171 65.6393 81.3773 65.4797 81.4171C65.4598 81.4171 62.787 81.9756 58.7779 82.5142C58.02 82.6139 57.0626 82.6737 55.9456 82.6737C51.9365 82.6737 47.4885 82.0155 46.6309 81.5967C46.6309 81.5169 46.6309 81.4171 46.7505 81.3174L46.7705 81.3374Z" fill="white"/>
<path d="M52.475 95.5787C71.0846 95.5787 81.0775 92.2477 82.9923 90.1734C83.6704 89.4354 83.7502 88.7373 83.6904 88.2785C83.5507 87.1615 82.5335 86.4634 82.4138 86.4036C82.1346 86.2241 81.7556 86.264 81.5362 86.5233C81.3168 86.7826 81.3168 87.1416 81.5362 87.4009C81.6559 87.5604 81.7157 87.7998 81.3766 88.1389C80.5988 88.8569 72.8597 91.031 59.9348 91.6892C58.1596 91.789 56.3046 91.8289 54.4098 91.8289C42.8411 91.8289 34.3841 90.2531 33.2671 89.3157C33.686 88.6974 36.6978 87.72 39.8692 87.1615C40.2282 87.1017 40.4676 86.7626 40.4077 86.4036C40.3479 86.0446 40.0288 85.8052 39.6498 85.8451C39.5501 85.8451 39.2509 85.885 38.9118 85.9049C33.666 86.2241 27.5825 86.9421 27.2634 89.6548C27.1637 90.4725 27.403 91.2305 28.0014 91.8887C29.4175 93.4844 33.5065 95.5986 52.4551 95.5986L52.475 95.5787Z" fill="white"/>
<path d="M86.6423 90.7518C86.383 90.6321 86.0639 90.692 85.8644 90.9114C85.8445 90.9313 83.0321 93.8634 74.6349 95.5787C71.4236 96.217 65.36 96.5561 56.6636 96.5561C47.9672 96.5561 39.6498 96.217 39.57 96.217C39.2309 96.217 38.9317 96.4564 38.8719 96.7954C38.832 97.1345 39.0514 97.4536 39.3705 97.5334C39.4503 97.5534 48.1467 99.5879 60.0345 99.5879C65.739 99.5879 71.284 99.1291 76.5297 98.2116C86.3032 96.4962 86.9814 91.6494 87.0013 91.4499C87.0412 91.1707 86.8817 90.8914 86.6224 90.7718L86.6423 90.7518Z" fill="white"/>
</g>
<defs>
<clipPath id="clip0_1_247">
<rect width="118" height="118" fill="white" transform="translate(0 0.0256348)"/>
</clipPath>
</defs>
</svg>
