<svg width="118" height="119" viewBox="0 0 118 119" fill="none" xmlns="http://www.w3.org/2000/svg">
<g clip-path="url(#clip0_1_401)">
<path d="M95.3813 0.0933838H22.6187C10.1267 0.0933838 0 10.2201 0 22.712V95.4747C0 107.967 10.1267 118.093 22.6187 118.093H95.3813C107.873 118.093 118 107.967 118 95.4747V22.712C118 10.2201 107.873 0.0933838 95.3813 0.0933838Z" fill="#EFEFEF"/>
<path fill-rule="evenodd" clip-rule="evenodd" d="M77.1109 78.1616C77.789 78.8398 78.6866 79.1789 79.5842 79.1789V79.139C80.4817 79.139 81.3793 78.7999 82.0575 78.1217C87.1636 73.0355 89.956 66.2739 89.956 59.0535C89.956 51.833 87.1437 45.0714 82.0575 39.9852C80.7011 38.6288 78.4871 38.6288 77.1109 39.9852C75.7545 41.3415 75.7545 43.5555 77.1109 44.9318C80.8806 48.7015 82.955 53.7279 82.955 59.0734C82.955 64.4189 80.8806 69.4453 77.1109 73.2151C76.4527 73.8932 76.0936 74.7509 76.0936 75.6884C76.0936 76.6258 76.4527 77.5034 77.1109 78.1616Z" fill="#00D287"/>
<path fill-rule="evenodd" clip-rule="evenodd" d="M35.9226 78.1617C36.6008 78.8399 37.4984 79.1789 38.3959 79.1789V79.2188C39.2935 79.2188 40.1911 78.8797 40.8692 78.2016C42.2255 76.8453 42.2255 74.6313 40.8692 73.255C37.0994 69.4852 35.0251 64.4589 35.0251 59.1133C35.0251 53.7678 37.0994 48.7415 40.8692 44.9717C41.5274 44.2935 41.8865 43.4359 41.8865 42.4984C41.8865 41.5609 41.5274 40.6833 40.8692 40.0251C39.5129 38.6688 37.2989 38.6688 35.9226 40.0251C30.8364 45.1113 28.024 51.873 28.024 59.0934C28.024 66.2939 30.8364 73.0755 35.9226 78.1617Z" fill="#00D287"/>
<path d="M90.2154 31.8871C88.859 30.5308 86.645 30.5308 85.2688 31.8871C83.9124 33.2435 83.9124 35.4575 85.2688 36.8337C91.2126 42.7776 94.4838 50.6762 94.4838 59.1133C94.4838 67.5504 91.2126 75.449 85.2688 81.3929C84.6106 82.0511 84.2515 82.9287 84.2515 83.8662C84.2515 84.8036 84.6106 85.6813 85.2688 86.3395C85.9469 87.0176 86.8445 87.3567 87.7421 87.3567C88.6396 87.3567 89.5372 87.0176 90.2154 86.3395C105.215 71.3202 105.215 46.9064 90.2154 31.9071V31.8871Z" fill="#00977F"/>
<path d="M33.7485 34.3405C33.7485 33.4031 33.3894 32.5454 32.7312 31.8672C31.3749 30.5109 29.1609 30.5109 27.7846 31.8672C12.7853 46.8865 12.7853 71.3003 27.7846 86.2996C28.4628 86.9778 29.3604 87.3169 30.2579 87.3169C31.1555 87.3169 32.0531 86.9778 32.7312 86.2996C34.0876 84.9433 34.0876 82.7293 32.7312 81.3531C26.7874 75.4092 23.5162 67.5106 23.5162 59.0735C23.5162 50.6363 26.7874 42.7378 32.7312 36.7939C33.3894 36.1357 33.7485 35.2581 33.7485 34.3206V34.3405Z" fill="#00977F"/>
<path d="M59 66.6575C62.866 66.6575 66 63.4967 66 59.5977C66 55.6986 62.866 52.5378 59 52.5378C55.134 52.5378 52 55.6986 52 59.5977C52 63.4967 55.134 66.6575 59 66.6575Z" fill="#60F1A1"/>
</g>
<defs>
<clipPath id="clip0_1_401">
<rect width="118" height="118" fill="white" transform="translate(0 0.0933838)"/>
</clipPath>
</defs>
</svg>
