<svg width="28" height="28" viewBox="0 0 28 28" fill="none" xmlns="http://www.w3.org/2000/svg">
<path d="M8.53858 21.8738C7.98187 22.4358 7.6896 22.7271 7.46852 22.8947C7.32332 23.0048 7.28839 23.0021 7.26571 23.0004C7.26308 23.0002 7.26062 23 7.25816 23C7.17369 23 7.13212 22.9857 7.11859 22.9799C7.10807 22.9754 7.1041 22.9722 7.09795 22.9649C7.08206 22.9459 7 22.8258 7 22.4876V7.55784C7 6.52385 7.24825 5.92338 7.57044 5.58154C7.88243 5.25052 8.41723 5 9.35904 5H18.6409C19.5827 5 20.1175 5.25052 20.4295 5.58155C20.7517 5.9234 21 6.52387 21 7.55784V22.4876C21 22.8258 20.9179 22.9458 20.902 22.9648C20.8959 22.9722 20.8919 22.9754 20.8814 22.9799C20.8678 22.9857 20.8263 23 20.7418 23C20.7393 23 20.7369 23.0002 20.7342 23.0004C20.7116 23.0021 20.6767 23.0048 20.5314 22.8947C20.3104 22.7271 20.0181 22.4359 19.4615 21.8739L14.8455 17.1269C14.5985 16.8507 14.2672 16.7551 14.0044 16.7551C13.7198 16.7551 13.4101 16.8624 13.1746 17.1062L8.53858 21.8738Z" stroke="#8F7CFF" stroke-width="2" stroke-linejoin="round"/>
</svg>
