<svg width="18" height="18" viewBox="0 0 18 18" fill="none" xmlns="http://www.w3.org/2000/svg">
<g clip-path="url(#clip0_920_3663)">
<path d="M8.99999 18C13.9236 18 18 13.9147 18 8.99999C18 4.07647 13.9147 0 8.99116 0C4.07647 0 0 4.07647 0 8.99999C0 13.9147 4.08529 18 8.99999 18ZM6.03529 12.7059C5.62941 12.7059 5.31176 12.3794 5.31176 11.9736C5.31176 11.7794 5.38234 11.5941 5.52352 11.4617L7.96764 9.00881L5.52352 6.56469C5.38234 6.42353 5.31176 6.24705 5.31176 6.05293C5.31176 5.63822 5.62941 5.32941 6.03529 5.32941C6.23823 5.32941 6.39705 5.39999 6.53823 5.53235L8.99999 7.98528L11.4794 5.52352C11.6294 5.37353 11.7882 5.31176 11.9823 5.31176C12.3882 5.31176 12.7147 5.62941 12.7147 6.03529C12.7147 6.23823 12.6529 6.39705 12.4941 6.55587L10.0412 9.00881L12.4853 11.4529C12.6353 11.5853 12.7059 11.7705 12.7059 11.9736C12.7059 12.3794 12.3794 12.7059 11.9647 12.7059C11.7618 12.7059 11.5765 12.6353 11.4441 12.4941L8.99999 10.0412L6.56469 12.4941C6.42353 12.6353 6.23823 12.7059 6.03529 12.7059Z" fill="#555968"/>
</g>
<defs>
<clipPath id="clip0_920_3663">
<rect width="18" height="18" fill="white"/>
</clipPath>
</defs>
</svg>
