<svg width="28" height="28" viewBox="0 0 28 28" fill="none" xmlns="http://www.w3.org/2000/svg">
<g filter="url(#filter0_ii_1909_4575)">
<path d="M7.8373 22.8357C8.20654 23.1222 8.67484 23.0237 9.23319 22.6208L13.9972 19.1384L18.7703 22.6208C19.3286 23.0237 19.7879 23.1222 20.1661 22.8357C20.5353 22.5581 20.6164 22.1016 20.3913 21.4481L18.5091 15.8797L23.3181 12.442C23.8765 12.0481 24.1016 11.6363 23.9576 11.1887C23.8134 10.759 23.3902 10.5441 22.6968 10.5531L16.798 10.5889L15.0058 4.9937C14.7898 4.33124 14.4655 4 13.9972 4C13.5379 4 13.2137 4.33124 12.9976 4.9937L11.2054 10.5889L5.30669 10.5531C4.61325 10.5441 4.18999 10.759 4.04589 11.1887C3.8928 11.6363 4.12695 12.0481 4.6853 12.442L9.49436 15.8797L7.61216 21.4481C7.38701 22.1016 7.46806 22.5581 7.8373 22.8357Z" fill="#F0F0F5"/>
</g>
<defs>
<filter id="filter0_ii_1909_4575" x="4" y="2" width="20" height="25" filterUnits="userSpaceOnUse" color-interpolation-filters="sRGB">
<feFlood flood-opacity="0" result="BackgroundImageFix"/>
<feBlend mode="normal" in="SourceGraphic" in2="BackgroundImageFix" result="shape"/>
<feColorMatrix in="SourceAlpha" type="matrix" values="0 0 0 0 0 0 0 0 0 0 0 0 0 0 0 0 0 0 127 0" result="hardAlpha"/>
<feOffset dy="-2"/>
<feGaussianBlur stdDeviation="2"/>
<feComposite in2="hardAlpha" operator="arithmetic" k2="-1" k3="1"/>
<feColorMatrix type="matrix" values="0 0 0 0 0 0 0 0 0 0 0 0 0 0 0 0 0 0 0.25 0"/>
<feBlend mode="normal" in2="shape" result="effect1_innerShadow_1909_4575"/>
<feColorMatrix in="SourceAlpha" type="matrix" values="0 0 0 0 0 0 0 0 0 0 0 0 0 0 0 0 0 0 127 0" result="hardAlpha"/>
<feOffset dy="4"/>
<feGaussianBlur stdDeviation="2"/>
<feComposite in2="hardAlpha" operator="arithmetic" k2="-1" k3="1"/>
<feColorMatrix type="matrix" values="0 0 0 0 1 0 0 0 0 1 0 0 0 0 1 0 0 0 0.25 0"/>
<feBlend mode="normal" in2="effect1_innerShadow_1909_4575" result="effect2_innerShadow_1909_4575"/>
</filter>
</defs>
</svg>
