<svg width="18" height="18" viewBox="0 0 18 18" fill="none" xmlns="http://www.w3.org/2000/svg">
<g clip-path="url(#clip0_921_6988)">
<path d="M9 17.9912C13.9235 17.9912 18 13.9079 18 8.9956C18 4.07447 13.9147 0 8.99115 0C4.07647 0 0 4.07447 0 8.9956C0 13.9079 4.08529 17.9912 9 17.9912Z" fill="#00D287"/>
<path fill-rule="evenodd" clip-rule="evenodd" d="M8.92526 12.6075C8.74627 12.8857 8.46495 13.05 8.12475 13.05C7.96282 13.05 7.80706 13.0125 7.66275 12.9295C7.52479 12.8501 7.41895 12.7416 7.33384 12.6304L5.16744 9.84871L5.16685 9.84796C5.04197 9.68863 4.9502 9.48432 4.9502 9.26326C4.9502 9.03906 5.03092 8.8214 5.19434 8.65908C5.35775 8.49678 5.57613 8.41724 5.80136 8.41724C5.93945 8.41724 6.08343 8.44543 6.22177 8.52458C6.35222 8.59923 6.44839 8.70258 6.52333 8.8071L8.07164 10.8505L11.4785 5.37702L11.4792 5.3759C11.5474 5.26702 11.6414 5.14648 11.7844 5.06104C11.9333 4.9721 12.0864 4.94995 12.2199 4.94995C12.4361 4.94995 12.6526 5.02336 12.8157 5.18786C12.9786 5.352 13.0502 5.56839 13.0502 5.78333C13.0502 5.98849 12.9826 6.16266 12.879 6.33098L12.8765 6.33495L8.92526 12.6075Z" fill="white"/>
</g>
<defs>
<clipPath id="clip0_921_6988">
<rect width="18" height="18" fill="white"/>
</clipPath>
</defs>
</svg>
