<svg width="28" height="28" viewBox="0 0 28 28" fill="none" xmlns="http://www.w3.org/2000/svg">
<g filter="url(#filter0_ii_1909_4647)">
<path d="M27 14.0055C27 10.1026 23.9038 7 20.0307 7C17.1096 7 14.5276 8.75411 13.4882 11.4949L2.68966 11.4949C2.41607 11.4949 2.20825 11.5826 2.00032 11.78L0.162298 13.6108C-0.0236756 13.7972 -0.0783478 14.1699 0.151432 14.4002L3.61965 17.8755C3.8603 18.1057 4.17757 18.0948 4.40736 17.8755L6.52983 15.7157L9.47294 18.6758C9.69175 18.8841 10.009 18.8841 10.2497 18.6539L13.1928 15.7267C14.5385 19.1143 17.033 21 20.0307 21C23.8819 21 27 17.8755 27 14.0055ZM20.5887 14.0055C20.5887 12.9859 21.4093 12.1746 22.4158 12.1746C23.4333 12.1746 24.2429 12.9749 24.2429 14.0055C24.2429 15.0141 23.4333 15.8363 22.4158 15.8363C21.4093 15.8363 20.5887 15.0141 20.5887 14.0055Z" fill="#F0F0F5"/>
</g>
<defs>
<filter id="filter0_ii_1909_4647" x="0" y="5" width="27" height="20" filterUnits="userSpaceOnUse" color-interpolation-filters="sRGB">
<feFlood flood-opacity="0" result="BackgroundImageFix"/>
<feBlend mode="normal" in="SourceGraphic" in2="BackgroundImageFix" result="shape"/>
<feColorMatrix in="SourceAlpha" type="matrix" values="0 0 0 0 0 0 0 0 0 0 0 0 0 0 0 0 0 0 127 0" result="hardAlpha"/>
<feOffset dy="-2"/>
<feGaussianBlur stdDeviation="2"/>
<feComposite in2="hardAlpha" operator="arithmetic" k2="-1" k3="1"/>
<feColorMatrix type="matrix" values="0 0 0 0 0 0 0 0 0 0 0 0 0 0 0 0 0 0 0.25 0"/>
<feBlend mode="normal" in2="shape" result="effect1_innerShadow_1909_4647"/>
<feColorMatrix in="SourceAlpha" type="matrix" values="0 0 0 0 0 0 0 0 0 0 0 0 0 0 0 0 0 0 127 0" result="hardAlpha"/>
<feOffset dy="4"/>
<feGaussianBlur stdDeviation="2"/>
<feComposite in2="hardAlpha" operator="arithmetic" k2="-1" k3="1"/>
<feColorMatrix type="matrix" values="0 0 0 0 1 0 0 0 0 1 0 0 0 0 1 0 0 0 0.25 0"/>
<feBlend mode="normal" in2="effect1_innerShadow_1909_4647" result="effect2_innerShadow_1909_4647"/>
</filter>
</defs>
</svg>
