<svg width="28" height="28" viewBox="0 0 28 28" fill="none" xmlns="http://www.w3.org/2000/svg">
<g filter="url(#filter0_ii_2755_14707)">
<path d="M13.95 20C14.3 20 14.5958 19.8792 14.8375 19.6375C15.0792 19.3958 15.2 19.1 15.2 18.75C15.2 18.4 15.0792 18.1042 14.8375 17.8625C14.5958 17.6208 14.3 17.5 13.95 17.5C13.6 17.5 13.3042 17.6208 13.0625 17.8625C12.8208 18.1042 12.7 18.4 12.7 18.75C12.7 19.1 12.8208 19.3958 13.0625 19.6375C13.3042 19.8792 13.6 20 13.95 20ZM14 24C12.6167 24 11.3167 23.7375 10.1 23.2125C8.88333 22.6875 7.825 21.975 6.925 21.075C6.025 20.175 5.3125 19.1167 4.7875 17.9C4.2625 16.6833 4 15.3833 4 14C4 12.6167 4.2625 11.3167 4.7875 10.1C5.3125 8.88333 6.025 7.825 6.925 6.925C7.825 6.025 8.88333 5.3125 10.1 4.7875C11.3167 4.2625 12.6167 4 14 4C15.3833 4 16.6833 4.2625 17.9 4.7875C19.1167 5.3125 20.175 6.025 21.075 6.925C21.975 7.825 22.6875 8.88333 23.2125 10.1C23.7375 11.3167 24 12.6167 24 14C24 15.3833 23.7375 16.6833 23.2125 17.9C22.6875 19.1167 21.975 20.175 21.075 21.075C20.175 21.975 19.1167 22.6875 17.9 23.2125C16.6833 23.7375 15.3833 24 14 24ZM14.1 9.7C14.5167 9.7 14.8792 9.83333 15.1875 10.1C15.4958 10.3667 15.65 10.7 15.65 11.1C15.65 11.4667 15.5375 11.7917 15.3125 12.075C15.0875 12.3583 14.8333 12.625 14.55 12.875C14.1667 13.2083 13.8292 13.575 13.5375 13.975C13.2458 14.375 13.1 14.825 13.1 15.325C13.1 15.5583 13.1875 15.7542 13.3625 15.9125C13.5375 16.0708 13.7417 16.15 13.975 16.15C14.225 16.15 14.4375 16.0667 14.6125 15.9C14.7875 15.7333 14.9 15.525 14.95 15.275C15.0167 14.925 15.1667 14.6125 15.4 14.3375C15.6333 14.0625 15.8833 13.8 16.15 13.55C16.5333 13.1833 16.8625 12.7833 17.1375 12.35C17.4125 11.9167 17.55 11.4333 17.55 10.9C17.55 10.05 17.2042 9.35417 16.5125 8.8125C15.8208 8.27083 15.0167 8 14.1 8C13.4667 8 12.8625 8.13333 12.2875 8.4C11.7125 8.66667 11.275 9.075 10.975 9.625C10.8583 9.825 10.8208 10.0375 10.8625 10.2625C10.9042 10.4875 11.0167 10.6583 11.2 10.775C11.4333 10.9083 11.675 10.95 11.925 10.9C12.175 10.85 12.3833 10.7083 12.55 10.475C12.7333 10.225 12.9625 10.0333 13.2375 9.9C13.5125 9.76667 13.8 9.7 14.1 9.7Z" fill="#FF0D2A"/>
</g>
<defs>
<filter id="filter0_ii_2755_14707" x="4" y="3" width="20" height="22" filterUnits="userSpaceOnUse" color-interpolation-filters="sRGB">
<feFlood flood-opacity="0" result="BackgroundImageFix"/>
<feBlend mode="normal" in="SourceGraphic" in2="BackgroundImageFix" result="shape"/>
<feColorMatrix in="SourceAlpha" type="matrix" values="0 0 0 0 0 0 0 0 0 0 0 0 0 0 0 0 0 0 127 0" result="hardAlpha"/>
<feOffset dy="-1"/>
<feGaussianBlur stdDeviation="1.5"/>
<feComposite in2="hardAlpha" operator="arithmetic" k2="-1" k3="1"/>
<feColorMatrix type="matrix" values="0 0 0 0 0 0 0 0 0 0 0 0 0 0 0 0 0 0 0.15 0"/>
<feBlend mode="normal" in2="shape" result="effect1_innerShadow_2755_14707"/>
<feColorMatrix in="SourceAlpha" type="matrix" values="0 0 0 0 0 0 0 0 0 0 0 0 0 0 0 0 0 0 127 0" result="hardAlpha"/>
<feOffset dy="1"/>
<feGaussianBlur stdDeviation="1.5"/>
<feComposite in2="hardAlpha" operator="arithmetic" k2="-1" k3="1"/>
<feColorMatrix type="matrix" values="0 0 0 0 1 0 0 0 0 1 0 0 0 0 1 0 0 0 0.25 0"/>
<feBlend mode="normal" in2="effect1_innerShadow_2755_14707" result="effect2_innerShadow_2755_14707"/>
</filter>
</defs>
</svg>
