<svg width="21" height="7" viewBox="0 0 21 7" fill="none" xmlns="http://www.w3.org/2000/svg">
<g clip-path="url(#clip0_920_3714)">
<path d="M0.5 6.85868V0H1.53194L4.89312 4.80956C4.95864 4.90377 5.02252 5.00583 5.08477 5.11575C5.14701 5.22566 5.19779 5.31987 5.2371 5.39839H5.28133C5.27805 5.30417 5.27314 5.18327 5.26658 5.03567C5.26331 4.88493 5.26167 4.76245 5.26167 4.66824V0H6.21007V6.85868H5.17322L1.80221 2.02557C1.73342 1.93136 1.67117 1.83715 1.61548 1.74293C1.55979 1.64872 1.51065 1.56236 1.46806 1.48385H1.42383C1.43038 1.57806 1.4353 1.68484 1.43857 1.80417C1.44513 1.92037 1.4484 2.02557 1.4484 2.11978V6.85868H0.5Z" fill="#8F7CFF"/>
<path d="M7.46314 4.39502V4.24428C7.46314 3.48116 7.68919 2.85778 8.14128 2.37416C8.59337 1.88739 9.1896 1.64401 9.92998 1.64401C10.6769 1.64401 11.2502 1.87169 11.6499 2.32705C12.0495 2.77927 12.2494 3.39009 12.2494 4.15949V4.54576H8.05283V3.8109H11.2862V3.78264C11.2862 3.39009 11.1798 3.06191 10.9668 2.79812C10.7572 2.53118 10.4165 2.39771 9.94472 2.39771C9.44676 2.39771 9.07002 2.57672 8.8145 2.93472C8.55897 3.28959 8.4312 3.72611 8.4312 4.24428V4.39502C8.4312 4.91319 8.56552 5.35128 8.83415 5.70929C9.10278 6.06729 9.51884 6.2463 10.0823 6.2463C10.4296 6.2463 10.7277 6.17721 10.9767 6.03903C11.2289 5.90085 11.432 5.73598 11.586 5.54441L12.2002 6.03432C12.0299 6.27299 11.7629 6.49439 11.3993 6.69852C11.0389 6.89951 10.5999 7 10.0823 7C9.2371 7 8.58845 6.75819 8.13636 6.27456C7.68755 5.7878 7.46314 5.16128 7.46314 4.39502Z" fill="#8F7CFF"/>
<path d="M12.7604 1.78533H13.699L14.6818 5.06864C14.7179 5.19426 14.7506 5.31202 14.7801 5.42194C14.8129 5.53185 14.8391 5.64962 14.8587 5.77524H14.8882C14.9111 5.64962 14.9373 5.53185 14.9668 5.42194C14.9963 5.31202 15.0324 5.19426 15.0749 5.06864L16.2396 1.78533H17.0799L18.2543 5.06864C18.3002 5.19426 18.3378 5.31202 18.3673 5.42194C18.3968 5.53185 18.423 5.64962 18.4459 5.77524H18.4754C18.4951 5.64962 18.5197 5.53185 18.5491 5.42194C18.5786 5.31202 18.613 5.19426 18.6523 5.06864L19.6253 1.78533H20.5L18.8391 6.85868H18.0528L16.8882 3.53768C16.8423 3.41207 16.7998 3.28645 16.7604 3.16083C16.7211 3.03522 16.6835 2.9096 16.6474 2.78398H16.6179C16.5819 2.9096 16.5442 3.03522 16.5049 3.16083C16.4656 3.28645 16.423 3.41207 16.3771 3.53768L15.2076 6.85868H14.4214L12.7604 1.78533Z" fill="#8F7CFF"/>
</g>
<defs>
<clipPath id="clip0_920_3714">
<rect width="20" height="7" fill="white" transform="translate(0.5)"/>
</clipPath>
</defs>
</svg>
