<svg width="12" height="12" viewBox="0 0 12 12" fill="none" xmlns="http://www.w3.org/2000/svg">
<g clip-path="url(#clip0_1909_4429)">
<path d="M5.99999 12C9.28237 12 12 9.28236 12 6.00001C12 2.72354 9.27646 0 5.99411 0C2.71764 0 0 2.72354 0 6.00001C0 9.28236 2.72352 12 5.99999 12ZM5.99999 8.48827C3.68823 8.48827 2.03529 6.59411 2.03529 6.0059C2.03529 5.41178 3.67058 3.52354 5.99999 3.52354C8.32939 3.52354 9.95881 5.41178 9.95881 6.0059C9.95881 6.59411 8.33529 8.48827 5.99999 8.48827ZM5.99999 7.62944C6.9 7.62944 7.62939 6.88824 7.62939 6.0059C7.62939 5.10001 6.9 4.38236 5.99999 4.38236C5.09411 4.38236 4.3647 5.10001 4.37058 6.0059C4.37058 6.88824 5.09411 7.62944 5.99999 7.62944Z" fill="#555968"/>
</g>
<defs>
<clipPath id="clip0_1909_4429">
<rect width="12" height="12" fill="white"/>
</clipPath>
</defs>
</svg>
