<svg width="22" height="5" viewBox="0 0 22 5" fill="none" xmlns="http://www.w3.org/2000/svg">
<path d="M2.89335 4.75C4.15153 4.75 5.15362 3.74875 5.15362 2.5C5.15362 1.25125 4.15153 0.25 2.89335 0.25C1.66859 0.25 0.666504 1.25125 0.666504 2.5C0.666504 3.74875 1.66859 4.75 2.89335 4.75ZM11.1661 4.75C12.4021 4.75 13.393 3.74875 13.393 2.5C13.393 1.25125 12.4021 0.25 11.1661 0.25C9.94135 0.25 8.9504 1.25125 8.9504 2.5C8.9504 3.74875 9.94135 4.75 11.1661 4.75ZM19.4388 4.75C20.6748 4.75 21.6658 3.74875 21.6658 2.5C21.6658 1.25125 20.6748 0.25 19.4388 0.25C18.1807 0.25 17.1898 1.25125 17.1898 2.5C17.1898 3.74875 18.1807 4.75 19.4388 4.75Z" fill="#B4B5BD"/>
</svg>
