<svg width="20" height="20" viewBox="0 0 20 20" fill="none" xmlns="http://www.w3.org/2000/svg">
<mask id="mask0_2751_14325" style="mask-type:alpha" maskUnits="userSpaceOnUse" x="0" y="0" width="20" height="20">
<rect width="20" height="20" fill="#D9D9D9"/>
</mask>
<g mask="url(#mask0_2751_14325)">
<path d="M4.55556 17C4.12778 17 3.76157 16.8477 3.45694 16.5431C3.15231 16.2384 3 15.8722 3 15.4444V4.55556C3 4.12778 3.15231 3.76157 3.45694 3.45694C3.76157 3.15231 4.12778 3 4.55556 3H9.22222C9.44259 3 9.62732 3.07454 9.77639 3.22361C9.92546 3.37269 10 3.55741 10 3.77778C10 3.99815 9.92546 4.18287 9.77639 4.33194C9.62732 4.48102 9.44259 4.55556 9.22222 4.55556H4.55556V15.4444H15.4444V10.7778C15.4444 10.5574 15.519 10.3727 15.6681 10.2236C15.8171 10.0745 16.0019 10 16.2222 10C16.4426 10 16.6273 10.0745 16.7764 10.2236C16.9255 10.3727 17 10.5574 17 10.7778V15.4444C17 15.8722 16.8477 16.2384 16.5431 16.5431C16.2384 16.8477 15.8722 17 15.4444 17H4.55556ZM15.4444 5.64444L8.75556 12.3333C8.61296 12.4759 8.43148 12.5472 8.21111 12.5472C7.99074 12.5472 7.80926 12.4759 7.66667 12.3333C7.52407 12.1907 7.45278 12.0093 7.45278 11.7889C7.45278 11.5685 7.52407 11.387 7.66667 11.2444L14.3556 4.55556H12.3333C12.113 4.55556 11.9282 4.48102 11.7792 4.33194C11.6301 4.18287 11.5556 3.99815 11.5556 3.77778C11.5556 3.55741 11.6301 3.37269 11.7792 3.22361C11.9282 3.07454 12.113 3 12.3333 3H17V7.66667C17 7.88704 16.9255 8.07176 16.7764 8.22083C16.6273 8.36991 16.4426 8.44444 16.2222 8.44444C16.0019 8.44444 15.8171 8.36991 15.6681 8.22083C15.519 8.07176 15.4444 7.88704 15.4444 7.66667V5.64444Z" fill="#575761"/>
</g>
</svg>
