<svg width="32" height="32" viewBox="0 0 32 32" fill="none" xmlns="http://www.w3.org/2000/svg">
<path d="M25.5493 21.3845H29.8311V18.8717C29.8311 17.8809 29.0318 17.0768 28.047 17.0768H18.7699C17.7851 17.0768 16.9858 17.8809 16.9858 18.8717V28.205C16.9858 29.1958 17.7851 29.9999 18.7699 29.9999H28.047C29.0318 29.9999 29.8311 29.1958 29.8311 28.205V25.6922H21.2676V21.3845H25.5493Z" fill="#A495FF"/>
<path d="M14.8452 6.30769V3.79487C14.8452 2.8041 14.046 2 13.0612 2H3.78406C2.79926 2 2 2.8041 2 3.79487V6.30769H6.28174V10.6154H2V13.1282C2 14.119 2.79926 14.9231 3.78406 14.9231H13.0612C14.046 14.9231 14.8452 14.119 14.8452 13.1282V10.6154H10.5635V6.30769H14.8452Z" fill="#FF8676"/>
<path d="M6.28174 23.5385H2V27.8461H6.28174H10.5635V23.5385H6.28174Z" fill="#00DF8F"/>
<path d="M13.0612 17.0768H3.78406C2.79926 17.0768 2 17.8809 2 18.8717V21.3845H10.5635V29.9999H13.0612C14.046 29.9999 14.8452 29.1958 14.8452 28.205V18.8717C14.8452 17.8809 14.046 17.0768 13.0612 17.0768Z" fill="#00DF8F"/>
<path d="M28.047 2H18.7699C17.7851 2 16.9858 2.8041 16.9858 3.79487V13.1282C16.9858 14.119 17.7851 14.9231 18.7699 14.9231H28.047C29.0318 14.9231 29.8311 14.119 29.8311 13.1282V6.30769C29.8311 3.79487 30.9015 2.71795 31.6151 2.71795V2H28.047ZM21.2676 10.6154V6.30769H25.5493V10.6154H21.2676Z" fill="#3DA2FF"/>
</svg>
