<svg width="28" height="28" viewBox="0 0 28 28" fill="none" xmlns="http://www.w3.org/2000/svg">
<g filter="url(#filter0_ii_2694_7433)">
<path d="M14 14C12.7625 14 11.7031 13.5594 10.8219 12.6781C9.94063 11.7969 9.5 10.7375 9.5 9.5C9.5 8.2625 9.94063 7.20312 10.8219 6.32188C11.7031 5.44063 12.7625 5 14 5C15.2375 5 16.2969 5.44063 17.1781 6.32188C18.0594 7.20312 18.5 8.2625 18.5 9.5C18.5 10.7375 18.0594 11.7969 17.1781 12.6781C16.2969 13.5594 15.2375 14 14 14ZM5 20.75V19.85C5 19.2125 5.16406 18.6266 5.49219 18.0922C5.82031 17.5578 6.25625 17.15 6.8 16.8688C7.9625 16.2875 9.14375 15.8516 10.3438 15.5609C11.5438 15.2703 12.7625 15.125 14 15.125C15.2375 15.125 16.4563 15.2703 17.6562 15.5609C18.8562 15.8516 20.0375 16.2875 21.2 16.8688C21.7438 17.15 22.1797 17.5578 22.5078 18.0922C22.8359 18.6266 23 19.2125 23 19.85V20.75C23 21.3687 22.7797 21.8984 22.3391 22.3391C21.8984 22.7797 21.3687 23 20.75 23H7.25C6.63125 23 6.10156 22.7797 5.66094 22.3391C5.22031 21.8984 5 21.3687 5 20.75Z" fill="#A495FF"/>
</g>
<defs>
<filter id="filter0_ii_2694_7433" x="5" y="4" width="18" height="20" filterUnits="userSpaceOnUse" color-interpolation-filters="sRGB">
<feFlood flood-opacity="0" result="BackgroundImageFix"/>
<feBlend mode="normal" in="SourceGraphic" in2="BackgroundImageFix" result="shape"/>
<feColorMatrix in="SourceAlpha" type="matrix" values="0 0 0 0 0 0 0 0 0 0 0 0 0 0 0 0 0 0 127 0" result="hardAlpha"/>
<feOffset dy="-1"/>
<feGaussianBlur stdDeviation="1.5"/>
<feComposite in2="hardAlpha" operator="arithmetic" k2="-1" k3="1"/>
<feColorMatrix type="matrix" values="0 0 0 0 0 0 0 0 0 0 0 0 0 0 0 0 0 0 0.15 0"/>
<feBlend mode="normal" in2="shape" result="effect1_innerShadow_2694_7433"/>
<feColorMatrix in="SourceAlpha" type="matrix" values="0 0 0 0 0 0 0 0 0 0 0 0 0 0 0 0 0 0 127 0" result="hardAlpha"/>
<feOffset dy="1"/>
<feGaussianBlur stdDeviation="1.5"/>
<feComposite in2="hardAlpha" operator="arithmetic" k2="-1" k3="1"/>
<feColorMatrix type="matrix" values="0 0 0 0 1 0 0 0 0 1 0 0 0 0 1 0 0 0 0.25 0"/>
<feBlend mode="normal" in2="effect1_innerShadow_2694_7433" result="effect2_innerShadow_2694_7433"/>
</filter>
</defs>
</svg>
