<svg width="28" height="28" viewBox="0 0 28 28" fill="none" xmlns="http://www.w3.org/2000/svg">
<path d="M13.3571 21.6054C13.3464 21.5947 13.3355 21.5842 13.3243 21.574L11.6001 19.9997C11.6001 19.9997 11.6 19.9997 11.6 19.9997C9.85496 18.4028 8.28293 16.8221 6.88254 15.258C5.60146 13.827 5 12.3042 5 10.6625C5 9.3448 5.43081 8.29588 6.28211 7.44458C7.1334 6.59329 8.18232 6.16248 9.5 6.16248C10.2365 6.16248 10.922 6.31761 11.5682 6.62695C12.2268 6.94223 12.7797 7.36841 13.2366 7.90842C13.4266 8.13297 13.7058 8.26248 14 8.26248C14.2942 8.26248 14.5734 8.13297 14.7634 7.90842C15.2203 7.36841 15.7732 6.94223 16.4318 6.62695C17.078 6.31761 17.7635 6.16248 18.5 6.16248C19.8177 6.16248 20.8666 6.59329 21.7179 7.44458C22.5692 8.29588 23 9.3448 23 10.6625C23 12.3063 22.4011 13.8348 21.1263 15.2746C19.7379 16.8426 18.1571 18.424 16.3818 20.0185L16.3818 20.0185L16.3762 20.0235L14.6762 21.5735C14.6649 21.5839 14.6538 21.5945 14.6429 21.6054C14.5653 21.683 14.4826 21.734 14.3865 21.7671C14.2397 21.8177 14.1123 21.8375 14 21.8375C13.8877 21.8375 13.7603 21.8177 13.6135 21.7671C13.5174 21.734 13.4347 21.683 13.3571 21.6054Z" stroke="#FF8676" stroke-width="2" stroke-linejoin="round"/>
</svg>
