<svg width="20" height="20" viewBox="0 0 20 20" fill="none" xmlns="http://www.w3.org/2000/svg">
<g clip-path="url(#clip0_920_3701)">
<path d="M0 8.0892C0 12.5494 3.66428 16.1784 8.16788 16.1784C9.94884 16.1784 11.5762 15.6108 12.9171 14.6579L17.9529 19.6553C18.1883 19.8885 18.4954 20 18.823 20C19.5189 20 20 19.483 20 18.8038C20 18.4794 19.8772 18.1855 19.6623 17.9727L14.6572 12.9853C15.7113 11.627 16.3357 9.9341 16.3357 8.0892C16.3357 3.62898 12.6714 0 8.16788 0C3.66428 0 0 3.62898 0 8.0892ZM1.75026 8.0892C1.75026 4.58185 4.62641 1.7334 8.16788 1.7334C11.7094 1.7334 14.5855 4.58185 14.5855 8.0892C14.5855 11.5966 11.7094 14.445 8.16788 14.445C4.62641 14.445 1.75026 11.5966 1.75026 8.0892Z" fill="#00D287"/>
</g>
<defs>
<clipPath id="clip0_920_3701">
<rect width="20" height="20" fill="white"/>
</clipPath>
</defs>
</svg>
