<svg width="28" height="28" viewBox="0 0 28 28" fill="none" xmlns="http://www.w3.org/2000/svg">
<path d="M13.1158 7.29215C13.2883 7.61895 13.6271 7.82393 13.9967 7.82516C14.3663 7.82639 14.7064 7.62369 14.8812 7.29804C15.6615 5.844 16.8696 5 18.3908 5C20.9155 5 23 7.0503 23 10.2505C23 14.1147 19.8096 18.1858 14.2023 21.8741C14.1335 21.9152 14.0622 21.9524 14.0008 21.9786C13.9417 21.9528 13.8754 21.917 13.8169 21.8801C8.19372 18.1903 5 14.1166 5 10.2505C5 7.05031 7.08452 5 9.60927 5C11.1331 5 12.3578 5.85685 13.1158 7.29215ZM13.9242 22.0066C13.9243 22.0066 13.9249 22.0065 13.9261 22.0062C13.9261 22.0062 13.926 22.0062 13.9259 22.0063C13.9247 22.0066 13.9241 22.0067 13.9242 22.0066ZM14.0745 22.0063C14.0758 22.0066 14.0764 22.0068 14.0763 22.0068C14.0763 22.0067 14.0758 22.0066 14.0749 22.0064C14.0747 22.0064 14.0746 22.0063 14.0745 22.0063Z" stroke="#FF7562" stroke-width="2" stroke-linejoin="round"/>
</svg>
