<svg width="72" height="72" viewBox="0 0 72 72" fill="none" xmlns="http://www.w3.org/2000/svg">
<g clip-path="url(#clip0_919_5852)">
<circle cx="36" cy="36" r="36" fill="#D9D9E0"/>
<path d="M21.6578 51.75H50.3423C52.631 51.75 54 50.7489 54 49.0869C54 43.9212 47.0909 36.7933 35.9894 36.7933C24.9091 36.7933 18 43.9212 18 49.0869C18 50.7489 19.369 51.75 21.6578 51.75ZM36.0108 33.2094C40.5883 33.2094 44.5669 29.3651 44.5669 24.3595C44.5669 19.4141 40.5883 15.75 36.0108 15.75C31.4332 15.75 27.4546 19.4942 27.4546 24.3996C27.4546 29.3651 31.4118 33.2094 36.0108 33.2094Z" fill="white"/>
</g>
<defs>
<clipPath id="clip0_919_5852">
<rect width="72" height="72" fill="white"/>
</clipPath>
</defs>
</svg>
