<svg width="28" height="28" viewBox="0 0 28 28" fill="none" xmlns="http://www.w3.org/2000/svg">
<path d="M13.1158 8.29215C13.2883 8.61895 13.6271 8.82393 13.9967 8.82516C14.3663 8.82639 14.7064 8.62369 14.8812 8.29804C15.6615 6.844 16.8696 6 18.3908 6C20.9155 6 23 8.0503 23 11.2505C23 15.1147 19.8096 19.1858 14.2023 22.8741C14.1335 22.9152 14.0622 22.9524 14.0008 22.9786C13.9417 22.9528 13.8754 22.917 13.8169 22.8801C8.19372 19.1903 5 15.1166 5 11.2505C5 8.05031 7.08452 6 9.60927 6C11.1331 6 12.3578 6.85685 13.1158 8.29215ZM13.9242 23.0066C13.9243 23.0066 13.9249 23.0065 13.9261 23.0062C13.9261 23.0062 13.926 23.0062 13.9259 23.0063C13.9247 23.0066 13.9241 23.0067 13.9242 23.0066ZM14.0745 23.0063C14.0758 23.0066 14.0764 23.0068 14.0763 23.0068C14.0763 23.0067 14.0758 23.0066 14.0749 23.0064C14.0747 23.0064 14.0746 23.0063 14.0745 23.0063Z" stroke="#FF7562" stroke-width="2" stroke-linejoin="round"/>
</svg>
