<svg width="28" height="28" viewBox="0 0 28 28" fill="none" xmlns="http://www.w3.org/2000/svg">
<g filter="url(#filter0_ii_2755_14720)">
<path d="M9.49512 20C7.82845 20 6.41178 19.4167 5.24512 18.25C4.07845 17.0833 3.49512 15.6667 3.49512 14C3.49512 12.3333 4.07845 10.9167 5.24512 9.75C6.41178 8.58333 7.82845 8 9.49512 8C10.8451 8 12.0243 8.37917 13.0326 9.1375C14.041 9.89583 14.7451 10.85 15.1451 12H23.4951C24.0451 12 24.516 12.1958 24.9076 12.5875C25.2993 12.9792 25.4951 13.45 25.4951 14C25.4951 14.6 25.2868 15.0833 24.8701 15.45C24.4535 15.8167 23.9951 16 23.4951 16V18C23.4951 18.55 23.2993 19.0208 22.9076 19.4125C22.516 19.8042 22.0451 20 21.4951 20C20.9451 20 20.4743 19.8042 20.0826 19.4125C19.691 19.0208 19.4951 18.55 19.4951 18V16H15.1451C14.7451 17.15 14.041 18.1042 13.0326 18.8625C12.0243 19.6208 10.8451 20 9.49512 20ZM9.49512 16C10.0451 16 10.516 15.8042 10.9076 15.4125C11.2993 15.0208 11.4951 14.55 11.4951 14C11.4951 13.45 11.2993 12.9792 10.9076 12.5875C10.516 12.1958 10.0451 12 9.49512 12C8.94512 12 8.47428 12.1958 8.08262 12.5875C7.69095 12.9792 7.49512 13.45 7.49512 14C7.49512 14.55 7.69095 15.0208 8.08262 15.4125C8.47428 15.8042 8.94512 16 9.49512 16Z" fill="#FF0D2A"/>
</g>
<defs>
<filter id="filter0_ii_2755_14720" x="3.49512" y="7" width="22" height="14" filterUnits="userSpaceOnUse" color-interpolation-filters="sRGB">
<feFlood flood-opacity="0" result="BackgroundImageFix"/>
<feBlend mode="normal" in="SourceGraphic" in2="BackgroundImageFix" result="shape"/>
<feColorMatrix in="SourceAlpha" type="matrix" values="0 0 0 0 0 0 0 0 0 0 0 0 0 0 0 0 0 0 127 0" result="hardAlpha"/>
<feOffset dy="-1"/>
<feGaussianBlur stdDeviation="1.5"/>
<feComposite in2="hardAlpha" operator="arithmetic" k2="-1" k3="1"/>
<feColorMatrix type="matrix" values="0 0 0 0 0 0 0 0 0 0 0 0 0 0 0 0 0 0 0.15 0"/>
<feBlend mode="normal" in2="shape" result="effect1_innerShadow_2755_14720"/>
<feColorMatrix in="SourceAlpha" type="matrix" values="0 0 0 0 0 0 0 0 0 0 0 0 0 0 0 0 0 0 127 0" result="hardAlpha"/>
<feOffset dy="1"/>
<feGaussianBlur stdDeviation="1.5"/>
<feComposite in2="hardAlpha" operator="arithmetic" k2="-1" k3="1"/>
<feColorMatrix type="matrix" values="0 0 0 0 1 0 0 0 0 1 0 0 0 0 1 0 0 0 0.25 0"/>
<feBlend mode="normal" in2="effect1_innerShadow_2755_14720" result="effect2_innerShadow_2755_14720"/>
</filter>
</defs>
</svg>
