<svg width="20" height="20" viewBox="0 0 20 20" fill="none" xmlns="http://www.w3.org/2000/svg">
<path d="M15 10.0052C15 10.2643 14.8977 10.5233 14.7035 10.6995L6.59509 18.7202C6.42127 18.8964 6.19632 19 5.9407 19C5.409 19 5 18.5958 5 18.057C5 17.7979 5.10225 17.5596 5.26585 17.3835L13.272 9.44562L13.272 10.5544L5.26585 2.61659C5.10225 2.45078 5 2.21244 5 1.94301C5 1.40415 5.409 1 5.9407 1C6.19632 1 6.42127 1.10363 6.60532 1.27979L14.7035 9.30053C14.8977 9.49741 15 9.73574 15 10.0052Z" fill="#3A3F57"/>
</svg>
