<svg width="20" height="20" viewBox="0 0 20 20" fill="none" xmlns="http://www.w3.org/2000/svg">
<path d="M1.29372 18.7062C1.69101 19.0923 2.34937 19.0923 2.73531 18.7062L9.99998 11.4404L17.2646 18.7062C17.6506 19.0923 18.3203 19.1036 18.7063 18.7062C19.0922 18.3088 19.0922 17.6618 18.7063 17.2758L11.4416 9.99859L18.7063 2.73275C19.0922 2.34675 19.1036 1.68828 18.7063 1.30229C18.309 0.904935 17.6506 0.904935 17.2646 1.30229L9.99998 8.56812L2.73531 1.30229C2.34937 0.904935 1.67966 0.893582 1.29372 1.30229C0.907788 1.69964 0.907788 2.34675 1.29372 2.73275L8.5584 9.99859L1.29372 17.2758C0.907788 17.6618 0.896437 18.3202 1.29372 18.7062Z" fill="#3A3F57"/>
</svg>
