<svg width="14" height="14" viewBox="0 0 14 14" fill="none" xmlns="http://www.w3.org/2000/svg">
<path d="M11.2 6.99596C11.2 6.79446 11.1141 6.59297 10.9509 6.45597L4.13986 0.217613C3.99385 0.080553 3.8049 9.09748e-07 3.59017 9.19134e-07C3.14355 9.38657e-07 2.79999 0.314342 2.79999 0.733446C2.79999 0.934937 2.88588 1.12031 3.0233 1.25731L9.74845 7.43118L9.74845 6.56876L3.0233 12.7427C2.88588 12.8716 2.79999 13.057 2.79999 13.2665C2.79999 13.6857 3.14355 14 3.59017 14C3.8049 14 3.99386 13.9194 4.14846 13.7824L10.9509 7.54403C11.1141 7.3909 11.2 7.20554 11.2 6.99596Z" fill="#B4B5BD"/>
</svg>
