<svg width="28" height="28" viewBox="0 0 28 28" fill="none" xmlns="http://www.w3.org/2000/svg">
<path d="M14.3937 19.9834C14.1422 19.8756 13.8574 19.8756 13.6059 19.9834L9.15595 21.8905C9.15552 21.8907 9.1551 21.8909 9.15467 21.8911C8.75131 22.0622 8.43224 22.0315 8.07939 21.8012C7.72621 21.5707 7.57861 21.2981 7.57861 20.8761V7.12034C7.57861 6.80457 7.67938 6.55915 7.90857 6.32996C8.13776 6.10076 8.38319 6 8.69896 6H19.3007C19.6164 6 19.8619 6.10076 20.091 6.32996C20.3202 6.55915 20.421 6.80457 20.421 7.12034V20.8761C20.421 21.2981 20.2734 21.5707 19.9202 21.8012C19.5674 22.0315 19.2483 22.0622 18.8449 21.8911C18.8445 21.8909 18.8441 21.8907 18.8437 21.8905L14.3937 19.9834Z" stroke="#A495FF" stroke-width="2" stroke-linejoin="round"/>
</svg>
