<svg width="28" height="28" viewBox="0 0 28 28" fill="none" xmlns="http://www.w3.org/2000/svg">
<g filter="url(#filter0_ii_2755_14829)">
<path d="M13.9999 18.5C15.2499 18.5 16.3124 18.0625 17.1874 17.1875C18.0624 16.3125 18.4999 15.25 18.4999 14C18.4999 12.75 18.0624 11.6875 17.1874 10.8125C16.3124 9.9375 15.2499 9.5 13.9999 9.5C12.7499 9.5 11.6874 9.9375 10.8124 10.8125C9.9374 11.6875 9.4999 12.75 9.4999 14C9.4999 15.25 9.9374 16.3125 10.8124 17.1875C11.6874 18.0625 12.7499 18.5 13.9999 18.5ZM13.9999 16.7C13.2499 16.7 12.6124 16.4375 12.0874 15.9125C11.5624 15.3875 11.2999 14.75 11.2999 14C11.2999 13.25 11.5624 12.6125 12.0874 12.0875C12.6124 11.5625 13.2499 11.3 13.9999 11.3C14.7499 11.3 15.3874 11.5625 15.9124 12.0875C16.4374 12.6125 16.6999 13.25 16.6999 14C16.6999 14.75 16.4374 15.3875 15.9124 15.9125C15.3874 16.4375 14.7499 16.7 13.9999 16.7ZM13.9999 21.5C11.7666 21.5 9.72907 20.9 7.8874 19.7C6.04574 18.5 4.59157 16.9167 3.5249 14.95C3.44157 14.8 3.37907 14.6458 3.3374 14.4875C3.29574 14.3292 3.2749 14.1667 3.2749 14C3.2749 13.8333 3.29574 13.6708 3.3374 13.5125C3.37907 13.3542 3.44157 13.2 3.5249 13.05C4.59157 11.0833 6.04574 9.5 7.8874 8.3C9.72907 7.1 11.7666 6.5 13.9999 6.5C16.2332 6.5 18.2707 7.1 20.1124 8.3C21.9541 9.5 23.4082 11.0833 24.4749 13.05C24.5582 13.2 24.6207 13.3542 24.6624 13.5125C24.7041 13.6708 24.7249 13.8333 24.7249 14C24.7249 14.1667 24.7041 14.3292 24.6624 14.4875C24.6207 14.6458 24.5582 14.8 24.4749 14.95C23.4082 16.9167 21.9541 18.5 20.1124 19.7C18.2707 20.9 16.2332 21.5 13.9999 21.5Z" fill="#C0C0C8"/>
</g>
<defs>
<filter id="filter0_ii_2755_14829" x="3.2749" y="5.5" width="21.4502" height="17" filterUnits="userSpaceOnUse" color-interpolation-filters="sRGB">
<feFlood flood-opacity="0" result="BackgroundImageFix"/>
<feBlend mode="normal" in="SourceGraphic" in2="BackgroundImageFix" result="shape"/>
<feColorMatrix in="SourceAlpha" type="matrix" values="0 0 0 0 0 0 0 0 0 0 0 0 0 0 0 0 0 0 127 0" result="hardAlpha"/>
<feOffset dy="-1"/>
<feGaussianBlur stdDeviation="1.5"/>
<feComposite in2="hardAlpha" operator="arithmetic" k2="-1" k3="1"/>
<feColorMatrix type="matrix" values="0 0 0 0 0 0 0 0 0 0 0 0 0 0 0 0 0 0 0.15 0"/>
<feBlend mode="normal" in2="shape" result="effect1_innerShadow_2755_14829"/>
<feColorMatrix in="SourceAlpha" type="matrix" values="0 0 0 0 0 0 0 0 0 0 0 0 0 0 0 0 0 0 127 0" result="hardAlpha"/>
<feOffset dy="1"/>
<feGaussianBlur stdDeviation="1.5"/>
<feComposite in2="hardAlpha" operator="arithmetic" k2="-1" k3="1"/>
<feColorMatrix type="matrix" values="0 0 0 0 1 0 0 0 0 1 0 0 0 0 1 0 0 0 0.25 0"/>
<feBlend mode="normal" in2="effect1_innerShadow_2755_14829" result="effect2_innerShadow_2755_14829"/>
</filter>
</defs>
</svg>
