<svg width="28" height="28" viewBox="0 0 28 28" fill="none" xmlns="http://www.w3.org/2000/svg">
<path d="M8 24.8C7.45 24.8 6.97917 24.6042 6.5875 24.2125C6.19583 23.8208 6 23.35 6 22.8V11.8C6 11.25 6.19583 10.7792 6.5875 10.3875C6.97917 9.99585 7.45 9.80001 8 9.80001H10C10.2833 9.80001 10.5208 9.89585 10.7125 10.0875C10.9042 10.2792 11 10.5167 11 10.8C11 11.0833 10.9042 11.3208 10.7125 11.5125C10.5208 11.7042 10.2833 11.8 10 11.8H8V22.8H20V11.8H18C17.7167 11.8 17.4792 11.7042 17.2875 11.5125C17.0958 11.3208 17 11.0833 17 10.8C17 10.5167 17.0958 10.2792 17.2875 10.0875C17.4792 9.89585 17.7167 9.80001 18 9.80001H20C20.55 9.80001 21.0208 9.99585 21.4125 10.3875C21.8042 10.7792 22 11.25 22 11.8V22.8C22 23.35 21.8042 23.8208 21.4125 24.2125C21.0208 24.6042 20.55 24.8 20 24.8H8ZM13 6.62501L12.1 7.52501C11.9 7.72501 11.6667 7.82085 11.4 7.81251C11.1333 7.80418 10.9 7.70001 10.7 7.50001C10.5167 7.30001 10.4208 7.06668 10.4125 6.80001C10.4042 6.53335 10.5 6.30001 10.7 6.10001L13.3 3.50001C13.5 3.30001 13.7333 3.20001 14 3.20001C14.2667 3.20001 14.5 3.30001 14.7 3.50001L17.3 6.10001C17.4833 6.28335 17.575 6.51251 17.575 6.78751C17.575 7.06251 17.4833 7.30001 17.3 7.50001C17.1 7.70001 16.8625 7.80001 16.5875 7.80001C16.3125 7.80001 16.075 7.70001 15.875 7.50001L15 6.62501V16.8C15 17.0833 14.9042 17.3208 14.7125 17.5125C14.5208 17.7042 14.2833 17.8 14 17.8C13.7167 17.8 13.4792 17.7042 13.2875 17.5125C13.0958 17.3208 13 17.0833 13 16.8V6.62501Z" fill="#3DA2FF"/>
</svg>
