<svg width="28" height="28" viewBox="0 0 28 28" fill="none" xmlns="http://www.w3.org/2000/svg">
<path d="M8.50732 23H19.4927C21.4944 23 22.5 21.9863 22.5 19.9783V10.2503C22.5 8.24236 21.4944 7.22862 19.4927 7.22862H16.8206V8.79797H19.4639C20.4121 8.79797 20.958 9.32433 20.958 10.3381V19.8906C20.958 20.9043 20.4121 21.4307 19.4639 21.4307H8.52648C7.56874 21.4307 7.04197 20.9043 7.04197 19.8906V10.3381C7.04197 9.32433 7.56874 8.79797 8.52648 8.79797H11.1794V7.22862H8.50732C6.50563 7.22862 5.5 8.24236 5.5 10.2503V19.9783C5.5 21.9863 6.50563 23 8.50732 23ZM13.9952 15.3677C14.407 15.3677 14.7614 15.0169 14.7614 14.6074V4.59682L14.7039 3.13469L15.3457 3.82676L16.8014 5.40585C16.9355 5.56181 17.1271 5.63979 17.3186 5.63979C17.7113 5.63979 18.0178 5.34737 18.0178 4.94772C18.0178 4.74302 17.9316 4.58706 17.7879 4.44086L14.5507 1.26318C14.3591 1.06823 14.1963 1 13.9952 1C13.8037 1 13.6408 1.06823 13.4397 1.26318L10.2025 4.44086C10.0589 4.58706 9.98225 4.74302 9.98225 4.94772C9.98225 5.34737 10.2696 5.63979 10.6718 5.63979C10.8538 5.63979 11.0645 5.56181 11.1986 5.40585L12.6448 3.82676L13.2961 3.13469L13.2386 4.59682V14.6074C13.2386 15.0169 13.5834 15.3677 13.9952 15.3677Z" fill="#1C92FF"/>
</svg>
