<svg width="28" height="28" viewBox="0 0 28 28" fill="none" xmlns="http://www.w3.org/2000/svg">
<g filter="url(#filter0_ii_1909_4725)">
<path d="M14 24C19.4706 24 24 19.4706 24 14C24 8.53923 19.4608 4 13.9902 4C8.52941 4 4 8.53923 4 14C4 19.4706 8.53921 24 14 24ZM14 18.1471C10.1471 18.1471 7.39216 14.9902 7.39216 14.0098C7.39216 13.0196 10.1176 9.87257 14 9.87257C17.8823 9.87257 20.598 13.0196 20.598 14.0098C20.598 14.9902 17.8921 18.1471 14 18.1471ZM14 16.7157C15.5 16.7157 16.7157 15.4804 16.7157 14.0098C16.7157 12.5 15.5 11.3039 14 11.3039C12.4902 11.3039 11.2745 12.5 11.2843 14.0098C11.2843 15.4804 12.4902 16.7157 14 16.7157Z" fill="#555968"/>
</g>
<defs>
<filter id="filter0_ii_1909_4725" x="4" y="2" width="20" height="26" filterUnits="userSpaceOnUse" color-interpolation-filters="sRGB">
<feFlood flood-opacity="0" result="BackgroundImageFix"/>
<feBlend mode="normal" in="SourceGraphic" in2="BackgroundImageFix" result="shape"/>
<feColorMatrix in="SourceAlpha" type="matrix" values="0 0 0 0 0 0 0 0 0 0 0 0 0 0 0 0 0 0 127 0" result="hardAlpha"/>
<feOffset dy="-2"/>
<feGaussianBlur stdDeviation="2"/>
<feComposite in2="hardAlpha" operator="arithmetic" k2="-1" k3="1"/>
<feColorMatrix type="matrix" values="0 0 0 0 0 0 0 0 0 0 0 0 0 0 0 0 0 0 0.25 0"/>
<feBlend mode="normal" in2="shape" result="effect1_innerShadow_1909_4725"/>
<feColorMatrix in="SourceAlpha" type="matrix" values="0 0 0 0 0 0 0 0 0 0 0 0 0 0 0 0 0 0 127 0" result="hardAlpha"/>
<feOffset dy="4"/>
<feGaussianBlur stdDeviation="2"/>
<feComposite in2="hardAlpha" operator="arithmetic" k2="-1" k3="1"/>
<feColorMatrix type="matrix" values="0 0 0 0 1 0 0 0 0 1 0 0 0 0 1 0 0 0 0.25 0"/>
<feBlend mode="normal" in2="effect1_innerShadow_1909_4725" result="effect2_innerShadow_1909_4725"/>
</filter>
</defs>
</svg>
