<svg width="28" height="28" viewBox="0 0 28 28" fill="none" xmlns="http://www.w3.org/2000/svg">
<g filter="url(#filter0_ii_937_1962)">
<path d="M8.87396 11.2714C8.48869 11.2714 8.17835 10.958 8.17835 10.5582C8.17835 10.1801 8.48869 9.86672 8.87396 9.86672H19.1367C19.5113 9.86672 19.8216 10.1801 19.8216 10.5582C19.8216 10.958 19.5113 11.2714 19.1367 11.2714H8.87396ZM8.87396 14.6642C8.478 14.6642 8.17835 14.3616 8.17835 13.9726C8.17835 13.5728 8.478 13.2703 8.87396 13.2703H19.1367C19.522 13.2703 19.8216 13.5728 19.8216 13.9726C19.8216 14.3616 19.522 14.6642 19.1367 14.6642H8.87396ZM8.87396 18.2298C8.48869 18.2298 8.17835 17.9165 8.17835 17.5383C8.17835 17.1493 8.478 16.8359 8.87396 16.8359H15.2857C15.671 16.8359 15.9706 17.1493 15.9706 17.5383C15.9706 17.9165 15.6603 18.2298 15.2857 18.2298H8.87396ZM5 19.6181C5 21.8763 6.10226 23 8.31747 23H19.6825C21.8977 23 23 21.8763 23 19.6181V8.39279C23 6.14534 21.8977 5 19.6825 5H8.31747C6.10226 5 5 6.14534 5 8.39279V19.6181Z" fill="#F0F0F5"/>
</g>
<defs>
<filter id="filter0_ii_937_1962" x="5" y="3" width="18" height="24" filterUnits="userSpaceOnUse" color-interpolation-filters="sRGB">
<feFlood flood-opacity="0" result="BackgroundImageFix"/>
<feBlend mode="normal" in="SourceGraphic" in2="BackgroundImageFix" result="shape"/>
<feColorMatrix in="SourceAlpha" type="matrix" values="0 0 0 0 0 0 0 0 0 0 0 0 0 0 0 0 0 0 127 0" result="hardAlpha"/>
<feOffset dy="-2"/>
<feGaussianBlur stdDeviation="2"/>
<feComposite in2="hardAlpha" operator="arithmetic" k2="-1" k3="1"/>
<feColorMatrix type="matrix" values="0 0 0 0 0 0 0 0 0 0 0 0 0 0 0 0 0 0 0.25 0"/>
<feBlend mode="normal" in2="shape" result="effect1_innerShadow_937_1962"/>
<feColorMatrix in="SourceAlpha" type="matrix" values="0 0 0 0 0 0 0 0 0 0 0 0 0 0 0 0 0 0 127 0" result="hardAlpha"/>
<feOffset dy="4"/>
<feGaussianBlur stdDeviation="2"/>
<feComposite in2="hardAlpha" operator="arithmetic" k2="-1" k3="1"/>
<feColorMatrix type="matrix" values="0 0 0 0 1 0 0 0 0 1 0 0 0 0 1 0 0 0 0.25 0"/>
<feBlend mode="normal" in2="effect1_innerShadow_937_1962" result="effect2_innerShadow_937_1962"/>
</filter>
</defs>
</svg>
